<svg width="1500" height="569" viewBox="0 0 1500 569" fill="none" xmlns="http://www.w3.org/2000/svg">
<path fill-rule="evenodd" clip-rule="evenodd" d="M1091.8 445.423C1091.8 432.365 1102.34 421.781 1115.35 421.781H1313.25C1326.26 421.781 1336.8 432.365 1336.8 445.423V539.99C1336.8 553.047 1326.26 563.632 1313.25 563.632H1115.35C1102.34 563.632 1091.8 553.047 1091.8 539.99V445.423Z" fill="#F2F2F2" stroke="#797A7A" stroke-width="3" stroke-miterlimit="8"/>
<path d="M1164.88 520.444C1162.71 519.82 1161.13 519.055 1160.14 518.15C1159.15 517.236 1158.66 516.111 1158.66 514.775C1158.66 513.263 1159.26 512.015 1160.47 511.031C1161.68 510.038 1163.25 509.541 1165.19 509.541C1166.51 509.541 1167.68 509.796 1168.71 510.306C1169.74 510.815 1170.54 511.519 1171.11 512.415C1171.68 513.312 1171.96 514.292 1171.96 515.355H1169.42C1169.42 514.195 1169.05 513.285 1168.31 512.626C1167.57 511.958 1166.53 511.624 1165.19 511.624C1163.94 511.624 1162.96 511.901 1162.26 512.455C1161.57 513 1161.22 513.76 1161.22 514.735C1161.22 515.518 1161.55 516.181 1162.21 516.726C1162.88 517.262 1164 517.754 1165.6 518.203C1167.2 518.651 1168.44 519.147 1169.34 519.692C1170.25 520.229 1170.91 520.857 1171.34 521.578C1171.78 522.298 1172 523.146 1172 524.122C1172 525.678 1171.4 526.926 1170.18 527.866C1168.97 528.798 1167.35 529.264 1165.32 529.264C1164 529.264 1162.77 529.013 1161.63 528.512C1160.48 528.002 1159.6 527.308 1158.98 526.429C1158.36 525.55 1158.05 524.553 1158.05 523.437H1160.6C1160.6 524.597 1161.03 525.515 1161.88 526.192C1162.74 526.86 1163.89 527.194 1165.32 527.194C1166.65 527.194 1167.68 526.921 1168.39 526.376C1169.1 525.832 1169.46 525.089 1169.46 524.148C1169.46 523.208 1169.13 522.483 1168.47 521.973C1167.81 521.455 1166.62 520.945 1164.88 520.444ZM1180.8 529.264C1178.86 529.264 1177.29 528.631 1176.08 527.365C1174.86 526.091 1174.26 524.39 1174.26 522.263V521.815C1174.26 520.4 1174.53 519.139 1175.06 518.031C1175.61 516.915 1176.36 516.045 1177.33 515.421C1178.3 514.788 1179.36 514.472 1180.49 514.472C1182.35 514.472 1183.79 515.083 1184.82 516.304C1185.85 517.526 1186.36 519.275 1186.36 521.551V522.566H1176.7C1176.73 523.973 1177.14 525.111 1177.92 525.981C1178.71 526.842 1179.72 527.273 1180.93 527.273C1181.79 527.273 1182.52 527.097 1183.12 526.746C1183.71 526.394 1184.24 525.928 1184.69 525.348L1186.18 526.508C1184.98 528.345 1183.19 529.264 1180.8 529.264ZM1180.49 516.476C1179.51 516.476 1178.68 516.836 1178.01 517.557C1177.35 518.269 1176.93 519.271 1176.78 520.562H1183.92V520.378C1183.85 519.139 1183.52 518.181 1182.92 517.504C1182.32 516.818 1181.51 516.476 1180.49 516.476ZM1196.09 516.924C1195.72 516.862 1195.32 516.832 1194.89 516.832C1193.29 516.832 1192.2 517.513 1191.63 518.875V529H1189.19V514.735H1191.57L1191.61 516.383C1192.41 515.109 1193.54 514.472 1195.01 514.472C1195.48 514.472 1195.84 514.533 1196.09 514.656V516.924ZM1203.29 525.691L1206.82 514.735H1209.31L1204.2 529H1202.34L1197.17 514.735H1199.66L1203.29 525.691ZM1214.31 529H1211.87V514.735H1214.31V529ZM1211.67 510.952C1211.67 510.556 1211.79 510.222 1212.03 509.95C1212.27 509.677 1212.63 509.541 1213.11 509.541C1213.58 509.541 1213.94 509.677 1214.19 509.95C1214.44 510.222 1214.56 510.556 1214.56 510.952C1214.56 511.347 1214.44 511.677 1214.19 511.94C1213.94 512.204 1213.58 512.336 1213.11 512.336C1212.63 512.336 1212.27 512.204 1212.03 511.94C1211.79 511.677 1211.67 511.347 1211.67 510.952ZM1223.95 527.273C1224.82 527.273 1225.58 527.009 1226.23 526.482C1226.88 525.955 1227.24 525.295 1227.31 524.504H1229.62C1229.57 525.322 1229.29 526.1 1228.77 526.838C1228.25 527.576 1227.56 528.165 1226.69 528.604C1225.83 529.044 1224.91 529.264 1223.95 529.264C1222 529.264 1220.46 528.618 1219.31 527.326C1218.16 526.025 1217.59 524.25 1217.59 522V521.591C1217.59 520.202 1217.85 518.967 1218.36 517.886C1218.87 516.805 1219.6 515.966 1220.54 515.368C1221.5 514.771 1222.63 514.472 1223.93 514.472C1225.53 514.472 1226.86 514.951 1227.91 515.909C1228.98 516.867 1229.54 518.11 1229.62 519.64H1227.31C1227.24 518.717 1226.89 517.961 1226.25 517.372C1225.63 516.774 1224.86 516.476 1223.93 516.476C1222.69 516.476 1221.73 516.924 1221.05 517.82C1220.37 518.708 1220.03 519.996 1220.03 521.683V522.145C1220.03 523.788 1220.37 525.054 1221.05 525.941C1221.72 526.829 1222.69 527.273 1223.95 527.273ZM1238.28 529.264C1236.34 529.264 1234.77 528.631 1233.56 527.365C1232.34 526.091 1231.74 524.39 1231.74 522.263V521.815C1231.74 520.4 1232.01 519.139 1232.54 518.031C1233.09 516.915 1233.84 516.045 1234.81 515.421C1235.79 514.788 1236.84 514.472 1237.97 514.472C1239.83 514.472 1241.27 515.083 1242.3 516.304C1243.33 517.526 1243.84 519.275 1243.84 521.551V522.566H1234.18C1234.21 523.973 1234.62 525.111 1235.4 525.981C1236.19 526.842 1237.2 527.273 1238.41 527.273C1239.27 527.273 1240 527.097 1240.6 526.746C1241.19 526.394 1241.72 525.928 1242.17 525.348L1243.66 526.508C1242.46 528.345 1240.67 529.264 1238.28 529.264ZM1237.97 516.476C1236.99 516.476 1236.16 516.836 1235.5 517.557C1234.83 518.269 1234.41 519.271 1234.26 520.562H1241.4V520.378C1241.33 519.139 1241 518.181 1240.4 517.504C1239.8 516.818 1238.99 516.476 1237.97 516.476ZM1260.02 517.161L1264.62 509.805H1267.6L1261.53 519.323L1267.74 529H1264.74L1260.02 521.512L1255.27 529H1252.28L1258.5 519.323L1252.42 509.805H1255.39L1260.02 517.161Z" fill="#00010D"/>
<path fill-rule="evenodd" clip-rule="evenodd" d="M1115.13 424H1313.37C1325.04 424 1334.5 433.461 1334.5 445.131V483H1094V445.131C1094 433.461 1103.46 424 1115.13 424Z" fill="#A5A6A6" stroke="#A5A6A6" stroke-width="1.33333" stroke-miterlimit="8"/>
<path d="M1176.5 445.805L1182.77 461.467L1189.05 445.805H1192.33V465H1189.8V457.525L1190.04 449.457L1183.74 465H1181.8L1175.51 449.496L1175.76 457.525V465H1173.23V445.805H1176.5ZM1205.22 465C1205.08 464.719 1204.97 464.218 1204.88 463.497C1203.75 464.675 1202.39 465.264 1200.82 465.264C1199.42 465.264 1198.26 464.868 1197.35 464.077C1196.46 463.277 1196.01 462.267 1196.01 461.045C1196.01 459.56 1196.57 458.408 1197.7 457.591C1198.83 456.765 1200.42 456.352 1202.47 456.352H1204.84V455.231C1204.84 454.378 1204.59 453.702 1204.08 453.201C1203.57 452.691 1202.82 452.436 1201.82 452.436C1200.95 452.436 1200.22 452.656 1199.63 453.095C1199.05 453.535 1198.75 454.066 1198.75 454.69H1196.3C1196.3 453.979 1196.55 453.293 1197.05 452.634C1197.56 451.966 1198.25 451.438 1199.11 451.052C1199.98 450.665 1200.93 450.472 1201.97 450.472C1203.61 450.472 1204.9 450.885 1205.83 451.711C1206.76 452.528 1207.25 453.658 1207.28 455.099V461.665C1207.28 462.974 1207.45 464.016 1207.78 464.789V465H1205.22ZM1201.18 463.141C1201.94 463.141 1202.67 462.943 1203.35 462.548C1204.04 462.152 1204.53 461.638 1204.84 461.005V458.079H1202.93C1199.94 458.079 1198.45 458.953 1198.45 460.702C1198.45 461.467 1198.7 462.064 1199.21 462.495C1199.72 462.926 1200.38 463.141 1201.18 463.141ZM1218 452.924C1217.63 452.862 1217.23 452.832 1216.8 452.832C1215.2 452.832 1214.11 453.513 1213.54 454.875V465H1211.1V450.735H1213.48L1213.52 452.383C1214.32 451.109 1215.45 450.472 1216.92 450.472C1217.39 450.472 1217.75 450.533 1218 450.656V452.924ZM1232.33 458.026C1232.33 460.206 1231.83 461.959 1230.83 463.286C1229.83 464.604 1228.48 465.264 1226.79 465.264C1224.99 465.264 1223.6 464.626 1222.61 463.352L1222.5 465H1220.25V444.75H1222.69V452.304C1223.68 451.083 1225.04 450.472 1226.77 450.472C1228.5 450.472 1229.86 451.126 1230.84 452.436C1231.83 453.746 1232.33 455.539 1232.33 457.815V458.026ZM1229.89 457.749C1229.89 456.088 1229.57 454.805 1228.93 453.899C1228.29 452.994 1227.36 452.542 1226.16 452.542C1224.55 452.542 1223.4 453.289 1222.69 454.783V460.953C1223.44 462.447 1224.6 463.194 1226.19 463.194C1227.36 463.194 1228.27 462.741 1228.92 461.836C1229.57 460.931 1229.89 459.568 1229.89 457.749ZM1238.06 465H1235.63V444.75H1238.06V465ZM1247.9 465.264C1245.97 465.264 1244.39 464.631 1243.18 463.365C1241.97 462.091 1241.36 460.39 1241.36 458.263V457.815C1241.36 456.4 1241.63 455.139 1242.17 454.031C1242.71 452.915 1243.47 452.045 1244.43 451.421C1245.41 450.788 1246.46 450.472 1247.6 450.472C1249.45 450.472 1250.89 451.083 1251.92 452.304C1252.95 453.526 1253.46 455.275 1253.46 457.551V458.566H1243.8C1243.83 459.973 1244.24 461.111 1245.03 461.981C1245.82 462.842 1246.82 463.273 1248.03 463.273C1248.89 463.273 1249.62 463.097 1250.22 462.746C1250.82 462.394 1251.34 461.928 1251.79 461.348L1253.28 462.508C1252.08 464.345 1250.29 465.264 1247.9 465.264ZM1247.6 452.476C1246.61 452.476 1245.79 452.836 1245.12 453.557C1244.45 454.269 1244.04 455.271 1243.88 456.562H1251.02V456.378C1250.95 455.139 1250.62 454.181 1250.02 453.504C1249.42 452.818 1248.62 452.476 1247.6 452.476Z" fill="white"/>
<path fill-rule="evenodd" clip-rule="evenodd" d="M663.229 445.423C663.229 432.365 673.772 421.781 686.778 421.781H884.681C897.687 421.781 908.229 432.365 908.229 445.423V539.99C908.229 553.047 897.687 563.632 884.681 563.632H686.778C673.772 563.632 663.229 553.047 663.229 539.99V445.423Z" fill="#F2F2F2" stroke="#797A7A" stroke-width="3" stroke-miterlimit="8"/>
<path d="M735.884 520.444C733.713 519.82 732.131 519.055 731.138 518.15C730.153 517.236 729.661 516.111 729.661 514.775C729.661 513.263 730.263 512.015 731.467 511.031C732.68 510.038 734.253 509.541 736.187 509.541C737.505 509.541 738.679 509.796 739.707 510.306C740.744 510.815 741.544 511.519 742.106 512.415C742.678 513.312 742.963 514.292 742.963 515.355H740.419C740.419 514.195 740.05 513.285 739.312 512.626C738.573 511.958 737.532 511.624 736.187 511.624C734.939 511.624 733.963 511.901 733.26 512.455C732.566 513 732.219 513.76 732.219 514.735C732.219 515.518 732.548 516.181 733.208 516.726C733.875 517.262 735.005 517.754 736.596 518.203C738.195 518.651 739.443 519.147 740.34 519.692C741.245 520.229 741.913 520.857 742.344 521.578C742.783 522.298 743.003 523.146 743.003 524.122C743.003 525.678 742.396 526.926 741.184 527.866C739.971 528.798 738.349 529.264 736.319 529.264C735 529.264 733.77 529.013 732.627 528.512C731.485 528.002 730.602 527.308 729.978 526.429C729.362 525.55 729.055 524.553 729.055 523.437H731.599C731.599 524.597 732.025 525.515 732.878 526.192C733.739 526.86 734.886 527.194 736.319 527.194C737.655 527.194 738.679 526.921 739.391 526.376C740.103 525.832 740.458 525.089 740.458 524.148C740.458 523.208 740.129 522.483 739.47 521.973C738.811 521.455 737.615 520.945 735.884 520.444ZM751.796 529.264C749.863 529.264 748.29 528.631 747.077 527.365C745.864 526.091 745.257 524.39 745.257 522.263V521.815C745.257 520.4 745.525 519.139 746.062 518.031C746.606 516.915 747.362 516.045 748.329 515.421C749.305 514.788 750.359 514.472 751.493 514.472C753.348 514.472 754.789 515.083 755.817 516.304C756.846 517.526 757.36 519.275 757.36 521.551V522.566H747.696C747.731 523.973 748.14 525.111 748.922 525.981C749.713 526.842 750.715 527.273 751.928 527.273C752.79 527.273 753.519 527.097 754.117 526.746C754.714 526.394 755.237 525.928 755.686 525.348L757.175 526.508C755.98 528.345 754.187 529.264 751.796 529.264ZM751.493 516.476C750.509 516.476 749.683 516.836 749.015 517.557C748.347 518.269 747.934 519.271 747.775 520.562H754.921V520.378C754.851 519.139 754.517 518.181 753.919 517.504C753.321 516.818 752.513 516.476 751.493 516.476ZM767.089 516.924C766.72 516.862 766.32 516.832 765.89 516.832C764.29 516.832 763.205 517.513 762.633 518.875V529H760.194V514.735H762.567L762.607 516.383C763.407 515.109 764.541 514.472 766.008 514.472C766.483 514.472 766.843 514.533 767.089 514.656V516.924ZM774.288 525.691L777.821 514.735H780.312L775.197 529H773.338L768.17 514.735H770.662L774.288 525.691ZM785.309 529H782.87V514.735H785.309V529ZM782.672 510.952C782.672 510.556 782.791 510.222 783.028 509.95C783.274 509.677 783.635 509.541 784.109 509.541C784.584 509.541 784.944 509.677 785.19 509.95C785.437 510.222 785.56 510.556 785.56 510.952C785.56 511.347 785.437 511.677 785.19 511.94C784.944 512.204 784.584 512.336 784.109 512.336C783.635 512.336 783.274 512.204 783.028 511.94C782.791 511.677 782.672 511.347 782.672 510.952ZM794.946 527.273C795.816 527.273 796.577 527.009 797.227 526.482C797.877 525.955 798.238 525.295 798.308 524.504H800.615C800.571 525.322 800.29 526.1 799.771 526.838C799.253 527.576 798.559 528.165 797.688 528.604C796.827 529.044 795.913 529.264 794.946 529.264C793.004 529.264 791.457 528.618 790.306 527.326C789.163 526.025 788.592 524.25 788.592 522V521.591C788.592 520.202 788.847 518.967 789.356 517.886C789.866 516.805 790.596 515.966 791.545 515.368C792.503 514.771 793.632 514.472 794.933 514.472C796.533 514.472 797.86 514.951 798.915 515.909C799.978 516.867 800.545 518.11 800.615 519.64H798.308C798.238 518.717 797.886 517.961 797.253 517.372C796.629 516.774 795.856 516.476 794.933 516.476C793.694 516.476 792.731 516.924 792.046 517.82C791.369 518.708 791.031 519.996 791.031 521.683V522.145C791.031 523.788 791.369 525.054 792.046 525.941C792.723 526.829 793.689 527.273 794.946 527.273ZM809.277 529.264C807.343 529.264 805.77 528.631 804.557 527.365C803.344 526.091 802.738 524.39 802.738 522.263V521.815C802.738 520.4 803.006 519.139 803.542 518.031C804.087 516.915 804.843 516.045 805.81 515.421C806.785 514.788 807.84 514.472 808.974 514.472C810.828 514.472 812.27 515.083 813.298 516.304C814.326 517.526 814.84 519.275 814.84 521.551V522.566H805.177C805.212 523.973 805.621 525.111 806.403 525.981C807.194 526.842 808.196 527.273 809.409 527.273C810.27 527.273 811 527.097 811.597 526.746C812.195 526.394 812.718 525.928 813.166 525.348L814.656 526.508C813.46 528.345 811.667 529.264 809.277 529.264ZM808.974 516.476C807.989 516.476 807.163 516.836 806.495 517.557C805.827 518.269 805.414 519.271 805.256 520.562H812.401V520.378C812.331 519.139 811.997 518.181 811.399 517.504C810.802 516.818 809.993 516.476 808.974 516.476ZM824.754 529V509.805H831.03C833.113 509.805 834.677 510.235 835.723 511.097C836.778 511.958 837.305 513.232 837.305 514.92C837.305 515.816 837.05 516.612 836.541 517.306C836.031 517.992 835.336 518.523 834.458 518.901C835.495 519.191 836.312 519.745 836.91 520.562C837.516 521.371 837.819 522.338 837.819 523.463C837.819 525.186 837.261 526.539 836.145 527.523C835.029 528.508 833.451 529 831.412 529H824.754ZM827.286 520.022V526.93H831.465C832.643 526.93 833.57 526.627 834.247 526.021C834.932 525.405 835.275 524.562 835.275 523.489C835.275 521.178 834.018 520.022 831.504 520.022H827.286ZM827.286 517.992H831.109C832.216 517.992 833.1 517.715 833.759 517.161C834.427 516.607 834.761 515.856 834.761 514.907C834.761 513.852 834.453 513.087 833.838 512.613C833.223 512.129 832.287 511.888 831.03 511.888H827.286V517.992Z" fill="#00010D"/>
<path fill-rule="evenodd" clip-rule="evenodd" d="M686.154 424H884.646C896.329 424 905.8 433.301 905.8 444.773V482H665V444.773C665 433.301 674.471 424 686.154 424Z" fill="#A5A6A6" stroke="#A5A6A6" stroke-width="1.33333" stroke-miterlimit="8"/>
<path d="M747.498 445.805L753.773 461.467L760.048 445.805H763.331V465H760.8V457.525L761.037 449.457L754.735 465H752.797L746.509 449.496L746.759 457.525V465H744.228V445.805H747.498ZM776.225 465C776.084 464.719 775.97 464.218 775.882 463.497C774.748 464.675 773.395 465.264 771.821 465.264C770.415 465.264 769.259 464.868 768.354 464.077C767.458 463.277 767.009 462.267 767.009 461.045C767.009 459.56 767.572 458.408 768.697 457.591C769.831 456.765 771.421 456.352 773.469 456.352H775.842V455.231C775.842 454.378 775.587 453.702 775.078 453.201C774.568 452.691 773.816 452.436 772.823 452.436C771.953 452.436 771.224 452.656 770.635 453.095C770.046 453.535 769.751 454.066 769.751 454.69H767.299C767.299 453.979 767.55 453.293 768.051 452.634C768.561 451.966 769.246 451.438 770.107 451.052C770.978 450.665 771.931 450.472 772.968 450.472C774.612 450.472 775.899 450.885 776.831 451.711C777.763 452.528 778.246 453.658 778.281 455.099V461.665C778.281 462.974 778.448 464.016 778.782 464.789V465H776.225ZM772.177 463.141C772.942 463.141 773.667 462.943 774.353 462.548C775.038 462.152 775.535 461.638 775.842 461.005V458.079H773.931C770.942 458.079 769.448 458.953 769.448 460.702C769.448 461.467 769.703 462.064 770.213 462.495C770.723 462.926 771.377 463.141 772.177 463.141ZM789 452.924C788.63 452.862 788.23 452.832 787.8 452.832C786.2 452.832 785.115 453.513 784.543 454.875V465H782.104V450.735H784.478L784.517 452.383C785.317 451.109 786.451 450.472 787.918 450.472C788.393 450.472 788.753 450.533 789 450.656V452.924ZM803.33 458.026C803.33 460.206 802.829 461.959 801.827 463.286C800.825 464.604 799.48 465.264 797.793 465.264C795.991 465.264 794.598 464.626 793.614 463.352L793.495 465H791.254V444.75H793.693V452.304C794.677 451.083 796.035 450.472 797.767 450.472C799.498 450.472 800.856 451.126 801.84 452.436C802.833 453.746 803.33 455.539 803.33 457.815V458.026ZM800.891 457.749C800.891 456.088 800.57 454.805 799.929 453.899C799.287 452.994 798.364 452.542 797.16 452.542C795.552 452.542 794.396 453.289 793.693 454.783V460.953C794.44 462.447 795.604 463.194 797.187 463.194C798.355 463.194 799.265 462.741 799.916 461.836C800.566 460.931 800.891 459.568 800.891 457.749ZM809.065 465H806.626V444.75H809.065V465ZM818.9 465.264C816.966 465.264 815.393 464.631 814.18 463.365C812.967 462.091 812.361 460.39 812.361 458.263V457.815C812.361 456.4 812.629 455.139 813.165 454.031C813.71 452.915 814.466 452.045 815.433 451.421C816.408 450.788 817.463 450.472 818.597 450.472C820.451 450.472 821.893 451.083 822.921 452.304C823.949 453.526 824.463 455.275 824.463 457.551V458.566H814.8C814.835 459.973 815.244 461.111 816.026 461.981C816.817 462.842 817.819 463.273 819.032 463.273C819.893 463.273 820.623 463.097 821.22 462.746C821.818 462.394 822.341 461.928 822.789 461.348L824.279 462.508C823.083 464.345 821.291 465.264 818.9 465.264ZM818.597 452.476C817.612 452.476 816.786 452.836 816.118 453.557C815.45 454.269 815.037 455.271 814.879 456.562H822.024V456.378C821.954 455.139 821.62 454.181 821.022 453.504C820.425 452.818 819.616 452.476 818.597 452.476Z" fill="white"/>
<path fill-rule="evenodd" clip-rule="evenodd" d="M234.658 446.932C234.658 433.874 245.201 423.29 258.207 423.29H456.11C469.116 423.29 479.658 433.874 479.658 446.932V541.498C479.658 554.556 469.116 565.141 456.11 565.141H258.207C245.201 565.141 234.658 554.556 234.658 541.498V446.932Z" fill="#F2F2F2" stroke="#797A7A" stroke-width="3" stroke-miterlimit="8"/>
<path d="M305.884 520.444C303.713 519.82 302.131 519.055 301.138 518.15C300.153 517.236 299.661 516.111 299.661 514.775C299.661 513.263 300.263 512.015 301.467 511.031C302.68 510.038 304.253 509.541 306.187 509.541C307.505 509.541 308.679 509.796 309.707 510.306C310.744 510.815 311.544 511.519 312.106 512.415C312.678 513.312 312.963 514.292 312.963 515.355H310.419C310.419 514.195 310.05 513.285 309.312 512.626C308.573 511.958 307.532 511.624 306.187 511.624C304.939 511.624 303.963 511.901 303.26 512.455C302.566 513 302.219 513.76 302.219 514.735C302.219 515.518 302.548 516.181 303.208 516.726C303.875 517.262 305.005 517.754 306.596 518.203C308.195 518.651 309.443 519.147 310.34 519.692C311.245 520.229 311.913 520.857 312.344 521.578C312.783 522.298 313.003 523.146 313.003 524.122C313.003 525.678 312.396 526.926 311.184 527.866C309.971 528.798 308.349 529.264 306.319 529.264C305 529.264 303.77 529.013 302.627 528.512C301.485 528.002 300.602 527.308 299.978 526.429C299.362 525.55 299.055 524.553 299.055 523.437H301.599C301.599 524.597 302.025 525.515 302.878 526.192C303.739 526.86 304.886 527.194 306.319 527.194C307.655 527.194 308.679 526.921 309.391 526.376C310.103 525.832 310.458 525.089 310.458 524.148C310.458 523.208 310.129 522.483 309.47 521.973C308.811 521.455 307.615 520.945 305.884 520.444ZM321.796 529.264C319.863 529.264 318.29 528.631 317.077 527.365C315.864 526.091 315.257 524.39 315.257 522.263V521.815C315.257 520.4 315.525 519.139 316.062 518.031C316.606 516.915 317.362 516.045 318.329 515.421C319.305 514.788 320.359 514.472 321.493 514.472C323.348 514.472 324.789 515.083 325.817 516.304C326.846 517.526 327.36 519.275 327.36 521.551V522.566H317.696C317.731 523.973 318.14 525.111 318.922 525.981C319.713 526.842 320.715 527.273 321.928 527.273C322.79 527.273 323.519 527.097 324.117 526.746C324.714 526.394 325.237 525.928 325.686 525.348L327.175 526.508C325.98 528.345 324.187 529.264 321.796 529.264ZM321.493 516.476C320.509 516.476 319.683 516.836 319.015 517.557C318.347 518.269 317.934 519.271 317.775 520.562H324.921V520.378C324.851 519.139 324.517 518.181 323.919 517.504C323.321 516.818 322.513 516.476 321.493 516.476ZM337.089 516.924C336.72 516.862 336.32 516.832 335.89 516.832C334.29 516.832 333.205 517.513 332.633 518.875V529H330.194V514.735H332.567L332.607 516.383C333.407 515.109 334.541 514.472 336.008 514.472C336.483 514.472 336.843 514.533 337.089 514.656V516.924ZM344.288 525.691L347.821 514.735H350.312L345.197 529H343.338L338.17 514.735H340.662L344.288 525.691ZM355.309 529H352.87V514.735H355.309V529ZM352.672 510.952C352.672 510.556 352.791 510.222 353.028 509.95C353.274 509.677 353.635 509.541 354.109 509.541C354.584 509.541 354.944 509.677 355.19 509.95C355.437 510.222 355.56 510.556 355.56 510.952C355.56 511.347 355.437 511.677 355.19 511.94C354.944 512.204 354.584 512.336 354.109 512.336C353.635 512.336 353.274 512.204 353.028 511.94C352.791 511.677 352.672 511.347 352.672 510.952ZM364.946 527.273C365.816 527.273 366.577 527.009 367.227 526.482C367.877 525.955 368.238 525.295 368.308 524.504H370.615C370.571 525.322 370.29 526.1 369.771 526.838C369.253 527.576 368.559 528.165 367.688 528.604C366.827 529.044 365.913 529.264 364.946 529.264C363.004 529.264 361.457 528.618 360.306 527.326C359.163 526.025 358.592 524.25 358.592 522V521.591C358.592 520.202 358.847 518.967 359.356 517.886C359.866 516.805 360.596 515.966 361.545 515.368C362.503 514.771 363.632 514.472 364.933 514.472C366.533 514.472 367.86 514.951 368.915 515.909C369.978 516.867 370.545 518.11 370.615 519.64H368.308C368.238 518.717 367.886 517.961 367.253 517.372C366.629 516.774 365.856 516.476 364.933 516.476C363.694 516.476 362.731 516.924 362.046 517.82C361.369 518.708 361.031 519.996 361.031 521.683V522.145C361.031 523.788 361.369 525.054 362.046 525.941C362.723 526.829 363.689 527.273 364.946 527.273ZM379.277 529.264C377.343 529.264 375.77 528.631 374.557 527.365C373.344 526.091 372.738 524.39 372.738 522.263V521.815C372.738 520.4 373.006 519.139 373.542 518.031C374.087 516.915 374.843 516.045 375.81 515.421C376.785 514.788 377.84 514.472 378.974 514.472C380.828 514.472 382.27 515.083 383.298 516.304C384.326 517.526 384.84 519.275 384.84 521.551V522.566H375.177C375.212 523.973 375.621 525.111 376.403 525.981C377.194 526.842 378.196 527.273 379.409 527.273C380.27 527.273 381 527.097 381.597 526.746C382.195 526.394 382.718 525.928 383.166 525.348L384.656 526.508C383.46 528.345 381.667 529.264 379.277 529.264ZM378.974 516.476C377.989 516.476 377.163 516.836 376.495 517.557C375.827 518.269 375.414 519.271 375.256 520.562H382.401V520.378C382.331 519.139 381.997 518.181 381.399 517.504C380.802 516.818 379.993 516.476 378.974 516.476ZM405.354 523.99H397.312L395.506 529H392.896L400.226 509.805H402.44L409.784 529H407.187L405.354 523.99ZM398.077 521.907H404.603L401.333 512.929L398.077 521.907Z" fill="#00010D"/>
<path fill-rule="evenodd" clip-rule="evenodd" d="M257.847 425.308H456.504C468.196 425.308 477.676 434.745 477.676 446.386V484.161H236.676V446.386C236.676 434.745 246.155 425.308 257.847 425.308Z" fill="#A5A6A6" stroke="#A5A6A6" stroke-width="1.33333" stroke-miterlimit="8"/>
<path d="M319.498 445.805L325.773 461.467L332.048 445.805H335.331V465H332.8V457.525L333.037 449.457L326.735 465H324.797L318.509 449.496L318.759 457.525V465H316.228V445.805H319.498ZM348.225 465C348.084 464.719 347.97 464.218 347.882 463.497C346.748 464.675 345.395 465.264 343.821 465.264C342.415 465.264 341.259 464.868 340.354 464.077C339.458 463.277 339.009 462.267 339.009 461.045C339.009 459.56 339.572 458.408 340.697 457.591C341.831 456.765 343.421 456.352 345.469 456.352H347.842V455.231C347.842 454.378 347.587 453.702 347.078 453.201C346.568 452.691 345.816 452.436 344.823 452.436C343.953 452.436 343.224 452.656 342.635 453.095C342.046 453.535 341.751 454.066 341.751 454.69H339.299C339.299 453.979 339.55 453.293 340.051 452.634C340.561 451.966 341.246 451.438 342.107 451.052C342.978 450.665 343.931 450.472 344.968 450.472C346.612 450.472 347.899 450.885 348.831 451.711C349.763 452.528 350.246 453.658 350.281 455.099V461.665C350.281 462.974 350.448 464.016 350.782 464.789V465H348.225ZM344.177 463.141C344.942 463.141 345.667 462.943 346.353 462.548C347.038 462.152 347.535 461.638 347.842 461.005V458.079H345.931C342.942 458.079 341.448 458.953 341.448 460.702C341.448 461.467 341.703 462.064 342.213 462.495C342.723 462.926 343.377 463.141 344.177 463.141ZM361 452.924C360.63 452.862 360.23 452.832 359.8 452.832C358.2 452.832 357.115 453.513 356.543 454.875V465H354.104V450.735H356.478L356.517 452.383C357.317 451.109 358.451 450.472 359.918 450.472C360.393 450.472 360.753 450.533 361 450.656V452.924ZM375.33 458.026C375.33 460.206 374.829 461.959 373.827 463.286C372.825 464.604 371.48 465.264 369.793 465.264C367.991 465.264 366.598 464.626 365.614 463.352L365.495 465H363.254V444.75H365.693V452.304C366.677 451.083 368.035 450.472 369.767 450.472C371.498 450.472 372.856 451.126 373.84 452.436C374.833 453.746 375.33 455.539 375.33 457.815V458.026ZM372.891 457.749C372.891 456.088 372.57 454.805 371.929 453.899C371.287 452.994 370.364 452.542 369.16 452.542C367.552 452.542 366.396 453.289 365.693 454.783V460.953C366.44 462.447 367.604 463.194 369.187 463.194C370.355 463.194 371.265 462.741 371.916 461.836C372.566 460.931 372.891 459.568 372.891 457.749ZM381.065 465H378.626V444.75H381.065V465ZM390.9 465.264C388.966 465.264 387.393 464.631 386.18 463.365C384.967 462.091 384.361 460.39 384.361 458.263V457.815C384.361 456.4 384.629 455.139 385.165 454.031C385.71 452.915 386.466 452.045 387.433 451.421C388.408 450.788 389.463 450.472 390.597 450.472C392.451 450.472 393.893 451.083 394.921 452.304C395.949 453.526 396.463 455.275 396.463 457.551V458.566H386.8C386.835 459.973 387.244 461.111 388.026 461.981C388.817 462.842 389.819 463.273 391.032 463.273C391.893 463.273 392.623 463.097 393.22 462.746C393.818 462.394 394.341 461.928 394.789 461.348L396.279 462.508C395.083 464.345 393.291 465.264 390.9 465.264ZM390.597 452.476C389.612 452.476 388.786 452.836 388.118 453.557C387.45 454.269 387.037 455.271 386.879 456.562H394.024V456.378C393.954 455.139 393.62 454.181 393.022 453.504C392.425 452.818 391.616 452.476 390.597 452.476Z" fill="white"/>
<path d="M1315.03 100.578L940.136 99.5975L940.145 96.5794L1315.04 97.5603L1315.03 100.578ZM1313.04 93.0271L1325.1 99.095L1313.01 105.1L1313.04 93.0271Z" fill="#00010D"/>
<path d="M250.51 99.8509L620.83 98.1354L620.816 95.1174L250.496 96.8328L250.51 99.8509ZM618.839 102.672L630.883 96.5798L618.783 90.5996L618.839 102.672Z" fill="#00010D"/>
<path d="M877.952 142.536L1207.13 412.497L1205.22 414.83L876.038 144.871L877.952 142.536ZM874.722 149.647L869.216 137.324L882.378 140.312L874.722 149.647ZM1208.44 407.719L1213.95 420.042L1200.79 417.054L1208.44 407.719Z" fill="#00010D"/>
<path d="M786.263 147.377L787.459 409.848L784.441 409.862L783.245 147.391L786.263 147.377ZM778.727 149.423L784.708 137.324L790.799 149.369L778.727 149.423ZM791.978 407.816L785.996 419.917L779.905 407.871L791.978 407.816Z" fill="#00010D"/>
<path d="M675.265 144.315L364.228 416.021L366.214 418.295L677.251 146.588L675.265 144.315ZM678.713 151.321L683.834 138.833L670.771 142.229L678.713 151.321ZM362.766 411.288L357.646 423.776L370.708 420.38L362.766 411.288Z" fill="#00010D"/>
<path d="M202.214 70.9254C202.214 84.2609 191.404 95.0703 178.069 95.0703C164.733 95.0703 153.924 84.2609 153.924 70.9254C153.924 57.5899 164.733 46.7805 178.069 46.7805C191.404 46.7805 202.214 57.5899 202.214 70.9254Z" fill="black"/>
<path d="M226.359 149.396V125.251C226.359 121.63 224.548 118.008 221.53 115.593C214.89 110.161 206.439 106.539 197.989 104.125C191.952 102.314 185.312 101.106 178.069 101.106C171.429 101.106 164.789 102.314 158.15 104.125C149.699 106.539 141.248 110.764 134.608 115.593C131.59 118.008 129.779 121.63 129.779 125.251V149.396H226.359Z" fill="black"/>
<path d="M73.228 189V169.805H78.6465C80.3164 169.805 81.793 170.174 83.0762 170.912C84.3594 171.65 85.3481 172.701 86.0425 174.063C86.7456 175.425 87.1016 176.99 87.1104 178.756V179.982C87.1104 181.793 86.7588 183.379 86.0557 184.742C85.3613 186.104 84.3638 187.15 83.063 187.879C81.771 188.609 80.2637 188.982 78.541 189H73.228ZM75.7593 171.888V186.93H78.4224C80.3735 186.93 81.8896 186.324 82.9707 185.111C84.0605 183.898 84.6055 182.171 84.6055 179.93V178.809C84.6055 176.629 84.0913 174.938 83.063 173.733C82.0435 172.521 80.5933 171.905 78.7124 171.888H75.7593ZM96.4839 189.264C94.5503 189.264 92.9771 188.631 91.7642 187.365C90.5513 186.091 89.9448 184.39 89.9448 182.263V181.815C89.9448 180.4 90.2129 179.139 90.749 178.031C91.2939 176.915 92.0498 176.045 93.0166 175.421C93.9922 174.788 95.0469 174.472 96.1807 174.472C98.0352 174.472 99.4766 175.083 100.505 176.304C101.533 177.526 102.047 179.275 102.047 181.551V182.566H92.3838C92.4189 183.973 92.8276 185.111 93.6099 185.981C94.4009 186.842 95.4028 187.273 96.6157 187.273C97.4771 187.273 98.2065 187.097 98.8042 186.746C99.4019 186.394 99.9248 185.928 100.373 185.348L101.863 186.508C100.667 188.345 98.8745 189.264 96.4839 189.264ZM96.1807 176.476C95.1963 176.476 94.3701 176.836 93.7021 177.557C93.0342 178.269 92.6211 179.271 92.4629 180.562H99.6084V180.378C99.5381 179.139 99.2041 178.181 98.6064 177.504C98.0088 176.818 97.2002 176.476 96.1807 176.476ZM109.404 185.691L112.937 174.735H115.429L110.313 189H108.455L103.287 174.735H105.778L109.404 185.691ZM132.923 180.022C132.923 181.903 132.607 183.546 131.974 184.953C131.341 186.35 130.445 187.418 129.285 188.156C128.125 188.895 126.771 189.264 125.224 189.264C123.712 189.264 122.372 188.895 121.203 188.156C120.034 187.409 119.125 186.35 118.474 184.979C117.833 183.599 117.503 182.004 117.485 180.193V178.809C117.485 176.963 117.806 175.333 118.448 173.918C119.089 172.503 119.995 171.422 121.164 170.675C122.341 169.919 123.686 169.541 125.198 169.541C126.736 169.541 128.089 169.915 129.258 170.662C130.436 171.4 131.341 172.477 131.974 173.892C132.607 175.298 132.923 176.937 132.923 178.809V180.022ZM130.405 178.783C130.405 176.506 129.948 174.762 129.034 173.549C128.12 172.327 126.841 171.716 125.198 171.716C123.598 171.716 122.337 172.327 121.414 173.549C120.5 174.762 120.03 176.449 120.003 178.611V180.022C120.003 182.228 120.465 183.964 121.388 185.229C122.319 186.486 123.598 187.115 125.224 187.115C126.859 187.115 128.125 186.521 129.021 185.335C129.917 184.14 130.379 182.43 130.405 180.207V178.783ZM148.388 182.026C148.388 184.197 147.891 185.946 146.898 187.273C145.905 188.6 144.56 189.264 142.864 189.264C141.132 189.264 139.77 188.714 138.777 187.616V194.484H136.338V174.735H138.566L138.685 176.317C139.678 175.087 141.058 174.472 142.824 174.472C144.538 174.472 145.892 175.118 146.885 176.41C147.887 177.702 148.388 179.499 148.388 181.802V182.026ZM145.949 181.749C145.949 180.141 145.606 178.871 144.92 177.939C144.235 177.007 143.294 176.542 142.099 176.542C140.623 176.542 139.515 177.196 138.777 178.506V185.322C139.506 186.623 140.623 187.273 142.125 187.273C143.294 187.273 144.222 186.812 144.907 185.889C145.602 184.957 145.949 183.577 145.949 181.749ZM159.805 185.216C159.805 184.557 159.554 184.047 159.053 183.687C158.561 183.318 157.695 183.001 156.456 182.738C155.226 182.474 154.246 182.158 153.516 181.789C152.795 181.419 152.259 180.98 151.908 180.47C151.565 179.96 151.394 179.354 151.394 178.651C151.394 177.482 151.886 176.493 152.87 175.685C153.863 174.876 155.129 174.472 156.667 174.472C158.284 174.472 159.594 174.889 160.596 175.724C161.606 176.559 162.112 177.627 162.112 178.928H159.66C159.66 178.26 159.374 177.684 158.803 177.201C158.24 176.717 157.528 176.476 156.667 176.476C155.779 176.476 155.085 176.669 154.584 177.056C154.083 177.442 153.833 177.948 153.833 178.572C153.833 179.161 154.065 179.604 154.531 179.903C154.997 180.202 155.836 180.488 157.049 180.76C158.271 181.033 159.26 181.358 160.016 181.736C160.771 182.114 161.33 182.571 161.69 183.107C162.059 183.634 162.244 184.28 162.244 185.045C162.244 186.319 161.734 187.343 160.714 188.117C159.695 188.881 158.372 189.264 156.746 189.264C155.604 189.264 154.593 189.062 153.714 188.657C152.835 188.253 152.145 187.69 151.644 186.97C151.152 186.24 150.906 185.454 150.906 184.61H153.345C153.389 185.427 153.714 186.078 154.32 186.561C154.936 187.036 155.744 187.273 156.746 187.273C157.669 187.273 158.407 187.088 158.961 186.719C159.523 186.341 159.805 185.84 159.805 185.216ZM178.038 189.264C176.104 189.264 174.531 188.631 173.318 187.365C172.105 186.091 171.499 184.39 171.499 182.263V181.815C171.499 180.4 171.767 179.139 172.303 178.031C172.848 176.915 173.604 176.045 174.57 175.421C175.546 174.788 176.601 174.472 177.734 174.472C179.589 174.472 181.03 175.083 182.059 176.304C183.087 177.526 183.601 179.275 183.601 181.551V182.566H173.938C173.973 183.973 174.381 185.111 175.164 185.981C175.955 186.842 176.957 187.273 178.169 187.273C179.031 187.273 179.76 187.097 180.358 186.746C180.956 186.394 181.479 185.928 181.927 185.348L183.417 186.508C182.221 188.345 180.428 189.264 178.038 189.264ZM177.734 176.476C176.75 176.476 175.924 176.836 175.256 177.557C174.588 178.269 174.175 179.271 174.017 180.562H181.162V180.378C181.092 179.139 180.758 178.181 180.16 177.504C179.562 176.818 178.754 176.476 177.734 176.476ZM188.743 174.735L188.822 176.528C189.912 175.157 191.335 174.472 193.093 174.472C196.108 174.472 197.628 176.172 197.655 179.574V189H195.216V179.561C195.207 178.532 194.97 177.772 194.504 177.28C194.047 176.788 193.331 176.542 192.355 176.542C191.564 176.542 190.87 176.752 190.272 177.174C189.674 177.596 189.208 178.15 188.875 178.835V189H186.436V174.735H188.743ZM200.753 181.749C200.753 179.525 201.267 177.759 202.295 176.449C203.324 175.131 204.686 174.472 206.382 174.472C208.123 174.472 209.48 175.087 210.456 176.317L210.575 174.735H212.803V188.657C212.803 190.503 212.253 191.958 211.155 193.021C210.065 194.084 208.597 194.616 206.751 194.616C205.723 194.616 204.717 194.396 203.732 193.957C202.748 193.518 201.997 192.916 201.478 192.151L202.744 190.688C203.79 191.979 205.068 192.625 206.58 192.625C207.767 192.625 208.689 192.292 209.349 191.624C210.017 190.956 210.351 190.015 210.351 188.802V187.576C209.375 188.701 208.043 189.264 206.356 189.264C204.686 189.264 203.333 188.591 202.295 187.247C201.267 185.902 200.753 184.069 200.753 181.749ZM203.205 182.026C203.205 183.634 203.535 184.9 204.194 185.823C204.853 186.737 205.776 187.194 206.962 187.194C208.5 187.194 209.63 186.495 210.351 185.098V178.585C209.604 177.223 208.483 176.542 206.989 176.542C205.802 176.542 204.875 177.003 204.207 177.926C203.539 178.849 203.205 180.215 203.205 182.026ZM219.144 189H216.705V174.735H219.144V189ZM216.507 170.952C216.507 170.556 216.626 170.222 216.863 169.95C217.109 169.677 217.47 169.541 217.944 169.541C218.419 169.541 218.779 169.677 219.025 169.95C219.271 170.222 219.395 170.556 219.395 170.952C219.395 171.347 219.271 171.677 219.025 171.94C218.779 172.204 218.419 172.336 217.944 172.336C217.47 172.336 217.109 172.204 216.863 171.94C216.626 171.677 216.507 171.347 216.507 170.952ZM225.367 174.735L225.446 176.528C226.536 175.157 227.959 174.472 229.717 174.472C232.732 174.472 234.252 176.172 234.279 179.574V189H231.84V179.561C231.831 178.532 231.594 177.772 231.128 177.28C230.671 176.788 229.955 176.542 228.979 176.542C228.188 176.542 227.494 176.752 226.896 177.174C226.298 177.596 225.833 178.15 225.499 178.835V189H223.06V174.735H225.367ZM243.876 189.264C241.943 189.264 240.37 188.631 239.157 187.365C237.944 186.091 237.337 184.39 237.337 182.263V181.815C237.337 180.4 237.605 179.139 238.142 178.031C238.687 176.915 239.442 176.045 240.409 175.421C241.385 174.788 242.439 174.472 243.573 174.472C245.428 174.472 246.869 175.083 247.897 176.304C248.926 177.526 249.44 179.275 249.44 181.551V182.566H239.776C239.812 183.973 240.22 185.111 241.002 185.981C241.793 186.842 242.795 187.273 244.008 187.273C244.87 187.273 245.599 187.097 246.197 186.746C246.794 186.394 247.317 185.928 247.766 185.348L249.255 186.508C248.06 188.345 246.267 189.264 243.876 189.264ZM243.573 176.476C242.589 176.476 241.763 176.836 241.095 177.557C240.427 178.269 240.014 179.271 239.855 180.562H247.001V180.378C246.931 179.139 246.597 178.181 245.999 177.504C245.401 176.818 244.593 176.476 243.573 176.476ZM258.194 189.264C256.26 189.264 254.687 188.631 253.474 187.365C252.261 186.091 251.655 184.39 251.655 182.263V181.815C251.655 180.4 251.923 179.139 252.459 178.031C253.004 176.915 253.76 176.045 254.727 175.421C255.702 174.788 256.757 174.472 257.891 174.472C259.745 174.472 261.187 175.083 262.215 176.304C263.243 177.526 263.757 179.275 263.757 181.551V182.566H254.094C254.129 183.973 254.538 185.111 255.32 185.981C256.111 186.842 257.113 187.273 258.326 187.273C259.187 187.273 259.917 187.097 260.514 186.746C261.112 186.394 261.635 185.928 262.083 185.348L263.573 186.508C262.377 188.345 260.584 189.264 258.194 189.264ZM257.891 176.476C256.906 176.476 256.08 176.836 255.412 177.557C254.744 178.269 254.331 179.271 254.173 180.562H261.318V180.378C261.248 179.139 260.914 178.181 260.316 177.504C259.719 176.818 258.91 176.476 257.891 176.476ZM273.487 176.924C273.118 176.862 272.718 176.832 272.287 176.832C270.688 176.832 269.602 177.513 269.031 178.875V189H266.592V174.735H268.965L269.004 176.383C269.804 175.109 270.938 174.472 272.406 174.472C272.88 174.472 273.241 174.533 273.487 174.656V176.924Z" fill="#00010D"/>
<path d="M1421.53 70.9254C1421.53 84.2609 1410.72 95.0703 1397.38 95.0703C1384.05 95.0703 1373.24 84.2609 1373.24 70.9254C1373.24 57.5899 1384.05 46.7805 1397.38 46.7805C1410.72 46.7805 1421.53 57.5899 1421.53 70.9254Z" fill="#90FF99"/>
<path d="M1445.67 149.396V125.251C1445.67 121.63 1443.86 118.008 1440.85 115.593C1434.21 110.161 1425.75 106.539 1417.3 104.125C1411.27 102.314 1404.63 101.106 1397.38 101.106C1390.74 101.106 1384.1 102.314 1377.46 104.125C1369.01 106.539 1360.56 110.764 1353.92 115.593C1350.91 118.008 1349.09 121.63 1349.09 125.251V149.396H1445.67Z" fill="#90FF99"/>
<path d="M1388.74 169.805V182.856C1388.73 184.667 1388.16 186.148 1387.03 187.299C1385.9 188.451 1384.37 189.097 1382.44 189.237L1381.77 189.264C1379.67 189.264 1377.99 188.697 1376.74 187.563C1375.5 186.429 1374.86 184.869 1374.85 182.883V169.805H1377.35V182.804C1377.35 184.192 1377.73 185.273 1378.5 186.047C1379.26 186.812 1380.35 187.194 1381.77 187.194C1383.2 187.194 1384.29 186.812 1385.05 186.047C1385.81 185.282 1386.2 184.206 1386.2 182.817V169.805H1388.74ZM1400.66 185.216C1400.66 184.557 1400.41 184.047 1399.91 183.687C1399.42 183.318 1398.55 183.001 1397.31 182.738C1396.08 182.474 1395.1 182.158 1394.37 181.789C1393.65 181.419 1393.11 180.98 1392.76 180.47C1392.42 179.96 1392.25 179.354 1392.25 178.651C1392.25 177.482 1392.74 176.493 1393.72 175.685C1394.72 174.876 1395.98 174.472 1397.52 174.472C1399.14 174.472 1400.45 174.889 1401.45 175.724C1402.46 176.559 1402.97 177.627 1402.97 178.928H1400.51C1400.51 178.26 1400.23 177.684 1399.66 177.201C1399.09 176.717 1398.38 176.476 1397.52 176.476C1396.63 176.476 1395.94 176.669 1395.44 177.056C1394.94 177.442 1394.69 177.948 1394.69 178.572C1394.69 179.161 1394.92 179.604 1395.39 179.903C1395.85 180.202 1396.69 180.488 1397.9 180.76C1399.13 181.033 1400.11 181.358 1400.87 181.736C1401.63 182.114 1402.18 182.571 1402.54 183.107C1402.91 183.634 1403.1 184.28 1403.1 185.045C1403.1 186.319 1402.59 187.343 1401.57 188.117C1400.55 188.881 1399.23 189.264 1397.6 189.264C1396.46 189.264 1395.45 189.062 1394.57 188.657C1393.69 188.253 1393 187.69 1392.5 186.97C1392.01 186.24 1391.76 185.454 1391.76 184.61H1394.2C1394.24 185.427 1394.57 186.078 1395.17 186.561C1395.79 187.036 1396.6 187.273 1397.6 187.273C1398.52 187.273 1399.26 187.088 1399.82 186.719C1400.38 186.341 1400.66 185.84 1400.66 185.216ZM1412.19 189.264C1410.26 189.264 1408.69 188.631 1407.48 187.365C1406.26 186.091 1405.66 184.39 1405.66 182.263V181.815C1405.66 180.4 1405.92 179.139 1406.46 178.031C1407 176.915 1407.76 176.045 1408.73 175.421C1409.7 174.788 1410.76 174.472 1411.89 174.472C1413.75 174.472 1415.19 175.083 1416.22 176.304C1417.24 177.526 1417.76 179.275 1417.76 181.551V182.566H1408.09C1408.13 183.973 1408.54 185.111 1409.32 185.981C1410.11 186.842 1411.11 187.273 1412.33 187.273C1413.19 187.273 1413.92 187.097 1414.52 186.746C1415.11 186.394 1415.64 185.928 1416.08 185.348L1417.57 186.508C1416.38 188.345 1414.59 189.264 1412.19 189.264ZM1411.89 176.476C1410.91 176.476 1410.08 176.836 1409.41 177.557C1408.75 178.269 1408.33 179.271 1408.17 180.562H1415.32V180.378C1415.25 179.139 1414.92 178.181 1414.32 177.504C1413.72 176.818 1412.91 176.476 1411.89 176.476ZM1427.49 176.924C1427.12 176.862 1426.72 176.832 1426.29 176.832C1424.69 176.832 1423.6 177.513 1423.03 178.875V189H1420.59V174.735H1422.97L1423.01 176.383C1423.81 175.109 1424.94 174.472 1426.41 174.472C1426.88 174.472 1427.24 174.533 1427.49 174.656V176.924Z" fill="#00010D"/>
<path d="M382.608 38.9814H409.645V40.3335H382.608V38.9814Z" fill="black"/>
<path d="M382.608 33.5745H395.45V34.9266H382.608V33.5745Z" fill="black"/>
<path d="M382.608 44.3899H409.645V45.742H382.608V44.3899Z" fill="black"/>
<path d="M382.608 49.7969H409.645V51.149H382.608V49.7969Z" fill="black"/>
<path d="M382.608 55.2039H409.645V56.556H382.608V55.2039Z" fill="black"/>
<path d="M382.608 60.6121H409.645V61.9642H382.608V60.6121Z" fill="black"/>
<path d="M375.848 16V70.0755H416.405V30.5911L401.814 16H375.848ZM402.221 18.3194L414.086 30.1836C414.087 30.1866 414.087 30.1912 414.086 30.1927C414.084 30.1942 414.083 30.1957 414.081 30.1957H402.209V18.324C402.209 18.3209 402.212 18.3179 402.217 18.3179C402.218 18.3179 402.22 18.3179 402.221 18.3194ZM377.2 68.7233V17.3521H400.857V31.5463H415.053V68.7233H377.2Z" fill="black"/>
<path d="M446.498 20.8047L452.773 36.4668L459.048 20.8047H462.331V40H459.8V32.5249L460.037 24.4565L453.735 40H451.797L445.509 24.4961L445.759 32.5249V40H443.228V20.8047H446.498ZM475.225 40C475.084 39.7188 474.97 39.2178 474.882 38.4971C473.748 39.6748 472.395 40.2637 470.821 40.2637C469.415 40.2637 468.259 39.8682 467.354 39.0771C466.458 38.2773 466.009 37.2666 466.009 36.0449C466.009 34.5596 466.572 33.4082 467.697 32.5908C468.831 31.7646 470.421 31.3516 472.469 31.3516H474.842V30.231C474.842 29.3784 474.587 28.7017 474.078 28.2007C473.568 27.6909 472.816 27.436 471.823 27.436C470.953 27.436 470.224 27.6558 469.635 28.0952C469.046 28.5347 468.751 29.0664 468.751 29.6904H466.299C466.299 28.9785 466.55 28.293 467.051 27.6338C467.561 26.9658 468.246 26.4385 469.107 26.0518C469.978 25.665 470.931 25.4717 471.968 25.4717C473.612 25.4717 474.899 25.8848 475.831 26.7109C476.763 27.5283 477.246 28.6577 477.281 30.0991V36.6646C477.281 37.9741 477.448 39.0156 477.782 39.7891V40H475.225ZM471.177 38.1411C471.942 38.1411 472.667 37.9434 473.353 37.5479C474.038 37.1523 474.535 36.6382 474.842 36.0054V33.0786H472.931C469.942 33.0786 468.448 33.9531 468.448 35.7021C468.448 36.4668 468.703 37.0645 469.213 37.4951C469.723 37.9258 470.377 38.1411 471.177 38.1411ZM483.412 25.7354L483.491 27.5283C484.581 26.1572 486.004 25.4717 487.762 25.4717C490.777 25.4717 492.297 27.1724 492.324 30.5737V40H489.885V30.5605C489.876 29.5322 489.639 28.772 489.173 28.2798C488.716 27.7876 488 27.5415 487.024 27.5415C486.233 27.5415 485.539 27.7524 484.941 28.1743C484.343 28.5962 483.877 29.1499 483.543 29.8354V40H481.104V25.7354H483.412ZM498.652 40H496.213V25.7354H498.652V40ZM496.015 21.9517C496.015 21.5562 496.134 21.2222 496.371 20.9497C496.617 20.6772 496.978 20.541 497.452 20.541C497.927 20.541 498.287 20.6772 498.533 20.9497C498.779 21.2222 498.902 21.5562 498.902 21.9517C498.902 22.3472 498.779 22.6768 498.533 22.9404C498.287 23.2041 497.927 23.3359 497.452 23.3359C496.978 23.3359 496.617 23.2041 496.371 22.9404C496.134 22.6768 496.015 22.3472 496.015 21.9517ZM503.767 40V27.6206H501.513V25.7354H503.767V24.272C503.767 22.7427 504.176 21.5605 504.993 20.7256C505.811 19.8906 506.966 19.4731 508.46 19.4731C509.023 19.4731 509.581 19.5479 510.135 19.6973L510.003 21.6748C509.59 21.5957 509.15 21.5562 508.685 21.5562C507.894 21.5562 507.283 21.7891 506.852 22.2549C506.421 22.7119 506.206 23.3711 506.206 24.2324V25.7354H509.251V27.6206H506.206V40H503.767ZM517.557 40.2637C515.624 40.2637 514.05 39.6309 512.837 38.3652C511.625 37.0908 511.018 35.3901 511.018 33.2632V32.8149C511.018 31.3999 511.286 30.1387 511.822 29.0312C512.367 27.915 513.123 27.0449 514.09 26.4209C515.065 25.7881 516.12 25.4717 517.254 25.4717C519.108 25.4717 520.55 26.0825 521.578 27.3042C522.606 28.5259 523.121 30.2749 523.121 32.5513V33.5664H513.457C513.492 34.9727 513.901 36.1108 514.683 36.981C515.474 37.8423 516.476 38.2729 517.689 38.2729C518.55 38.2729 519.28 38.0972 519.877 37.7456C520.475 37.394 520.998 36.9282 521.446 36.3481L522.936 37.5083C521.741 39.3452 519.948 40.2637 517.557 40.2637ZM517.254 27.4756C516.27 27.4756 515.443 27.8359 514.775 28.5566C514.107 29.2686 513.694 30.2705 513.536 31.5625H520.682V31.3779C520.611 30.1387 520.277 29.1807 519.68 28.5039C519.082 27.8184 518.273 27.4756 517.254 27.4756ZM534.261 36.2163C534.261 35.5571 534.01 35.0474 533.509 34.687C533.017 34.3179 532.151 34.0015 530.912 33.7378C529.682 33.4741 528.702 33.1577 527.972 32.7886C527.251 32.4194 526.715 31.98 526.364 31.4702C526.021 30.9604 525.85 30.354 525.85 29.6509C525.85 28.4819 526.342 27.4932 527.326 26.6846C528.319 25.876 529.585 25.4717 531.123 25.4717C532.74 25.4717 534.05 25.8892 535.052 26.7241C536.062 27.5591 536.568 28.627 536.568 29.9277H534.116C534.116 29.2598 533.83 28.6841 533.259 28.2007C532.696 27.7173 531.984 27.4756 531.123 27.4756C530.235 27.4756 529.541 27.6689 529.04 28.0557C528.539 28.4424 528.289 28.9478 528.289 29.5718C528.289 30.1606 528.521 30.6045 528.987 30.9033C529.453 31.2021 530.292 31.4878 531.505 31.7603C532.727 32.0327 533.716 32.3579 534.472 32.7358C535.228 33.1138 535.786 33.5708 536.146 34.1069C536.515 34.6343 536.7 35.2803 536.7 36.0449C536.7 37.3193 536.19 38.3433 535.17 39.1167C534.151 39.8813 532.828 40.2637 531.202 40.2637C530.06 40.2637 529.049 40.0615 528.17 39.6572C527.291 39.2529 526.601 38.6904 526.1 37.9697C525.608 37.2402 525.362 36.4536 525.362 35.6099H527.801C527.845 36.4272 528.17 37.0776 528.776 37.561C529.392 38.0356 530.2 38.2729 531.202 38.2729C532.125 38.2729 532.863 38.0884 533.417 37.7192C533.979 37.3413 534.261 36.8403 534.261 36.2163ZM543.186 22.2812V25.7354H545.849V27.6206H543.186V36.4668C543.186 37.0381 543.305 37.4688 543.542 37.7588C543.779 38.04 544.184 38.1807 544.755 38.1807C545.036 38.1807 545.423 38.1279 545.915 38.0225V40C545.273 40.1758 544.649 40.2637 544.043 40.2637C542.953 40.2637 542.131 39.9341 541.578 39.2749C541.024 38.6157 540.747 37.6797 540.747 36.4668V27.6206H538.15V25.7354H540.747V22.2812H543.186ZM442.753 64.2085C442.753 62.2222 443.017 60.3149 443.544 58.4868C444.081 56.6587 444.876 54.9976 445.931 53.5034C446.985 52.0093 448.08 50.9546 449.213 50.3394L449.714 51.9478C448.431 52.9321 447.376 54.4351 446.55 56.4565C445.733 58.478 445.285 60.7412 445.206 63.2461L445.192 64.3667C445.192 67.7593 445.812 70.7036 447.051 73.1997C447.798 74.6938 448.686 75.8628 449.714 76.7065L449.213 78.1963C448.044 77.5459 446.928 76.4561 445.865 74.9268C443.791 71.9385 442.753 68.3657 442.753 64.2085ZM460.499 52.8047H463.043V66.397C463.043 68.2339 462.489 69.6709 461.382 70.708C460.283 71.7451 458.815 72.2637 456.979 72.2637C455.071 72.2637 453.586 71.7759 452.522 70.8003C451.459 69.8247 450.927 68.458 450.927 66.7002H453.458C453.458 67.7988 453.757 68.6558 454.355 69.271C454.961 69.8862 455.836 70.1938 456.979 70.1938C458.024 70.1938 458.868 69.8643 459.51 69.2051C460.16 68.5459 460.49 67.623 460.499 66.4365V52.8047ZM473.01 63.4438C470.839 62.8198 469.257 62.0552 468.264 61.1499C467.279 60.2358 466.787 59.1108 466.787 57.7749C466.787 56.2632 467.389 55.0151 468.593 54.0308C469.806 53.0376 471.379 52.541 473.313 52.541C474.631 52.541 475.805 52.7959 476.833 53.3057C477.87 53.8154 478.67 54.5186 479.232 55.415C479.804 56.3115 480.089 57.2915 480.089 58.355H477.545C477.545 57.1948 477.176 56.2852 476.438 55.626C475.699 54.958 474.658 54.624 473.313 54.624C472.065 54.624 471.089 54.9009 470.386 55.4546C469.692 55.9995 469.345 56.7598 469.345 57.7354C469.345 58.5176 469.674 59.1812 470.333 59.7261C471.001 60.2622 472.131 60.7544 473.722 61.2026C475.321 61.6509 476.569 62.1475 477.466 62.6924C478.371 63.2285 479.039 63.8569 479.47 64.5776C479.909 65.2983 480.129 66.1465 480.129 67.1221C480.129 68.6777 479.522 69.9258 478.31 70.8662C477.097 71.7979 475.475 72.2637 473.445 72.2637C472.126 72.2637 470.896 72.0132 469.753 71.5122C468.611 71.0024 467.728 70.3081 467.104 69.4292C466.488 68.5503 466.181 67.5527 466.181 66.4365H468.725C468.725 67.5967 469.151 68.5151 470.004 69.1919C470.865 69.8599 472.012 70.1938 473.445 70.1938C474.781 70.1938 475.805 69.9214 476.517 69.3765C477.229 68.8315 477.584 68.0889 477.584 67.1484C477.584 66.208 477.255 65.4829 476.596 64.9731C475.937 64.4546 474.741 63.9448 473.01 63.4438ZM498.151 63.022C498.151 64.9028 497.834 66.5464 497.202 67.9526C496.569 69.3501 495.672 70.418 494.512 71.1562C493.352 71.8945 491.999 72.2637 490.452 72.2637C488.94 72.2637 487.6 71.8945 486.431 71.1562C485.262 70.4092 484.352 69.3501 483.702 67.979C483.06 66.5991 482.73 65.0039 482.713 63.1934V61.8091C482.713 59.9634 483.034 58.333 483.675 56.918C484.317 55.5029 485.222 54.4219 486.391 53.6748C487.569 52.9189 488.914 52.541 490.425 52.541C491.963 52.541 493.317 52.9146 494.486 53.6616C495.664 54.3999 496.569 55.4766 497.202 56.8916C497.834 58.2979 498.151 59.937 498.151 61.8091V63.022ZM495.633 61.7827C495.633 59.5063 495.176 57.7617 494.262 56.5488C493.348 55.3271 492.069 54.7163 490.425 54.7163C488.826 54.7163 487.564 55.3271 486.642 56.5488C485.728 57.7617 485.257 59.4492 485.231 61.6113V63.022C485.231 65.228 485.692 66.9639 486.615 68.2295C487.547 69.4863 488.826 70.1147 490.452 70.1147C492.086 70.1147 493.352 69.5215 494.249 68.335C495.145 67.1396 495.606 65.4302 495.633 63.2065V61.7827ZM516.7 72H514.156L504.492 57.208V72H501.948V52.8047H504.492L514.182 67.6626V52.8047H516.7V72ZM526.443 64.3403C526.443 66.3003 526.184 68.1812 525.665 69.9829C525.155 71.7759 524.369 73.4326 523.305 74.9531C522.25 76.4736 521.143 77.5547 519.983 78.1963L519.469 76.7065C520.822 75.6694 521.908 74.061 522.725 71.8813C523.551 69.6929 523.973 67.2671 523.991 64.604V64.1821C523.991 62.3364 523.797 60.6226 523.411 59.0405C523.024 57.4497 522.483 56.0259 521.789 54.769C521.104 53.5122 520.33 52.5322 519.469 51.8291L519.983 50.3394C521.143 50.981 522.246 52.0532 523.292 53.5562C524.347 55.0591 525.133 56.7158 525.652 58.5264C526.179 60.3369 526.443 62.2749 526.443 64.3403Z" fill="#00010D"/>
<path d="M1111.44 52.2309C1113.59 52.2309 1114.88 49.9734 1114.88 46.1932C1114.88 40.3169 1111.65 31.6232 1104.72 31.6232H1090.92C1090.33 31.2249 1089.64 30.9834 1088.93 30.923C1088.44 30.0327 1087.65 29.3461 1086.69 28.9854C1085.84 28.6504 1084.89 28.5916 1084 28.8209C1083.27 28.2882 1082.38 28.0015 1081.47 28C1080.46 28 1079.47 28.3456 1078.67 28.9824C1076.75 28.4391 1074.7 29.2555 1073.68 30.9728C1073.1 31.0785 1072.54 31.2988 1072.05 31.6232H1050.96C1045.94 31.6232 1042 37.919 1042 45.9593C1042 53.9648 1045.9 60.2379 1050.9 60.2907L1072.02 60.2953V74.6313L1080.98 67.6866L1089.94 74.6313V60.2953H1110.99C1111.49 60.2953 1111.89 59.8939 1111.89 59.3989C1111.89 58.9039 1111.49 58.5025 1110.99 58.5025C1107.9 58.6187 1105.3 56.2163 1105.17 53.1273V52.2309H1111.44ZM1074.88 32.6705L1075.1 32.1484C1075.36 31.5493 1075.84 31.0755 1076.44 30.8219C1077.11 30.5307 1077.87 30.5337 1078.54 30.831L1079.12 31.0739L1079.54 30.6167C1080.54 29.5755 1082.19 29.5241 1083.25 30.5005L1083.66 30.8581L1084.17 30.6499C1084.78 30.413 1085.45 30.416 1086.05 30.659C1086.73 30.9065 1087.26 31.4391 1087.51 32.1167L1087.74 32.7339L1088.4 32.7022C1089.13 32.6494 1089.85 32.9271 1090.35 33.4567C1090.81 33.9185 1091.08 34.5327 1091.11 35.1831L1091.14 35.746L1091.66 35.9603C1092.26 36.2198 1092.74 36.6997 1092.99 37.3003C1093.28 37.9718 1093.28 38.7354 1092.98 39.4039L1092.74 39.9789L1093.19 40.4059C1093.73 40.9054 1094.03 41.6057 1094.02 42.336C1094.02 42.9849 1093.77 43.6097 1093.33 44.085L1092.94 44.5045L1093.16 45.0327C1093.4 45.6378 1093.39 46.3109 1093.15 46.913C1092.9 47.5921 1092.37 48.1263 1091.69 48.3768L1091.08 48.6046L1091.11 49.2596C1091.16 49.9914 1090.88 50.7067 1090.35 51.2168C1089.89 51.6725 1089.28 51.9411 1088.63 51.9713L1088.07 52.003L1087.85 52.5251C1087.59 53.1242 1087.11 53.5981 1086.51 53.8501C1085.84 54.1428 1085.08 54.1399 1084.41 53.8426L1083.83 53.5996L1083.41 54.0569C1082.41 55.0966 1080.76 55.1494 1079.7 54.1731L1079.28 53.8154L1078.78 54.0237C1078.17 54.2606 1077.5 54.2575 1076.9 54.0146C1076.22 53.7671 1075.68 53.2344 1075.43 52.5568L1075.21 51.9396L1074.55 51.9713C1073.82 52.0196 1073.1 51.7435 1072.59 51.2168C1072.14 50.755 1071.87 50.1394 1071.84 49.4905L1071.81 48.9276L1071.28 48.7118C1070.69 48.4522 1070.21 47.9723 1069.96 47.3717C1069.67 46.7017 1069.67 45.9382 1069.97 45.2696L1070.21 44.6932L1069.75 44.2676C1069.22 43.7681 1068.92 43.0679 1068.93 42.336C1068.94 41.6796 1069.19 41.0488 1069.64 40.5644L1069.99 40.1479L1069.79 39.6393C1069.55 39.0357 1069.55 38.3627 1069.8 37.7606C1070.04 37.0815 1070.58 36.5458 1071.25 36.2968L1071.87 36.0689L1071.84 35.4125C1071.79 34.6821 1072.07 33.9653 1072.59 33.4552C1073.06 33.001 1073.67 32.7324 1074.32 32.7007L1074.88 32.6705ZM1070.45 33.4145C1070.24 33.8747 1070.1 34.3697 1070.06 34.8768C1069.17 35.3702 1068.48 36.164 1068.12 37.1162C1067.79 37.9748 1067.73 38.9165 1067.96 39.8083C1067.43 40.5448 1067.14 41.4291 1067.14 42.336C1067.14 43.3547 1067.48 44.3416 1068.12 45.1368C1067.83 46.1192 1067.91 47.171 1068.32 48.1036C1068.69 48.9502 1069.32 49.658 1070.11 50.1273C1070.13 50.2344 1070.16 50.334 1070.19 50.4381H1057.8C1058.91 48.8657 1059.49 46.9854 1059.47 45.0629C1059.47 39.8295 1057.93 35.6524 1055.45 33.4145H1070.45ZM1050.96 58.5025C1047.07 58.5025 1043.79 52.7591 1043.79 45.9593C1043.79 39.1595 1047.07 33.4145 1050.96 33.4145C1054.92 33.4145 1057.68 38.2042 1057.68 45.0614C1057.68 45.2817 1057.62 50.4381 1054.09 50.4381C1052.15 50.4381 1050.51 47.7716 1050.51 44.6147C1050.51 43.9628 1050.58 43.3139 1050.72 42.6771C1050.83 42.1942 1050.52 41.7143 1050.04 41.6072C1049.56 41.4985 1049.08 41.8033 1048.97 42.2862C1048.8 43.0513 1048.72 43.8315 1048.72 44.6147C1048.72 48.8853 1051.08 52.2309 1054.09 52.2309H1071.11C1071.18 52.3154 1071.25 52.4059 1071.33 52.4844C1071.54 52.6926 1071.77 52.8798 1072.02 53.0428V58.5025H1050.96ZM1082.07 66.2711L1080.98 65.42L1079.88 66.2711L1073.81 70.9749V53.7143C1073.88 53.7233 1073.94 53.7445 1074.01 53.7505C1074.51 54.6409 1075.3 55.3275 1076.25 55.6881C1077.11 56.0231 1078.05 56.0805 1078.95 55.8526C1079.68 56.3853 1080.57 56.6721 1081.47 56.6721C1082.49 56.6736 1083.48 56.328 1084.27 55.6911C1085.26 55.9763 1086.31 55.9039 1087.24 55.4874C1087.56 55.3411 1087.86 55.157 1088.14 54.9412V70.9749L1082.07 66.2711ZM1105.97 58.5025H1089.94V53.5272C1090.57 53.3144 1091.15 52.9567 1091.62 52.4844C1091.7 52.4044 1091.76 52.3139 1091.84 52.2309H1103.37V53.1258C1103.39 55.2173 1104.34 57.1896 1105.97 58.5025ZM1092.78 50.4381C1092.83 50.2284 1092.87 50.0141 1092.89 49.7968C1093.78 49.3033 1094.47 48.5096 1094.83 47.5574C1095.16 46.7032 1095.22 45.7661 1094.99 44.8773C1095.52 44.1363 1095.81 43.2475 1095.81 42.336C1095.81 41.3189 1095.46 40.332 1094.83 39.5367C1095.37 37.6142 1094.55 35.5679 1092.84 34.5463C1092.77 34.1554 1092.64 33.7736 1092.47 33.4145H1104.72C1110.18 33.4145 1113.08 40.836 1113.08 46.1932C1113.08 48.6937 1112.41 50.4381 1111.44 50.4381H1092.78Z" fill="black"/>
<path d="M1081.28 51.0947C1086.11 51.0947 1090.03 47.1742 1090.03 42.3362C1090.03 37.4996 1086.11 33.5791 1081.28 33.5791C1076.44 33.5791 1072.52 37.4996 1072.52 42.3362C1072.52 47.1712 1076.44 51.0886 1081.28 51.0947ZM1081.28 35.3703C1085.12 35.3703 1088.24 38.4896 1088.24 42.3362C1088.24 46.1842 1085.12 49.3034 1081.28 49.3034C1077.43 49.3034 1074.31 46.1842 1074.31 42.3362C1074.31 38.4911 1077.43 35.3749 1081.28 35.3703Z" fill="black"/>
<path d="M1145.33 51.022C1145.33 52.8765 1145.04 54.4761 1144.45 55.8208C1143.86 57.1567 1143.04 58.2026 1141.97 58.9585L1145.4 61.6479L1143.67 63.2432L1139.62 60.0264C1138.99 60.1846 1138.32 60.2637 1137.62 60.2637C1136.11 60.2637 1134.77 59.8945 1133.6 59.1562C1132.43 58.4092 1131.52 57.3501 1130.87 55.979C1130.23 54.5991 1129.9 53.0039 1129.88 51.1934V49.8091C1129.88 47.9634 1130.2 46.333 1130.84 44.918C1131.49 43.5029 1132.39 42.4219 1133.56 41.6748C1134.74 40.9189 1136.08 40.541 1137.59 40.541C1139.14 40.541 1140.5 40.9146 1141.67 41.6616C1142.85 42.4087 1143.75 43.4854 1144.38 44.8916C1145.02 46.2891 1145.33 47.9238 1145.33 49.7959V51.022ZM1142.8 49.7827C1142.8 47.5239 1142.35 45.7837 1141.44 44.562C1140.55 43.3315 1139.26 42.7163 1137.59 42.7163C1136 42.7163 1134.75 43.3271 1133.82 44.5488C1132.91 45.7617 1132.44 47.4492 1132.41 49.6113V51.022C1132.41 53.2192 1132.87 54.9507 1133.78 56.2163C1134.71 57.4819 1135.99 58.1147 1137.62 58.1147C1139.26 58.1147 1140.52 57.5215 1141.42 56.335C1142.31 55.1396 1142.78 53.4302 1142.8 51.2065V49.7827ZM1157.66 58.5894C1156.71 59.7056 1155.32 60.2637 1153.48 60.2637C1151.96 60.2637 1150.8 59.8242 1150 58.9453C1149.21 58.0576 1148.81 56.748 1148.8 55.0166V45.7354H1151.24V54.9507C1151.24 57.1128 1152.12 58.1938 1153.88 58.1938C1155.74 58.1938 1156.98 57.4995 1157.59 56.1108V45.7354H1160.03V60H1157.71L1157.66 58.5894ZM1163.1 52.7358C1163.1 51.3384 1163.38 50.0815 1163.92 48.9653C1164.48 47.8491 1165.24 46.9878 1166.22 46.3813C1167.2 45.7749 1168.32 45.4717 1169.58 45.4717C1171.52 45.4717 1173.09 46.144 1174.28 47.4888C1175.49 48.8335 1176.09 50.6221 1176.09 52.8545V53.0259C1176.09 54.4146 1175.82 55.6626 1175.29 56.77C1174.76 57.8687 1174 58.7256 1173.01 59.3408C1172.02 59.9561 1170.89 60.2637 1169.6 60.2637C1167.67 60.2637 1166.1 59.5913 1164.9 58.2466C1163.7 56.9019 1163.1 55.1221 1163.1 52.9072V52.7358ZM1165.56 53.0259C1165.56 54.6079 1165.92 55.8779 1166.65 56.8359C1167.39 57.7939 1168.37 58.2729 1169.6 58.2729C1170.84 58.2729 1171.83 57.7896 1172.56 56.8228C1173.29 55.8472 1173.65 54.4849 1173.65 52.7358C1173.65 51.1714 1173.28 49.9058 1172.53 48.939C1171.79 47.9634 1170.81 47.4756 1169.58 47.4756C1168.37 47.4756 1167.4 47.9546 1166.66 48.9126C1165.93 49.8706 1165.56 51.2417 1165.56 53.0259ZM1182.46 42.2812V45.7354H1185.12V47.6206H1182.46V56.4668C1182.46 57.0381 1182.58 57.4688 1182.81 57.7588C1183.05 58.04 1183.46 58.1807 1184.03 58.1807C1184.31 58.1807 1184.7 58.1279 1185.19 58.0225V60C1184.55 60.1758 1183.92 60.2637 1183.32 60.2637C1182.23 60.2637 1181.4 59.9341 1180.85 59.2749C1180.3 58.6157 1180.02 57.6797 1180.02 56.4668V47.6206H1177.42V45.7354H1180.02V42.2812H1182.46ZM1193.9 60.2637C1191.97 60.2637 1190.4 59.6309 1189.18 58.3652C1187.97 57.0908 1187.36 55.3901 1187.36 53.2632V52.8149C1187.36 51.3999 1187.63 50.1387 1188.17 49.0312C1188.71 47.915 1189.47 47.0449 1190.43 46.4209C1191.41 45.7881 1192.46 45.4717 1193.6 45.4717C1195.45 45.4717 1196.89 46.0825 1197.92 47.3042C1198.95 48.5259 1199.47 50.2749 1199.47 52.5513V53.5664H1189.8C1189.84 54.9727 1190.25 56.1108 1191.03 56.981C1191.82 57.8423 1192.82 58.2729 1194.03 58.2729C1194.9 58.2729 1195.62 58.0972 1196.22 57.7456C1196.82 57.394 1197.34 56.9282 1197.79 56.3481L1199.28 57.5083C1198.09 59.3452 1196.29 60.2637 1193.9 60.2637ZM1193.6 47.4756C1192.61 47.4756 1191.79 47.8359 1191.12 48.5566C1190.45 49.2686 1190.04 50.2705 1189.88 51.5625H1197.03V51.3779C1196.96 50.1387 1196.62 49.1807 1196.02 48.5039C1195.43 47.8184 1194.62 47.4756 1193.6 47.4756Z" fill="#00010D"/>
<path fill-rule="evenodd" clip-rule="evenodd" d="M631.916 72.9248C631.916 65.5697 637.841 59.6074 645.151 59.6074H927.662C934.971 59.6074 940.895 65.5697 940.895 72.9248C940.749 81.4646 940.604 72.1416 940.835 98.5425C940.981 126.001 940.749 116.976 940.895 126.191C940.895 133.547 934.971 139.509 927.662 139.509C908.512 139.408 927.507 139.687 870.214 139.207C785.202 139.63 871.263 139.292 785.117 139.334C684.201 139.038 784.95 139.503 684.033 139.587L645.151 139.509C637.841 139.509 631.916 133.547 631.916 126.191C631.791 116.722 631.664 125.875 631.539 97.7835C631.664 73.1557 631.791 81.2111 631.916 72.9248Z" fill="#8B04DD" fill-opacity="0.3" stroke="#8B04DD" stroke-width="3" stroke-miterlimit="8"/>
<path d="M824.828 294.99H816.786L814.979 300H812.369L819.699 280.805H821.914L829.257 300H826.66L824.828 294.99ZM817.55 292.907H824.076L820.807 283.929L817.55 292.907ZM834.531 282.281V285.735H837.194V287.621H834.531V296.467C834.531 297.038 834.649 297.469 834.887 297.759C835.124 298.04 835.528 298.181 836.1 298.181C836.381 298.181 836.768 298.128 837.26 298.022V300C836.618 300.176 835.994 300.264 835.388 300.264C834.298 300.264 833.476 299.934 832.922 299.275C832.369 298.616 832.092 297.68 832.092 296.467V287.621H829.495V285.735H832.092V282.281H834.531ZM843.364 282.281V285.735H846.027V287.621H843.364V296.467C843.364 297.038 843.482 297.469 843.72 297.759C843.957 298.04 844.361 298.181 844.933 298.181C845.214 298.181 845.601 298.128 846.093 298.022V300C845.451 300.176 844.827 300.264 844.221 300.264C843.131 300.264 842.309 299.934 841.755 299.275C841.202 298.616 840.925 297.68 840.925 296.467V287.621H838.328V285.735H840.925V282.281H843.364ZM854.807 300.264C852.874 300.264 851.3 299.631 850.087 298.365C848.875 297.091 848.268 295.39 848.268 293.263V292.815C848.268 291.4 848.536 290.139 849.072 289.031C849.617 287.915 850.373 287.045 851.34 286.421C852.315 285.788 853.37 285.472 854.504 285.472C856.358 285.472 857.8 286.083 858.828 287.304C859.856 288.526 860.371 290.275 860.371 292.551V293.566H850.707C850.742 294.973 851.151 296.111 851.933 296.981C852.724 297.842 853.726 298.273 854.939 298.273C855.8 298.273 856.53 298.097 857.127 297.746C857.725 297.394 858.248 296.928 858.696 296.348L860.186 297.508C858.991 299.345 857.198 300.264 854.807 300.264ZM854.504 287.476C853.52 287.476 852.693 287.836 852.025 288.557C851.357 289.269 850.944 290.271 850.786 291.562H857.932V291.378C857.861 290.139 857.527 289.181 856.93 288.504C856.332 287.818 855.523 287.476 854.504 287.476ZM871.511 296.216C871.511 295.557 871.26 295.047 870.759 294.687C870.267 294.318 869.401 294.001 868.162 293.738C866.932 293.474 865.952 293.158 865.222 292.789C864.501 292.419 863.965 291.98 863.614 291.47C863.271 290.96 863.1 290.354 863.1 289.651C863.1 288.482 863.592 287.493 864.576 286.685C865.569 285.876 866.835 285.472 868.373 285.472C869.99 285.472 871.3 285.889 872.302 286.724C873.312 287.559 873.818 288.627 873.818 289.928H871.366C871.366 289.26 871.08 288.684 870.509 288.201C869.946 287.717 869.234 287.476 868.373 287.476C867.485 287.476 866.791 287.669 866.29 288.056C865.789 288.442 865.539 288.948 865.539 289.572C865.539 290.161 865.771 290.604 866.237 290.903C866.703 291.202 867.542 291.488 868.755 291.76C869.977 292.033 870.966 292.358 871.722 292.736C872.478 293.114 873.036 293.571 873.396 294.107C873.765 294.634 873.95 295.28 873.95 296.045C873.95 297.319 873.44 298.343 872.42 299.117C871.401 299.881 870.078 300.264 868.452 300.264C867.31 300.264 866.299 300.062 865.42 299.657C864.541 299.253 863.851 298.69 863.35 297.97C862.858 297.24 862.612 296.454 862.612 295.61H865.051C865.095 296.427 865.42 297.078 866.026 297.561C866.642 298.036 867.45 298.273 868.452 298.273C869.375 298.273 870.113 298.088 870.667 297.719C871.229 297.341 871.511 296.84 871.511 296.216ZM880.436 282.281V285.735H883.099V287.621H880.436V296.467C880.436 297.038 880.555 297.469 880.792 297.759C881.029 298.04 881.434 298.181 882.005 298.181C882.286 298.181 882.673 298.128 883.165 298.022V300C882.523 300.176 881.899 300.264 881.293 300.264C880.203 300.264 879.381 299.934 878.828 299.275C878.274 298.616 877.997 297.68 877.997 296.467V287.621H875.4V285.735H877.997V282.281H880.436ZM894.767 300C894.626 299.719 894.512 299.218 894.424 298.497C893.29 299.675 891.937 300.264 890.363 300.264C888.957 300.264 887.801 299.868 886.896 299.077C886 298.277 885.551 297.267 885.551 296.045C885.551 294.56 886.114 293.408 887.239 292.591C888.373 291.765 889.963 291.352 892.011 291.352H894.384V290.231C894.384 289.378 894.129 288.702 893.62 288.201C893.11 287.691 892.358 287.436 891.365 287.436C890.495 287.436 889.766 287.656 889.177 288.095C888.588 288.535 888.293 289.066 888.293 289.69H885.841C885.841 288.979 886.092 288.293 886.593 287.634C887.103 286.966 887.788 286.438 888.649 286.052C889.52 285.665 890.473 285.472 891.51 285.472C893.154 285.472 894.441 285.885 895.373 286.711C896.305 287.528 896.788 288.658 896.823 290.099V296.665C896.823 297.974 896.99 299.016 897.324 299.789V300H894.767ZM890.719 298.141C891.484 298.141 892.209 297.943 892.895 297.548C893.58 297.152 894.077 296.638 894.384 296.005V293.079H892.473C889.484 293.079 887.99 293.953 887.99 295.702C887.99 296.467 888.245 297.064 888.755 297.495C889.265 297.926 889.919 298.141 890.719 298.141ZM903.956 282.281V285.735H906.619V287.621H903.956V296.467C903.956 297.038 904.074 297.469 904.312 297.759C904.549 298.04 904.953 298.181 905.524 298.181C905.806 298.181 906.192 298.128 906.685 298.022V300C906.043 300.176 905.419 300.264 904.812 300.264C903.723 300.264 902.901 299.934 902.347 299.275C901.793 298.616 901.517 297.68 901.517 296.467V287.621H898.919V285.735H901.517V282.281H903.956ZM912.129 300H909.69V285.735H912.129V300ZM909.493 281.952C909.493 281.556 909.611 281.222 909.849 280.95C910.095 280.677 910.455 280.541 910.93 280.541C911.404 280.541 911.765 280.677 912.011 280.95C912.257 281.222 912.38 281.556 912.38 281.952C912.38 282.347 912.257 282.677 912.011 282.94C911.765 283.204 911.404 283.336 910.93 283.336C910.455 283.336 910.095 283.204 909.849 282.94C909.611 282.677 909.493 282.347 909.493 281.952ZM915.399 292.736C915.399 291.338 915.671 290.082 916.216 288.965C916.77 287.849 917.535 286.988 918.51 286.381C919.495 285.775 920.615 285.472 921.872 285.472C923.814 285.472 925.383 286.144 926.579 287.489C927.783 288.833 928.385 290.622 928.385 292.854V293.026C928.385 294.415 928.117 295.663 927.581 296.77C927.053 297.869 926.293 298.726 925.3 299.341C924.315 299.956 923.182 300.264 921.898 300.264C919.965 300.264 918.396 299.591 917.192 298.247C915.997 296.902 915.399 295.122 915.399 292.907V292.736ZM917.851 293.026C917.851 294.608 918.216 295.878 918.945 296.836C919.684 297.794 920.668 298.273 921.898 298.273C923.138 298.273 924.122 297.79 924.852 296.823C925.581 295.847 925.946 294.485 925.946 292.736C925.946 291.171 925.572 289.906 924.825 288.939C924.087 287.963 923.103 287.476 921.872 287.476C920.668 287.476 919.697 287.955 918.958 288.913C918.22 289.871 917.851 291.242 917.851 293.026ZM933.75 285.735L933.83 287.528C934.919 286.157 936.343 285.472 938.101 285.472C941.116 285.472 942.636 287.172 942.663 290.574V300H940.224V290.561C940.215 289.532 939.978 288.772 939.512 288.28C939.055 287.788 938.338 287.542 937.363 287.542C936.572 287.542 935.877 287.752 935.28 288.174C934.682 288.596 934.216 289.15 933.882 289.835V300H931.443V285.735H933.75ZM816.759 324.485V332H814.228V312.805H821.308C823.408 312.805 825.052 313.341 826.238 314.413C827.434 315.485 828.031 316.905 828.031 318.671C828.031 320.535 827.447 321.972 826.278 322.982C825.118 323.984 823.452 324.485 821.281 324.485H816.759ZM816.759 322.416H821.308C822.661 322.416 823.698 322.099 824.419 321.466C825.14 320.825 825.5 319.902 825.5 318.698C825.5 317.555 825.14 316.641 824.419 315.956C823.698 315.27 822.709 314.914 821.453 314.888H816.759V322.416ZM837.774 319.924C837.405 319.862 837.005 319.832 836.574 319.832C834.975 319.832 833.889 320.513 833.318 321.875V332H830.879V317.735H833.252L833.292 319.383C834.091 318.109 835.225 317.472 836.693 317.472C837.167 317.472 837.528 317.533 837.774 317.656V319.924ZM839.119 324.736C839.119 323.338 839.391 322.082 839.936 320.965C840.49 319.849 841.254 318.988 842.23 318.381C843.214 317.775 844.335 317.472 845.592 317.472C847.534 317.472 849.103 318.144 850.298 319.489C851.502 320.833 852.104 322.622 852.104 324.854V325.026C852.104 326.415 851.836 327.663 851.3 328.77C850.773 329.869 850.013 330.726 849.02 331.341C848.035 331.956 846.901 332.264 845.618 332.264C843.685 332.264 842.116 331.591 840.912 330.247C839.716 328.902 839.119 327.122 839.119 324.907V324.736ZM841.571 325.026C841.571 326.608 841.936 327.878 842.665 328.836C843.403 329.794 844.388 330.273 845.618 330.273C846.857 330.273 847.842 329.79 848.571 328.823C849.301 327.847 849.666 326.485 849.666 324.736C849.666 323.171 849.292 321.906 848.545 320.939C847.807 319.963 846.822 319.476 845.592 319.476C844.388 319.476 843.417 319.955 842.678 320.913C841.94 321.871 841.571 323.242 841.571 325.026ZM859.659 328.691L863.192 317.735H865.684L860.568 332H858.709L853.542 317.735H856.033L859.659 328.691ZM870.68 332H868.241V317.735H870.68V332ZM868.043 313.952C868.043 313.556 868.162 313.222 868.399 312.95C868.646 312.677 869.006 312.541 869.48 312.541C869.955 312.541 870.315 312.677 870.562 312.95C870.808 313.222 870.931 313.556 870.931 313.952C870.931 314.347 870.808 314.677 870.562 314.94C870.315 315.204 869.955 315.336 869.48 315.336C869.006 315.336 868.646 315.204 868.399 314.94C868.162 314.677 868.043 314.347 868.043 313.952ZM882.901 328.216C882.901 327.557 882.651 327.047 882.15 326.687C881.658 326.318 880.792 326.001 879.553 325.738C878.322 325.474 877.342 325.158 876.613 324.789C875.892 324.419 875.356 323.98 875.004 323.47C874.662 322.96 874.49 322.354 874.49 321.651C874.49 320.482 874.982 319.493 875.967 318.685C876.96 317.876 878.226 317.472 879.764 317.472C881.381 317.472 882.69 317.889 883.692 318.724C884.703 319.559 885.208 320.627 885.208 321.928H882.756C882.756 321.26 882.471 320.684 881.899 320.201C881.337 319.717 880.625 319.476 879.764 319.476C878.876 319.476 878.182 319.669 877.681 320.056C877.18 320.442 876.929 320.948 876.929 321.572C876.929 322.161 877.162 322.604 877.628 322.903C878.094 323.202 878.933 323.488 880.146 323.76C881.368 324.033 882.356 324.358 883.112 324.736C883.868 325.114 884.426 325.571 884.787 326.107C885.156 326.634 885.34 327.28 885.34 328.045C885.34 329.319 884.831 330.343 883.811 331.117C882.792 331.881 881.469 332.264 879.843 332.264C878.7 332.264 877.689 332.062 876.811 331.657C875.932 331.253 875.242 330.69 874.741 329.97C874.249 329.24 874.002 328.454 874.002 327.61H876.441C876.485 328.427 876.811 329.078 877.417 329.561C878.032 330.036 878.841 330.273 879.843 330.273C880.766 330.273 881.504 330.088 882.058 329.719C882.62 329.341 882.901 328.84 882.901 328.216ZM891.167 332H888.729V317.735H891.167V332ZM888.531 313.952C888.531 313.556 888.649 313.222 888.887 312.95C889.133 312.677 889.493 312.541 889.968 312.541C890.442 312.541 890.803 312.677 891.049 312.95C891.295 313.222 891.418 313.556 891.418 313.952C891.418 314.347 891.295 314.677 891.049 314.94C890.803 315.204 890.442 315.336 889.968 315.336C889.493 315.336 889.133 315.204 888.887 314.94C888.649 314.677 888.531 314.347 888.531 313.952ZM894.437 324.736C894.437 323.338 894.709 322.082 895.254 320.965C895.808 319.849 896.573 318.988 897.548 318.381C898.533 317.775 899.653 317.472 900.91 317.472C902.853 317.472 904.421 318.144 905.617 319.489C906.821 320.833 907.423 322.622 907.423 324.854V325.026C907.423 326.415 907.155 327.663 906.619 328.77C906.091 329.869 905.331 330.726 904.338 331.341C903.354 331.956 902.22 332.264 900.937 332.264C899.003 332.264 897.434 331.591 896.23 330.247C895.035 328.902 894.437 327.122 894.437 324.907V324.736ZM896.889 325.026C896.889 326.608 897.254 327.878 897.983 328.836C898.722 329.794 899.706 330.273 900.937 330.273C902.176 330.273 903.16 329.79 903.89 328.823C904.619 327.847 904.984 326.485 904.984 324.736C904.984 323.171 904.61 321.906 903.863 320.939C903.125 319.963 902.141 319.476 900.91 319.476C899.706 319.476 898.735 319.955 897.997 320.913C897.258 321.871 896.889 323.242 896.889 325.026ZM912.789 317.735L912.868 319.528C913.958 318.157 915.381 317.472 917.139 317.472C920.154 317.472 921.674 319.172 921.701 322.574V332H919.262V322.561C919.253 321.532 919.016 320.772 918.55 320.28C918.093 319.788 917.376 319.542 916.401 319.542C915.61 319.542 914.916 319.752 914.318 320.174C913.72 320.596 913.254 321.15 912.92 321.835V332H910.481V317.735H912.789ZM928.029 332H925.59V317.735H928.029V332ZM925.392 313.952C925.392 313.556 925.511 313.222 925.748 312.95C925.994 312.677 926.354 312.541 926.829 312.541C927.304 312.541 927.664 312.677 927.91 312.95C928.156 313.222 928.279 313.556 928.279 313.952C928.279 314.347 928.156 314.677 927.91 314.94C927.664 315.204 927.304 315.336 926.829 315.336C926.354 315.336 925.994 315.204 925.748 314.94C925.511 314.677 925.392 314.347 925.392 313.952ZM934.251 317.735L934.331 319.528C935.42 318.157 936.844 317.472 938.602 317.472C941.617 317.472 943.137 319.172 943.164 322.574V332H940.725V322.561C940.716 321.532 940.479 320.772 940.013 320.28C939.556 319.788 938.839 319.542 937.864 319.542C937.073 319.542 936.378 319.752 935.781 320.174C935.183 320.596 934.717 321.15 934.383 321.835V332H931.944V317.735H934.251ZM946.262 324.749C946.262 322.525 946.776 320.759 947.804 319.449C948.833 318.131 950.195 317.472 951.891 317.472C953.631 317.472 954.989 318.087 955.965 319.317L956.083 317.735H958.312V331.657C958.312 333.503 957.762 334.958 956.664 336.021C955.574 337.084 954.106 337.616 952.26 337.616C951.232 337.616 950.226 337.396 949.241 336.957C948.257 336.518 947.505 335.916 946.987 335.151L948.252 333.688C949.298 334.979 950.577 335.625 952.089 335.625C953.275 335.625 954.198 335.292 954.857 334.624C955.525 333.956 955.859 333.015 955.859 331.802V330.576C954.884 331.701 953.552 332.264 951.865 332.264C950.195 332.264 948.841 331.591 947.804 330.247C946.776 328.902 946.262 327.069 946.262 324.749ZM948.714 325.026C948.714 326.634 949.043 327.9 949.703 328.823C950.362 329.737 951.285 330.194 952.471 330.194C954.009 330.194 955.139 329.495 955.859 328.098V321.585C955.112 320.223 953.992 319.542 952.498 319.542C951.311 319.542 950.384 320.003 949.716 320.926C949.048 321.849 948.714 323.215 948.714 325.026ZM819.884 355.444C817.713 354.82 816.131 354.055 815.138 353.15C814.153 352.236 813.661 351.111 813.661 349.775C813.661 348.263 814.263 347.015 815.467 346.031C816.68 345.038 818.253 344.541 820.187 344.541C821.505 344.541 822.679 344.796 823.707 345.306C824.744 345.815 825.544 346.519 826.106 347.415C826.678 348.312 826.963 349.292 826.963 350.355H824.419C824.419 349.195 824.05 348.285 823.312 347.626C822.573 346.958 821.532 346.624 820.187 346.624C818.939 346.624 817.963 346.901 817.26 347.455C816.566 348 816.219 348.76 816.219 349.735C816.219 350.518 816.548 351.181 817.208 351.726C817.875 352.262 819.005 352.754 820.596 353.203C822.195 353.651 823.443 354.147 824.34 354.692C825.245 355.229 825.913 355.857 826.344 356.578C826.783 357.298 827.003 358.146 827.003 359.122C827.003 360.678 826.396 361.926 825.184 362.866C823.971 363.798 822.349 364.264 820.319 364.264C819 364.264 817.77 364.013 816.627 363.512C815.485 363.002 814.602 362.308 813.978 361.429C813.362 360.55 813.055 359.553 813.055 358.437H815.599C815.599 359.597 816.025 360.515 816.878 361.192C817.739 361.86 818.886 362.194 820.319 362.194C821.655 362.194 822.679 361.921 823.391 361.376C824.103 360.832 824.458 360.089 824.458 359.148C824.458 358.208 824.129 357.483 823.47 356.973C822.811 356.455 821.615 355.945 819.884 355.444ZM835.796 364.264C833.863 364.264 832.29 363.631 831.077 362.365C829.864 361.091 829.257 359.39 829.257 357.263V356.815C829.257 355.4 829.525 354.139 830.062 353.031C830.606 351.915 831.362 351.045 832.329 350.421C833.305 349.788 834.359 349.472 835.493 349.472C837.348 349.472 838.789 350.083 839.817 351.304C840.846 352.526 841.36 354.275 841.36 356.551V357.566H831.696C831.731 358.973 832.14 360.111 832.922 360.981C833.713 361.842 834.715 362.273 835.928 362.273C836.79 362.273 837.519 362.097 838.117 361.746C838.714 361.394 839.237 360.928 839.686 360.348L841.175 361.508C839.98 363.345 838.187 364.264 835.796 364.264ZM835.493 351.476C834.509 351.476 833.683 351.836 833.015 352.557C832.347 353.269 831.934 354.271 831.775 355.562H838.921V355.378C838.851 354.139 838.517 353.181 837.919 352.504C837.321 351.818 836.513 351.476 835.493 351.476ZM849.916 362.273C850.786 362.273 851.546 362.009 852.197 361.482C852.847 360.955 853.208 360.295 853.278 359.504H855.585C855.541 360.322 855.26 361.1 854.741 361.838C854.223 362.576 853.528 363.165 852.658 363.604C851.797 364.044 850.883 364.264 849.916 364.264C847.974 364.264 846.427 363.618 845.275 362.326C844.133 361.025 843.562 359.25 843.562 357V356.591C843.562 355.202 843.816 353.967 844.326 352.886C844.836 351.805 845.565 350.966 846.515 350.368C847.473 349.771 848.602 349.472 849.903 349.472C851.502 349.472 852.83 349.951 853.884 350.909C854.948 351.867 855.515 353.11 855.585 354.64H853.278C853.208 353.717 852.856 352.961 852.223 352.372C851.599 351.774 850.826 351.476 849.903 351.476C848.664 351.476 847.701 351.924 847.016 352.82C846.339 353.708 846 354.996 846 356.683V357.145C846 358.788 846.339 360.054 847.016 360.941C847.692 361.829 848.659 362.273 849.916 362.273ZM865.222 351.924C864.853 351.862 864.453 351.832 864.022 351.832C862.423 351.832 861.337 352.513 860.766 353.875V364H858.327V349.735H860.7L860.74 351.383C861.54 350.109 862.673 349.472 864.141 349.472C864.616 349.472 864.976 349.533 865.222 349.656V351.924ZM873.132 364.264C871.199 364.264 869.625 363.631 868.413 362.365C867.2 361.091 866.593 359.39 866.593 357.263V356.815C866.593 355.4 866.861 354.139 867.397 353.031C867.942 351.915 868.698 351.045 869.665 350.421C870.641 349.788 871.695 349.472 872.829 349.472C874.684 349.472 876.125 350.083 877.153 351.304C878.182 352.526 878.696 354.275 878.696 356.551V357.566H869.032C869.067 358.973 869.476 360.111 870.258 360.981C871.049 361.842 872.051 362.273 873.264 362.273C874.125 362.273 874.855 362.097 875.453 361.746C876.05 361.394 876.573 360.928 877.021 360.348L878.511 361.508C877.316 363.345 875.523 364.264 873.132 364.264ZM872.829 351.476C871.845 351.476 871.019 351.836 870.351 352.557C869.683 353.269 869.27 354.271 869.111 355.562H876.257V355.378C876.187 354.139 875.853 353.181 875.255 352.504C874.657 351.818 873.849 351.476 872.829 351.476ZM884.839 346.281V349.735H887.502V351.621H884.839V360.467C884.839 361.038 884.958 361.469 885.195 361.759C885.433 362.04 885.837 362.181 886.408 362.181C886.689 362.181 887.076 362.128 887.568 362.022V364C886.927 364.176 886.303 364.264 885.696 364.264C884.606 364.264 883.785 363.934 883.231 363.275C882.677 362.616 882.4 361.68 882.4 360.467V351.621H879.803V349.735H882.4V346.281H884.839ZM898.669 360.216C898.669 359.557 898.418 359.047 897.917 358.687C897.425 358.318 896.56 358.001 895.32 357.738C894.09 357.474 893.11 357.158 892.38 356.789C891.66 356.419 891.124 355.98 890.772 355.47C890.429 354.96 890.258 354.354 890.258 353.651C890.258 352.482 890.75 351.493 891.734 350.685C892.728 349.876 893.993 349.472 895.531 349.472C897.148 349.472 898.458 349.889 899.46 350.724C900.471 351.559 900.976 352.627 900.976 353.928H898.524C898.524 353.26 898.238 352.684 897.667 352.201C897.104 351.717 896.393 351.476 895.531 351.476C894.644 351.476 893.949 351.669 893.448 352.056C892.947 352.442 892.697 352.948 892.697 353.572C892.697 354.161 892.93 354.604 893.396 354.903C893.861 355.202 894.701 355.488 895.914 355.76C897.135 356.033 898.124 356.358 898.88 356.736C899.636 357.114 900.194 357.571 900.554 358.107C900.923 358.634 901.108 359.28 901.108 360.045C901.108 361.319 900.598 362.343 899.579 363.117C898.559 363.881 897.236 364.264 895.61 364.264C894.468 364.264 893.457 364.062 892.578 363.657C891.699 363.253 891.009 362.69 890.508 361.97C890.016 361.24 889.77 360.454 889.77 359.61H892.209C892.253 360.427 892.578 361.078 893.185 361.561C893.8 362.036 894.608 362.273 895.61 362.273C896.533 362.273 897.271 362.088 897.825 361.719C898.388 361.341 898.669 360.84 898.669 360.216ZM913.276 349.735L913.342 351.317C914.388 350.087 915.799 349.472 917.574 349.472C919.569 349.472 920.927 350.236 921.648 351.766C922.123 351.08 922.738 350.526 923.494 350.104C924.258 349.683 925.159 349.472 926.196 349.472C929.325 349.472 930.916 351.128 930.969 354.442V364H928.53V354.587C928.53 353.567 928.297 352.807 927.831 352.306C927.365 351.796 926.583 351.542 925.484 351.542C924.579 351.542 923.828 351.814 923.23 352.359C922.632 352.895 922.285 353.62 922.188 354.534V364H919.736V354.653C919.736 352.579 918.721 351.542 916.691 351.542C915.091 351.542 913.997 352.223 913.408 353.585V364H910.969V349.735H913.276ZM943.467 364C943.326 363.719 943.212 363.218 943.124 362.497C941.99 363.675 940.637 364.264 939.063 364.264C937.657 364.264 936.501 363.868 935.596 363.077C934.7 362.277 934.251 361.267 934.251 360.045C934.251 358.56 934.814 357.408 935.939 356.591C937.073 355.765 938.664 355.352 940.711 355.352H943.084V354.231C943.084 353.378 942.83 352.702 942.32 352.201C941.81 351.691 941.059 351.436 940.065 351.436C939.195 351.436 938.466 351.656 937.877 352.095C937.288 352.535 936.994 353.066 936.994 353.69H934.542C934.542 352.979 934.792 352.293 935.293 351.634C935.803 350.966 936.488 350.438 937.35 350.052C938.22 349.665 939.173 349.472 940.21 349.472C941.854 349.472 943.142 349.885 944.073 350.711C945.005 351.528 945.488 352.658 945.523 354.099V360.665C945.523 361.974 945.69 363.016 946.024 363.789V364H943.467ZM939.419 362.141C940.184 362.141 940.909 361.943 941.595 361.548C942.28 361.152 942.777 360.638 943.084 360.005V357.079H941.173C938.185 357.079 936.69 357.953 936.69 359.702C936.69 360.467 936.945 361.064 937.455 361.495C937.965 361.926 938.62 362.141 939.419 362.141ZM951.654 349.735L951.733 351.528C952.823 350.157 954.247 349.472 956.004 349.472C959.019 349.472 960.54 351.172 960.566 354.574V364H958.127V354.561C958.118 353.532 957.881 352.772 957.415 352.28C956.958 351.788 956.242 351.542 955.266 351.542C954.475 351.542 953.781 351.752 953.183 352.174C952.585 352.596 952.12 353.15 951.786 353.835V364H949.347V349.735H951.654ZM973.051 364C972.91 363.719 972.796 363.218 972.708 362.497C971.574 363.675 970.221 364.264 968.647 364.264C967.241 364.264 966.085 363.868 965.18 363.077C964.284 362.277 963.835 361.267 963.835 360.045C963.835 358.56 964.398 357.408 965.523 356.591C966.657 355.765 968.248 355.352 970.295 355.352H972.668V354.231C972.668 353.378 972.414 352.702 971.904 352.201C971.394 351.691 970.643 351.436 969.649 351.436C968.779 351.436 968.05 351.656 967.461 352.095C966.872 352.535 966.578 353.066 966.578 353.69H964.125C964.125 352.979 964.376 352.293 964.877 351.634C965.387 350.966 966.072 350.438 966.934 350.052C967.804 349.665 968.757 349.472 969.794 349.472C971.438 349.472 972.726 349.885 973.657 350.711C974.589 351.528 975.072 352.658 975.107 354.099V360.665C975.107 361.974 975.274 363.016 975.608 363.789V364H973.051ZM969.003 362.141C969.768 362.141 970.493 361.943 971.179 361.548C971.864 361.152 972.361 360.638 972.668 360.005V357.079H970.757C967.769 357.079 966.274 357.953 966.274 359.702C966.274 360.467 966.529 361.064 967.039 361.495C967.549 361.926 968.204 362.141 969.003 362.141ZM978.351 356.749C978.351 354.525 978.865 352.759 979.893 351.449C980.921 350.131 982.284 349.472 983.98 349.472C985.72 349.472 987.078 350.087 988.054 351.317L988.172 349.735H990.4V363.657C990.4 365.503 989.851 366.958 988.752 368.021C987.663 369.084 986.195 369.616 984.349 369.616C983.321 369.616 982.314 369.396 981.33 368.957C980.346 368.518 979.594 367.916 979.076 367.151L980.341 365.688C981.387 366.979 982.666 367.625 984.178 367.625C985.364 367.625 986.287 367.292 986.946 366.624C987.614 365.956 987.948 365.015 987.948 363.802V362.576C986.973 363.701 985.641 364.264 983.954 364.264C982.284 364.264 980.93 363.591 979.893 362.247C978.865 360.902 978.351 359.069 978.351 356.749ZM980.803 357.026C980.803 358.634 981.132 359.9 981.792 360.823C982.451 361.737 983.374 362.194 984.56 362.194C986.098 362.194 987.228 361.495 987.948 360.098V353.585C987.201 352.223 986.081 351.542 984.586 351.542C983.4 351.542 982.473 352.003 981.805 352.926C981.137 353.849 980.803 355.215 980.803 357.026ZM1000.01 364.264C998.078 364.264 996.504 363.631 995.292 362.365C994.079 361.091 993.472 359.39 993.472 357.263V356.815C993.472 355.4 993.74 354.139 994.276 353.031C994.821 351.915 995.577 351.045 996.544 350.421C997.52 349.788 998.574 349.472 999.708 349.472C1001.56 349.472 1003 350.083 1004.03 351.304C1005.06 352.526 1005.57 354.275 1005.57 356.551V357.566H995.911C995.946 358.973 996.355 360.111 997.137 360.981C997.928 361.842 998.93 362.273 1000.14 362.273C1001 362.273 1001.73 362.097 1002.33 361.746C1002.93 361.394 1003.45 360.928 1003.9 360.348L1005.39 361.508C1004.19 363.345 1002.4 364.264 1000.01 364.264ZM999.708 351.476C998.724 351.476 997.897 351.836 997.229 352.557C996.562 353.269 996.148 354.271 995.99 355.562H1003.14V355.378C1003.07 354.139 1002.73 353.181 1002.13 352.504C1001.54 351.818 1000.73 351.476 999.708 351.476ZM1010.7 349.735L1010.77 351.317C1011.81 350.087 1013.23 349.472 1015 349.472C1017 349.472 1018.35 350.236 1019.07 351.766C1019.55 351.08 1020.16 350.526 1020.92 350.104C1021.69 349.683 1022.59 349.472 1023.62 349.472C1026.75 349.472 1028.34 351.128 1028.4 354.442V364H1025.96V354.587C1025.96 353.567 1025.72 352.807 1025.26 352.306C1024.79 351.796 1024.01 351.542 1022.91 351.542C1022.01 351.542 1021.25 351.814 1020.66 352.359C1020.06 352.895 1019.71 353.62 1019.62 354.534V364H1017.16V354.653C1017.16 352.579 1016.15 351.542 1014.12 351.542C1012.52 351.542 1011.42 352.223 1010.83 353.585V364H1008.4V349.735H1010.7ZM1038.01 364.264C1036.07 364.264 1034.5 363.631 1033.29 362.365C1032.07 361.091 1031.47 359.39 1031.47 357.263V356.815C1031.47 355.4 1031.74 354.139 1032.27 353.031C1032.82 351.915 1033.57 351.045 1034.54 350.421C1035.51 349.788 1036.57 349.472 1037.7 349.472C1039.56 349.472 1041 350.083 1042.03 351.304C1043.06 352.526 1043.57 354.275 1043.57 356.551V357.566H1033.91C1033.94 358.973 1034.35 360.111 1035.13 360.981C1035.92 361.842 1036.93 362.273 1038.14 362.273C1039 362.273 1039.73 362.097 1040.33 361.746C1040.92 361.394 1041.45 360.928 1041.9 360.348L1043.39 361.508C1042.19 363.345 1040.4 364.264 1038.01 364.264ZM1037.7 351.476C1036.72 351.476 1035.89 351.836 1035.22 352.557C1034.56 353.269 1034.14 354.271 1033.99 355.562H1041.13V355.378C1041.06 354.139 1040.73 353.181 1040.13 352.504C1039.53 351.818 1038.72 351.476 1037.7 351.476ZM1048.71 349.735L1048.79 351.528C1049.88 350.157 1051.3 349.472 1053.06 349.472C1056.08 349.472 1057.6 351.172 1057.62 354.574V364H1055.18V354.561C1055.18 353.532 1054.94 352.772 1054.47 352.28C1054.02 351.788 1053.3 351.542 1052.32 351.542C1051.53 351.542 1050.84 351.752 1050.24 352.174C1049.64 352.596 1049.18 353.15 1048.84 353.835V364H1046.4V349.735H1048.71ZM1064.61 346.281V349.735H1067.27V351.621H1064.61V360.467C1064.61 361.038 1064.73 361.469 1064.97 361.759C1065.2 362.04 1065.61 362.181 1066.18 362.181C1066.46 362.181 1066.85 362.128 1067.34 362.022V364C1066.7 364.176 1066.07 364.264 1065.47 364.264C1064.38 364.264 1063.56 363.934 1063 363.275C1062.45 362.616 1062.17 361.68 1062.17 360.467V351.621H1059.57V349.735H1062.17V346.281H1064.61Z" fill="#00010D"/>
<path d="M918.512 496.527H1079.75V499.545H918.512V496.527ZM920.524 504.072L908.451 498.036L920.524 492V504.072ZM1077.73 492L1089.81 498.036L1077.73 504.072V492Z" fill="#00010D"/>
<path d="M491.061 496.527H652.294V499.545H491.061V496.527ZM493.072 504.072L481 498.036L493.072 492V504.072ZM650.283 492L662.355 498.036L650.283 504.072V492Z" fill="#00010D"/>
<path d="M735.348 103.909C735.11 105.939 734.359 107.508 733.093 108.616C731.836 109.714 730.162 110.264 728.07 110.264C725.803 110.264 723.983 109.451 722.612 107.825C721.25 106.199 720.569 104.023 720.569 101.299V99.4531C720.569 97.6689 720.885 96.1001 721.518 94.7466C722.16 93.3931 723.065 92.356 724.234 91.6353C725.403 90.9058 726.756 90.541 728.294 90.541C730.333 90.541 731.968 91.1123 733.199 92.2549C734.429 93.3887 735.146 94.9619 735.348 96.9746H732.803C732.583 95.4453 732.104 94.3379 731.366 93.6523C730.637 92.9668 729.613 92.624 728.294 92.624C726.677 92.624 725.407 93.2217 724.484 94.417C723.57 95.6123 723.113 97.313 723.113 99.519V101.378C723.113 103.461 723.548 105.118 724.418 106.348C725.289 107.579 726.506 108.194 728.07 108.194C729.477 108.194 730.553 107.877 731.3 107.245C732.056 106.603 732.557 105.491 732.803 103.909H735.348ZM737.787 102.736C737.787 101.338 738.059 100.082 738.604 98.9653C739.158 97.8491 739.922 96.9878 740.898 96.3813C741.882 95.7749 743.003 95.4717 744.26 95.4717C746.202 95.4717 747.771 96.144 748.966 97.4888C750.17 98.8335 750.772 100.622 750.772 102.854V103.026C750.772 104.415 750.504 105.663 749.968 106.77C749.441 107.869 748.681 108.726 747.688 109.341C746.703 109.956 745.569 110.264 744.286 110.264C742.353 110.264 740.784 109.591 739.58 108.247C738.384 106.902 737.787 105.122 737.787 102.907V102.736ZM740.239 103.026C740.239 104.608 740.604 105.878 741.333 106.836C742.071 107.794 743.056 108.273 744.286 108.273C745.525 108.273 746.51 107.79 747.239 106.823C747.969 105.847 748.333 104.485 748.333 102.736C748.333 101.171 747.96 99.9058 747.213 98.939C746.475 97.9634 745.49 97.4756 744.26 97.4756C743.056 97.4756 742.084 97.9546 741.346 98.9126C740.608 99.8706 740.239 101.242 740.239 103.026ZM753.185 102.736C753.185 101.338 753.458 100.082 754.002 98.9653C754.556 97.8491 755.321 96.9878 756.296 96.3813C757.281 95.7749 758.401 95.4717 759.658 95.4717C761.601 95.4717 763.169 96.144 764.365 97.4888C765.569 98.8335 766.171 100.622 766.171 102.854V103.026C766.171 104.415 765.903 105.663 765.367 106.77C764.839 107.869 764.079 108.726 763.086 109.341C762.102 109.956 760.968 110.264 759.685 110.264C757.751 110.264 756.182 109.591 754.978 108.247C753.783 106.902 753.185 105.122 753.185 102.907V102.736ZM755.637 103.026C755.637 104.608 756.002 105.878 756.731 106.836C757.47 107.794 758.454 108.273 759.685 108.273C760.924 108.273 761.908 107.79 762.638 106.823C763.367 105.847 763.732 104.485 763.732 102.736C763.732 101.171 763.358 99.9058 762.611 98.939C761.873 97.9634 760.889 97.4756 759.658 97.4756C758.454 97.4756 757.483 97.9546 756.745 98.9126C756.006 99.8706 755.637 101.242 755.637 103.026ZM776.125 97.9238C775.755 97.8623 775.355 97.8315 774.925 97.8315C773.325 97.8315 772.24 98.5127 771.668 99.875V110H769.229V95.7354H771.603L771.642 97.3833C772.442 96.1089 773.576 95.4717 775.043 95.4717C775.518 95.4717 775.878 95.5332 776.125 95.6562V97.9238ZM777.522 102.749C777.522 100.561 778.041 98.8027 779.078 97.4756C780.115 96.1396 781.473 95.4717 783.151 95.4717C784.821 95.4717 786.144 96.043 787.12 97.1855V89.75H789.559V110H787.317L787.199 108.471C786.223 109.666 784.865 110.264 783.125 110.264C781.473 110.264 780.124 109.587 779.078 108.233C778.041 106.88 777.522 105.113 777.522 102.934V102.749ZM779.961 103.026C779.961 104.643 780.295 105.909 780.963 106.823C781.631 107.737 782.554 108.194 783.731 108.194C785.278 108.194 786.408 107.5 787.12 106.111V99.5586C786.39 98.2139 785.27 97.5415 783.758 97.5415C782.562 97.5415 781.631 98.0029 780.963 98.9258C780.295 99.8486 779.961 101.215 779.961 103.026ZM796.005 110H793.566V95.7354H796.005V110ZM793.369 91.9517C793.369 91.5562 793.487 91.2222 793.725 90.9497C793.971 90.6772 794.331 90.541 794.806 90.541C795.28 90.541 795.641 90.6772 795.887 90.9497C796.133 91.2222 796.256 91.5562 796.256 91.9517C796.256 92.3472 796.133 92.6768 795.887 92.9404C795.641 93.2041 795.28 93.3359 794.806 93.3359C794.331 93.3359 793.971 93.2041 793.725 92.9404C793.487 92.6768 793.369 92.3472 793.369 91.9517ZM802.228 95.7354L802.307 97.5283C803.397 96.1572 804.821 95.4717 806.579 95.4717C809.593 95.4717 811.114 97.1724 811.14 100.574V110H808.701V100.561C808.692 99.5322 808.455 98.772 807.989 98.2798C807.532 97.7876 806.816 97.5415 805.84 97.5415C805.049 97.5415 804.355 97.7524 803.757 98.1743C803.16 98.5962 802.694 99.1499 802.36 99.8354V110H799.921V95.7354H802.228ZM823.625 110C823.484 109.719 823.37 109.218 823.282 108.497C822.148 109.675 820.795 110.264 819.222 110.264C817.815 110.264 816.66 109.868 815.754 109.077C814.858 108.277 814.41 107.267 814.41 106.045C814.41 104.56 814.972 103.408 816.097 102.591C817.231 101.765 818.822 101.352 820.87 101.352H823.243V100.231C823.243 99.3784 822.988 98.7017 822.478 98.2007C821.968 97.6909 821.217 97.436 820.224 97.436C819.354 97.436 818.624 97.6558 818.035 98.0952C817.446 98.5347 817.152 99.0664 817.152 99.6904H814.7C814.7 98.9785 814.95 98.293 815.451 97.6338C815.961 96.9658 816.646 96.4385 817.508 96.0518C818.378 95.665 819.332 95.4717 820.369 95.4717C822.012 95.4717 823.3 95.8848 824.231 96.7109C825.163 97.5283 825.646 98.6577 825.682 100.099V106.665C825.682 107.974 825.849 109.016 826.183 109.789V110H823.625ZM819.578 108.141C820.342 108.141 821.067 107.943 821.753 107.548C822.438 107.152 822.935 106.638 823.243 106.005V103.079H821.331C818.343 103.079 816.849 103.953 816.849 105.702C816.849 106.467 817.104 107.064 817.613 107.495C818.123 107.926 818.778 108.141 819.578 108.141ZM832.814 92.2812V95.7354H835.477V97.6206H832.814V106.467C832.814 107.038 832.933 107.469 833.17 107.759C833.407 108.04 833.812 108.181 834.383 108.181C834.664 108.181 835.051 108.128 835.543 108.022V110C834.901 110.176 834.277 110.264 833.671 110.264C832.581 110.264 831.759 109.934 831.206 109.275C830.652 108.616 830.375 107.68 830.375 106.467V97.6206H827.778V95.7354H830.375V92.2812H832.814ZM837.428 102.736C837.428 101.338 837.701 100.082 838.246 98.9653C838.799 97.8491 839.564 96.9878 840.54 96.3813C841.524 95.7749 842.645 95.4717 843.901 95.4717C845.844 95.4717 847.413 96.144 848.608 97.4888C849.812 98.8335 850.414 100.622 850.414 102.854V103.026C850.414 104.415 850.146 105.663 849.61 106.77C849.083 107.869 848.322 108.726 847.329 109.341C846.345 109.956 845.211 110.264 843.928 110.264C841.994 110.264 840.425 109.591 839.221 108.247C838.026 106.902 837.428 105.122 837.428 102.907V102.736ZM839.88 103.026C839.88 104.608 840.245 105.878 840.975 106.836C841.713 107.794 842.697 108.273 843.928 108.273C845.167 108.273 846.151 107.79 846.881 106.823C847.61 105.847 847.975 104.485 847.975 102.736C847.975 101.171 847.602 99.9058 846.854 98.939C846.116 97.9634 845.132 97.4756 843.901 97.4756C842.697 97.4756 841.726 97.9546 840.988 98.9126C840.25 99.8706 839.88 101.242 839.88 103.026ZM860.368 97.9238C859.999 97.8623 859.599 97.8315 859.168 97.8315C857.568 97.8315 856.483 98.5127 855.912 99.875V110H853.473V95.7354H855.846L855.885 97.3833C856.685 96.1089 857.819 95.4717 859.287 95.4717C859.761 95.4717 860.122 95.5332 860.368 95.6562V97.9238Z" fill="black"/>
</svg>
