<?xml version="1.0" encoding="UTF-8" standalone="no"?>
<svg
   width="1439"
   height="467"
   viewBox="0 0 1439 467"
   fill="none"
   version="1.1"
   id="svg43"
   sodipodi:docname="MarbleRun logo with text 2024.svg"
   inkscape:version="1.1 (c68e22c387, 2021-05-23)"
   xmlns:inkscape="http://www.inkscape.org/namespaces/inkscape"
   xmlns:sodipodi="http://sodipodi.sourceforge.net/DTD/sodipodi-0.dtd"
   xmlns="http://www.w3.org/2000/svg"
   xmlns:svg="http://www.w3.org/2000/svg">
  <sodipodi:namedview
     id="namedview45"
     pagecolor="#ffffff"
     bordercolor="#666666"
     borderopacity="1.0"
     inkscape:pageshadow="2"
     inkscape:pageopacity="0.0"
     inkscape:pagecheckerboard="0"
     showgrid="false"
     inkscape:zoom="0.46629604"
     inkscape:cx="414.97243"
     inkscape:cy="-106.15574"
     inkscape:window-width="2560"
     inkscape:window-height="1351"
     inkscape:window-x="-9"
     inkscape:window-y="-9"
     inkscape:window-maximized="1"
     inkscape:current-layer="text4627" />
  <g
     clip-path="url(#clip0_1029_119)"
     id="g36">
    <path
       d="M90.3138 61.7645C107.356 61.7645 121.171 47.9381 121.171 30.8823C121.171 13.8265 107.356 0 90.3138 0C73.2718 0 59.4565 13.8265 59.4565 30.8823C59.4565 47.9381 73.2718 61.7645 90.3138 61.7645Z"
       fill="#929292"
       id="path2" />
    <path
       d="M212.237 249.317C229.279 249.317 243.095 235.491 243.095 218.435C243.095 201.379 229.279 187.553 212.237 187.553C195.195 187.553 181.38 201.379 181.38 218.435C181.38 235.491 195.195 249.317 212.237 249.317Z"
       fill="#929292"
       id="path4" />
    <path
       d="M249.116 163.45V98.6729L0 174.749V239.526L249.116 163.45Z"
       fill="#999999"
       id="path6" />
    <path
       d="M249.116 314.849V250.071L0 326.147V390.925L249.116 314.849Z"
       fill="#999999"
       id="path8" />
    <path
       d="M0 87.3741V22.5967L249.116 98.6725V163.45L0 87.3741Z"
       fill="black"
       id="path10" />
    <path
       d="M0 239.525V174.748L249.116 250.071V314.848L0 239.525Z"
       fill="black"
       id="path12" />
    <path
       d="M85.7981 363.808C102.84 363.808 116.655 349.982 116.655 332.926C116.655 315.87 102.84 302.044 85.7981 302.044C68.7562 302.044 54.9409 315.87 54.9409 332.926C54.9409 349.982 68.7562 363.808 85.7981 363.808Z"
       fill="#75FB7A"
       id="path14" />
    <path
       d="M0 390.924V326.146L249.116 402.222V467L0 390.924Z"
       fill="black"
       id="path16" />
    <g
       aria-label="MarbleRun"
       transform="matrix(5.3620704,0,0,5.3620704,-1441.9112,-735.79699)"
       id="text4627"
       style="font-size:40px;line-height:1.25;font-family:Inter;-inkscape-font-specification:'Inter, @wght=700';font-variation-settings:'wght' 700;white-space:pre;shape-inside:url(#rect4629);fill:#000000">
      <path
         d="m 329.57333,167.6974 h 7.58523 l 8.01136,19.54546 h 0.34091 l 8.01136,-19.54546 h 7.58523 v 29.09091 h -5.96591 v -18.93466 h -0.24147 l -7.52841,18.79262 h -4.0625 l -7.52841,-18.86364 h -0.24148 v 19.00568 h -5.96591 z"
         id="path8086" />
      <path
         d="m 372.27217,197.20024 q -2.08807,0 -3.72159,-0.72443 -1.63353,-0.73864 -2.58523,-2.17329 -0.9375,-1.44887 -0.9375,-3.60796 0,-1.81818 0.66761,-3.05398 0.66762,-1.23579 1.81818,-1.98863 1.15057,-0.75284 2.61364,-1.13637 1.47727,-0.38352 3.09659,-0.53977 1.90341,-0.19886 3.06818,-0.36932 1.16478,-0.18466 1.69034,-0.53977 0.52557,-0.35511 0.52557,-1.05114 v -0.0852 q 0,-1.34944 -0.85227,-2.08807 -0.83807,-0.73864 -2.38636,-0.73864 -1.63353,0 -2.59944,0.72443 -0.9659,0.71023 -1.2784,1.78978 l -5.5966,-0.45455 q 0.42614,-1.98864 1.67614,-3.4375 1.25,-1.46307 3.22443,-2.24432 1.98864,-0.79545 4.60228,-0.79545 1.81818,0 3.48011,0.42613 1.67614,0.42614 2.96875,1.32103 1.30682,0.89488 2.05966,2.30113 0.75284,1.39205 0.75284,3.33807 v 14.71591 h -5.73864 v -3.02557 h -0.17045 q -0.52557,1.02273 -1.40625,1.80398 -0.88068,0.76705 -2.11648,1.20739 -1.23579,0.42613 -2.85511,0.42613 z m 1.73295,-4.17613 q 1.33523,0 2.35796,-0.52557 1.02272,-0.53977 1.60511,-1.44887 0.58239,-0.90909 0.58239,-2.05965 v -2.31535 q -0.28409,0.18466 -0.78125,0.34091 -0.48296,0.14205 -1.09375,0.26989 -0.6108,0.11364 -1.22159,0.21307 -0.6108,0.0852 -1.10796,0.15625 -1.06534,0.15625 -1.86079,0.49716 -0.79546,0.34091 -1.2358,0.92329 -0.44034,0.56818 -0.44034,1.42046 0,1.23579 0.89489,1.8892 0.90909,0.63921 2.30113,0.63921 z"
         id="path8088" />
      <path
         d="m 389.2608,196.78831 v -21.81818 h 5.86647 v 3.80682 h 0.22728 q 0.59659,-2.03125 2.00284,-3.06818 1.40625,-1.05114 3.23863,-1.05114 0.45455,0 0.98012,0.0568 0.52557,0.0568 0.92329,0.15625 v 5.36932 q -0.42613,-0.12785 -1.17897,-0.22728 -0.75285,-0.0994 -1.37785,-0.0994 -1.33522,0 -2.38636,0.58239 -1.03693,0.56818 -1.64773,1.59091 -0.59659,1.02272 -0.59659,2.35795 v 12.34375 z"
         id="path8090" />
      <path
         d="M 405.72384,196.78831 V 167.6974 h 6.05114 v 10.9375 h 0.18466 q 0.39773,-0.88068 1.15057,-1.78977 0.76704,-0.9233 1.98863,-1.53409 1.2358,-0.625 3.06819,-0.625 2.38636,0 4.4034,1.25 2.01705,1.23579 3.22444,3.73579 1.20738,2.4858 1.20738,6.2358 0,3.65057 -1.17897,6.16477 -1.16478,2.5 -3.18182,3.79262 -2.00284,1.2784 -4.48864,1.2784 -1.76136,0 -2.99716,-0.58238 -1.22159,-0.58239 -2.00284,-1.46307 -0.78125,-0.89489 -1.19318,-1.80398 h -0.26989 v 3.49432 z m 5.9233,-10.90909 q 0,1.94602 0.53977,3.39489 0.53977,1.44886 1.5625,2.25852 1.02273,0.79545 2.4858,0.79545 1.47727,0 2.5,-0.80966 1.02272,-0.82386 1.54829,-2.27272 0.53978,-1.46307 0.53978,-3.36648 0,-1.8892 -0.52557,-3.32386 -0.52557,-1.43466 -1.5483,-2.24432 -1.02273,-0.80966 -2.5142,-0.80966 -1.47728,0 -2.5,0.78125 -1.00853,0.78125 -1.5483,2.21591 -0.53977,1.43466 -0.53977,3.38068 z"
         id="path8092" />
      <path
         d="m 437.07325,167.6974 v 29.09091 h -6.05113 V 167.6974 Z"
         id="path8094" />
      <path
         d="m 451.84596,197.21445 q -3.36648,0 -5.79545,-1.36364 -2.41478,-1.37784 -3.72159,-3.89204 -1.30682,-2.52841 -1.30682,-5.98012 0,-3.36648 1.30682,-5.90909 1.30681,-2.54261 3.67897,-3.96307 2.38637,-1.42045 5.59659,-1.42045 2.15909,0 4.01989,0.69602 1.875,0.68182 3.26705,2.05966 1.40625,1.37784 2.1875,3.46591 0.78125,2.07386 0.78125,4.85795 v 1.66194 h -18.4233 v -3.75 h 12.72727 q 0,-1.30682 -0.56818,-2.31535 -0.56818,-1.00852 -1.5767,-1.5767 -0.99432,-0.58239 -2.31534,-0.58239 -1.37785,0 -2.44319,0.63921 -1.05113,0.625 -1.64772,1.69034 -0.59659,1.05114 -0.6108,2.34375 v 3.56534 q 0,1.61932 0.59659,2.7983 0.6108,1.17897 1.71875,1.81818 1.10796,0.6392 2.62784,0.6392 1.00853,0 1.84659,-0.28409 0.83807,-0.28409 1.43466,-0.85227 0.59659,-0.56818 0.90909,-1.39205 l 5.59659,0.36932 q -0.42613,2.01705 -1.74715,3.52273 -1.30682,1.49148 -3.38069,2.32954 -2.05966,0.82387 -4.75852,0.82387 z"
         id="path8096" />
      <path
         d="M 465.92259,196.78831 V 167.6974 h 11.47727 q 3.29546,0 5.625,1.17898 2.34375,1.16477 3.56534,3.30966 1.2358,2.13068 1.2358,5.0142 0,2.89773 -1.25,4.9858 -1.25,2.07386 -3.62216,3.18182 -2.35796,1.10795 -5.71023,1.10795 h -7.68466 v -4.94318 h 6.69034 q 1.76137,0 2.92614,-0.48296 1.16477,-0.48295 1.73295,-1.44886 0.58239,-0.96591 0.58239,-2.40057 0,-1.44886 -0.58239,-2.44318 -0.56818,-0.99432 -1.74715,-1.50568 -1.16478,-0.52557 -2.94035,-0.52557 h -4.14772 v 24.0625 z m 15.71023,-13.23864 7.23011,13.23864 h -6.78977 l -7.07387,-13.23864 z"
         id="path8098" />
      <path
         d="m 506.05035,187.49854 v -12.52841 h 6.05114 v 21.81818 h -5.80966 v -3.96307 h -0.22727 q -0.73864,1.91762 -2.45739,3.08239 -1.70454,1.16477 -4.16193,1.16477 -2.1875,0 -3.84943,-0.99432 -1.66193,-0.99431 -2.59943,-2.8267 -0.9233,-1.83239 -0.9375,-4.38921 v -13.89204 h 6.05113 v 12.8125 q 0.0142,1.93182 1.03693,3.05398 1.02273,1.12216 2.74148,1.12216 1.09375,0 2.04546,-0.49716 0.9517,-0.51137 1.53409,-1.50569 0.59659,-0.99431 0.58238,-2.45738 z"
         id="path8100" />
      <path
         d="m 522.98214,184.17467 v 12.61364 h -6.05113 v -21.81818 h 5.76704 v 3.84943 h 0.25569 q 0.72443,-1.90341 2.42897,-3.01136 1.70455,-1.12216 4.13353,-1.12216 2.27272,0 3.96306,0.99432 1.69034,0.99431 2.62784,2.84091 0.9375,1.83238 0.9375,4.375 v 13.89204 h -6.05113 v -12.8125 q 0.0142,-2.00284 -1.02273,-3.125 -1.03693,-1.13636 -2.85511,-1.13636 -1.22159,0 -2.15909,0.52557 -0.9233,0.52556 -1.44887,1.53409 -0.51136,0.99431 -0.52557,2.40056 z"
         id="path8102" />
    </g>
  </g>
  <defs
     id="defs41">
    <rect
       x="327.04545"
       y="159.76975"
       width="1080.8584"
       height="196.22727"
       id="rect4629" />
    <clipPath
       id="clip0_1029_119">
      <rect
         width="1439"
         height="467"
         fill="white"
         id="rect38" />
    </clipPath>
  </defs>
</svg>
