<svg width="1439" height="467" viewBox="0 0 1439 467" fill="none" xmlns="http://www.w3.org/2000/svg">
<g clip-path="url(#clip0_1029_119)">
<path d="M90.3138 61.7645C107.356 61.7645 121.171 47.9381 121.171 30.8823C121.171 13.8265 107.356 0 90.3138 0C73.2718 0 59.4565 13.8265 59.4565 30.8823C59.4565 47.9381 73.2718 61.7645 90.3138 61.7645Z" fill="#929292"/>
<path d="M212.237 249.317C229.279 249.317 243.095 235.491 243.095 218.435C243.095 201.379 229.279 187.553 212.237 187.553C195.195 187.553 181.38 201.379 181.38 218.435C181.38 235.491 195.195 249.317 212.237 249.317Z" fill="#929292"/>
<path d="M249.116 163.45V98.6729L0 174.749V239.526L249.116 163.45Z" fill="#999999"/>
<path d="M249.116 314.849V250.071L0 326.147V390.925L249.116 314.849Z" fill="#999999"/>
<path d="M0 87.3741V22.5967L249.116 98.6725V163.45L0 87.3741Z" fill="black"/>
<path d="M0 239.525V174.748L249.116 250.071V314.848L0 239.525Z" fill="black"/>
<path d="M85.7981 363.808C102.84 363.808 116.655 349.982 116.655 332.926C116.655 315.87 102.84 302.044 85.7981 302.044C68.7562 302.044 54.9409 315.87 54.9409 332.926C54.9409 349.982 68.7562 363.808 85.7981 363.808Z" fill="#75FB7A"/>
<path d="M0 390.924V326.146L249.116 402.222V467L0 390.924Z" fill="black"/>
<path d="M1311.08 239.651V309.199H1293.33V193.587H1310.47V211.652H1311.98C1314.69 205.781 1318.8 201.064 1324.31 197.501C1329.83 193.888 1336.95 192.082 1345.67 192.082C1353.49 192.082 1360.34 193.688 1366.2 196.899C1372.07 200.06 1376.63 204.878 1379.89 211.351C1383.15 217.774 1384.78 225.902 1384.78 235.737V309.199H1367.03V236.942C1367.03 227.859 1364.67 220.784 1359.96 215.716C1355.25 210.598 1348.78 208.039 1340.56 208.039C1334.89 208.039 1329.83 209.268 1325.36 211.727C1320.95 214.186 1317.47 217.774 1314.91 222.49C1312.35 227.207 1311.08 232.927 1311.08 239.651Z" fill="black"/>
<path d="M1243.07 261.93V193.587H1260.82V309.199H1243.07V289.629H1241.87C1239.16 295.5 1234.95 300.493 1229.23 304.607C1223.52 308.672 1216.3 310.704 1207.57 310.704C1200.35 310.704 1193.93 309.123 1188.32 305.962C1182.7 302.751 1178.29 297.933 1175.08 291.511C1171.87 285.038 1170.27 276.884 1170.27 267.048V193.587H1188.02V265.844C1188.02 274.274 1190.37 280.998 1195.09 286.016C1199.85 291.034 1205.92 293.543 1213.29 293.543C1217.7 293.543 1222.19 292.414 1226.75 290.156C1231.36 287.898 1235.22 284.435 1238.33 279.769C1241.49 275.102 1243.07 269.156 1243.07 261.93Z" fill="black"/>
<path d="M1037.21 309.199V155.05H1089.25C1101.29 155.05 1111.16 157.107 1118.88 161.222C1126.6 165.286 1132.32 170.881 1136.03 178.007C1139.74 185.132 1141.6 193.236 1141.6 202.318C1141.6 211.4 1139.74 219.454 1136.03 226.479C1132.32 233.504 1126.63 239.024 1118.96 243.038C1111.29 247.002 1101.49 248.984 1089.55 248.984H1047.44V232.124H1088.95C1097.17 232.124 1103.79 230.92 1108.81 228.511C1113.87 226.103 1117.53 222.691 1119.79 218.275C1122.09 213.809 1123.25 208.49 1123.25 202.318C1123.25 196.146 1122.09 190.752 1119.79 186.135C1117.48 181.519 1113.79 177.956 1108.73 175.447C1103.67 172.888 1096.97 171.609 1088.65 171.609H1055.86V309.199H1037.21ZM1109.71 239.952L1147.61 309.199H1125.95L1088.65 239.952H1109.71Z" fill="black"/>
<path d="M959.971 311.608C948.841 311.608 939.239 309.149 931.167 304.231C923.145 299.264 916.953 292.339 912.591 283.457C908.279 274.526 906.123 264.139 906.123 252.296C906.123 240.454 908.279 230.017 912.591 220.985C916.953 211.903 923.02 204.827 930.791 199.759C938.612 194.641 947.738 192.082 958.166 192.082C964.183 192.082 970.124 193.086 975.99 195.093C981.857 197.1 987.196 200.362 992.009 204.878C996.823 209.343 1000.66 215.265 1003.52 222.641C1006.37 230.017 1007.8 239.099 1007.8 249.888V257.415H918.758V242.06H989.753C989.753 235.537 988.45 229.716 985.842 224.598C983.285 219.48 979.625 215.44 974.862 212.48C970.149 209.519 964.584 208.039 958.166 208.039C951.097 208.039 944.98 209.795 939.816 213.308C934.702 216.77 930.766 221.286 928.008 226.856C925.251 232.426 923.872 238.397 923.872 244.77V255.006C923.872 263.737 925.376 271.139 928.384 277.21C931.443 283.232 935.679 287.823 941.094 290.984C946.509 294.095 952.802 295.651 959.971 295.651C964.634 295.651 968.846 294.998 972.606 293.694C976.417 292.339 979.701 290.332 982.458 287.672C985.216 284.963 987.347 281.601 988.851 277.586L1006 282.404C1004.19 288.224 1001.16 293.343 996.898 297.758C992.636 302.124 987.372 305.536 981.104 307.995C974.837 310.403 967.793 311.608 959.971 311.608Z" fill="black"/>
<path d="M879.03 155.05V309.199H861.281V155.05H879.03Z" fill="black"/>
<path d="M732.151 309.199V155.05H749.899V211.952H751.404C752.707 209.945 754.512 207.386 756.819 204.275C759.175 201.114 762.534 198.304 766.896 195.845C771.308 193.336 777.275 192.082 784.796 192.082C794.522 192.082 803.096 194.515 810.516 199.383C817.937 204.25 823.728 211.15 827.889 220.081C832.051 229.013 834.131 239.551 834.131 251.694C834.131 263.938 832.051 274.55 827.889 283.532C823.728 292.464 817.962 299.389 810.592 304.306C803.221 309.174 794.723 311.607 785.096 311.607C777.676 311.607 771.735 310.378 767.272 307.919C762.81 305.41 759.376 302.575 756.969 299.414C754.562 296.202 752.707 293.543 751.404 291.435H749.298V309.199H732.151ZM749.599 251.393C749.599 260.124 750.877 267.826 753.434 274.5C755.991 281.124 759.727 286.317 764.64 290.081C769.554 293.794 775.57 295.65 782.69 295.65C790.11 295.65 796.302 293.693 801.266 289.78C806.28 285.815 810.04 280.496 812.547 273.823C815.104 267.099 816.382 259.622 816.382 251.393C816.382 243.264 815.129 235.938 812.622 229.415C810.165 222.841 806.43 217.648 801.416 213.834C796.453 209.97 790.21 208.038 782.69 208.038C775.47 208.038 769.403 209.87 764.49 213.533C759.576 217.146 755.866 222.214 753.359 228.737C750.852 235.21 749.599 242.762 749.599 251.393Z" fill="black"/>
<path d="M650.946 309.198V193.587H668.093V211.049H669.296C671.402 205.329 675.213 200.687 680.728 197.124C686.243 193.562 692.46 191.78 699.379 191.78C700.683 191.78 702.312 191.805 704.268 191.856C706.223 191.906 707.702 191.981 708.705 192.081V210.146C708.103 209.995 706.724 209.769 704.568 209.468C702.463 209.117 700.231 208.941 697.875 208.941C692.26 208.941 687.246 210.121 682.834 212.479C678.472 214.787 675.012 217.999 672.455 222.113C669.948 226.178 668.695 230.819 668.695 236.038V309.198H650.946Z" fill="black"/>
<path d="M565.605 311.909C558.285 311.909 551.641 310.529 545.675 307.769C539.708 304.959 534.97 300.92 531.461 295.651C527.951 290.332 526.196 283.909 526.196 276.382C526.196 269.759 527.5 264.39 530.107 260.275C532.714 256.11 536.199 252.848 540.561 250.49C544.923 248.132 549.736 246.375 555.001 245.221C560.315 244.017 565.655 243.064 571.02 242.361C578.039 241.458 583.73 240.78 588.092 240.329C592.504 239.827 595.713 238.999 597.718 237.845C599.774 236.691 600.802 234.684 600.802 231.824V231.221C600.802 223.795 598.771 218.024 594.71 213.91C590.699 209.795 584.607 207.738 576.435 207.738C567.961 207.738 561.318 209.594 556.505 213.308C551.691 217.021 548.307 220.985 546.352 225.2L529.505 219.179C532.514 212.153 536.525 206.684 541.539 202.77C546.602 198.806 552.118 196.046 558.084 194.491C564.101 192.885 570.017 192.082 575.833 192.082C579.543 192.082 583.805 192.534 588.618 193.437C593.481 194.29 598.169 196.071 602.682 198.781C607.244 201.491 611.03 205.58 614.038 211.05C617.046 216.519 618.55 223.845 618.55 233.028V309.199H600.802V293.543H599.899C598.696 296.052 596.69 298.737 593.883 301.597C591.075 304.457 587.34 306.891 582.677 308.898C578.014 310.905 572.323 311.909 565.605 311.909ZM568.312 295.952C575.332 295.952 581.248 294.572 586.061 291.812C590.924 289.052 594.585 285.49 597.041 281.124C599.548 276.759 600.802 272.167 600.802 267.35V251.092C600.05 251.995 598.395 252.823 595.838 253.576C593.331 254.278 590.423 254.906 587.114 255.458C583.855 255.959 580.671 256.411 577.563 256.813C574.504 257.164 572.022 257.465 570.117 257.716C565.504 258.318 561.193 259.296 557.182 260.651C553.221 261.956 550.012 263.938 547.555 266.597C545.148 269.207 543.945 272.769 543.945 277.285C543.945 283.457 546.226 288.124 550.789 291.285C555.402 294.396 561.243 295.952 568.312 295.952Z" fill="black"/>
<path d="M345.605 155.05H367.867L420.211 283.005H422.016L474.36 155.05H496.621V309.199H479.173V192.082H477.669L429.536 309.199H412.69L364.558 192.082H363.053V309.199H345.605V155.05Z" fill="black"/>
</g>
<defs>
<clipPath id="clip0_1029_119">
<rect width="1439" height="467" fill="white"/>
</clipPath>
</defs>
</svg>
