<svg width="1500" height="873" viewBox="0 0 1500 873" fill="none" xmlns="http://www.w3.org/2000/svg">
<g clip-path="url(#clip0)">
<path d="M979.62 1.35889H28.5327V870.924H979.62V1.35889Z" stroke="black" stroke-width="3" stroke-dasharray="6 6"/>
<path d="M445.539 76.4648C445.011 80.9766 443.341 84.4629 440.529 86.9238C437.736 89.3652 434.015 90.5859 429.367 90.5859C424.328 90.5859 420.285 88.7793 417.238 85.166C414.21 81.5527 412.697 76.7188 412.697 70.6641V66.5625C412.697 62.5977 413.4 59.1113 414.806 56.1035C416.232 53.0957 418.244 50.791 420.841 49.1895C423.439 47.5684 426.447 46.7578 429.865 46.7578C434.396 46.7578 438.029 48.0273 440.763 50.5664C443.498 53.0859 445.089 56.582 445.539 61.0547H439.884C439.396 57.6562 438.332 55.1953 436.691 53.6719C435.07 52.1484 432.794 51.3867 429.865 51.3867C426.271 51.3867 423.449 52.7148 421.398 55.3711C419.367 58.0273 418.351 61.8066 418.351 66.709V70.8398C418.351 75.4688 419.318 79.1504 421.251 81.8848C423.185 84.6191 425.89 85.9863 429.367 85.9863C432.492 85.9863 434.884 85.2832 436.544 83.877C438.224 82.4512 439.337 79.9805 439.884 76.4648H445.539ZM458.283 90H452.863V45H458.283V90ZM486.554 86.8652C484.445 89.3457 481.349 90.5859 477.267 90.5859C473.888 90.5859 471.31 89.6094 469.533 87.6562C467.775 85.6836 466.886 82.7734 466.867 78.9258V58.3008H472.287V78.7793C472.287 83.584 474.24 85.9863 478.146 85.9863C482.287 85.9863 485.041 84.4434 486.408 81.3574V58.3008H491.828V90H486.671L486.554 86.8652ZM518.546 81.5918C518.546 80.127 517.99 78.9941 516.876 78.1934C515.783 77.373 513.859 76.6699 511.105 76.084C508.371 75.498 506.193 74.7949 504.572 73.9746C502.97 73.1543 501.779 72.1777 500.998 71.0449C500.236 69.9121 499.855 68.5645 499.855 67.002C499.855 64.4043 500.949 62.207 503.136 60.4102C505.343 58.6133 508.156 57.7148 511.574 57.7148C515.167 57.7148 518.078 58.6426 520.304 60.498C522.55 62.3535 523.673 64.7266 523.673 67.6172H518.224C518.224 66.1328 517.589 64.8535 516.32 63.7793C515.07 62.7051 513.488 62.168 511.574 62.168C509.601 62.168 508.058 62.5977 506.945 63.457C505.832 64.3164 505.275 65.4395 505.275 66.8262C505.275 68.1348 505.792 69.1211 506.828 69.7852C507.863 70.4492 509.728 71.084 512.423 71.6895C515.138 72.2949 517.335 73.0176 519.015 73.8574C520.695 74.6973 521.935 75.7129 522.736 76.9043C523.556 78.0762 523.966 79.5117 523.966 81.2109C523.966 84.043 522.833 86.3184 520.568 88.0371C518.302 89.7363 515.363 90.5859 511.75 90.5859C509.21 90.5859 506.964 90.1367 505.011 89.2383C503.058 88.3398 501.525 87.0898 500.412 85.4883C499.318 83.8672 498.771 82.1191 498.771 80.2441H504.191C504.289 82.0605 505.011 83.5059 506.359 84.5801C507.726 85.6348 509.523 86.1621 511.75 86.1621C513.8 86.1621 515.441 85.752 516.671 84.9316C517.921 84.0918 518.546 82.9785 518.546 81.5918ZM538.38 50.625V58.3008H544.298V62.4902H538.38V82.1484C538.38 83.418 538.644 84.375 539.171 85.0195C539.699 85.6445 540.597 85.957 541.867 85.957C542.492 85.957 543.351 85.8398 544.445 85.6055V90C543.019 90.3906 541.632 90.5859 540.285 90.5859C537.863 90.5859 536.037 89.8535 534.806 88.3887C533.576 86.9238 532.96 84.8438 532.96 82.1484V62.4902H527.189V58.3008H532.96V50.625H538.38ZM563.81 90.5859C559.513 90.5859 556.017 89.1797 553.322 86.3672C550.626 83.5352 549.279 79.7559 549.279 75.0293V74.0332C549.279 70.8887 549.875 68.0859 551.066 65.625C552.277 63.1445 553.957 61.2109 556.105 59.8242C558.273 58.418 560.617 57.7148 563.136 57.7148C567.257 57.7148 570.46 59.0723 572.746 61.7871C575.031 64.502 576.173 68.3887 576.173 73.4473V75.7031H554.699C554.777 78.8281 555.685 81.3574 557.423 83.291C559.181 85.2051 561.408 86.1621 564.103 86.1621C566.017 86.1621 567.638 85.7715 568.966 84.9902C570.294 84.209 571.457 83.1738 572.453 81.8848L575.763 84.4629C573.107 88.5449 569.123 90.5859 563.81 90.5859ZM563.136 62.168C560.949 62.168 559.113 62.9688 557.628 64.5703C556.144 66.1523 555.226 68.3789 554.875 71.25H570.753V70.8398C570.597 68.0859 569.855 65.957 568.527 64.4531C567.199 62.9297 565.402 62.168 563.136 62.168ZM597.794 63.1641C596.974 63.0273 596.085 62.959 595.128 62.959C591.574 62.959 589.162 64.4727 587.892 67.5V90H582.472V58.3008H587.746L587.833 61.9629C589.611 59.1309 592.13 57.7148 595.392 57.7148C596.447 57.7148 597.248 57.8516 597.794 58.125V63.1641Z" fill="black"/>
<path d="M902.174 123.642H676.631C656.37 123.642 639.946 140.066 639.946 160.326V331.522C639.946 351.782 656.37 368.207 676.631 368.207H902.174C922.435 368.207 938.859 351.782 938.859 331.522V160.326C938.859 140.066 922.435 123.642 902.174 123.642Z" stroke="#90FF99" stroke-width="3"/>
<path d="M739.989 157.979L744.92 171.901L749.824 157.979H755.019V177.174H751.05V171.927L751.446 162.87L746.265 177.174H743.549L738.381 162.883L738.776 171.927V177.174H734.821V157.979H739.989ZM766.488 177.174C766.313 176.832 766.185 176.405 766.106 175.896C765.183 176.924 763.983 177.438 762.507 177.438C761.109 177.438 759.949 177.034 759.026 176.225C758.112 175.417 757.655 174.397 757.655 173.167C757.655 171.655 758.213 170.495 759.33 169.686C760.455 168.877 762.076 168.469 764.194 168.46H765.948V167.643C765.948 166.983 765.776 166.456 765.434 166.061C765.1 165.665 764.568 165.467 763.838 165.467C763.197 165.467 762.691 165.621 762.322 165.929C761.962 166.236 761.782 166.658 761.782 167.194H757.972C757.972 166.368 758.227 165.604 758.736 164.9C759.246 164.197 759.967 163.648 760.899 163.252C761.83 162.848 762.876 162.646 764.036 162.646C765.794 162.646 767.187 163.09 768.215 163.978C769.253 164.856 769.771 166.096 769.771 167.695V173.878C769.78 175.232 769.969 176.256 770.338 176.95V177.174H766.488ZM763.337 174.524C763.9 174.524 764.419 174.401 764.893 174.155C765.368 173.9 765.719 173.562 765.948 173.14V170.688H764.524C762.617 170.688 761.602 171.347 761.479 172.666L761.465 172.89C761.465 173.364 761.632 173.755 761.966 174.063C762.3 174.371 762.757 174.524 763.337 174.524ZM780.713 166.482C780.195 166.412 779.738 166.377 779.342 166.377C777.901 166.377 776.956 166.865 776.508 167.84V177.174H772.698V162.91H776.297L776.402 164.61C777.167 163.301 778.226 162.646 779.58 162.646C780.002 162.646 780.397 162.703 780.766 162.817L780.713 166.482ZM795.413 170.174C795.413 172.459 794.925 174.243 793.95 175.526C792.974 176.801 791.612 177.438 789.863 177.438C788.316 177.438 787.081 176.845 786.158 175.658L785.987 177.174H782.559V156.924H786.369V164.188C787.248 163.16 788.404 162.646 789.837 162.646C791.577 162.646 792.939 163.288 793.923 164.571C794.917 165.845 795.413 167.643 795.413 169.963V170.174ZM791.603 169.897C791.603 168.456 791.375 167.405 790.918 166.746C790.461 166.078 789.779 165.744 788.874 165.744C787.661 165.744 786.826 166.241 786.369 167.234V172.863C786.835 173.865 787.679 174.366 788.9 174.366C790.131 174.366 790.94 173.76 791.326 172.547C791.511 171.967 791.603 171.083 791.603 169.897ZM801.794 177.174H797.971V156.924H801.794V177.174ZM811.51 177.438C809.419 177.438 807.713 176.796 806.395 175.513C805.086 174.23 804.431 172.521 804.431 170.385V170.016C804.431 168.583 804.708 167.304 805.261 166.179C805.815 165.045 806.597 164.175 807.608 163.569C808.628 162.954 809.788 162.646 811.088 162.646C813.04 162.646 814.573 163.261 815.69 164.492C816.815 165.722 817.377 167.467 817.377 169.726V171.281H808.294C808.417 172.213 808.786 172.96 809.401 173.522C810.025 174.085 810.812 174.366 811.761 174.366C813.229 174.366 814.376 173.834 815.202 172.771L817.074 174.867C816.503 175.676 815.729 176.309 814.754 176.766C813.778 177.214 812.697 177.438 811.51 177.438ZM811.075 165.731C810.319 165.731 809.704 165.986 809.23 166.496C808.764 167.005 808.465 167.735 808.333 168.684H813.633V168.381C813.615 167.537 813.387 166.887 812.947 166.43C812.508 165.964 811.884 165.731 811.075 165.731ZM837.363 173.219H830.429L829.11 177.174H824.905L832.05 157.979H835.715L842.9 177.174H838.695L837.363 173.219ZM831.497 170.016H836.296L833.883 162.831L831.497 170.016Z" fill="black"/>
<path d="M798.56 313.56C791.005 308.18 787.853 298.642 790.734 289.946C793.614 281.223 801.848 275.326 811.168 275.326C820.462 275.326 828.723 281.223 831.576 289.946C834.456 298.642 831.304 308.18 823.777 313.56L839.62 336.495L827.147 333.424L820.163 343.017L811.033 318.098L803.804 343.75L796.793 336.25L785.326 338.098L798.56 313.56ZM811.658 313.316C820.462 312.826 827.527 305.979 828.152 297.337C828.56 287.935 821.223 279.946 811.658 279.43C806.766 279.212 802.011 281.033 798.533 284.43C795.054 287.854 793.206 292.528 793.424 297.337C794.103 306.631 802.174 313.723 811.658 313.316ZM811.658 309.62C808.152 309.865 804.674 308.696 802.038 306.386C799.402 304.076 797.826 300.816 797.663 297.337C797.446 293.642 798.859 290.028 801.522 287.419C804.212 284.81 807.908 283.451 811.658 283.723C818.859 284.185 824.321 290.272 823.886 297.337C823.587 303.913 818.315 309.185 811.658 309.62ZM811.658 306.794C816.712 306.278 820.706 302.31 821.141 297.337C821.386 291.848 817.228 287.12 811.658 286.549C805.924 286.25 801.005 290.49 800.543 296.115C800.462 299.022 801.63 301.821 803.75 303.832C805.842 305.87 808.723 306.93 811.658 306.794ZM785.679 328.886H740V221.468H831.63V281.631C830.299 279.729 828.696 278.044 826.902 276.604V226.006H744.484V324.24H787.935L785.679 328.886ZM762.228 267.636V262.365H809.049V267.636H762.228ZM762.228 255.354V250.326H809.049V255.354H762.228ZM762.228 243.207V238.153H809.049V243.207H762.228Z" fill="black"/>
<path d="M364.13 327.446H127.717C102.955 327.446 82.8804 347.52 82.8804 372.283V581.522C82.8804 606.285 102.955 626.359 127.717 626.359H364.13C388.893 626.359 408.967 606.285 408.967 581.522V372.283C408.967 347.52 388.893 327.446 364.13 327.446Z" stroke="#8B04DD" stroke-width="3"/>
<path d="M189.524 374.584C189.375 376.65 188.61 378.276 187.23 379.462C185.859 380.649 184.048 381.242 181.798 381.242C179.337 381.242 177.399 380.416 175.984 378.764C174.578 377.103 173.875 374.826 173.875 371.935V370.761C173.875 368.916 174.2 367.29 174.851 365.883C175.501 364.477 176.428 363.4 177.632 362.653C178.845 361.897 180.251 361.52 181.851 361.52C184.066 361.52 185.85 362.113 187.204 363.299C188.557 364.486 189.339 366.151 189.55 368.296H185.595C185.499 367.057 185.151 366.16 184.554 365.606C183.965 365.044 183.064 364.763 181.851 364.763C180.533 364.763 179.544 365.237 178.885 366.187C178.234 367.127 177.9 368.59 177.883 370.577V372.027C177.883 374.101 178.195 375.617 178.819 376.575C179.452 377.533 180.445 378.012 181.798 378.012C183.02 378.012 183.93 377.735 184.527 377.182C185.134 376.619 185.481 375.753 185.569 374.584H189.524ZM191.277 373.714C191.277 372.299 191.55 371.038 192.095 369.931C192.64 368.823 193.422 367.966 194.441 367.36C195.47 366.753 196.661 366.45 198.014 366.45C199.939 366.45 201.508 367.039 202.721 368.217C203.942 369.395 204.624 370.994 204.764 373.016L204.791 373.991C204.791 376.18 204.18 377.938 202.958 379.265C201.736 380.583 200.097 381.242 198.041 381.242C195.984 381.242 194.34 380.583 193.11 379.265C191.888 377.946 191.277 376.153 191.277 373.886V373.714ZM195.087 373.991C195.087 375.345 195.342 376.382 195.852 377.103C196.362 377.814 197.091 378.17 198.041 378.17C198.963 378.17 199.684 377.819 200.203 377.116C200.721 376.404 200.98 375.27 200.98 373.714C200.98 372.387 200.721 371.359 200.203 370.629C199.684 369.9 198.955 369.535 198.014 369.535C197.083 369.535 196.362 369.9 195.852 370.629C195.342 371.35 195.087 372.471 195.087 373.991ZM206.544 373.714C206.544 372.299 206.816 371.038 207.361 369.931C207.906 368.823 208.688 367.966 209.708 367.36C210.736 366.753 211.927 366.45 213.281 366.45C215.206 366.45 216.774 367.039 217.987 368.217C219.209 369.395 219.89 370.994 220.031 373.016L220.057 373.991C220.057 376.18 219.446 377.938 218.225 379.265C217.003 380.583 215.364 381.242 213.307 381.242C211.25 381.242 209.607 380.583 208.376 379.265C207.155 377.946 206.544 376.153 206.544 373.886V373.714ZM210.354 373.991C210.354 375.345 210.609 376.382 211.119 377.103C211.628 377.814 212.358 378.17 213.307 378.17C214.23 378.17 214.951 377.819 215.469 377.116C215.988 376.404 216.247 375.27 216.247 373.714C216.247 372.387 215.988 371.359 215.469 370.629C214.951 369.9 214.221 369.535 213.281 369.535C212.349 369.535 211.628 369.9 211.119 370.629C210.609 371.35 210.354 372.471 210.354 373.991ZM230.419 370.287C229.901 370.216 229.444 370.181 229.048 370.181C227.607 370.181 226.662 370.669 226.214 371.645V380.979H222.404V366.714H226.003L226.108 368.415C226.873 367.105 227.932 366.45 229.286 366.45C229.708 366.45 230.103 366.507 230.472 366.622L230.419 370.287ZM231.408 373.741C231.408 371.517 231.905 369.746 232.898 368.428C233.9 367.109 235.267 366.45 236.998 366.45C238.387 366.45 239.534 366.969 240.439 368.006V360.729H244.262V380.979H240.821L240.637 379.462C239.687 380.649 238.466 381.242 236.972 381.242C235.293 381.242 233.944 380.583 232.924 379.265C231.914 377.938 231.408 376.096 231.408 373.741ZM235.218 374.018C235.218 375.354 235.451 376.377 235.917 377.089C236.383 377.801 237.06 378.157 237.947 378.157C239.125 378.157 239.956 377.661 240.439 376.667V371.038C239.964 370.045 239.143 369.548 237.974 369.548C236.137 369.548 235.218 371.038 235.218 374.018ZM251.236 380.979H247.413V366.714H251.236V380.979ZM247.189 363.022C247.189 362.451 247.378 361.981 247.756 361.612C248.143 361.243 248.666 361.058 249.325 361.058C249.975 361.058 250.494 361.243 250.88 361.612C251.267 361.981 251.46 362.451 251.46 363.022C251.46 363.603 251.263 364.077 250.867 364.446C250.48 364.815 249.966 365 249.325 365C248.683 365 248.165 364.815 247.769 364.446C247.382 364.077 247.189 363.603 247.189 363.022ZM257.894 366.714L258.013 368.362C259.032 367.087 260.399 366.45 262.113 366.45C263.625 366.45 264.75 366.894 265.488 367.782C266.226 368.669 266.604 369.997 266.622 371.763V380.979H262.812V371.855C262.812 371.047 262.636 370.462 262.284 370.102C261.933 369.733 261.348 369.548 260.531 369.548C259.458 369.548 258.654 370.005 258.118 370.919V380.979H254.308V366.714H257.894ZM277.788 380.979C277.612 380.636 277.485 380.209 277.406 379.7C276.483 380.728 275.283 381.242 273.807 381.242C272.409 381.242 271.249 380.838 270.326 380.029C269.412 379.221 268.955 378.201 268.955 376.971C268.955 375.459 269.513 374.299 270.629 373.49C271.754 372.682 273.376 372.273 275.494 372.264H277.248V371.447C277.248 370.788 277.076 370.26 276.733 369.865C276.399 369.469 275.868 369.271 275.138 369.271C274.497 369.271 273.991 369.425 273.622 369.733C273.262 370.041 273.082 370.462 273.082 370.999H269.271C269.271 370.172 269.526 369.408 270.036 368.705C270.546 368.001 271.267 367.452 272.198 367.057C273.13 366.652 274.176 366.45 275.336 366.45C277.094 366.45 278.487 366.894 279.515 367.782C280.552 368.661 281.071 369.9 281.071 371.5V377.683C281.08 379.036 281.269 380.06 281.638 380.754V380.979H277.788ZM274.637 378.329C275.2 378.329 275.718 378.206 276.193 377.959C276.667 377.705 277.019 377.366 277.248 376.944V374.492H275.824C273.916 374.492 272.901 375.151 272.778 376.47L272.765 376.694C272.765 377.168 272.932 377.56 273.266 377.867C273.6 378.175 274.057 378.329 274.637 378.329ZM288.559 363.207V366.714H290.998V369.509H288.559V376.628C288.559 377.155 288.66 377.533 288.862 377.762C289.064 377.99 289.451 378.104 290.022 378.104C290.444 378.104 290.818 378.074 291.143 378.012V380.899C290.396 381.128 289.627 381.242 288.836 381.242C286.164 381.242 284.802 379.893 284.749 377.195V369.509H282.666V366.714H284.749V363.207H288.559ZM292.132 373.714C292.132 372.299 292.404 371.038 292.949 369.931C293.494 368.823 294.276 367.966 295.296 367.36C296.324 366.753 297.515 366.45 298.869 366.45C300.793 366.45 302.362 367.039 303.575 368.217C304.797 369.395 305.478 370.994 305.619 373.016L305.645 373.991C305.645 376.18 305.034 377.938 303.812 379.265C302.591 380.583 300.952 381.242 298.895 381.242C296.838 381.242 295.195 380.583 293.964 379.265C292.743 377.946 292.132 376.153 292.132 373.886V373.714ZM295.942 373.991C295.942 375.345 296.197 376.382 296.707 377.103C297.216 377.814 297.946 378.17 298.895 378.17C299.818 378.17 300.539 377.819 301.057 377.116C301.576 376.404 301.835 375.27 301.835 373.714C301.835 372.387 301.576 371.359 301.057 370.629C300.539 369.9 299.809 369.535 298.869 369.535C297.937 369.535 297.216 369.9 296.707 370.629C296.197 371.35 295.942 372.471 295.942 373.991ZM316.007 370.287C315.489 370.216 315.032 370.181 314.636 370.181C313.195 370.181 312.25 370.669 311.802 371.645V380.979H307.992V366.714H311.591L311.696 368.415C312.461 367.105 313.52 366.45 314.874 366.45C315.295 366.45 315.691 366.507 316.06 366.622L316.007 370.287Z" fill="black"/>
<path d="M201.114 538.451C192.881 532.473 189.457 521.902 192.582 512.229C195.707 502.555 204.729 496.006 214.864 496.006C225.027 496.006 234.022 502.555 237.147 512.229C240.299 521.902 236.848 532.473 228.614 538.451L245.924 563.968L232.31 560.544L224.674 571.196L214.729 543.506L206.821 572.011L199.212 563.696L186.685 565.734L201.114 538.451ZM215.408 538.18C225 537.663 232.718 530.055 233.397 520.435C233.859 510 225.843 501.114 215.408 500.517C210.082 500.299 204.864 502.31 201.087 506.114C197.31 509.892 195.299 515.109 195.517 520.435C196.25 530.788 205.082 538.642 215.408 538.18ZM215.408 534.076C211.576 534.348 207.799 533.044 204.919 530.489C202.038 527.908 200.326 524.294 200.163 520.435C199.919 516.332 201.44 512.31 204.375 509.43C207.283 506.522 211.305 505.027 215.408 505.299C223.261 505.816 229.239 512.582 228.75 520.435C228.424 527.745 222.69 533.614 215.408 534.076ZM215.408 530.951C220.924 530.381 225.272 525.979 225.761 520.435C226.006 514.348 221.495 509.076 215.408 508.451C209.158 508.125 203.805 512.826 203.288 519.076C203.207 522.31 204.484 525.408 206.767 527.663C209.076 529.919 212.201 531.114 215.408 530.951ZM187.093 555.517H137.229V436.142H237.201V502.989C235.761 500.897 234.022 498.995 232.038 497.392V441.196H142.12V550.326H189.538L187.093 555.517ZM161.468 487.446V481.576H212.555V487.446H161.468ZM161.468 473.805V468.207H212.555V473.805H161.468ZM161.468 460.299V454.701H212.555V460.299H161.468Z" fill="black"/>
<path d="M163.993 511.8H159.484V519.565H156.939V500.37H163.294C165.456 500.37 167.117 500.862 168.277 501.847C169.446 502.831 170.031 504.264 170.031 506.145C170.031 507.34 169.706 508.381 169.055 509.269C168.414 510.157 167.517 510.82 166.366 511.26L170.874 519.407V519.565H168.159L163.993 511.8ZM159.484 509.73H163.373C164.63 509.73 165.627 509.405 166.366 508.755C167.113 508.104 167.486 507.234 167.486 506.145C167.486 504.958 167.13 504.048 166.418 503.416C165.715 502.783 164.696 502.462 163.36 502.453H159.484V509.73Z" fill="black"/>
<path d="M336.984 538.451C328.75 532.473 325.326 521.902 328.451 512.229C331.576 502.555 340.598 496.006 350.734 496.006C360.897 496.006 369.892 502.555 373.017 512.229C376.169 521.902 372.718 532.473 364.484 538.451L381.794 563.968L368.18 560.544L360.544 571.196L350.598 543.506L342.691 572.011L335.082 563.696L322.555 565.734L336.984 538.451ZM351.278 538.18C360.87 537.663 368.587 530.055 369.267 520.435C369.729 510 361.712 501.114 351.278 500.517C345.951 500.299 340.734 502.31 336.957 506.114C333.18 509.892 331.169 515.109 331.386 520.435C332.12 530.788 340.951 538.642 351.278 538.18ZM351.278 534.076C347.446 534.348 343.669 533.044 340.788 530.489C337.908 527.908 336.196 524.294 336.033 520.435C335.788 516.332 337.31 512.31 340.245 509.43C343.152 506.522 347.174 505.027 351.278 505.299C359.131 505.816 365.109 512.582 364.62 520.435C364.294 527.745 358.56 533.614 351.278 534.076ZM351.278 530.951C356.794 530.381 361.142 525.979 361.631 520.435C361.875 514.348 357.364 509.076 351.278 508.451C345.028 508.125 339.674 512.826 339.158 519.076C339.076 522.31 340.354 525.408 342.636 527.663C344.946 529.919 348.071 531.114 351.278 530.951ZM322.962 555.517H273.098V436.142H373.071V502.989C371.631 500.897 369.892 498.995 367.908 497.392V441.196H277.989V550.326H325.408L322.962 555.517ZM297.337 487.446V481.576H348.424V487.446H297.337ZM297.337 473.805V468.207H348.424V473.805H297.337ZM297.337 460.299V454.701H348.424V460.299H297.337Z" fill="black"/>
<path d="M300.179 519.565H297.648V500.37H300.179V519.565Z" fill="black"/>
<path d="M902.174 599.185H676.631C656.37 599.185 639.946 615.609 639.946 635.87V807.066C639.946 827.326 656.37 843.75 676.631 843.75H902.174C922.435 843.75 938.859 827.326 938.859 807.066V635.87C938.859 615.609 922.435 599.185 902.174 599.185Z" stroke="#90FF99" stroke-width="3"/>
<path d="M740.451 633.522L745.381 647.444L750.286 633.522H755.48V652.718H751.512V647.471L751.907 638.414L746.726 652.718H744.01L738.842 638.427L739.238 647.471V652.718H735.283V633.522H740.451ZM766.95 652.718C766.774 652.375 766.647 651.949 766.567 651.439C765.645 652.467 764.445 652.981 762.968 652.981C761.571 652.981 760.411 652.577 759.488 651.769C758.574 650.96 758.117 649.94 758.117 648.71C758.117 647.198 758.675 646.038 759.791 645.229C760.916 644.421 762.538 644.012 764.656 644.003H766.409V643.186C766.409 642.527 766.238 642 765.895 641.604C765.561 641.208 765.029 641.011 764.3 641.011C763.658 641.011 763.153 641.165 762.784 641.472C762.423 641.78 762.243 642.202 762.243 642.738H758.433C758.433 641.912 758.688 641.147 759.198 640.444C759.708 639.741 760.428 639.191 761.36 638.796C762.292 638.392 763.337 638.189 764.498 638.189C766.255 638.189 767.649 638.633 768.677 639.521C769.714 640.4 770.233 641.639 770.233 643.239V649.422C770.241 650.775 770.43 651.799 770.799 652.494V652.718H766.95ZM763.799 650.068C764.361 650.068 764.88 649.945 765.355 649.699C765.829 649.444 766.181 649.105 766.409 648.684V646.231H764.985C763.078 646.231 762.063 646.891 761.94 648.209L761.927 648.433C761.927 648.908 762.094 649.299 762.428 649.606C762.762 649.914 763.219 650.068 763.799 650.068ZM781.175 642.026C780.656 641.956 780.199 641.92 779.804 641.92C778.362 641.92 777.418 642.408 776.969 643.384V652.718H773.159V638.453H776.758L776.864 640.154C777.629 638.844 778.688 638.189 780.041 638.189C780.463 638.189 780.858 638.247 781.228 638.361L781.175 642.026ZM795.875 645.717C795.875 648.002 795.387 649.787 794.411 651.07C793.436 652.344 792.073 652.981 790.324 652.981C788.777 652.981 787.543 652.388 786.62 651.202L786.448 652.718H783.021V632.468H786.831V639.732C787.71 638.704 788.865 638.189 790.298 638.189C792.038 638.189 793.4 638.831 794.385 640.114C795.378 641.389 795.875 643.186 795.875 645.506V645.717ZM792.065 645.44C792.065 643.999 791.836 642.949 791.379 642.29C790.922 641.622 790.241 641.288 789.336 641.288C788.123 641.288 787.288 641.784 786.831 642.777V648.407C787.296 649.409 788.14 649.91 789.362 649.91C790.592 649.91 791.401 649.303 791.788 648.09C791.972 647.51 792.065 646.627 792.065 645.44ZM802.255 652.718H798.432V632.468H802.255V652.718ZM811.972 652.981C809.88 652.981 808.175 652.34 806.857 651.057C805.547 649.773 804.892 648.064 804.892 645.928V645.559C804.892 644.126 805.169 642.848 805.723 641.723C806.276 640.589 807.059 639.719 808.069 639.112C809.089 638.497 810.249 638.189 811.55 638.189C813.501 638.189 815.035 638.805 816.151 640.035C817.276 641.266 817.838 643.01 817.838 645.269V646.825H808.755C808.878 647.756 809.247 648.503 809.862 649.066C810.486 649.628 811.273 649.91 812.222 649.91C813.69 649.91 814.837 649.378 815.663 648.314L817.535 650.411C816.964 651.219 816.191 651.852 815.215 652.309C814.239 652.757 813.158 652.981 811.972 652.981ZM811.537 641.274C810.781 641.274 810.166 641.529 809.691 642.039C809.225 642.549 808.926 643.278 808.795 644.228H814.094V643.924C814.077 643.081 813.848 642.43 813.409 641.973C812.969 641.507 812.345 641.274 811.537 641.274ZM826.988 652.718V633.522H833.712C836.041 633.522 837.807 633.971 839.011 634.867C840.215 635.755 840.817 637.06 840.817 638.783C840.817 639.723 840.576 640.554 840.092 641.274C839.609 641.986 838.937 642.509 838.075 642.843C839.06 643.089 839.833 643.586 840.396 644.333C840.967 645.08 841.253 645.994 841.253 647.075C841.253 648.921 840.664 650.318 839.486 651.268C838.308 652.217 836.629 652.7 834.45 652.718H826.988ZM830.943 644.359V649.541H834.331C835.263 649.541 835.988 649.321 836.506 648.881C837.034 648.433 837.297 647.818 837.297 647.036C837.297 645.278 836.388 644.386 834.568 644.359H830.943ZM830.943 641.564H833.87C835.865 641.529 836.862 640.734 836.862 639.178C836.862 638.308 836.608 637.684 836.098 637.306C835.597 636.919 834.801 636.726 833.712 636.726H830.943V641.564Z" fill="black"/>
<path d="M798.56 789.092C791.005 783.712 787.853 774.174 790.734 765.478C793.614 756.755 801.848 750.859 811.168 750.859C820.462 750.859 828.723 756.755 831.576 765.478C834.456 774.174 831.304 783.712 823.777 789.092L839.62 812.027L827.147 808.957L820.163 818.549L811.033 793.63L803.804 819.283L796.793 811.783L785.326 813.63L798.56 789.092ZM811.658 788.848C820.462 788.359 827.527 781.511 828.152 772.87C828.56 763.467 821.223 755.478 811.658 754.962C806.766 754.745 802.011 756.565 798.533 759.962C795.054 763.386 793.206 768.06 793.424 772.87C794.103 782.163 802.174 789.255 811.658 788.848ZM811.658 785.152C808.152 785.397 804.674 784.228 802.038 781.918C799.402 779.609 797.826 776.348 797.663 772.87C797.446 769.174 798.859 765.56 801.522 762.951C804.212 760.342 807.908 758.984 811.658 759.255C818.859 759.717 824.321 765.804 823.886 772.87C823.587 779.446 818.315 784.717 811.658 785.152ZM811.658 782.326C816.712 781.81 820.706 777.842 821.141 772.87C821.386 767.38 817.228 762.652 811.658 762.082C805.924 761.783 801.005 766.022 800.543 771.647C800.462 774.554 801.63 777.353 803.75 779.364C805.842 781.402 808.723 782.462 811.658 782.326ZM785.679 804.418H740V697H831.63V757.163C830.299 755.261 828.696 753.576 826.902 752.136V701.538H744.484V799.772H787.935L785.679 804.418ZM762.228 743.168V737.897H809.049V743.168H762.228ZM762.228 730.886V725.859H809.049V730.886H762.228ZM762.228 718.739V713.685H809.049V718.739H762.228Z" fill="black"/>
<path d="M794.837 368.207V599.185V368.207ZM783.968 599.185V368.207V599.185Z" stroke="#929292" stroke-width="3" stroke-miterlimit="10"/>
<path d="M642.011 312.338L411.033 407.202L642.011 312.338ZM406.903 397.147L637.881 302.283L406.903 397.147Z" stroke="#929292" stroke-width="3" stroke-miterlimit="10"/>
<path d="M637.717 659.701L406.739 556.603L637.717 659.701ZM411.195 546.658L642.174 649.783L411.195 546.658Z" stroke="#929292" stroke-width="3" stroke-miterlimit="10"/>
<path d="M613.206 438.642C613.913 438.642 614.592 438.913 615.081 439.403C615.571 439.892 615.842 440.571 615.842 441.278C615.842 442.446 615.081 443.452 613.967 443.805V449.892H612.446V443.805C611.331 443.452 610.571 442.446 610.571 441.278C610.571 440.571 610.842 439.892 611.331 439.403C611.848 438.913 612.5 438.642 613.206 438.642ZM613.179 409.348C609.321 409.348 606.168 411.25 604.022 413.669C601.875 416.06 600.625 418.941 600.625 421.495V430.788H592.69V457.066H633.424V430.788H625.706V421.495C625.706 415.272 619.918 409.348 613.179 409.348ZM613.179 412.283C618.098 412.283 622.799 417.229 622.799 421.495V430.788H603.56V421.495C603.56 419.973 604.484 417.528 606.196 415.598C607.907 413.696 610.272 412.283 613.179 412.283ZM612.772 395.381C590.299 395.381 572.011 413.669 572.011 436.142C572.011 458.615 590.299 476.903 612.772 476.903C635.244 476.903 653.532 458.615 653.532 436.142C653.532 413.669 635.244 395.381 612.772 395.381ZM612.772 399.973C632.772 399.973 648.94 416.142 648.94 436.142C648.94 456.142 632.772 472.31 612.772 472.31C592.772 472.31 576.603 456.142 576.603 436.142C576.603 416.142 592.772 399.973 612.772 399.973Z" fill="#929292"/>
<path d="M1451.09 332.881H1214.67C1189.91 332.881 1169.84 352.955 1169.84 377.718V586.957C1169.84 611.72 1189.91 631.794 1214.67 631.794H1451.09C1475.85 631.794 1495.92 611.72 1495.92 586.957V377.718C1495.92 352.955 1475.85 332.881 1451.09 332.881Z" stroke="#929292" stroke-width="3"/>
<path d="M1314.46 481.606C1314.32 483.671 1313.55 485.297 1312.17 486.484C1310.8 487.67 1308.99 488.264 1306.74 488.264C1304.28 488.264 1302.34 487.438 1300.93 485.785C1299.52 484.124 1298.82 481.848 1298.82 478.956V477.783C1298.82 475.937 1299.14 474.311 1299.79 472.905C1300.44 471.499 1301.37 470.422 1302.57 469.675C1303.79 468.919 1305.19 468.541 1306.79 468.541C1309.01 468.541 1310.79 469.134 1312.14 470.321C1313.5 471.507 1314.28 473.173 1314.49 475.317H1310.54C1310.44 474.078 1310.09 473.182 1309.49 472.628C1308.91 472.065 1308 471.784 1306.79 471.784C1305.47 471.784 1304.48 472.259 1303.83 473.208C1303.18 474.148 1302.84 475.612 1302.82 477.598V479.048C1302.82 481.123 1303.14 482.639 1303.76 483.597C1304.39 484.555 1305.39 485.034 1306.74 485.034C1307.96 485.034 1308.87 484.757 1309.47 484.203C1310.07 483.641 1310.42 482.775 1310.51 481.606H1314.46ZM1320.83 488H1317.01V467.75H1320.83V488ZM1328 488H1324.18V473.735H1328V488ZM1323.96 470.044C1323.96 469.473 1324.15 469.002 1324.52 468.633C1324.91 468.264 1325.43 468.08 1326.09 468.08C1326.74 468.08 1327.26 468.264 1327.65 468.633C1328.04 469.002 1328.23 469.473 1328.23 470.044C1328.23 470.624 1328.03 471.099 1327.64 471.468C1327.25 471.837 1326.73 472.021 1326.09 472.021C1325.45 472.021 1324.93 471.837 1324.54 471.468C1324.15 471.099 1323.96 470.624 1323.96 470.044ZM1337.72 488.264C1335.63 488.264 1333.92 487.622 1332.61 486.339C1331.3 485.056 1330.64 483.346 1330.64 481.21V480.841C1330.64 479.409 1330.92 478.13 1331.47 477.005C1332.03 475.871 1332.81 475.001 1333.82 474.395C1334.84 473.779 1336 473.472 1337.3 473.472C1339.25 473.472 1340.78 474.087 1341.9 475.317C1343.02 476.548 1343.59 478.292 1343.59 480.551V482.107H1334.5C1334.63 483.039 1335 483.786 1335.61 484.348C1336.24 484.911 1337.02 485.192 1337.97 485.192C1339.44 485.192 1340.59 484.66 1341.41 483.597L1343.28 485.693C1342.71 486.501 1341.94 487.134 1340.96 487.591C1339.99 488.04 1338.91 488.264 1337.72 488.264ZM1337.29 476.557C1336.53 476.557 1335.91 476.812 1335.44 477.321C1334.97 477.831 1334.68 478.561 1334.54 479.51H1339.84V479.207C1339.83 478.363 1339.6 477.712 1339.16 477.255C1338.72 476.79 1338.09 476.557 1337.29 476.557ZM1349.27 473.735L1349.39 475.383C1350.41 474.109 1351.77 473.472 1353.49 473.472C1355 473.472 1356.12 473.916 1356.86 474.803C1357.6 475.691 1357.98 477.018 1358 478.785V488H1354.19V478.877C1354.19 478.068 1354.01 477.484 1353.66 477.124C1353.31 476.754 1352.72 476.57 1351.91 476.57C1350.83 476.57 1350.03 477.027 1349.49 477.941V488H1345.68V473.735H1349.27ZM1365.46 470.229V473.735H1367.9V476.53H1365.46V483.649C1365.46 484.177 1365.56 484.555 1365.76 484.783C1365.96 485.012 1366.35 485.126 1366.92 485.126C1367.34 485.126 1367.72 485.095 1368.04 485.034V487.921C1367.3 488.149 1366.53 488.264 1365.74 488.264C1363.06 488.264 1361.7 486.915 1361.65 484.216V476.53H1359.57V473.735H1361.65V470.229H1365.46Z" fill="black"/>
<path d="M940.978 304.429L1171.96 402.609M1167.72 412.609L936.739 314.456" stroke="#929292" stroke-width="3" stroke-miterlimit="10"/>
<path d="M936.712 651.902L1167.69 552.065L936.712 651.902ZM1171.98 562.065L941.005 661.875L1171.98 562.065Z" stroke="#929292" stroke-width="3" stroke-miterlimit="10"/>
<path d="M370.924 789.402H82.8803V653.533H137.989L192.337 599.185V653.533H370.924V789.402Z" fill="white" stroke="black" stroke-width="3" stroke-miterlimit="10"/>
<path d="M153.368 712.909C153.131 714.939 152.379 716.508 151.114 717.616C149.857 718.714 148.183 719.264 146.091 719.264C143.823 719.264 142.004 718.451 140.633 716.825C139.271 715.199 138.589 713.023 138.589 710.299V708.453C138.589 706.669 138.906 705.1 139.539 703.747C140.18 702.393 141.085 701.356 142.254 700.635C143.423 699.906 144.777 699.541 146.315 699.541C148.354 699.541 149.989 700.112 151.219 701.255C152.45 702.389 153.166 703.962 153.368 705.975H150.824C150.604 704.445 150.125 703.338 149.387 702.652C148.657 701.967 147.633 701.624 146.315 701.624C144.698 701.624 143.428 702.222 142.505 703.417C141.591 704.612 141.134 706.313 141.134 708.519V710.378C141.134 712.461 141.569 714.118 142.439 715.348C143.309 716.579 144.526 717.194 146.091 717.194C147.497 717.194 148.574 716.877 149.321 716.245C150.077 715.603 150.578 714.491 150.824 712.909H153.368ZM155.807 711.736C155.807 710.338 156.08 709.082 156.625 707.965C157.178 706.849 157.943 705.988 158.918 705.381C159.903 704.775 161.023 704.472 162.28 704.472C164.223 704.472 165.792 705.144 166.987 706.489C168.191 707.833 168.793 709.622 168.793 711.854V712.026C168.793 713.415 168.525 714.663 167.989 715.77C167.461 716.869 166.701 717.726 165.708 718.341C164.724 718.956 163.59 719.264 162.307 719.264C160.373 719.264 158.804 718.591 157.6 717.247C156.405 715.902 155.807 714.122 155.807 711.907V711.736ZM158.259 712.026C158.259 713.608 158.624 714.878 159.354 715.836C160.092 716.794 161.076 717.273 162.307 717.273C163.546 717.273 164.53 716.79 165.26 715.823C165.989 714.847 166.354 713.485 166.354 711.736C166.354 710.171 165.98 708.906 165.233 707.939C164.495 706.963 163.511 706.476 162.28 706.476C161.076 706.476 160.105 706.955 159.367 707.913C158.628 708.871 158.259 710.242 158.259 712.026ZM171.206 711.736C171.206 710.338 171.478 709.082 172.023 707.965C172.577 706.849 173.341 705.988 174.317 705.381C175.301 704.775 176.422 704.472 177.679 704.472C179.621 704.472 181.19 705.144 182.385 706.489C183.589 707.833 184.191 709.622 184.191 711.854V712.026C184.191 713.415 183.923 714.663 183.387 715.77C182.86 716.869 182.1 717.726 181.106 718.341C180.122 718.956 178.988 719.264 177.705 719.264C175.771 719.264 174.203 718.591 172.999 717.247C171.803 715.902 171.206 714.122 171.206 711.907V711.736ZM173.658 712.026C173.658 713.608 174.022 714.878 174.752 715.836C175.49 716.794 176.475 717.273 177.705 717.273C178.944 717.273 179.929 716.79 180.658 715.823C181.388 714.847 181.752 713.485 181.752 711.736C181.752 710.171 181.379 708.906 180.632 707.939C179.894 706.963 178.909 706.476 177.679 706.476C176.475 706.476 175.503 706.955 174.765 707.913C174.027 708.871 173.658 710.242 173.658 712.026ZM194.145 706.924C193.776 706.862 193.376 706.832 192.945 706.832C191.346 706.832 190.26 707.513 189.689 708.875V719H187.25V704.735H189.623L189.663 706.383C190.462 705.109 191.596 704.472 193.064 704.472C193.539 704.472 193.899 704.533 194.145 704.656V706.924ZM195.542 711.749C195.542 709.561 196.061 707.803 197.098 706.476C198.135 705.14 199.493 704.472 201.172 704.472C202.842 704.472 204.165 705.043 205.14 706.186V698.75H207.579V719H205.338L205.219 717.471C204.244 718.666 202.886 719.264 201.146 719.264C199.493 719.264 198.144 718.587 197.098 717.233C196.061 715.88 195.542 714.113 195.542 711.934V711.749ZM197.981 712.026C197.981 713.643 198.315 714.909 198.983 715.823C199.651 716.737 200.574 717.194 201.752 717.194C203.299 717.194 204.428 716.5 205.14 715.111V708.559C204.411 707.214 203.29 706.542 201.778 706.542C200.583 706.542 199.651 707.003 198.983 707.926C198.315 708.849 197.981 710.215 197.981 712.026ZM214.026 719H211.587V704.735H214.026V719ZM211.389 700.952C211.389 700.556 211.508 700.222 211.745 699.95C211.991 699.677 212.352 699.541 212.826 699.541C213.301 699.541 213.661 699.677 213.907 699.95C214.153 700.222 214.276 700.556 214.276 700.952C214.276 701.347 214.153 701.677 213.907 701.94C213.661 702.204 213.301 702.336 212.826 702.336C212.352 702.336 211.991 702.204 211.745 701.94C211.508 701.677 211.389 701.347 211.389 700.952ZM220.249 704.735L220.328 706.528C221.417 705.157 222.841 704.472 224.599 704.472C227.614 704.472 229.134 706.172 229.161 709.574V719H226.722V709.561C226.713 708.532 226.476 707.772 226.01 707.28C225.553 706.788 224.836 706.542 223.861 706.542C223.07 706.542 222.375 706.752 221.778 707.174C221.18 707.596 220.714 708.15 220.38 708.835V719H217.941V704.735H220.249ZM241.646 719C241.505 718.719 241.391 718.218 241.303 717.497C240.169 718.675 238.815 719.264 237.242 719.264C235.836 719.264 234.68 718.868 233.775 718.077C232.878 717.277 232.43 716.267 232.43 715.045C232.43 713.56 232.993 712.408 234.118 711.591C235.251 710.765 236.842 710.352 238.89 710.352H241.263V709.231C241.263 708.378 241.008 707.702 240.499 707.201C239.989 706.691 239.237 706.436 238.244 706.436C237.374 706.436 236.645 706.656 236.056 707.095C235.467 707.535 235.172 708.066 235.172 708.69H232.72C232.72 707.979 232.971 707.293 233.472 706.634C233.981 705.966 234.667 705.438 235.528 705.052C236.398 704.665 237.352 704.472 238.389 704.472C240.033 704.472 241.32 704.885 242.252 705.711C243.184 706.528 243.667 707.658 243.702 709.099V715.665C243.702 716.974 243.869 718.016 244.203 718.789V719H241.646ZM237.598 717.141C238.363 717.141 239.088 716.943 239.773 716.548C240.459 716.152 240.956 715.638 241.263 715.005V712.079H239.352C236.363 712.079 234.869 712.953 234.869 714.702C234.869 715.467 235.124 716.064 235.634 716.495C236.144 716.926 236.798 717.141 237.598 717.141ZM250.834 701.281V704.735H253.498V706.621H250.834V715.467C250.834 716.038 250.953 716.469 251.19 716.759C251.428 717.04 251.832 717.181 252.403 717.181C252.685 717.181 253.071 717.128 253.563 717.022V719C252.922 719.176 252.298 719.264 251.691 719.264C250.602 719.264 249.78 718.934 249.226 718.275C248.672 717.616 248.396 716.68 248.396 715.467V706.621H245.798V704.735H248.396V701.281H250.834ZM255.449 711.736C255.449 710.338 255.721 709.082 256.266 707.965C256.82 706.849 257.584 705.988 258.56 705.381C259.544 704.775 260.665 704.472 261.922 704.472C263.864 704.472 265.433 705.144 266.628 706.489C267.833 707.833 268.435 709.622 268.435 711.854V712.026C268.435 713.415 268.167 714.663 267.63 715.77C267.103 716.869 266.343 717.726 265.35 718.341C264.365 718.956 263.231 719.264 261.948 719.264C260.015 719.264 258.446 718.591 257.242 717.247C256.046 715.902 255.449 714.122 255.449 711.907V711.736ZM257.901 712.026C257.901 713.608 258.266 714.878 258.995 715.836C259.733 716.794 260.718 717.273 261.948 717.273C263.188 717.273 264.172 716.79 264.901 715.823C265.631 714.847 265.996 713.485 265.996 711.736C265.996 710.171 265.622 708.906 264.875 707.939C264.137 706.963 263.152 706.476 261.922 706.476C260.718 706.476 259.747 706.955 259.008 707.913C258.27 708.871 257.901 710.242 257.901 712.026ZM278.388 706.924C278.019 706.862 277.619 706.832 277.188 706.832C275.589 706.832 274.503 707.513 273.932 708.875V719H271.493V704.735H273.866L273.906 706.383C274.706 705.109 275.839 704.472 277.307 704.472C277.782 704.472 278.142 704.533 278.388 704.656V706.924ZM289.99 719H287.551V704.735H289.99V719ZM287.353 700.952C287.353 700.556 287.472 700.222 287.709 699.95C287.955 699.677 288.315 699.541 288.79 699.541C289.265 699.541 289.625 699.677 289.871 699.95C290.117 700.222 290.24 700.556 290.24 700.952C290.24 701.347 290.117 701.677 289.871 701.94C289.625 702.204 289.265 702.336 288.79 702.336C288.315 702.336 287.955 702.204 287.709 701.94C287.472 701.677 287.353 701.347 287.353 700.952ZM302.211 715.216C302.211 714.557 301.96 714.047 301.459 713.687C300.967 713.318 300.102 713.001 298.862 712.738C297.632 712.474 296.652 712.158 295.922 711.789C295.202 711.419 294.666 710.98 294.314 710.47C293.971 709.96 293.8 709.354 293.8 708.651C293.8 707.482 294.292 706.493 295.276 705.685C296.27 704.876 297.535 704.472 299.073 704.472C300.69 704.472 302 704.889 303.002 705.724C304.013 706.559 304.518 707.627 304.518 708.928H302.066C302.066 708.26 301.78 707.684 301.209 707.201C300.646 706.717 299.935 706.476 299.073 706.476C298.186 706.476 297.491 706.669 296.99 707.056C296.489 707.442 296.239 707.948 296.239 708.572C296.239 709.161 296.472 709.604 296.938 709.903C297.403 710.202 298.243 710.488 299.456 710.76C300.677 711.033 301.666 711.358 302.422 711.736C303.178 712.114 303.736 712.571 304.096 713.107C304.465 713.634 304.65 714.28 304.65 715.045C304.65 716.319 304.14 717.343 303.121 718.117C302.101 718.881 300.778 719.264 299.152 719.264C298.01 719.264 296.999 719.062 296.12 718.657C295.241 718.253 294.551 717.69 294.05 716.97C293.558 716.24 293.312 715.454 293.312 714.61H295.751C295.795 715.427 296.12 716.078 296.727 716.561C297.342 717.036 298.15 717.273 299.152 717.273C300.075 717.273 300.813 717.088 301.367 716.719C301.93 716.341 302.211 715.84 302.211 715.216ZM165.102 733.888H158.932V751H156.414V733.888H150.257V731.805H165.102V733.888ZM170.494 748.93H179.59V751H167.949V731.805H170.494V748.93ZM188.133 742.444C185.962 741.82 184.38 741.055 183.387 740.15C182.403 739.236 181.911 738.111 181.911 736.775C181.911 735.263 182.513 734.015 183.717 733.031C184.93 732.038 186.503 731.541 188.437 731.541C189.755 731.541 190.928 731.796 191.957 732.306C192.994 732.815 193.793 733.519 194.356 734.415C194.927 735.312 195.213 736.292 195.213 737.355H192.668C192.668 736.195 192.299 735.285 191.561 734.626C190.823 733.958 189.781 733.624 188.437 733.624C187.188 733.624 186.213 733.901 185.51 734.455C184.815 735 184.468 735.76 184.468 736.735C184.468 737.518 184.798 738.181 185.457 738.726C186.125 739.262 187.254 739.754 188.845 740.203C190.445 740.651 191.693 741.147 192.589 741.692C193.495 742.229 194.163 742.857 194.593 743.578C195.033 744.298 195.252 745.146 195.252 746.122C195.252 747.678 194.646 748.926 193.433 749.866C192.22 750.798 190.599 751.264 188.568 751.264C187.25 751.264 186.02 751.013 184.877 750.512C183.734 750.002 182.851 749.308 182.227 748.429C181.612 747.55 181.304 746.553 181.304 745.437H183.849C183.849 746.597 184.275 747.515 185.127 748.192C185.989 748.86 187.136 749.194 188.568 749.194C189.904 749.194 190.928 748.921 191.64 748.376C192.352 747.832 192.708 747.089 192.708 746.148C192.708 745.208 192.378 744.483 191.719 743.973C191.06 743.455 189.865 742.945 188.133 742.444ZM211.719 738.924C211.35 738.862 210.95 738.832 210.519 738.832C208.919 738.832 207.834 739.513 207.263 740.875V751H204.824V736.735H207.197L207.236 738.383C208.036 737.109 209.17 736.472 210.638 736.472C211.112 736.472 211.473 736.533 211.719 736.656V738.924ZM213.063 743.736C213.063 742.338 213.336 741.082 213.881 739.965C214.435 738.849 215.199 737.988 216.175 737.381C217.159 736.775 218.28 736.472 219.537 736.472C221.479 736.472 223.048 737.144 224.243 738.489C225.447 739.833 226.049 741.622 226.049 743.854V744.026C226.049 745.415 225.781 746.663 225.245 747.77C224.718 748.869 223.958 749.726 222.964 750.341C221.98 750.956 220.846 751.264 219.563 751.264C217.629 751.264 216.061 750.591 214.856 749.247C213.661 747.902 213.063 746.122 213.063 743.907V743.736ZM215.516 744.026C215.516 745.608 215.88 746.878 216.61 747.836C217.348 748.794 218.333 749.273 219.563 749.273C220.802 749.273 221.787 748.79 222.516 747.823C223.246 746.847 223.61 745.485 223.61 743.736C223.61 742.171 223.237 740.906 222.49 739.939C221.751 738.963 220.767 738.476 219.537 738.476C218.333 738.476 217.361 738.955 216.623 739.913C215.885 740.871 215.516 742.242 215.516 744.026ZM228.462 743.736C228.462 742.338 228.734 741.082 229.279 739.965C229.833 738.849 230.598 737.988 231.573 737.381C232.558 736.775 233.678 736.472 234.935 736.472C236.877 736.472 238.446 737.144 239.642 738.489C240.846 739.833 241.448 741.622 241.448 743.854V744.026C241.448 745.415 241.18 746.663 240.644 747.77C240.116 748.869 239.356 749.726 238.363 750.341C237.378 750.956 236.245 751.264 234.961 751.264C233.028 751.264 231.459 750.591 230.255 749.247C229.06 747.902 228.462 746.122 228.462 743.907V743.736ZM230.914 744.026C230.914 745.608 231.279 746.878 232.008 747.836C232.747 748.794 233.731 749.273 234.961 749.273C236.201 749.273 237.185 748.79 237.915 747.823C238.644 746.847 239.009 745.485 239.009 743.736C239.009 742.171 238.635 740.906 237.888 739.939C237.15 738.963 236.166 738.476 234.935 738.476C233.731 738.476 232.76 738.955 232.021 739.913C231.283 740.871 230.914 742.242 230.914 744.026ZM247.815 733.281V736.735H250.479V738.621H247.815V747.467C247.815 748.038 247.934 748.469 248.171 748.759C248.409 749.04 248.813 749.181 249.384 749.181C249.666 749.181 250.052 749.128 250.544 749.022V751C249.903 751.176 249.279 751.264 248.672 751.264C247.583 751.264 246.761 750.934 246.207 750.275C245.653 749.616 245.376 748.68 245.376 747.467V738.621H242.779V736.735H245.376V733.281H247.815ZM274.539 744.909C274.301 746.939 273.55 748.508 272.284 749.616C271.027 750.714 269.353 751.264 267.261 751.264C264.994 751.264 263.174 750.451 261.803 748.825C260.441 747.199 259.76 745.023 259.76 742.299V740.453C259.76 738.669 260.076 737.1 260.709 735.747C261.351 734.393 262.256 733.356 263.425 732.635C264.594 731.906 265.947 731.541 267.485 731.541C269.524 731.541 271.159 732.112 272.39 733.255C273.62 734.389 274.336 735.962 274.539 737.975H271.994C271.774 736.445 271.295 735.338 270.557 734.652C269.828 733.967 268.804 733.624 267.485 733.624C265.868 733.624 264.598 734.222 263.675 735.417C262.761 736.612 262.304 738.313 262.304 740.519V742.378C262.304 744.461 262.739 746.118 263.609 747.348C264.479 748.579 265.697 749.194 267.261 749.194C268.667 749.194 269.744 748.877 270.491 748.245C271.247 747.603 271.748 746.491 271.994 744.909H274.539ZM288.605 745.99H280.563L278.757 751H276.147L283.477 731.805H285.692L293.035 751H290.438L288.605 745.99ZM281.328 743.907H287.854L284.584 734.929L281.328 743.907Z" fill="black"/>
<path d="M1055.71 52.9893H1408.97V273.098H1136.41L1087.5 357.337V273.098H1055.71V52.9893Z" fill="white" stroke="black" stroke-width="3" stroke-miterlimit="10"/>
<path d="M1159.23 112.909C1158.99 114.939 1158.24 116.508 1156.97 117.616C1155.72 118.714 1154.04 119.264 1151.95 119.264C1149.68 119.264 1147.86 118.451 1146.49 116.825C1145.13 115.199 1144.45 113.023 1144.45 110.299V108.453C1144.45 106.669 1144.77 105.1 1145.4 103.747C1146.04 102.393 1146.94 101.356 1148.11 100.635C1149.28 99.9058 1150.64 99.541 1152.17 99.541C1154.21 99.541 1155.85 100.112 1157.08 101.255C1158.31 102.389 1159.03 103.962 1159.23 105.975H1156.68C1156.46 104.445 1155.98 103.338 1155.25 102.652C1154.52 101.967 1153.49 101.624 1152.17 101.624C1150.56 101.624 1149.29 102.222 1148.36 103.417C1147.45 104.612 1146.99 106.313 1146.99 108.519V110.378C1146.99 112.461 1147.43 114.118 1148.3 115.348C1149.17 116.579 1150.39 117.194 1151.95 117.194C1153.36 117.194 1154.43 116.877 1155.18 116.245C1155.94 115.603 1156.44 114.491 1156.68 112.909H1159.23ZM1164.96 119H1162.52V98.75H1164.96V119ZM1171.53 119H1169.09V104.735H1171.53V119ZM1168.89 100.952C1168.89 100.556 1169.01 100.222 1169.25 99.9497C1169.49 99.6772 1169.85 99.541 1170.33 99.541C1170.8 99.541 1171.16 99.6772 1171.41 99.9497C1171.66 100.222 1171.78 100.556 1171.78 100.952C1171.78 101.347 1171.66 101.677 1171.41 101.94C1171.16 102.204 1170.8 102.336 1170.33 102.336C1169.85 102.336 1169.49 102.204 1169.25 101.94C1169.01 101.677 1168.89 101.347 1168.89 100.952ZM1181.36 119.264C1179.43 119.264 1177.86 118.631 1176.64 117.365C1175.43 116.091 1174.82 114.39 1174.82 112.263V111.815C1174.82 110.4 1175.09 109.139 1175.63 108.031C1176.17 106.915 1176.93 106.045 1177.9 105.421C1178.87 104.788 1179.93 104.472 1181.06 104.472C1182.91 104.472 1184.36 105.083 1185.38 106.304C1186.41 107.526 1186.93 109.275 1186.93 111.551V112.566H1177.26C1177.3 113.973 1177.71 115.111 1178.49 115.981C1179.28 116.842 1180.28 117.273 1181.49 117.273C1182.36 117.273 1183.09 117.097 1183.68 116.746C1184.28 116.394 1184.8 115.928 1185.25 115.348L1186.74 116.508C1185.55 118.345 1183.75 119.264 1181.36 119.264ZM1181.06 106.476C1180.08 106.476 1179.25 106.836 1178.58 107.557C1177.91 108.269 1177.5 109.271 1177.34 110.562H1184.49V110.378C1184.42 109.139 1184.08 108.181 1183.49 107.504C1182.89 106.818 1182.08 106.476 1181.06 106.476ZM1192.07 104.735L1192.15 106.528C1193.24 105.157 1194.66 104.472 1196.42 104.472C1199.43 104.472 1200.95 106.172 1200.98 109.574V119H1198.54V109.561C1198.53 108.532 1198.29 107.772 1197.83 107.28C1197.37 106.788 1196.66 106.542 1195.68 106.542C1194.89 106.542 1194.19 106.752 1193.6 107.174C1193 107.596 1192.53 108.15 1192.2 108.835V119H1189.76V104.735H1192.07ZM1207.97 101.281V104.735H1210.63V106.621H1207.97V115.467C1207.97 116.038 1208.09 116.469 1208.32 116.759C1208.56 117.04 1208.96 117.181 1209.54 117.181C1209.82 117.181 1210.2 117.128 1210.7 117.022V119C1210.05 119.176 1209.43 119.264 1208.82 119.264C1207.73 119.264 1206.91 118.934 1206.36 118.275C1205.81 117.616 1205.53 116.68 1205.53 115.467V106.621H1202.93V104.735H1205.53V101.281H1207.97ZM1229 117.589C1228.05 118.706 1226.65 119.264 1224.82 119.264C1223.3 119.264 1222.14 118.824 1221.34 117.945C1220.54 117.058 1220.14 115.748 1220.14 114.017V104.735H1222.57V113.951C1222.57 116.113 1223.45 117.194 1225.21 117.194C1227.07 117.194 1228.31 116.5 1228.93 115.111V104.735H1231.37V119H1229.05L1229 117.589ZM1243.39 115.216C1243.39 114.557 1243.14 114.047 1242.64 113.687C1242.15 113.318 1241.28 113.001 1240.04 112.738C1238.81 112.474 1237.83 112.158 1237.1 111.789C1236.38 111.419 1235.85 110.98 1235.49 110.47C1235.15 109.96 1234.98 109.354 1234.98 108.651C1234.98 107.482 1235.47 106.493 1236.46 105.685C1237.45 104.876 1238.72 104.472 1240.25 104.472C1241.87 104.472 1243.18 104.889 1244.18 105.724C1245.19 106.559 1245.7 107.627 1245.7 108.928H1243.25C1243.25 108.26 1242.96 107.684 1242.39 107.201C1241.83 106.717 1241.12 106.476 1240.25 106.476C1239.37 106.476 1238.67 106.669 1238.17 107.056C1237.67 107.442 1237.42 107.948 1237.42 108.572C1237.42 109.161 1237.65 109.604 1238.12 109.903C1238.58 110.202 1239.42 110.488 1240.64 110.76C1241.86 111.033 1242.85 111.358 1243.6 111.736C1244.36 112.114 1244.92 112.571 1245.28 113.107C1245.65 113.634 1245.83 114.28 1245.83 115.045C1245.83 116.319 1245.32 117.343 1244.3 118.117C1243.28 118.881 1241.96 119.264 1240.33 119.264C1239.19 119.264 1238.18 119.062 1237.3 118.657C1236.42 118.253 1235.73 117.69 1235.23 116.97C1234.74 116.24 1234.49 115.454 1234.49 114.61H1236.93C1236.98 115.427 1237.3 116.078 1237.91 116.561C1238.52 117.036 1239.33 117.273 1240.33 117.273C1241.26 117.273 1241.99 117.088 1242.55 116.719C1243.11 116.341 1243.39 115.84 1243.39 115.216ZM1254.93 119.264C1252.99 119.264 1251.42 118.631 1250.21 117.365C1248.99 116.091 1248.39 114.39 1248.39 112.263V111.815C1248.39 110.4 1248.66 109.139 1249.19 108.031C1249.74 106.915 1250.49 106.045 1251.46 105.421C1252.44 104.788 1253.49 104.472 1254.62 104.472C1256.48 104.472 1257.92 105.083 1258.95 106.304C1259.98 107.526 1260.49 109.275 1260.49 111.551V112.566H1250.83C1250.86 113.973 1251.27 115.111 1252.05 115.981C1252.84 116.842 1253.85 117.273 1255.06 117.273C1255.92 117.273 1256.65 117.097 1257.25 116.746C1257.85 116.394 1258.37 115.928 1258.82 115.348L1260.31 116.508C1259.11 118.345 1257.32 119.264 1254.93 119.264ZM1254.62 106.476C1253.64 106.476 1252.81 106.836 1252.15 107.557C1251.48 108.269 1251.06 109.271 1250.91 110.562H1258.05V110.378C1257.98 109.139 1257.65 108.181 1257.05 107.504C1256.45 106.818 1255.64 106.476 1254.62 106.476ZM1271.63 115.216C1271.63 114.557 1271.38 114.047 1270.88 113.687C1270.39 113.318 1269.52 113.001 1268.28 112.738C1267.05 112.474 1266.07 112.158 1265.34 111.789C1264.62 111.419 1264.09 110.98 1263.73 110.47C1263.39 109.96 1263.22 109.354 1263.22 108.651C1263.22 107.482 1263.71 106.493 1264.7 105.685C1265.69 104.876 1266.96 104.472 1268.49 104.472C1270.11 104.472 1271.42 104.889 1272.42 105.724C1273.43 106.559 1273.94 107.627 1273.94 108.928H1271.49C1271.49 108.26 1271.2 107.684 1270.63 107.201C1270.07 106.717 1269.35 106.476 1268.49 106.476C1267.61 106.476 1266.91 106.669 1266.41 107.056C1265.91 107.442 1265.66 107.948 1265.66 108.572C1265.66 109.161 1265.89 109.604 1266.36 109.903C1266.82 110.202 1267.66 110.488 1268.88 110.76C1270.1 111.033 1271.09 111.358 1271.84 111.736C1272.6 112.114 1273.16 112.571 1273.52 113.107C1273.89 113.634 1274.07 114.28 1274.07 115.045C1274.07 116.319 1273.56 117.343 1272.54 118.117C1271.52 118.881 1270.2 119.264 1268.57 119.264C1267.43 119.264 1266.42 119.062 1265.54 118.657C1264.66 118.253 1263.97 117.69 1263.47 116.97C1262.98 116.24 1262.73 115.454 1262.73 114.61H1265.17C1265.21 115.427 1265.54 116.078 1266.15 116.561C1266.76 117.036 1267.57 117.273 1268.57 117.273C1269.5 117.273 1270.23 117.088 1270.79 116.719C1271.35 116.341 1271.63 115.84 1271.63 115.216ZM1287.25 101.281V104.735H1289.92V106.621H1287.25V115.467C1287.25 116.038 1287.37 116.469 1287.61 116.759C1287.85 117.04 1288.25 117.181 1288.82 117.181C1289.1 117.181 1289.49 117.128 1289.98 117.022V119C1289.34 119.176 1288.72 119.264 1288.11 119.264C1287.02 119.264 1286.2 118.934 1285.65 118.275C1285.09 117.616 1284.81 116.68 1284.81 115.467V106.621H1282.22V104.735H1284.81V101.281H1287.25ZM1295.22 106.462C1296.3 105.135 1297.7 104.472 1299.44 104.472C1302.45 104.472 1303.97 106.172 1304 109.574V119H1301.56V109.561C1301.55 108.532 1301.31 107.772 1300.85 107.28C1300.39 106.788 1299.67 106.542 1298.7 106.542C1297.91 106.542 1297.21 106.752 1296.61 107.174C1296.02 107.596 1295.55 108.15 1295.22 108.835V119H1292.78V98.75H1295.22V106.462ZM1313.57 119.264C1311.63 119.264 1310.06 118.631 1308.85 117.365C1307.64 116.091 1307.03 114.39 1307.03 112.263V111.815C1307.03 110.4 1307.3 109.139 1307.83 108.031C1308.38 106.915 1309.13 106.045 1310.1 105.421C1311.08 104.788 1312.13 104.472 1313.26 104.472C1315.12 104.472 1316.56 105.083 1317.59 106.304C1318.62 107.526 1319.13 109.275 1319.13 111.551V112.566H1309.47C1309.5 113.973 1309.91 115.111 1310.69 115.981C1311.48 116.842 1312.49 117.273 1313.7 117.273C1314.56 117.273 1315.29 117.097 1315.89 116.746C1316.49 116.394 1317.01 115.928 1317.46 115.348L1318.95 116.508C1317.75 118.345 1315.96 119.264 1313.57 119.264ZM1313.26 106.476C1312.28 106.476 1311.45 106.836 1310.79 107.557C1310.12 108.269 1309.71 109.271 1309.55 110.562H1316.69V110.378C1316.62 109.139 1316.29 108.181 1315.69 107.504C1315.09 106.818 1314.28 106.476 1313.26 106.476ZM1140.32 144.909C1140.08 146.939 1139.33 148.508 1138.07 149.616C1136.81 150.714 1135.14 151.264 1133.04 151.264C1130.78 151.264 1128.96 150.451 1127.59 148.825C1126.22 147.199 1125.54 145.023 1125.54 142.299V140.453C1125.54 138.669 1125.86 137.1 1126.49 135.747C1127.13 134.393 1128.04 133.356 1129.21 132.635C1130.38 131.906 1131.73 131.541 1133.27 131.541C1135.31 131.541 1136.94 132.112 1138.17 133.255C1139.4 134.389 1140.12 135.962 1140.32 137.975H1137.78C1137.56 136.445 1137.08 135.338 1136.34 134.652C1135.61 133.967 1134.59 133.624 1133.27 133.624C1131.65 133.624 1130.38 134.222 1129.46 135.417C1128.54 136.612 1128.09 138.313 1128.09 140.519V142.378C1128.09 144.461 1128.52 146.118 1129.39 147.348C1130.26 148.579 1131.48 149.194 1133.04 149.194C1134.45 149.194 1135.53 148.877 1136.27 148.245C1137.03 147.603 1137.53 146.491 1137.78 144.909H1140.32ZM1142.76 143.736C1142.76 142.338 1143.03 141.082 1143.58 139.965C1144.13 138.849 1144.9 137.988 1145.87 137.381C1146.86 136.775 1147.98 136.472 1149.23 136.472C1151.18 136.472 1152.75 137.144 1153.94 138.489C1155.15 139.833 1155.75 141.622 1155.75 143.854V144.026C1155.75 145.415 1155.48 146.663 1154.94 147.77C1154.42 148.869 1153.66 149.726 1152.66 150.341C1151.68 150.956 1150.54 151.264 1149.26 151.264C1147.33 151.264 1145.76 150.591 1144.55 149.247C1143.36 147.902 1142.76 146.122 1142.76 143.907V143.736ZM1145.21 144.026C1145.21 145.608 1145.58 146.878 1146.31 147.836C1147.05 148.794 1148.03 149.273 1149.26 149.273C1150.5 149.273 1151.48 148.79 1152.21 147.823C1152.94 146.847 1153.31 145.485 1153.31 143.736C1153.31 142.171 1152.93 140.906 1152.19 139.939C1151.45 138.963 1150.46 138.476 1149.23 138.476C1148.03 138.476 1147.06 138.955 1146.32 139.913C1145.58 140.871 1145.21 142.242 1145.21 144.026ZM1158.16 143.736C1158.16 142.338 1158.43 141.082 1158.98 139.965C1159.53 138.849 1160.3 137.988 1161.27 137.381C1162.26 136.775 1163.38 136.472 1164.63 136.472C1166.58 136.472 1168.14 137.144 1169.34 138.489C1170.54 139.833 1171.15 141.622 1171.15 143.854V144.026C1171.15 145.415 1170.88 146.663 1170.34 147.77C1169.81 148.869 1169.05 149.726 1168.06 150.341C1167.08 150.956 1165.94 151.264 1164.66 151.264C1162.73 151.264 1161.16 150.591 1159.95 149.247C1158.76 147.902 1158.16 146.122 1158.16 143.907V143.736ZM1160.61 144.026C1160.61 145.608 1160.98 146.878 1161.71 147.836C1162.44 148.794 1163.43 149.273 1164.66 149.273C1165.9 149.273 1166.88 148.79 1167.61 147.823C1168.34 146.847 1168.71 145.485 1168.71 143.736C1168.71 142.171 1168.33 140.906 1167.59 139.939C1166.85 138.963 1165.86 138.476 1164.63 138.476C1163.43 138.476 1162.46 138.955 1161.72 139.913C1160.98 140.871 1160.61 142.242 1160.61 144.026ZM1181.1 138.924C1180.73 138.862 1180.33 138.832 1179.9 138.832C1178.3 138.832 1177.21 139.513 1176.64 140.875V151H1174.2V136.735H1176.58L1176.62 138.383C1177.42 137.109 1178.55 136.472 1180.02 136.472C1180.49 136.472 1180.85 136.533 1181.1 136.656V138.924ZM1182.5 143.749C1182.5 141.561 1183.02 139.803 1184.05 138.476C1185.09 137.14 1186.45 136.472 1188.13 136.472C1189.8 136.472 1191.12 137.043 1192.09 138.186V130.75H1194.53V151H1192.29L1192.17 149.471C1191.2 150.666 1189.84 151.264 1188.1 151.264C1186.45 151.264 1185.1 150.587 1184.05 149.233C1183.02 147.88 1182.5 146.113 1182.5 143.934V143.749ZM1184.94 144.026C1184.94 145.643 1185.27 146.909 1185.94 147.823C1186.61 148.737 1187.53 149.194 1188.71 149.194C1190.25 149.194 1191.38 148.5 1192.09 147.111V140.559C1191.36 139.214 1190.24 138.542 1188.73 138.542C1187.54 138.542 1186.61 139.003 1185.94 139.926C1185.27 140.849 1184.94 142.215 1184.94 144.026ZM1200.98 151H1198.54V136.735H1200.98V151ZM1198.34 132.952C1198.34 132.556 1198.46 132.222 1198.7 131.95C1198.95 131.677 1199.31 131.541 1199.78 131.541C1200.25 131.541 1200.62 131.677 1200.86 131.95C1201.11 132.222 1201.23 132.556 1201.23 132.952C1201.23 133.347 1201.11 133.677 1200.86 133.94C1200.62 134.204 1200.25 134.336 1199.78 134.336C1199.31 134.336 1198.95 134.204 1198.7 133.94C1198.46 133.677 1198.34 133.347 1198.34 132.952ZM1207.2 136.735L1207.28 138.528C1208.37 137.157 1209.8 136.472 1211.55 136.472C1214.57 136.472 1216.09 138.172 1216.11 141.574V151H1213.68V141.561C1213.67 140.532 1213.43 139.772 1212.96 139.28C1212.51 138.788 1211.79 138.542 1210.81 138.542C1210.02 138.542 1209.33 138.752 1208.73 139.174C1208.13 139.596 1207.67 140.15 1207.33 140.835V151H1204.9V136.735H1207.2ZM1228.6 151C1228.46 150.719 1228.34 150.218 1228.26 149.497C1227.12 150.675 1225.77 151.264 1224.2 151.264C1222.79 151.264 1221.63 150.868 1220.73 150.077C1219.83 149.277 1219.38 148.267 1219.38 147.045C1219.38 145.56 1219.95 144.408 1221.07 143.591C1222.21 142.765 1223.8 142.352 1225.84 142.352H1228.22V141.231C1228.22 140.378 1227.96 139.702 1227.45 139.201C1226.94 138.691 1226.19 138.436 1225.2 138.436C1224.33 138.436 1223.6 138.656 1223.01 139.095C1222.42 139.535 1222.13 140.066 1222.13 140.69H1219.67C1219.67 139.979 1219.92 139.293 1220.43 138.634C1220.94 137.966 1221.62 137.438 1222.48 137.052C1223.35 136.665 1224.31 136.472 1225.34 136.472C1226.99 136.472 1228.27 136.885 1229.21 137.711C1230.14 138.528 1230.62 139.658 1230.66 141.099V147.665C1230.66 148.974 1230.82 150.016 1231.16 150.789V151H1228.6ZM1224.55 149.141C1225.32 149.141 1226.04 148.943 1226.73 148.548C1227.41 148.152 1227.91 147.638 1228.22 147.005V144.079H1226.31C1223.32 144.079 1221.82 144.953 1221.82 146.702C1221.82 147.467 1222.08 148.064 1222.59 148.495C1223.1 148.926 1223.75 149.141 1224.55 149.141ZM1237.79 133.281V136.735H1240.45V138.621H1237.79V147.467C1237.79 148.038 1237.91 148.469 1238.14 148.759C1238.38 149.04 1238.79 149.181 1239.36 149.181C1239.64 149.181 1240.03 149.128 1240.52 149.022V151C1239.88 151.176 1239.25 151.264 1238.65 151.264C1237.56 151.264 1236.73 150.934 1236.18 150.275C1235.63 149.616 1235.35 148.68 1235.35 147.467V138.621H1232.75V136.735H1235.35V133.281H1237.79ZM1242.4 143.736C1242.4 142.338 1242.68 141.082 1243.22 139.965C1243.77 138.849 1244.54 137.988 1245.51 137.381C1246.5 136.775 1247.62 136.472 1248.88 136.472C1250.82 136.472 1252.39 137.144 1253.58 138.489C1254.79 139.833 1255.39 141.622 1255.39 143.854V144.026C1255.39 145.415 1255.12 146.663 1254.58 147.77C1254.06 148.869 1253.3 149.726 1252.3 150.341C1251.32 150.956 1250.19 151.264 1248.9 151.264C1246.97 151.264 1245.4 150.591 1244.2 149.247C1243 147.902 1242.4 146.122 1242.4 143.907V143.736ZM1244.85 144.026C1244.85 145.608 1245.22 146.878 1245.95 147.836C1246.69 148.794 1247.67 149.273 1248.9 149.273C1250.14 149.273 1251.13 148.79 1251.86 147.823C1252.58 146.847 1252.95 145.485 1252.95 143.736C1252.95 142.171 1252.58 140.906 1251.83 139.939C1251.09 138.963 1250.11 138.476 1248.88 138.476C1247.67 138.476 1246.7 138.955 1245.96 139.913C1245.22 140.871 1244.85 142.242 1244.85 144.026ZM1265.34 138.924C1264.97 138.862 1264.57 138.832 1264.14 138.832C1262.54 138.832 1261.46 139.513 1260.89 140.875V151H1258.45V136.735H1260.82L1260.86 138.383C1261.66 137.109 1262.79 136.472 1264.26 136.472C1264.74 136.472 1265.1 136.533 1265.34 136.656V138.924ZM1267.98 137.21L1266.59 136.261C1267.41 135.118 1267.83 133.914 1267.86 132.648V130.75H1270.27V132.464C1270.26 133.343 1270.04 134.222 1269.61 135.101C1269.19 135.971 1268.65 136.674 1267.98 137.21ZM1280.04 147.216C1280.04 146.557 1279.79 146.047 1279.29 145.687C1278.8 145.318 1277.93 145.001 1276.69 144.738C1275.46 144.474 1274.48 144.158 1273.75 143.789C1273.03 143.419 1272.5 142.98 1272.15 142.47C1271.8 141.96 1271.63 141.354 1271.63 140.651C1271.63 139.482 1272.12 138.493 1273.11 137.685C1274.1 136.876 1275.37 136.472 1276.9 136.472C1278.52 136.472 1279.83 136.889 1280.83 137.724C1281.84 138.559 1282.35 139.627 1282.35 140.928H1279.9C1279.9 140.26 1279.61 139.684 1279.04 139.201C1278.48 138.717 1277.77 138.476 1276.9 138.476C1276.02 138.476 1275.32 138.669 1274.82 139.056C1274.32 139.442 1274.07 139.948 1274.07 140.572C1274.07 141.161 1274.3 141.604 1274.77 141.903C1275.23 142.202 1276.07 142.488 1277.29 142.76C1278.51 143.033 1279.5 143.358 1280.25 143.736C1281.01 144.114 1281.57 144.571 1281.93 145.107C1282.3 145.634 1282.48 146.28 1282.48 147.045C1282.48 148.319 1281.97 149.343 1280.95 150.117C1279.93 150.881 1278.61 151.264 1276.98 151.264C1275.84 151.264 1274.83 151.062 1273.95 150.657C1273.07 150.253 1272.38 149.69 1271.88 148.97C1271.39 148.24 1271.14 147.454 1271.14 146.61H1273.58C1273.63 147.427 1273.95 148.078 1274.56 148.561C1275.17 149.036 1275.98 149.273 1276.98 149.273C1277.91 149.273 1278.64 149.088 1279.2 148.719C1279.76 148.341 1280.04 147.84 1280.04 147.216ZM1299.25 138.924C1298.88 138.862 1298.48 138.832 1298.05 138.832C1296.45 138.832 1295.37 139.513 1294.79 140.875V151H1292.36V136.735H1294.73L1294.77 138.383C1295.57 137.109 1296.7 136.472 1298.17 136.472C1298.64 136.472 1299 136.533 1299.25 136.656V138.924ZM1300.6 143.736C1300.6 142.338 1300.87 141.082 1301.41 139.965C1301.97 138.849 1302.73 137.988 1303.71 137.381C1304.69 136.775 1305.81 136.472 1307.07 136.472C1309.01 136.472 1310.58 137.144 1311.77 138.489C1312.98 139.833 1313.58 141.622 1313.58 143.854V144.026C1313.58 145.415 1313.31 146.663 1312.78 147.77C1312.25 148.869 1311.49 149.726 1310.5 150.341C1309.51 150.956 1308.38 151.264 1307.09 151.264C1305.16 151.264 1303.59 150.591 1302.39 149.247C1301.19 147.902 1300.6 146.122 1300.6 143.907V143.736ZM1303.05 144.026C1303.05 145.608 1303.41 146.878 1304.14 147.836C1304.88 148.794 1305.86 149.273 1307.09 149.273C1308.33 149.273 1309.32 148.79 1310.05 147.823C1310.78 146.847 1311.14 145.485 1311.14 143.736C1311.14 142.171 1310.77 140.906 1310.02 139.939C1309.28 138.963 1308.3 138.476 1307.07 138.476C1305.86 138.476 1304.89 138.955 1304.15 139.913C1303.42 140.871 1303.05 142.242 1303.05 144.026ZM1315.99 143.736C1315.99 142.338 1316.27 141.082 1316.81 139.965C1317.36 138.849 1318.13 137.988 1319.1 137.381C1320.09 136.775 1321.21 136.472 1322.47 136.472C1324.41 136.472 1325.98 137.144 1327.17 138.489C1328.38 139.833 1328.98 141.622 1328.98 143.854V144.026C1328.98 145.415 1328.71 146.663 1328.18 147.77C1327.65 148.869 1326.89 149.726 1325.89 150.341C1324.91 150.956 1323.78 151.264 1322.49 151.264C1320.56 151.264 1318.99 150.591 1317.79 149.247C1316.59 147.902 1315.99 146.122 1315.99 143.907V143.736ZM1318.45 144.026C1318.45 145.608 1318.81 146.878 1319.54 147.836C1320.28 148.794 1321.26 149.273 1322.49 149.273C1323.73 149.273 1324.72 148.79 1325.45 147.823C1326.18 146.847 1326.54 145.485 1326.54 143.736C1326.54 142.171 1326.17 140.906 1325.42 139.939C1324.68 138.963 1323.7 138.476 1322.47 138.476C1321.26 138.476 1320.29 138.955 1319.55 139.913C1318.81 140.871 1318.45 142.242 1318.45 144.026ZM1335.35 133.281V136.735H1338.01V138.621H1335.35V147.467C1335.35 148.038 1335.47 148.469 1335.7 148.759C1335.94 149.04 1336.34 149.181 1336.92 149.181C1337.2 149.181 1337.58 149.128 1338.08 149.022V151C1337.43 151.176 1336.81 151.264 1336.2 151.264C1335.11 151.264 1334.29 150.934 1333.74 150.275C1333.19 149.616 1332.91 148.68 1332.91 147.467V138.621H1330.31V136.735H1332.91V133.281H1335.35ZM1101.13 181.273C1102 181.273 1102.76 181.009 1103.41 180.482C1104.06 179.955 1104.42 179.295 1104.49 178.504H1106.8C1106.75 179.322 1106.47 180.1 1105.95 180.838C1105.43 181.576 1104.74 182.165 1103.87 182.604C1103.01 183.044 1102.09 183.264 1101.13 183.264C1099.19 183.264 1097.64 182.618 1096.49 181.326C1095.34 180.025 1094.77 178.25 1094.77 176V175.591C1094.77 174.202 1095.03 172.967 1095.54 171.886C1096.05 170.805 1096.78 169.966 1097.73 169.368C1098.68 168.771 1099.81 168.472 1101.11 168.472C1102.71 168.472 1104.04 168.951 1105.1 169.909C1106.16 170.867 1106.73 172.11 1106.8 173.64H1104.49C1104.42 172.717 1104.07 171.961 1103.43 171.372C1102.81 170.774 1102.04 170.476 1101.11 170.476C1099.88 170.476 1098.91 170.924 1098.23 171.82C1097.55 172.708 1097.21 173.996 1097.21 175.683V176.145C1097.21 177.788 1097.55 179.054 1098.23 179.941C1098.9 180.829 1099.87 181.273 1101.13 181.273ZM1115.46 183.264C1113.52 183.264 1111.95 182.631 1110.74 181.365C1109.53 180.091 1108.92 178.39 1108.92 176.263V175.815C1108.92 174.4 1109.19 173.139 1109.72 172.031C1110.27 170.915 1111.02 170.045 1111.99 169.421C1112.97 168.788 1114.02 168.472 1115.15 168.472C1117.01 168.472 1118.45 169.083 1119.48 170.304C1120.51 171.526 1121.02 173.275 1121.02 175.551V176.566H1111.36C1111.39 177.973 1111.8 179.111 1112.58 179.981C1113.38 180.842 1114.38 181.273 1115.59 181.273C1116.45 181.273 1117.18 181.097 1117.78 180.746C1118.38 180.394 1118.9 179.928 1119.35 179.348L1120.84 180.508C1119.64 182.345 1117.85 183.264 1115.46 183.264ZM1115.15 170.476C1114.17 170.476 1113.34 170.836 1112.68 171.557C1112.01 172.269 1111.6 173.271 1111.44 174.562H1118.58V174.378C1118.51 173.139 1118.18 172.181 1117.58 171.504C1116.98 170.818 1116.17 170.476 1115.15 170.476ZM1130.75 170.924C1130.38 170.862 1129.98 170.832 1129.55 170.832C1127.95 170.832 1126.87 171.513 1126.29 172.875V183H1123.86V168.735H1126.23L1126.27 170.383C1127.07 169.109 1128.2 168.472 1129.67 168.472C1130.14 168.472 1130.5 168.533 1130.75 168.656V170.924ZM1136.97 165.281V168.735H1139.64V170.621H1136.97V179.467C1136.97 180.038 1137.09 180.469 1137.33 180.759C1137.57 181.04 1137.97 181.181 1138.54 181.181C1138.82 181.181 1139.21 181.128 1139.7 181.022V183C1139.06 183.176 1138.44 183.264 1137.83 183.264C1136.74 183.264 1135.92 182.934 1135.37 182.275C1134.81 181.616 1134.53 180.68 1134.53 179.467V170.621H1131.94V168.735H1134.53V165.281H1136.97ZM1145.15 183H1142.71V168.735H1145.15V183ZM1142.51 164.952C1142.51 164.556 1142.63 164.222 1142.87 163.95C1143.11 163.677 1143.47 163.541 1143.95 163.541C1144.42 163.541 1144.78 163.677 1145.03 163.95C1145.27 164.222 1145.4 164.556 1145.4 164.952C1145.4 165.347 1145.27 165.677 1145.03 165.94C1144.78 166.204 1144.42 166.336 1143.95 166.336C1143.47 166.336 1143.11 166.204 1142.87 165.94C1142.63 165.677 1142.51 165.347 1142.51 164.952ZM1149.88 183V170.621H1147.63V168.735H1149.88V167.522C1149.88 165.932 1150.33 164.692 1151.24 163.805C1152.15 162.917 1153.44 162.473 1155.1 162.473C1156.09 162.473 1157.33 162.741 1158.83 163.277L1158.42 165.334C1157.32 164.895 1156.28 164.675 1155.29 164.675C1154.24 164.675 1153.48 164.912 1153.02 165.387C1152.56 165.853 1152.33 166.556 1152.33 167.496V168.735H1155.25V170.621H1152.33V183H1149.88ZM1160.04 183H1157.59V168.735H1160.04V183ZM1169.73 181.273C1170.6 181.273 1171.37 181.009 1172.02 180.482C1172.67 179.955 1173.03 179.295 1173.1 178.504H1175.4C1175.36 179.322 1175.08 180.1 1174.56 180.838C1174.04 181.576 1173.35 182.165 1172.48 182.604C1171.62 183.044 1170.7 183.264 1169.73 183.264C1167.79 183.264 1166.25 182.618 1165.09 181.326C1163.95 180.025 1163.38 178.25 1163.38 176V175.591C1163.38 174.202 1163.64 172.967 1164.15 171.886C1164.65 170.805 1165.38 169.966 1166.33 169.368C1167.29 168.771 1168.42 168.472 1169.72 168.472C1171.32 168.472 1172.65 168.951 1173.7 169.909C1174.77 170.867 1175.33 172.11 1175.4 173.64H1173.1C1173.03 172.717 1172.67 171.961 1172.04 171.372C1171.42 170.774 1170.64 170.476 1169.72 170.476C1168.48 170.476 1167.52 170.924 1166.83 171.82C1166.16 172.708 1165.82 173.996 1165.82 175.683V176.145C1165.82 177.788 1166.16 179.054 1166.83 179.941C1167.51 180.829 1168.48 181.273 1169.73 181.273ZM1186.95 183C1186.81 182.719 1186.7 182.218 1186.61 181.497C1185.48 182.675 1184.12 183.264 1182.55 183.264C1181.14 183.264 1179.99 182.868 1179.08 182.077C1178.19 181.277 1177.74 180.267 1177.74 179.045C1177.74 177.56 1178.3 176.408 1179.42 175.591C1180.56 174.765 1182.15 174.352 1184.2 174.352H1186.57V173.231C1186.57 172.378 1186.32 171.702 1185.81 171.201C1185.3 170.691 1184.54 170.436 1183.55 170.436C1182.68 170.436 1181.95 170.656 1181.36 171.095C1180.77 171.535 1180.48 172.066 1180.48 172.69H1178.03C1178.03 171.979 1178.28 171.293 1178.78 170.634C1179.29 169.966 1179.97 169.438 1180.84 169.052C1181.71 168.665 1182.66 168.472 1183.7 168.472C1185.34 168.472 1186.63 168.885 1187.56 169.711C1188.49 170.528 1188.97 171.658 1189.01 173.099V179.665C1189.01 180.974 1189.18 182.016 1189.51 182.789V183H1186.95ZM1182.91 181.141C1183.67 181.141 1184.4 180.943 1185.08 180.548C1185.77 180.152 1186.26 179.638 1186.57 179.005V176.079H1184.66C1181.67 176.079 1180.18 176.953 1180.18 178.702C1180.18 179.467 1180.43 180.064 1180.94 180.495C1181.45 180.926 1182.11 181.141 1182.91 181.141ZM1196.14 165.281V168.735H1198.8V170.621H1196.14V179.467C1196.14 180.038 1196.26 180.469 1196.5 180.759C1196.73 181.04 1197.14 181.181 1197.71 181.181C1197.99 181.181 1198.38 181.128 1198.87 181.022V183C1198.23 183.176 1197.6 183.264 1197 183.264C1195.91 183.264 1195.09 182.934 1194.53 182.275C1193.98 181.616 1193.7 180.68 1193.7 179.467V170.621H1191.11V168.735H1193.7V165.281H1196.14ZM1207.58 183.264C1205.65 183.264 1204.08 182.631 1202.87 181.365C1201.65 180.091 1201.05 178.39 1201.05 176.263V175.815C1201.05 174.4 1201.31 173.139 1201.85 172.031C1202.4 170.915 1203.15 170.045 1204.12 169.421C1205.09 168.788 1206.15 168.472 1207.28 168.472C1209.14 168.472 1210.58 169.083 1211.61 170.304C1212.63 171.526 1213.15 173.275 1213.15 175.551V176.566H1203.48C1203.52 177.973 1203.93 179.111 1204.71 179.981C1205.5 180.842 1206.5 181.273 1207.72 181.273C1208.58 181.273 1209.31 181.097 1209.91 180.746C1210.5 180.394 1211.03 179.928 1211.47 179.348L1212.96 180.508C1211.77 182.345 1209.98 183.264 1207.58 183.264ZM1207.28 170.476C1206.3 170.476 1205.47 170.836 1204.8 171.557C1204.14 172.269 1203.72 173.271 1203.56 174.562H1210.71V174.378C1210.64 173.139 1210.31 172.181 1209.71 171.504C1209.11 170.818 1208.3 170.476 1207.28 170.476ZM1225.99 165.281V168.735H1228.65V170.621H1225.99V179.467C1225.99 180.038 1226.11 180.469 1226.35 180.759C1226.58 181.04 1226.99 181.181 1227.56 181.181C1227.84 181.181 1228.23 181.128 1228.72 181.022V183C1228.08 183.176 1227.45 183.264 1226.85 183.264C1225.76 183.264 1224.93 182.934 1224.38 182.275C1223.83 181.616 1223.55 180.68 1223.55 179.467V170.621H1220.95V168.735H1223.55V165.281H1225.99ZM1230.6 175.736C1230.6 174.338 1230.88 173.082 1231.42 171.965C1231.97 170.849 1232.74 169.988 1233.71 169.381C1234.7 168.775 1235.82 168.472 1237.08 168.472C1239.02 168.472 1240.59 169.144 1241.78 170.489C1242.99 171.833 1243.59 173.622 1243.59 175.854V176.026C1243.59 177.415 1243.32 178.663 1242.79 179.77C1242.26 180.869 1241.5 181.726 1240.5 182.341C1239.52 182.956 1238.39 183.264 1237.1 183.264C1235.17 183.264 1233.6 182.591 1232.4 181.247C1231.2 179.902 1230.6 178.122 1230.6 175.907V175.736ZM1233.06 176.026C1233.06 177.608 1233.42 178.878 1234.15 179.836C1234.89 180.794 1235.87 181.273 1237.1 181.273C1238.34 181.273 1239.33 180.79 1240.06 179.823C1240.79 178.847 1241.15 177.485 1241.15 175.736C1241.15 174.171 1240.78 172.906 1240.03 171.939C1239.29 170.963 1238.31 170.476 1237.08 170.476C1235.87 170.476 1234.9 170.955 1234.16 171.913C1233.42 172.871 1233.06 174.242 1233.06 176.026ZM1258.05 179.691L1261.58 168.735H1264.08L1258.96 183H1257.1L1251.93 168.735H1254.43L1258.05 179.691ZM1272.16 183.264C1270.22 183.264 1268.65 182.631 1267.44 181.365C1266.23 180.091 1265.62 178.39 1265.62 176.263V175.815C1265.62 174.4 1265.89 173.139 1266.42 172.031C1266.97 170.915 1267.72 170.045 1268.69 169.421C1269.67 168.788 1270.72 168.472 1271.85 168.472C1273.71 168.472 1275.15 169.083 1276.18 170.304C1277.21 171.526 1277.72 173.275 1277.72 175.551V176.566H1268.06C1268.09 177.973 1268.5 179.111 1269.28 179.981C1270.08 180.842 1271.08 181.273 1272.29 181.273C1273.15 181.273 1273.88 181.097 1274.48 180.746C1275.08 180.394 1275.6 179.928 1276.05 179.348L1277.54 180.508C1276.34 182.345 1274.55 183.264 1272.16 183.264ZM1271.85 170.476C1270.87 170.476 1270.04 170.836 1269.38 171.557C1268.71 172.269 1268.3 173.271 1268.14 174.562H1275.28V174.378C1275.21 173.139 1274.88 172.181 1274.28 171.504C1273.68 170.818 1272.87 170.476 1271.85 170.476ZM1287.45 170.924C1287.08 170.862 1286.68 170.832 1286.25 170.832C1284.65 170.832 1283.57 171.513 1283 172.875V183H1280.56V168.735H1282.93L1282.97 170.383C1283.77 169.109 1284.9 168.472 1286.37 168.472C1286.84 168.472 1287.21 168.533 1287.45 168.656V170.924ZM1292.36 183H1289.92V168.735H1292.36V183ZM1289.72 164.952C1289.72 164.556 1289.84 164.222 1290.07 163.95C1290.32 163.677 1290.68 163.541 1291.16 163.541C1291.63 163.541 1291.99 163.677 1292.24 163.95C1292.48 164.222 1292.61 164.556 1292.61 164.952C1292.61 165.347 1292.48 165.677 1292.24 165.94C1291.99 166.204 1291.63 166.336 1291.16 166.336C1290.68 166.336 1290.32 166.204 1290.07 165.94C1289.84 165.677 1289.72 165.347 1289.72 164.952ZM1297.47 183V170.621H1295.22V168.735H1297.47V167.272C1297.47 165.743 1297.88 164.561 1298.7 163.726C1299.51 162.891 1300.67 162.473 1302.16 162.473C1302.73 162.473 1303.28 162.548 1303.84 162.697L1303.71 164.675C1303.29 164.596 1302.85 164.556 1302.39 164.556C1301.6 164.556 1300.99 164.789 1300.56 165.255C1300.12 165.712 1299.91 166.371 1299.91 167.232V168.735H1302.96V170.621H1299.91V183H1297.47ZM1310.32 179.427L1313.65 168.735H1316.26L1310.52 185.202C1309.63 187.575 1308.22 188.761 1306.29 188.761L1305.83 188.722L1304.92 188.55V186.573L1305.58 186.625C1306.4 186.625 1307.05 186.458 1307.5 186.125C1307.97 185.791 1308.35 185.18 1308.65 184.292L1309.19 182.842L1304.1 168.735H1306.77L1310.32 179.427ZM1338.26 165.888H1332.09V183H1329.57V165.888H1323.42V163.805H1338.26V165.888ZM1343.65 180.93H1352.75V183H1341.11V163.805H1343.65V180.93ZM1361.29 174.444C1359.12 173.82 1357.54 173.055 1356.55 172.15C1355.56 171.236 1355.07 170.111 1355.07 168.775C1355.07 167.263 1355.67 166.015 1356.88 165.031C1358.09 164.038 1359.66 163.541 1361.6 163.541C1362.91 163.541 1364.09 163.796 1365.12 164.306C1366.15 164.815 1366.95 165.519 1367.52 166.415C1368.09 167.312 1368.37 168.292 1368.37 169.355H1365.83C1365.83 168.195 1365.46 167.285 1364.72 166.626C1363.98 165.958 1362.94 165.624 1361.6 165.624C1360.35 165.624 1359.37 165.901 1358.67 166.455C1357.97 167 1357.63 167.76 1357.63 168.735C1357.63 169.518 1357.96 170.181 1358.62 170.726C1359.28 171.262 1360.41 171.754 1362 172.203C1363.6 172.651 1364.85 173.147 1365.75 173.692C1366.65 174.229 1367.32 174.857 1367.75 175.578C1368.19 176.298 1368.41 177.146 1368.41 178.122C1368.41 179.678 1367.81 180.926 1366.59 181.866C1365.38 182.798 1363.76 183.264 1361.73 183.264C1360.41 183.264 1359.18 183.013 1358.04 182.512C1356.89 182.002 1356.01 181.308 1355.39 180.429C1354.77 179.55 1354.46 178.553 1354.46 177.437H1357.01C1357.01 178.597 1357.43 179.515 1358.29 180.192C1359.15 180.86 1360.29 181.194 1361.73 181.194C1363.06 181.194 1364.09 180.921 1364.8 180.376C1365.51 179.832 1365.87 179.089 1365.87 178.148C1365.87 177.208 1365.54 176.483 1364.88 175.973C1364.22 175.455 1363.02 174.945 1361.29 174.444ZM1098 213.273C1098.87 213.273 1099.63 213.009 1100.28 212.482C1100.93 211.955 1101.29 211.295 1101.36 210.504H1103.67C1103.63 211.322 1103.35 212.1 1102.83 212.838C1102.31 213.576 1101.62 214.165 1100.75 214.604C1099.88 215.044 1098.97 215.264 1098 215.264C1096.06 215.264 1094.51 214.618 1093.36 213.326C1092.22 212.025 1091.65 210.25 1091.65 208V207.591C1091.65 206.202 1091.9 204.967 1092.41 203.886C1092.92 202.805 1093.65 201.966 1094.6 201.368C1095.56 200.771 1096.69 200.472 1097.99 200.472C1099.59 200.472 1100.92 200.951 1101.97 201.909C1103.03 202.867 1103.6 204.11 1103.67 205.64H1101.36C1101.29 204.717 1100.94 203.961 1100.31 203.372C1099.69 202.774 1098.91 202.476 1097.99 202.476C1096.75 202.476 1095.79 202.924 1095.1 203.82C1094.43 204.708 1094.09 205.996 1094.09 207.683V208.145C1094.09 209.788 1094.43 211.054 1095.1 211.941C1095.78 212.829 1096.75 213.273 1098 213.273ZM1105.77 207.736C1105.77 206.338 1106.04 205.082 1106.59 203.965C1107.14 202.849 1107.9 201.988 1108.88 201.381C1109.86 200.775 1110.98 200.472 1112.24 200.472C1114.18 200.472 1115.75 201.144 1116.95 202.489C1118.15 203.833 1118.75 205.622 1118.75 207.854V208.026C1118.75 209.415 1118.49 210.663 1117.95 211.77C1117.42 212.869 1116.66 213.726 1115.67 214.341C1114.68 214.956 1113.55 215.264 1112.27 215.264C1110.33 215.264 1108.77 214.591 1107.56 213.247C1106.37 211.902 1105.77 210.122 1105.77 207.907V207.736ZM1108.22 208.026C1108.22 209.608 1108.58 210.878 1109.31 211.836C1110.05 212.794 1111.04 213.273 1112.27 213.273C1113.51 213.273 1114.49 212.79 1115.22 211.823C1115.95 210.847 1116.31 209.485 1116.31 207.736C1116.31 206.171 1115.94 204.906 1115.19 203.939C1114.46 202.963 1113.47 202.476 1112.24 202.476C1111.04 202.476 1110.07 202.955 1109.33 203.913C1108.59 204.871 1108.22 206.242 1108.22 208.026ZM1124.12 200.735L1124.2 202.528C1125.29 201.157 1126.71 200.472 1128.47 200.472C1131.48 200.472 1133.01 202.172 1133.03 205.574V215H1130.59V205.561C1130.58 204.532 1130.35 203.772 1129.88 203.28C1129.42 202.788 1128.71 202.542 1127.73 202.542C1126.94 202.542 1126.25 202.752 1125.65 203.174C1125.05 203.596 1124.59 204.15 1124.25 204.835V215H1121.81V200.735H1124.12ZM1139.02 200.735L1139.1 202.528C1140.19 201.157 1141.61 200.472 1143.37 200.472C1146.38 200.472 1147.9 202.172 1147.93 205.574V215H1145.49V205.561C1145.48 204.532 1145.24 203.772 1144.78 203.28C1144.32 202.788 1143.6 202.542 1142.63 202.542C1141.84 202.542 1141.14 202.752 1140.55 203.174C1139.95 203.596 1139.48 204.15 1139.15 204.835V215H1136.71V200.735H1139.02ZM1157.53 215.264C1155.59 215.264 1154.02 214.631 1152.81 213.365C1151.59 212.091 1150.99 210.39 1150.99 208.263V207.815C1150.99 206.4 1151.26 205.139 1151.79 204.031C1152.34 202.915 1153.09 202.045 1154.06 201.421C1155.04 200.788 1156.09 200.472 1157.22 200.472C1159.08 200.472 1160.52 201.083 1161.55 202.304C1162.58 203.526 1163.09 205.275 1163.09 207.551V208.566H1153.43C1153.46 209.973 1153.87 211.111 1154.65 211.981C1155.44 212.842 1156.45 213.273 1157.66 213.273C1158.52 213.273 1159.25 213.097 1159.85 212.746C1160.44 212.394 1160.97 211.928 1161.42 211.348L1162.91 212.508C1161.71 214.345 1159.92 215.264 1157.53 215.264ZM1157.22 202.476C1156.24 202.476 1155.41 202.836 1154.75 203.557C1154.08 204.269 1153.66 205.271 1153.51 206.562H1160.65V206.378C1160.58 205.139 1160.25 204.181 1159.65 203.504C1159.05 202.818 1158.24 202.476 1157.22 202.476ZM1171.65 213.273C1172.52 213.273 1173.28 213.009 1173.93 212.482C1174.58 211.955 1174.94 211.295 1175.01 210.504H1177.32C1177.27 211.322 1176.99 212.1 1176.47 212.838C1175.95 213.576 1175.26 214.165 1174.39 214.604C1173.53 215.044 1172.61 215.264 1171.65 215.264C1169.7 215.264 1168.16 214.618 1167.01 213.326C1165.86 212.025 1165.29 210.25 1165.29 208V207.591C1165.29 206.202 1165.55 204.967 1166.06 203.886C1166.57 202.805 1167.3 201.966 1168.25 201.368C1169.2 200.771 1170.33 200.472 1171.63 200.472C1173.23 200.472 1174.56 200.951 1175.61 201.909C1176.68 202.867 1177.25 204.11 1177.32 205.64H1175.01C1174.94 204.717 1174.59 203.961 1173.95 203.372C1173.33 202.774 1172.56 202.476 1171.63 202.476C1170.39 202.476 1169.43 202.924 1168.75 203.82C1168.07 204.708 1167.73 205.996 1167.73 207.683V208.145C1167.73 209.788 1168.07 211.054 1168.75 211.941C1169.42 212.829 1170.39 213.273 1171.65 213.273ZM1183.37 197.281V200.735H1186.03V202.621H1183.37V211.467C1183.37 212.038 1183.49 212.469 1183.72 212.759C1183.96 213.04 1184.36 213.181 1184.94 213.181C1185.22 213.181 1185.6 213.128 1186.1 213.022V215C1185.45 215.176 1184.83 215.264 1184.22 215.264C1183.13 215.264 1182.31 214.934 1181.76 214.275C1181.2 213.616 1180.93 212.68 1180.93 211.467V202.621H1178.33V200.735H1180.93V197.281H1183.37ZM1191.54 215H1189.1V200.735H1191.54V215ZM1188.9 196.952C1188.9 196.556 1189.02 196.222 1189.26 195.95C1189.51 195.677 1189.87 195.541 1190.34 195.541C1190.82 195.541 1191.18 195.677 1191.42 195.95C1191.67 196.222 1191.79 196.556 1191.79 196.952C1191.79 197.347 1191.67 197.677 1191.42 197.94C1191.18 198.204 1190.82 198.336 1190.34 198.336C1189.87 198.336 1189.51 198.204 1189.26 197.94C1189.02 197.677 1188.9 197.347 1188.9 196.952ZM1194.81 207.736C1194.81 206.338 1195.08 205.082 1195.63 203.965C1196.18 202.849 1196.95 201.988 1197.92 201.381C1198.91 200.775 1200.03 200.472 1201.28 200.472C1203.23 200.472 1204.79 201.144 1205.99 202.489C1207.19 203.833 1207.8 205.622 1207.8 207.854V208.026C1207.8 209.415 1207.53 210.663 1206.99 211.77C1206.46 212.869 1205.7 213.726 1204.71 214.341C1203.73 214.956 1202.59 215.264 1201.31 215.264C1199.38 215.264 1197.81 214.591 1196.6 213.247C1195.41 211.902 1194.81 210.122 1194.81 207.907V207.736ZM1197.26 208.026C1197.26 209.608 1197.63 210.878 1198.36 211.836C1199.09 212.794 1200.08 213.273 1201.31 213.273C1202.55 213.273 1203.53 212.79 1204.26 211.823C1204.99 210.847 1205.36 209.485 1205.36 207.736C1205.36 206.171 1204.98 204.906 1204.24 203.939C1203.5 202.963 1202.51 202.476 1201.28 202.476C1200.08 202.476 1199.11 202.955 1198.37 203.913C1197.63 204.871 1197.26 206.242 1197.26 208.026ZM1213.16 200.735L1213.24 202.528C1214.33 201.157 1215.75 200.472 1217.51 200.472C1220.53 200.472 1222.05 202.172 1222.07 205.574V215H1219.63V205.561C1219.63 204.532 1219.39 203.772 1218.92 203.28C1218.47 202.788 1217.75 202.542 1216.77 202.542C1215.98 202.542 1215.29 202.752 1214.69 203.174C1214.09 203.596 1213.63 204.15 1213.29 204.835V215H1210.85V200.735H1213.16ZM1234.06 211.216C1234.06 210.557 1233.81 210.047 1233.31 209.687C1232.81 209.318 1231.95 209.001 1230.71 208.738C1229.48 208.474 1228.5 208.158 1227.77 207.789C1227.05 207.419 1226.51 206.98 1226.16 206.47C1225.82 205.96 1225.65 205.354 1225.65 204.651C1225.65 203.482 1226.14 202.493 1227.12 201.685C1228.12 200.876 1229.38 200.472 1230.92 200.472C1232.54 200.472 1233.85 200.889 1234.85 201.724C1235.86 202.559 1236.36 203.627 1236.36 204.928H1233.91C1233.91 204.26 1233.63 203.684 1233.06 203.201C1232.49 202.717 1231.78 202.476 1230.92 202.476C1230.03 202.476 1229.34 202.669 1228.84 203.056C1228.34 203.442 1228.09 203.948 1228.09 204.572C1228.09 205.161 1228.32 205.604 1228.78 205.903C1229.25 206.202 1230.09 206.488 1231.3 206.76C1232.52 207.033 1233.51 207.358 1234.27 207.736C1235.02 208.114 1235.58 208.571 1235.94 209.107C1236.31 209.634 1236.5 210.28 1236.5 211.045C1236.5 212.319 1235.99 213.343 1234.97 214.117C1233.95 214.881 1232.62 215.264 1231 215.264C1229.86 215.264 1228.85 215.062 1227.97 214.657C1227.09 214.253 1226.4 213.69 1225.9 212.97C1225.4 212.24 1225.16 211.454 1225.16 210.61H1227.6C1227.64 211.427 1227.97 212.078 1228.57 212.561C1229.19 213.036 1230 213.273 1231 213.273C1231.92 213.273 1232.66 213.088 1233.21 212.719C1233.78 212.341 1234.06 211.84 1234.06 211.216ZM1249.68 197.281V200.735H1252.34V202.621H1249.68V211.467C1249.68 212.038 1249.8 212.469 1250.04 212.759C1250.27 213.04 1250.68 213.181 1251.25 213.181C1251.53 213.181 1251.92 213.128 1252.41 213.022V215C1251.77 215.176 1251.14 215.264 1250.54 215.264C1249.45 215.264 1248.63 214.934 1248.07 214.275C1247.52 213.616 1247.24 212.68 1247.24 211.467V202.621H1244.64V200.735H1247.24V197.281H1249.68ZM1254.29 207.736C1254.29 206.338 1254.57 205.082 1255.11 203.965C1255.67 202.849 1256.43 201.988 1257.41 201.381C1258.39 200.775 1259.51 200.472 1260.77 200.472C1262.71 200.472 1264.28 201.144 1265.47 202.489C1266.68 203.833 1267.28 205.622 1267.28 207.854V208.026C1267.28 209.415 1267.01 210.663 1266.48 211.77C1265.95 212.869 1265.19 213.726 1264.2 214.341C1263.21 214.956 1262.08 215.264 1260.79 215.264C1258.86 215.264 1257.29 214.591 1256.09 213.247C1254.89 211.902 1254.29 210.122 1254.29 207.907V207.736ZM1256.75 208.026C1256.75 209.608 1257.11 210.878 1257.84 211.836C1258.58 212.794 1259.56 213.273 1260.79 213.273C1262.03 213.273 1263.02 212.79 1263.75 211.823C1264.48 210.847 1264.84 209.485 1264.84 207.736C1264.84 206.171 1264.47 204.906 1263.72 203.939C1262.98 202.963 1262 202.476 1260.77 202.476C1259.56 202.476 1258.59 202.955 1257.85 203.913C1257.12 204.871 1256.75 206.242 1256.75 208.026ZM1280.69 195.805L1286.96 211.467L1293.24 195.805H1296.52V215H1293.99V207.525L1294.23 199.457L1287.93 215H1285.99L1279.7 199.496L1279.95 207.525V215H1277.42V195.805H1280.69ZM1309.42 215C1309.27 214.719 1309.16 214.218 1309.07 213.497C1307.94 214.675 1306.58 215.264 1305.01 215.264C1303.61 215.264 1302.45 214.868 1301.54 214.077C1300.65 213.277 1300.2 212.267 1300.2 211.045C1300.2 209.56 1300.76 208.408 1301.89 207.591C1303.02 206.765 1304.61 206.352 1306.66 206.352H1309.03V205.231C1309.03 204.378 1308.78 203.702 1308.27 203.201C1307.76 202.691 1307.01 202.436 1306.01 202.436C1305.14 202.436 1304.41 202.656 1303.83 203.095C1303.24 203.535 1302.94 204.066 1302.94 204.69H1300.49C1300.49 203.979 1300.74 203.293 1301.24 202.634C1301.75 201.966 1302.44 201.438 1303.3 201.052C1304.17 200.665 1305.12 200.472 1306.16 200.472C1307.8 200.472 1309.09 200.885 1310.02 201.711C1310.95 202.528 1311.44 203.658 1311.47 205.099V211.665C1311.47 212.974 1311.64 214.016 1311.97 214.789V215H1309.42ZM1305.37 213.141C1306.13 213.141 1306.86 212.943 1307.54 212.548C1308.23 212.152 1308.73 211.638 1309.03 211.005V208.079H1307.12C1304.13 208.079 1302.64 208.953 1302.64 210.702C1302.64 211.467 1302.89 212.064 1303.4 212.495C1303.91 212.926 1304.57 213.141 1305.37 213.141ZM1322.19 202.924C1321.82 202.862 1321.42 202.832 1320.99 202.832C1319.39 202.832 1318.31 203.513 1317.73 204.875V215H1315.29V200.735H1317.67L1317.71 202.383C1318.51 201.109 1319.64 200.472 1321.11 200.472C1321.58 200.472 1321.94 200.533 1322.19 200.656V202.924ZM1336.52 208.026C1336.52 210.206 1336.02 211.959 1335.02 213.286C1334.02 214.604 1332.67 215.264 1330.98 215.264C1329.18 215.264 1327.79 214.626 1326.8 213.352L1326.69 215H1324.44V194.75H1326.88V202.304C1327.87 201.083 1329.23 200.472 1330.96 200.472C1332.69 200.472 1334.05 201.126 1335.03 202.436C1336.02 203.746 1336.52 205.539 1336.52 207.815V208.026ZM1334.08 207.749C1334.08 206.088 1333.76 204.805 1333.12 203.899C1332.48 202.994 1331.55 202.542 1330.35 202.542C1328.74 202.542 1327.59 203.289 1326.88 204.783V210.953C1327.63 212.447 1328.79 213.194 1330.38 213.194C1331.55 213.194 1332.46 212.741 1333.11 211.836C1333.76 210.931 1334.08 209.568 1334.08 207.749ZM1342.26 215H1339.82V194.75H1342.26V215ZM1352.09 215.264C1350.16 215.264 1348.58 214.631 1347.37 213.365C1346.16 212.091 1345.55 210.39 1345.55 208.263V207.815C1345.55 206.4 1345.82 205.139 1346.36 204.031C1346.9 202.915 1347.66 202.045 1348.62 201.421C1349.6 200.788 1350.65 200.472 1351.79 200.472C1353.64 200.472 1355.08 201.083 1356.11 202.304C1357.14 203.526 1357.65 205.275 1357.65 207.551V208.566H1347.99C1348.03 209.973 1348.43 211.111 1349.22 211.981C1350.01 212.842 1351.01 213.273 1352.22 213.273C1353.08 213.273 1353.81 213.097 1354.41 212.746C1355.01 212.394 1355.53 211.928 1355.98 211.348L1357.47 212.508C1356.27 214.345 1354.48 215.264 1352.09 215.264ZM1351.79 202.476C1350.8 202.476 1349.98 202.836 1349.31 203.557C1348.64 204.269 1348.23 205.271 1348.07 206.562H1355.21V206.378C1355.14 205.139 1354.81 204.181 1354.21 203.504C1353.62 202.818 1352.81 202.476 1351.79 202.476ZM1368.79 211.216C1368.79 210.557 1368.54 210.047 1368.04 209.687C1367.55 209.318 1366.68 209.001 1365.45 208.738C1364.21 208.474 1363.23 208.158 1362.51 207.789C1361.78 207.419 1361.25 206.98 1360.9 206.47C1360.55 205.96 1360.38 205.354 1360.38 204.651C1360.38 203.482 1360.88 202.493 1361.86 201.685C1362.85 200.876 1364.12 200.472 1365.66 200.472C1367.27 200.472 1368.58 200.889 1369.58 201.724C1370.6 202.559 1371.1 203.627 1371.1 204.928H1368.65C1368.65 204.26 1368.36 203.684 1367.79 203.201C1367.23 202.717 1366.52 202.476 1365.66 202.476C1364.77 202.476 1364.07 202.669 1363.57 203.056C1363.07 203.442 1362.82 203.948 1362.82 204.572C1362.82 205.161 1363.05 205.604 1363.52 205.903C1363.99 206.202 1364.83 206.488 1366.04 206.76C1367.26 207.033 1368.25 207.358 1369 207.736C1369.76 208.114 1370.32 208.571 1370.68 209.107C1371.05 209.634 1371.23 210.28 1371.23 211.045C1371.23 212.319 1370.72 213.343 1369.7 214.117C1368.68 214.881 1367.36 215.264 1365.74 215.264C1364.59 215.264 1363.58 215.062 1362.7 214.657C1361.82 214.253 1361.13 213.69 1360.63 212.97C1360.14 212.24 1359.9 211.454 1359.9 210.61H1362.33C1362.38 211.427 1362.7 212.078 1363.31 212.561C1363.92 213.036 1364.73 213.273 1365.74 213.273C1366.66 213.273 1367.4 213.088 1367.95 212.719C1368.51 212.341 1368.79 211.84 1368.79 211.216Z" fill="black"/>
<path d="M600.307 502.888H594.137V520H591.619V502.888H585.462V500.805H600.307V502.888ZM605.699 517.93H614.796V520H603.155V500.805H605.699V517.93ZM623.339 511.444C621.168 510.82 619.586 510.055 618.593 509.15C617.608 508.236 617.116 507.111 617.116 505.775C617.116 504.263 617.718 503.015 618.922 502.031C620.135 501.038 621.708 500.541 623.642 500.541C624.96 500.541 626.134 500.796 627.162 501.306C628.199 501.815 628.999 502.519 629.562 503.415C630.133 504.312 630.418 505.292 630.418 506.355H627.874C627.874 505.195 627.505 504.285 626.767 503.626C626.028 502.958 624.987 502.624 623.642 502.624C622.394 502.624 621.418 502.901 620.715 503.455C620.021 504 619.674 504.76 619.674 505.735C619.674 506.518 620.003 507.181 620.663 507.726C621.331 508.262 622.46 508.754 624.051 509.203C625.65 509.651 626.898 510.147 627.795 510.692C628.7 511.229 629.368 511.857 629.799 512.578C630.238 513.298 630.458 514.146 630.458 515.122C630.458 516.678 629.852 517.926 628.639 518.866C627.426 519.798 625.804 520.264 623.774 520.264C622.456 520.264 621.225 520.013 620.083 519.512C618.94 519.002 618.057 518.308 617.433 517.429C616.817 516.55 616.51 515.553 616.51 514.437H619.054C619.054 515.597 619.48 516.515 620.333 517.192C621.194 517.86 622.341 518.194 623.774 518.194C625.11 518.194 626.134 517.921 626.846 517.376C627.558 516.832 627.914 516.089 627.914 515.148C627.914 514.208 627.584 513.483 626.925 512.973C626.266 512.455 625.07 511.945 623.339 511.444ZM542.049 548.216C542.049 547.557 541.798 547.047 541.297 546.687C540.805 546.318 539.939 546.001 538.7 545.738C537.47 545.474 536.49 545.158 535.76 544.789C535.04 544.419 534.503 543.98 534.152 543.47C533.809 542.96 533.638 542.354 533.638 541.651C533.638 540.482 534.13 539.493 535.114 538.685C536.107 537.876 537.373 537.472 538.911 537.472C540.528 537.472 541.838 537.889 542.84 538.724C543.851 539.559 544.356 540.627 544.356 541.928H541.904C541.904 541.26 541.618 540.684 541.047 540.201C540.484 539.717 539.772 539.476 538.911 539.476C538.023 539.476 537.329 539.669 536.828 540.056C536.327 540.442 536.077 540.948 536.077 541.572C536.077 542.161 536.31 542.604 536.775 542.903C537.241 543.202 538.081 543.488 539.293 543.76C540.515 544.033 541.504 544.358 542.26 544.736C543.016 545.114 543.574 545.571 543.934 546.107C544.303 546.634 544.488 547.28 544.488 548.045C544.488 549.319 543.978 550.343 542.958 551.117C541.939 551.881 540.616 552.264 538.99 552.264C537.848 552.264 536.837 552.062 535.958 551.657C535.079 551.253 534.389 550.69 533.888 549.97C533.396 549.24 533.15 548.454 533.15 547.61H535.589C535.633 548.427 535.958 549.078 536.564 549.561C537.18 550.036 537.988 550.273 538.99 550.273C539.913 550.273 540.651 550.088 541.205 549.719C541.768 549.341 542.049 548.84 542.049 548.216ZM553.584 552.264C551.651 552.264 550.078 551.631 548.865 550.365C547.652 549.091 547.045 547.39 547.045 545.263V544.815C547.045 543.4 547.313 542.139 547.85 541.031C548.395 539.915 549.15 539.045 550.117 538.421C551.093 537.788 552.147 537.472 553.281 537.472C555.136 537.472 556.577 538.083 557.605 539.304C558.634 540.526 559.148 542.275 559.148 544.551V545.566H549.484C549.52 546.973 549.928 548.111 550.71 548.981C551.501 549.842 552.503 550.273 553.716 550.273C554.578 550.273 555.307 550.097 555.905 549.746C556.502 549.394 557.025 548.928 557.474 548.348L558.963 549.508C557.768 551.345 555.975 552.264 553.584 552.264ZM553.281 539.476C552.297 539.476 551.471 539.836 550.803 540.557C550.135 541.269 549.722 542.271 549.563 543.562H556.709V543.378C556.639 542.139 556.305 541.181 555.707 540.504C555.109 539.818 554.301 539.476 553.281 539.476ZM568.877 539.924C568.508 539.862 568.108 539.832 567.678 539.832C566.078 539.832 564.993 540.513 564.421 541.875V552H561.982V537.735H564.355L564.395 539.383C565.195 538.109 566.329 537.472 567.796 537.472C568.271 537.472 568.631 537.533 568.877 537.656V539.924ZM576.076 548.691L579.609 537.735H582.101L576.985 552H575.126L569.958 537.735H572.45L576.076 548.691ZM587.097 552H584.658V537.735H587.097V552ZM584.46 533.952C584.46 533.556 584.579 533.222 584.816 532.95C585.062 532.677 585.423 532.541 585.897 532.541C586.372 532.541 586.732 532.677 586.979 532.95C587.225 533.222 587.348 533.556 587.348 533.952C587.348 534.347 587.225 534.677 586.979 534.94C586.732 535.204 586.372 535.336 585.897 535.336C585.423 535.336 585.062 535.204 584.816 534.94C584.579 534.677 584.46 534.347 584.46 533.952ZM596.734 550.273C597.604 550.273 598.365 550.009 599.015 549.482C599.666 548.955 600.026 548.295 600.096 547.504H602.403C602.359 548.322 602.078 549.1 601.56 549.838C601.041 550.576 600.347 551.165 599.477 551.604C598.615 552.044 597.701 552.264 596.734 552.264C594.792 552.264 593.245 551.618 592.094 550.326C590.951 549.025 590.38 547.25 590.38 545V544.591C590.38 543.202 590.635 541.967 591.145 540.886C591.654 539.805 592.384 538.966 593.333 538.368C594.291 537.771 595.42 537.472 596.721 537.472C598.321 537.472 599.648 537.951 600.703 538.909C601.766 539.867 602.333 541.11 602.403 542.64H600.096C600.026 541.717 599.674 540.961 599.042 540.372C598.417 539.774 597.644 539.476 596.721 539.476C595.482 539.476 594.52 539.924 593.834 540.82C593.157 541.708 592.819 542.996 592.819 544.683V545.145C592.819 546.788 593.157 548.054 593.834 548.941C594.511 549.829 595.478 550.273 596.734 550.273ZM611.065 552.264C609.131 552.264 607.558 551.631 606.345 550.365C605.132 549.091 604.526 547.39 604.526 545.263V544.815C604.526 543.4 604.794 542.139 605.33 541.031C605.875 539.915 606.631 539.045 607.598 538.421C608.573 537.788 609.628 537.472 610.762 537.472C612.616 537.472 614.058 538.083 615.086 539.304C616.114 540.526 616.628 542.275 616.628 544.551V545.566H606.965C607 546.973 607.409 548.111 608.191 548.981C608.982 549.842 609.984 550.273 611.197 550.273C612.058 550.273 612.788 550.097 613.385 549.746C613.983 549.394 614.506 548.928 614.954 548.348L616.444 549.508C615.249 551.345 613.456 552.264 611.065 552.264ZM610.762 539.476C609.777 539.476 608.951 539.836 608.283 540.557C607.615 541.269 607.202 542.271 607.044 543.562H614.189V543.378C614.119 542.139 613.785 541.181 613.188 540.504C612.59 539.818 611.781 539.476 610.762 539.476ZM628.454 537.735L628.52 539.317C629.566 538.087 630.977 537.472 632.752 537.472C634.747 537.472 636.105 538.236 636.826 539.766C637.3 539.08 637.916 538.526 638.671 538.104C639.436 537.683 640.337 537.472 641.374 537.472C644.503 537.472 646.094 539.128 646.146 542.442V552H643.708V542.587C643.708 541.567 643.475 540.807 643.009 540.306C642.543 539.796 641.761 539.542 640.662 539.542C639.757 539.542 639.005 539.814 638.408 540.359C637.81 540.895 637.463 541.62 637.366 542.534V552H634.914V542.653C634.914 540.579 633.899 539.542 631.869 539.542C630.269 539.542 629.175 540.223 628.586 541.585V552H626.147V537.735H628.454ZM655.757 552.264C653.824 552.264 652.25 551.631 651.038 550.365C649.825 549.091 649.218 547.39 649.218 545.263V544.815C649.218 543.4 649.486 542.139 650.022 541.031C650.567 539.915 651.323 539.045 652.29 538.421C653.266 537.788 654.32 537.472 655.454 537.472C657.309 537.472 658.75 538.083 659.778 539.304C660.807 540.526 661.321 542.275 661.321 544.551V545.566H651.657C651.692 546.973 652.101 548.111 652.883 548.981C653.674 549.842 654.676 550.273 655.889 550.273C656.75 550.273 657.48 550.097 658.078 549.746C658.675 549.394 659.198 548.928 659.646 548.348L661.136 549.508C659.941 551.345 658.148 552.264 655.757 552.264ZM655.454 539.476C654.47 539.476 653.644 539.836 652.976 540.557C652.308 541.269 651.895 542.271 651.736 543.562H658.882V543.378C658.812 542.139 658.478 541.181 657.88 540.504C657.282 539.818 656.474 539.476 655.454 539.476ZM672.461 548.216C672.461 547.557 672.21 547.047 671.709 546.687C671.217 546.318 670.352 546.001 669.112 545.738C667.882 545.474 666.902 545.158 666.172 544.789C665.452 544.419 664.916 543.98 664.564 543.47C664.221 542.96 664.05 542.354 664.05 541.651C664.05 540.482 664.542 539.493 665.526 538.685C666.52 537.876 667.785 537.472 669.323 537.472C670.94 537.472 672.25 537.889 673.252 538.724C674.263 539.559 674.768 540.627 674.768 541.928H672.316C672.316 541.26 672.03 540.684 671.459 540.201C670.896 539.717 670.185 539.476 669.323 539.476C668.436 539.476 667.741 539.669 667.24 540.056C666.739 540.442 666.489 540.948 666.489 541.572C666.489 542.161 666.722 542.604 667.188 542.903C667.653 543.202 668.493 543.488 669.706 543.76C670.927 544.033 671.916 544.358 672.672 544.736C673.428 545.114 673.986 545.571 674.346 546.107C674.715 546.634 674.9 547.28 674.9 548.045C674.9 549.319 674.39 550.343 673.371 551.117C672.351 551.881 671.028 552.264 669.402 552.264C668.26 552.264 667.249 552.062 666.37 551.657C665.491 551.253 664.801 550.69 664.3 549.97C663.808 549.24 663.562 548.454 663.562 547.61H666.001C666.045 548.427 666.37 549.078 666.977 549.561C667.592 550.036 668.4 550.273 669.402 550.273C670.325 550.273 671.063 550.088 671.617 549.719C672.18 549.341 672.461 548.84 672.461 548.216ZM680.516 539.462C681.597 538.135 683.003 537.472 684.735 537.472C687.75 537.472 689.27 539.172 689.296 542.574V552H686.857V542.561C686.849 541.532 686.611 540.772 686.146 540.28C685.688 539.788 684.972 539.542 683.997 539.542C683.206 539.542 682.511 539.752 681.914 540.174C681.316 540.596 680.85 541.15 680.516 541.835V552H678.077V531.75H680.516V539.462Z" fill="black"/>
</g>
<defs>
<clipPath id="clip0">
<rect width="1500" height="872.283" fill="white"/>
</clipPath>
</defs>
</svg>
