<svg width="1500" height="857" viewBox="0 0 1500 857" fill="none" xmlns="http://www.w3.org/2000/svg">
<g clip-path="url(#clip0)">
<path d="M1094 325H1414.28V445.107H1320.33H1226.38L1094 471.797L1119.62 445.107H1094V325Z" fill="#90FF99" fill-opacity="0.3" stroke="#90FF99" stroke-width="3" stroke-miterlimit="10"/>
<path d="M748.666 1.33447H1.33496V855.427H748.666V1.33447Z" stroke="black" stroke-width="3" stroke-dasharray="6 6"/>
<path d="M324.082 72.4648C323.555 76.9766 321.885 80.4629 319.072 82.9238C316.279 85.3652 312.559 86.5859 307.91 86.5859C302.871 86.5859 298.828 84.7793 295.781 81.166C292.754 77.5527 291.24 72.7188 291.24 66.6641V62.5625C291.24 58.5977 291.943 55.1113 293.35 52.1035C294.775 49.0957 296.787 46.791 299.385 45.1895C301.982 43.5684 304.99 42.7578 308.408 42.7578C312.939 42.7578 316.572 44.0273 319.307 46.5664C322.041 49.0859 323.633 52.582 324.082 57.0547H318.428C317.939 53.6562 316.875 51.1953 315.234 49.6719C313.613 48.1484 311.338 47.3867 308.408 47.3867C304.814 47.3867 301.992 48.7148 299.941 51.3711C297.91 54.0273 296.895 57.8066 296.895 62.709V66.8398C296.895 71.4688 297.861 75.1504 299.795 77.8848C301.729 80.6191 304.434 81.9863 307.91 81.9863C311.035 81.9863 313.428 81.2832 315.088 79.877C316.768 78.4512 317.881 75.9805 318.428 72.4648H324.082ZM336.826 86H331.406V41H336.826V86ZM365.098 82.8652C362.988 85.3457 359.893 86.5859 355.811 86.5859C352.432 86.5859 349.854 85.6094 348.076 83.6562C346.318 81.6836 345.43 78.7734 345.41 74.9258V54.3008H350.83V74.7793C350.83 79.584 352.783 81.9863 356.689 81.9863C360.83 81.9863 363.584 80.4434 364.951 77.3574V54.3008H370.371V86H365.215L365.098 82.8652ZM397.09 77.5918C397.09 76.127 396.533 74.9941 395.42 74.1934C394.326 73.373 392.402 72.6699 389.648 72.084C386.914 71.498 384.736 70.7949 383.115 69.9746C381.514 69.1543 380.322 68.1777 379.541 67.0449C378.779 65.9121 378.398 64.5645 378.398 63.002C378.398 60.4043 379.492 58.207 381.68 56.4102C383.887 54.6133 386.699 53.7148 390.117 53.7148C393.711 53.7148 396.621 54.6426 398.848 56.498C401.094 58.3535 402.217 60.7266 402.217 63.6172H396.768C396.768 62.1328 396.133 60.8535 394.863 59.7793C393.613 58.7051 392.031 58.168 390.117 58.168C388.145 58.168 386.602 58.5977 385.488 59.457C384.375 60.3164 383.818 61.4395 383.818 62.8262C383.818 64.1348 384.336 65.1211 385.371 65.7852C386.406 66.4492 388.271 67.084 390.967 67.6895C393.682 68.2949 395.879 69.0176 397.559 69.8574C399.238 70.6973 400.479 71.7129 401.279 72.9043C402.1 74.0762 402.51 75.5117 402.51 77.2109C402.51 80.043 401.377 82.3184 399.111 84.0371C396.846 85.7363 393.906 86.5859 390.293 86.5859C387.754 86.5859 385.508 86.1367 383.555 85.2383C381.602 84.3398 380.068 83.0898 378.955 81.4883C377.861 79.8672 377.314 78.1191 377.314 76.2441H382.734C382.832 78.0605 383.555 79.5059 384.902 80.5801C386.27 81.6348 388.066 82.1621 390.293 82.1621C392.344 82.1621 393.984 81.752 395.215 80.9316C396.465 80.0918 397.09 78.9785 397.09 77.5918ZM416.924 46.625V54.3008H422.842V58.4902H416.924V78.1484C416.924 79.418 417.188 80.375 417.715 81.0195C418.242 81.6445 419.141 81.957 420.41 81.957C421.035 81.957 421.895 81.8398 422.988 81.6055V86C421.562 86.3906 420.176 86.5859 418.828 86.5859C416.406 86.5859 414.58 85.8535 413.35 84.3887C412.119 82.9238 411.504 80.8438 411.504 78.1484V58.4902H405.732V54.3008H411.504V46.625H416.924ZM442.354 86.5859C438.057 86.5859 434.561 85.1797 431.865 82.3672C429.17 79.5352 427.822 75.7559 427.822 71.0293V70.0332C427.822 66.8887 428.418 64.0859 429.609 61.625C430.82 59.1445 432.5 57.2109 434.648 55.8242C436.816 54.418 439.16 53.7148 441.68 53.7148C445.801 53.7148 449.004 55.0723 451.289 57.7871C453.574 60.502 454.717 64.3887 454.717 69.4473V71.7031H433.242C433.32 74.8281 434.229 77.3574 435.967 79.291C437.725 81.2051 439.951 82.1621 442.646 82.1621C444.561 82.1621 446.182 81.7715 447.51 80.9902C448.838 80.209 450 79.1738 450.996 77.8848L454.307 80.4629C451.65 84.5449 447.666 86.5859 442.354 86.5859ZM441.68 58.168C439.492 58.168 437.656 58.9688 436.172 60.5703C434.688 62.1523 433.77 64.3789 433.418 67.25H449.297V66.8398C449.141 64.0859 448.398 61.957 447.07 60.4531C445.742 58.9297 443.945 58.168 441.68 58.168ZM476.338 59.1641C475.518 59.0273 474.629 58.959 473.672 58.959C470.117 58.959 467.705 60.4727 466.436 63.5V86H461.016V54.3008H466.289L466.377 57.9629C468.154 55.1309 470.674 53.7148 473.936 53.7148C474.99 53.7148 475.791 53.8516 476.338 54.125V59.1641Z" fill="black"/>
<path d="M599.2 161.477H150.801C97.7347 161.477 54.7158 204.496 54.7158 257.562V732.651C54.7158 785.718 97.7347 828.737 150.801 828.737H599.2C652.266 828.737 695.285 785.718 695.285 732.651V257.562C695.285 204.496 652.266 161.477 599.2 161.477Z" stroke="#8B04DD" stroke-width="5"/>
<path d="M320.188 228.948C320 231.549 319.037 233.597 317.3 235.091C315.573 236.585 313.293 237.332 310.46 237.332C307.361 237.332 304.921 236.292 303.139 234.211C301.368 232.119 300.482 229.253 300.482 225.611V224.134C300.482 221.81 300.892 219.762 301.711 217.991C302.53 216.22 303.698 214.865 305.214 213.924C306.741 212.972 308.512 212.496 310.526 212.496C313.315 212.496 315.562 213.243 317.267 214.737C318.971 216.231 319.956 218.329 320.222 221.029H315.241C315.119 219.469 314.682 218.34 313.93 217.643C313.188 216.934 312.054 216.58 310.526 216.58C308.866 216.58 307.621 217.178 306.791 218.373C305.972 219.557 305.551 221.4 305.529 223.901V225.728C305.529 228.34 305.922 230.249 306.708 231.455C307.505 232.661 308.756 233.265 310.46 233.265C311.998 233.265 313.144 232.916 313.896 232.219C314.66 231.51 315.097 230.42 315.208 228.948H320.188ZM322.396 227.853C322.396 226.071 322.74 224.482 323.426 223.088C324.112 221.693 325.097 220.614 326.381 219.851C327.676 219.087 329.175 218.705 330.88 218.705C333.304 218.705 335.279 219.447 336.807 220.93C338.345 222.413 339.203 224.427 339.38 226.973L339.413 228.201C339.413 230.957 338.644 233.171 337.105 234.842C335.567 236.502 333.503 237.332 330.913 237.332C328.323 237.332 326.254 236.502 324.704 234.842C323.166 233.182 322.396 230.924 322.396 228.068V227.853ZM327.194 228.201C327.194 229.906 327.515 231.212 328.157 232.119C328.799 233.016 329.718 233.464 330.913 233.464C332.075 233.464 332.983 233.021 333.636 232.136C334.289 231.239 334.615 229.812 334.615 227.853C334.615 226.181 334.289 224.886 333.636 223.968C332.983 223.049 332.064 222.59 330.88 222.59C329.707 222.59 328.799 223.049 328.157 223.968C327.515 224.875 327.194 226.286 327.194 228.201ZM341.621 227.853C341.621 226.071 341.964 224.482 342.65 223.088C343.337 221.693 344.322 220.614 345.605 219.851C346.9 219.087 348.4 218.705 350.104 218.705C352.528 218.705 354.504 219.447 356.031 220.93C357.57 222.413 358.427 224.427 358.604 226.973L358.638 228.201C358.638 230.957 357.868 233.171 356.33 234.842C354.792 236.502 352.728 237.332 350.138 237.332C347.548 237.332 345.478 236.502 343.929 234.842C342.39 233.182 341.621 230.924 341.621 228.068V227.853ZM346.419 228.201C346.419 229.906 346.74 231.212 347.382 232.119C348.024 233.016 348.942 233.464 350.138 233.464C351.3 233.464 352.207 233.021 352.86 232.136C353.513 231.239 353.84 229.812 353.84 227.853C353.84 226.181 353.513 224.886 352.86 223.968C352.207 223.049 351.289 222.59 350.104 222.59C348.931 222.59 348.024 223.049 347.382 223.968C346.74 224.875 346.419 226.286 346.419 228.201ZM371.687 223.536C371.034 223.448 370.458 223.403 369.96 223.403C368.145 223.403 366.955 224.018 366.391 225.246V237H361.593V219.037H366.125L366.258 221.179C367.221 219.53 368.554 218.705 370.259 218.705C370.79 218.705 371.288 218.777 371.753 218.921L371.687 223.536ZM372.932 227.886C372.932 225.086 373.557 222.855 374.808 221.195C376.069 219.535 377.79 218.705 379.971 218.705C381.719 218.705 383.164 219.358 384.304 220.664V211.5H389.118V237H384.785L384.553 235.091C383.357 236.585 381.819 237.332 379.938 237.332C377.824 237.332 376.125 236.502 374.841 234.842C373.568 233.171 372.932 230.852 372.932 227.886ZM377.729 228.234C377.729 229.917 378.023 231.206 378.609 232.103C379.196 232.999 380.048 233.447 381.166 233.447C382.649 233.447 383.695 232.822 384.304 231.571V224.482C383.706 223.232 382.671 222.606 381.199 222.606C378.886 222.606 377.729 224.482 377.729 228.234ZM397.9 237H393.086V219.037H397.9V237ZM392.804 214.389C392.804 213.669 393.042 213.077 393.518 212.612C394.005 212.147 394.663 211.915 395.493 211.915C396.312 211.915 396.965 212.147 397.452 212.612C397.939 213.077 398.183 213.669 398.183 214.389C398.183 215.119 397.934 215.717 397.436 216.182C396.949 216.646 396.301 216.879 395.493 216.879C394.685 216.879 394.032 216.646 393.534 216.182C393.047 215.717 392.804 215.119 392.804 214.389ZM406.284 219.037L406.434 221.112C407.717 219.507 409.438 218.705 411.597 218.705C413.5 218.705 414.917 219.264 415.847 220.382C416.776 221.5 417.252 223.171 417.274 225.396V237H412.477V225.512C412.477 224.493 412.255 223.757 411.812 223.304C411.37 222.839 410.634 222.606 409.604 222.606C408.254 222.606 407.242 223.182 406.566 224.333V237H401.769V219.037H406.284ZM431.336 237C431.115 236.568 430.954 236.032 430.854 235.39C429.692 236.685 428.182 237.332 426.322 237.332C424.562 237.332 423.102 236.823 421.939 235.805C420.788 234.786 420.213 233.503 420.213 231.953C420.213 230.049 420.916 228.589 422.321 227.57C423.738 226.552 425.78 226.037 428.447 226.026H430.655V224.997C430.655 224.167 430.439 223.503 430.008 223.005C429.587 222.507 428.918 222.258 427.999 222.258C427.191 222.258 426.555 222.451 426.09 222.839C425.636 223.226 425.409 223.757 425.409 224.433H420.611C420.611 223.392 420.932 222.429 421.574 221.544C422.216 220.659 423.124 219.967 424.297 219.469C425.47 218.96 426.787 218.705 428.248 218.705C430.462 218.705 432.216 219.264 433.511 220.382C434.817 221.489 435.47 223.049 435.47 225.063V232.85C435.481 234.554 435.719 235.843 436.184 236.718V237H431.336ZM427.368 233.663C428.076 233.663 428.729 233.508 429.327 233.198C429.925 232.877 430.368 232.451 430.655 231.92V228.832H428.862C426.461 228.832 425.182 229.662 425.027 231.322L425.011 231.604C425.011 232.202 425.221 232.695 425.642 233.082C426.062 233.469 426.638 233.663 427.368 233.663ZM444.899 214.621V219.037H447.971V222.557H444.899V231.521C444.899 232.186 445.027 232.661 445.281 232.949C445.536 233.237 446.023 233.381 446.742 233.381C447.273 233.381 447.744 233.342 448.153 233.265V236.9C447.213 237.188 446.244 237.332 445.248 237.332C441.883 237.332 440.168 235.633 440.102 232.235V222.557H437.479V219.037H440.102V214.621H444.899ZM449.398 227.853C449.398 226.071 449.742 224.482 450.428 223.088C451.114 221.693 452.099 220.614 453.383 219.851C454.678 219.087 456.177 218.705 457.882 218.705C460.306 218.705 462.281 219.447 463.809 220.93C465.347 222.413 466.205 224.427 466.382 226.973L466.415 228.201C466.415 230.957 465.646 233.171 464.107 234.842C462.569 236.502 460.505 237.332 457.915 237.332C455.325 237.332 453.256 236.502 451.706 234.842C450.168 233.182 449.398 230.924 449.398 228.068V227.853ZM454.196 228.201C454.196 229.906 454.517 231.212 455.159 232.119C455.801 233.016 456.72 233.464 457.915 233.464C459.077 233.464 459.985 233.021 460.638 232.136C461.291 231.239 461.617 229.812 461.617 227.853C461.617 226.181 461.291 224.886 460.638 223.968C459.985 223.049 459.066 222.59 457.882 222.59C456.709 222.59 455.801 223.049 455.159 223.968C454.517 224.875 454.196 226.286 454.196 228.201ZM479.464 223.536C478.811 223.448 478.235 223.403 477.737 223.403C475.922 223.403 474.732 224.018 474.168 225.246V237H469.37V219.037H473.902L474.035 221.179C474.998 219.53 476.332 218.705 478.036 218.705C478.567 218.705 479.065 218.777 479.53 218.921L479.464 223.536Z" fill="black"/>
<path d="M144.155 422.108C136.068 416.237 132.705 405.854 135.775 396.352C138.844 386.85 147.705 380.418 157.661 380.418C167.643 380.418 176.477 386.85 179.547 396.352C182.643 405.854 179.253 416.237 171.166 422.108L188.168 447.171L174.796 443.808L167.296 454.27L157.527 427.073L149.76 455.071L142.287 446.904L129.983 448.906L144.155 422.108ZM158.195 421.842C167.616 421.334 175.196 413.861 175.864 404.413C176.317 394.164 168.444 385.436 158.195 384.849C152.963 384.635 147.839 386.61 144.129 390.347C140.419 394.057 138.444 399.181 138.657 404.413C139.378 414.582 148.052 422.295 158.195 421.842ZM158.195 417.811C154.431 418.078 150.721 416.797 147.892 414.288C145.063 411.753 143.381 408.203 143.221 404.413C142.981 400.383 144.476 396.432 147.358 393.603C150.214 390.747 154.164 389.279 158.195 389.546C165.908 390.053 171.78 396.699 171.299 404.413C170.979 411.592 165.348 417.358 158.195 417.811ZM158.195 414.742C163.613 414.181 167.883 409.858 168.364 404.413C168.604 398.434 164.173 393.256 158.195 392.642C152.056 392.322 146.798 396.939 146.291 403.078C146.211 406.254 147.465 409.297 149.707 411.512C151.976 413.728 155.045 414.902 158.195 414.742ZM130.383 438.87H81.4062V321.619H179.6V387.278C178.186 385.222 176.477 383.354 174.529 381.779V326.584H86.2105V433.772H132.785L130.383 438.87ZM105.214 372.011V366.245H155.392V372.011H105.214ZM105.214 358.612V353.114H155.392V358.612H105.214ZM105.214 345.347V339.849H155.392V345.347H105.214Z" fill="black"/>
<path d="M108.028 404.003H105.496V384.808H108.028V404.003Z" fill="black"/>
<path d="M277.607 422.108C269.52 416.237 266.157 405.854 269.227 396.352C272.296 386.85 281.157 380.418 291.113 380.418C301.095 380.418 309.93 386.85 312.999 396.352C316.095 405.854 312.705 416.237 304.618 422.108L321.62 447.171L308.248 443.808L300.748 454.27L290.979 427.073L283.212 455.071L275.739 446.904L263.435 448.906L277.607 422.108ZM291.647 421.842C301.068 421.334 308.648 413.861 309.316 404.413C309.769 394.164 301.896 385.436 291.647 384.849C286.415 384.635 281.291 386.61 277.581 390.347C273.871 394.057 271.896 399.181 272.109 404.413C272.83 414.582 281.504 422.295 291.647 421.842ZM291.647 417.811C287.883 418.078 284.173 416.797 281.344 414.288C278.515 411.753 276.833 408.203 276.673 404.413C276.433 400.383 277.928 396.432 280.81 393.603C283.666 390.747 287.616 389.279 291.647 389.546C299.36 390.053 305.232 396.699 304.752 404.413C304.431 411.592 298.8 417.358 291.647 417.811ZM291.647 414.742C297.065 414.181 301.335 409.858 301.816 404.413C302.056 398.434 297.625 393.256 291.647 392.642C285.508 392.322 280.25 396.939 279.743 403.078C279.663 406.254 280.917 409.297 283.159 411.512C285.428 413.728 288.497 414.902 291.647 414.742ZM263.835 438.87H214.858V321.619H313.052V387.278C311.638 385.222 309.93 383.354 307.981 381.779V326.584H219.663V433.772H266.237L263.835 438.87ZM238.666 372.011V366.245H288.844V372.011H238.666ZM238.666 358.612V353.114H288.844V358.612H238.666ZM238.666 345.347V339.849H288.844V345.347H238.666Z" fill="black"/>
<path d="M241.163 396.238H236.655V404.003H234.11V384.808H240.465C242.627 384.808 244.288 385.3 245.448 386.285C246.617 387.269 247.202 388.702 247.202 390.583C247.202 391.778 246.876 392.819 246.226 393.707C245.584 394.595 244.688 395.258 243.537 395.698L248.045 403.845V404.003H245.329L241.163 396.238ZM236.655 394.168H240.544C241.801 394.168 242.798 393.843 243.537 393.193C244.284 392.542 244.657 391.672 244.657 390.583C244.657 389.396 244.301 388.486 243.589 387.854C242.886 387.221 241.867 386.9 240.531 386.891H236.655V394.168Z" fill="black"/>
<path d="M1427.9 161H1110.1C1072.49 161 1042 188.237 1042 221.836V768.164C1042 801.763 1072.49 829 1110.1 829H1427.9C1465.51 829 1496 801.763 1496 768.164V221.836C1496 188.237 1465.51 161 1427.9 161Z" stroke="#929292" stroke-width="5"/>
<path d="M1245.01 218.948C1244.82 221.549 1243.86 223.597 1242.12 225.091C1240.39 226.585 1238.11 227.332 1235.28 227.332C1232.18 227.332 1229.74 226.292 1227.96 224.211C1226.19 222.119 1225.3 219.253 1225.3 215.611V214.134C1225.3 211.81 1225.71 209.762 1226.53 207.991C1227.35 206.22 1228.52 204.865 1230.03 203.924C1231.56 202.972 1233.33 202.496 1235.35 202.496C1238.14 202.496 1240.38 203.243 1242.09 204.737C1243.79 206.231 1244.78 208.329 1245.04 211.029H1240.06C1239.94 209.469 1239.5 208.34 1238.75 207.643C1238.01 206.934 1236.87 206.58 1235.35 206.58C1233.69 206.58 1232.44 207.178 1231.61 208.373C1230.79 209.557 1230.37 211.4 1230.35 213.901V215.728C1230.35 218.34 1230.74 220.249 1231.53 221.455C1232.33 222.661 1233.58 223.265 1235.28 223.265C1236.82 223.265 1237.96 222.916 1238.72 222.219C1239.48 221.51 1239.92 220.42 1240.03 218.948H1245.01ZM1253.03 227H1248.21V201.5H1253.03V227ZM1262.06 227H1257.24V209.037H1262.06V227ZM1256.96 204.389C1256.96 203.669 1257.2 203.077 1257.68 202.612C1258.16 202.147 1258.82 201.915 1259.65 201.915C1260.47 201.915 1261.12 202.147 1261.61 202.612C1262.1 203.077 1262.34 203.669 1262.34 204.389C1262.34 205.119 1262.09 205.717 1261.59 206.182C1261.11 206.646 1260.46 206.879 1259.65 206.879C1258.84 206.879 1258.19 206.646 1257.69 206.182C1257.21 205.717 1256.96 205.119 1256.96 204.389ZM1274.29 227.332C1271.66 227.332 1269.51 226.524 1267.85 224.908C1266.2 223.292 1265.38 221.14 1265.38 218.45V217.985C1265.38 216.181 1265.73 214.571 1266.42 213.154C1267.12 211.727 1268.11 210.631 1269.38 209.867C1270.66 209.092 1272.12 208.705 1273.76 208.705C1276.22 208.705 1278.15 209.48 1279.56 211.029C1280.97 212.579 1281.68 214.776 1281.68 217.62V219.579H1270.24C1270.4 220.752 1270.86 221.693 1271.64 222.401C1272.42 223.11 1273.41 223.464 1274.61 223.464C1276.46 223.464 1277.9 222.794 1278.94 221.455L1281.3 224.095C1280.58 225.113 1279.61 225.91 1278.38 226.485C1277.15 227.05 1275.79 227.332 1274.29 227.332ZM1273.75 212.59C1272.79 212.59 1272.02 212.911 1271.42 213.553C1270.84 214.195 1270.46 215.113 1270.29 216.309H1276.97V215.927C1276.94 214.864 1276.66 214.045 1276.1 213.47C1275.55 212.883 1274.76 212.59 1273.75 212.59ZM1288.84 209.037L1288.99 211.112C1290.27 209.507 1291.99 208.705 1294.15 208.705C1296.05 208.705 1297.47 209.264 1298.4 210.382C1299.33 211.5 1299.81 213.171 1299.83 215.396V227H1295.03V215.512C1295.03 214.493 1294.81 213.757 1294.37 213.304C1293.92 212.839 1293.19 212.606 1292.16 212.606C1290.81 212.606 1289.79 213.182 1289.12 214.333V227H1284.32V209.037H1288.84ZM1309.22 204.621V209.037H1312.29V212.557H1309.22V221.521C1309.22 222.186 1309.35 222.661 1309.61 222.949C1309.86 223.237 1310.35 223.381 1311.07 223.381C1311.6 223.381 1312.07 223.342 1312.48 223.265V226.9C1311.54 227.188 1310.57 227.332 1309.57 227.332C1306.21 227.332 1304.49 225.633 1304.43 222.235V212.557H1301.8V209.037H1304.43V204.621H1309.22ZM1162.71 257.172C1162.71 254.637 1163.05 252.225 1163.73 249.934C1164.4 247.643 1165.4 245.617 1166.72 243.857C1168.03 242.087 1169.46 240.858 1171 240.172L1171.93 242.762C1170.31 243.957 1169.05 245.805 1168.14 248.307C1167.24 250.808 1166.78 253.73 1166.78 257.072V257.587C1166.78 260.94 1167.23 263.873 1168.13 266.386C1169.02 268.898 1170.29 270.774 1171.93 272.014L1171 274.554C1169.49 273.879 1168.09 272.683 1166.78 270.968C1165.49 269.263 1164.5 267.293 1163.81 265.058C1163.12 262.822 1162.76 260.487 1162.71 258.052V257.172ZM1184.55 253.536C1183.89 253.448 1183.32 253.403 1182.82 253.403C1181 253.403 1179.81 254.018 1179.25 255.246V267H1174.45V249.037H1178.98L1179.12 251.179C1180.08 249.53 1181.41 248.705 1183.12 248.705C1183.65 248.705 1184.15 248.777 1184.61 248.921L1184.55 253.536ZM1194.81 267.332C1192.17 267.332 1190.02 266.524 1188.36 264.908C1186.72 263.292 1185.89 261.14 1185.89 258.45V257.985C1185.89 256.181 1186.24 254.571 1186.94 253.154C1187.63 251.727 1188.62 250.631 1189.89 249.867C1191.18 249.092 1192.64 248.705 1194.27 248.705C1196.73 248.705 1198.66 249.48 1200.07 251.029C1201.49 252.579 1202.19 254.776 1202.19 257.62V259.579H1190.75C1190.91 260.752 1191.37 261.693 1192.15 262.401C1192.94 263.11 1193.93 263.464 1195.12 263.464C1196.97 263.464 1198.41 262.794 1199.45 261.455L1201.81 264.095C1201.09 265.113 1200.12 265.91 1198.89 266.485C1197.66 267.05 1196.3 267.332 1194.81 267.332ZM1194.26 252.59C1193.31 252.59 1192.53 252.911 1191.93 253.553C1191.35 254.195 1190.97 255.113 1190.8 256.309H1197.48V255.927C1197.46 254.864 1197.17 254.045 1196.62 253.47C1196.06 252.883 1195.28 252.59 1194.26 252.59ZM1210 267H1205.18V241.5H1210V267ZM1220.67 260.21L1223.99 249.037H1229.14L1221.92 269.789L1221.52 270.735C1220.44 273.082 1218.67 274.255 1216.21 274.255C1215.51 274.255 1214.8 274.15 1214.08 273.939V270.304L1214.81 270.32C1215.72 270.32 1216.39 270.182 1216.84 269.905C1217.29 269.629 1217.64 269.169 1217.9 268.527L1218.46 267.05L1212.17 249.037H1217.33L1220.67 260.21ZM1236.09 267H1231.28V249.037H1236.09V267ZM1231 244.389C1231 243.669 1231.24 243.077 1231.71 242.612C1232.2 242.147 1232.86 241.915 1233.69 241.915C1234.51 241.915 1235.16 242.147 1235.65 242.612C1236.13 243.077 1236.38 243.669 1236.38 244.389C1236.38 245.119 1236.13 245.717 1235.63 246.182C1235.14 246.646 1234.49 246.879 1233.69 246.879C1232.88 246.879 1232.23 246.646 1231.73 246.182C1231.24 245.717 1231 245.119 1231 244.389ZM1244.48 249.037L1244.63 251.112C1245.91 249.507 1247.63 248.705 1249.79 248.705C1251.69 248.705 1253.11 249.264 1254.04 250.382C1254.97 251.5 1255.45 253.171 1255.47 255.396V267H1250.67V255.512C1250.67 254.493 1250.45 253.757 1250.01 253.304C1249.56 252.839 1248.83 252.606 1247.8 252.606C1246.45 252.606 1245.43 253.182 1244.76 254.333V267H1239.96V249.037H1244.48ZM1258.42 257.886C1258.42 255.13 1259.08 252.911 1260.38 251.229C1261.7 249.546 1263.47 248.705 1265.69 248.705C1267.66 248.705 1269.2 249.38 1270.29 250.73L1270.49 249.037H1274.84V266.402C1274.84 267.974 1274.48 269.341 1273.76 270.503C1273.05 271.665 1272.05 272.55 1270.76 273.159C1269.46 273.768 1267.95 274.072 1266.21 274.072C1264.89 274.072 1263.61 273.807 1262.36 273.275C1261.11 272.755 1260.16 272.08 1259.52 271.25L1261.64 268.328C1262.84 269.667 1264.29 270.337 1265.99 270.337C1267.27 270.337 1268.26 269.994 1268.96 269.308C1269.67 268.632 1270.03 267.67 1270.03 266.419V265.456C1268.92 266.707 1267.47 267.332 1265.66 267.332C1263.5 267.332 1261.75 266.491 1260.42 264.809C1259.09 263.115 1258.42 260.874 1258.42 258.085V257.886ZM1263.22 258.234C1263.22 259.861 1263.55 261.14 1264.2 262.069C1264.85 262.988 1265.75 263.447 1266.89 263.447C1268.35 263.447 1269.4 262.899 1270.03 261.804V254.25C1269.39 253.154 1268.35 252.606 1266.92 252.606C1265.77 252.606 1264.86 253.077 1264.2 254.018C1263.55 254.958 1263.22 256.364 1263.22 258.234ZM1303.18 258.185C1303.18 260.951 1302.55 263.171 1301.29 264.842C1300.04 266.502 1298.34 267.332 1296.21 267.332C1294.39 267.332 1292.93 266.701 1291.81 265.439V273.906H1287.01V249.037H1291.46L1291.63 250.797C1292.79 249.402 1294.3 248.705 1296.17 248.705C1298.39 248.705 1300.11 249.524 1301.34 251.162C1302.57 252.8 1303.18 255.058 1303.18 257.936V258.185ZM1298.38 257.836C1298.38 256.165 1298.08 254.875 1297.49 253.968C1296.9 253.06 1296.04 252.606 1294.91 252.606C1293.41 252.606 1292.37 253.182 1291.81 254.333V261.688C1292.4 262.872 1293.44 263.464 1294.95 263.464C1297.24 263.464 1298.38 261.588 1298.38 257.836ZM1316.58 267C1316.36 266.568 1316.2 266.032 1316.1 265.39C1314.93 266.685 1313.42 267.332 1311.56 267.332C1309.8 267.332 1308.34 266.823 1307.18 265.805C1306.03 264.786 1305.46 263.503 1305.46 261.953C1305.46 260.049 1306.16 258.589 1307.56 257.57C1308.98 256.552 1311.02 256.037 1313.69 256.026H1315.9V254.997C1315.9 254.167 1315.68 253.503 1315.25 253.005C1314.83 252.507 1314.16 252.258 1313.24 252.258C1312.43 252.258 1311.8 252.451 1311.33 252.839C1310.88 253.226 1310.65 253.757 1310.65 254.433H1305.85C1305.85 253.392 1306.17 252.429 1306.82 251.544C1307.46 250.659 1308.37 249.967 1309.54 249.469C1310.71 248.96 1312.03 248.705 1313.49 248.705C1315.7 248.705 1317.46 249.264 1318.75 250.382C1320.06 251.489 1320.71 253.049 1320.71 255.063V262.85C1320.72 264.554 1320.96 265.843 1321.43 266.718V267H1316.58ZM1312.61 263.663C1313.32 263.663 1313.97 263.508 1314.57 263.198C1315.17 262.877 1315.61 262.451 1315.9 261.92V258.832H1314.1C1311.7 258.832 1310.42 259.662 1310.27 261.322L1310.25 261.604C1310.25 262.202 1310.46 262.695 1310.88 263.082C1311.3 263.469 1311.88 263.663 1312.61 263.663ZM1334.49 253.536C1333.84 253.448 1333.26 253.403 1332.76 253.403C1330.95 253.403 1329.76 254.018 1329.2 255.246V267H1324.4V249.037H1328.93L1329.06 251.179C1330.03 249.53 1331.36 248.705 1333.06 248.705C1333.59 248.705 1334.09 248.777 1334.56 248.921L1334.49 253.536ZM1343.39 244.621V249.037H1346.46V252.557H1343.39V261.521C1343.39 262.186 1343.52 262.661 1343.77 262.949C1344.03 263.237 1344.51 263.381 1345.23 263.381C1345.76 263.381 1346.23 263.342 1346.64 263.265V266.9C1345.7 267.188 1344.73 267.332 1343.74 267.332C1340.37 267.332 1338.66 265.633 1338.59 262.235V252.557H1335.97V249.037H1338.59V244.621H1343.39ZM1355.84 260.21L1359.16 249.037H1364.31L1357.09 269.789L1356.69 270.735C1355.61 273.082 1353.84 274.255 1351.38 274.255C1350.68 274.255 1349.97 274.15 1349.25 273.939V270.304L1349.98 270.32C1350.89 270.32 1351.56 270.182 1352.01 269.905C1352.46 269.629 1352.81 269.169 1353.07 268.527L1353.63 267.05L1347.34 249.037H1352.5L1355.84 260.21ZM1374.47 257.554C1374.47 260.055 1374.11 262.462 1373.39 264.775C1372.67 267.089 1371.63 269.131 1370.28 270.901C1368.93 272.672 1367.49 273.89 1365.95 274.554L1365.02 272.014C1366.59 270.829 1367.83 269.003 1368.74 266.535C1369.65 264.067 1370.12 261.228 1370.15 258.019V257.139C1370.15 253.829 1369.7 250.913 1368.79 248.39C1367.89 245.866 1366.64 243.974 1365.02 242.712L1365.95 240.172C1367.46 240.825 1368.87 242.009 1370.2 243.725C1371.54 245.44 1372.58 247.438 1373.31 249.718C1374.05 251.998 1374.43 254.361 1374.47 256.807V257.554Z" fill="black"/>
<path d="M824.363 632.888H818.194V650H815.676V632.888H809.519V630.805H824.363V632.888ZM829.756 647.93H838.852V650H827.211V630.805H829.756V647.93ZM847.395 641.444C845.224 640.82 843.642 640.055 842.649 639.15C841.665 638.236 841.173 637.111 841.173 635.775C841.173 634.263 841.775 633.015 842.979 632.031C844.192 631.038 845.765 630.541 847.698 630.541C849.017 630.541 850.19 630.796 851.218 631.306C852.256 631.815 853.055 632.519 853.618 633.415C854.189 634.312 854.475 635.292 854.475 636.355H851.93C851.93 635.195 851.561 634.285 850.823 633.626C850.085 632.958 849.043 632.624 847.698 632.624C846.45 632.624 845.475 632.901 844.772 633.455C844.077 634 843.73 634.76 843.73 635.735C843.73 636.518 844.06 637.181 844.719 637.726C845.387 638.262 846.516 638.754 848.107 639.203C849.707 639.651 850.955 640.147 851.851 640.692C852.757 641.229 853.425 641.857 853.855 642.578C854.295 643.298 854.514 644.146 854.514 645.122C854.514 646.678 853.908 647.926 852.695 648.866C851.482 649.798 849.861 650.264 847.83 650.264C846.512 650.264 845.281 650.013 844.139 649.512C842.996 649.002 842.113 648.308 841.489 647.429C840.874 646.55 840.566 645.553 840.566 644.437H843.111C843.111 645.597 843.537 646.515 844.389 647.192C845.251 647.86 846.398 648.194 847.83 648.194C849.166 648.194 850.19 647.921 850.902 647.376C851.614 646.832 851.97 646.089 851.97 645.148C851.97 644.208 851.64 643.483 850.981 642.973C850.322 642.455 849.127 641.945 847.395 641.444ZM872.391 646.216C872.391 645.557 872.141 645.047 871.64 644.687C871.148 644.318 870.282 644.001 869.043 643.738C867.812 643.474 866.832 643.158 866.103 642.789C865.382 642.419 864.846 641.98 864.494 641.47C864.152 640.96 863.98 640.354 863.98 639.651C863.98 638.482 864.472 637.493 865.457 636.685C866.45 635.876 867.716 635.472 869.254 635.472C870.871 635.472 872.18 635.889 873.182 636.724C874.193 637.559 874.698 638.627 874.698 639.928H872.246C872.246 639.26 871.961 638.684 871.389 638.201C870.827 637.717 870.115 637.476 869.254 637.476C868.366 637.476 867.672 637.669 867.171 638.056C866.67 638.442 866.419 638.948 866.419 639.572C866.419 640.161 866.652 640.604 867.118 640.903C867.584 641.202 868.423 641.488 869.636 641.76C870.858 642.033 871.846 642.358 872.602 642.736C873.358 643.114 873.916 643.571 874.277 644.107C874.646 644.634 874.83 645.28 874.83 646.045C874.83 647.319 874.321 648.343 873.301 649.117C872.281 649.881 870.959 650.264 869.333 650.264C868.19 650.264 867.179 650.062 866.301 649.657C865.422 649.253 864.732 648.69 864.231 647.97C863.738 647.24 863.492 646.454 863.492 645.61H865.931C865.975 646.427 866.301 647.078 866.907 647.561C867.522 648.036 868.331 648.273 869.333 648.273C870.256 648.273 870.994 648.088 871.548 647.719C872.11 647.341 872.391 646.84 872.391 646.216ZM883.927 650.264C881.993 650.264 880.42 649.631 879.207 648.365C877.994 647.091 877.388 645.39 877.388 643.263V642.815C877.388 641.4 877.656 640.139 878.192 639.031C878.737 637.915 879.493 637.045 880.46 636.421C881.435 635.788 882.49 635.472 883.624 635.472C885.478 635.472 886.92 636.083 887.948 637.304C888.976 638.526 889.49 640.275 889.49 642.551V643.566H879.827C879.862 644.973 880.271 646.111 881.053 646.981C881.844 647.842 882.846 648.273 884.059 648.273C884.92 648.273 885.65 648.097 886.247 647.746C886.845 647.394 887.368 646.928 887.816 646.348L889.306 647.508C888.111 649.345 886.318 650.264 883.927 650.264ZM883.624 637.476C882.639 637.476 881.813 637.836 881.145 638.557C880.477 639.269 880.064 640.271 879.906 641.562H887.051V641.378C886.981 640.139 886.647 639.181 886.05 638.504C885.452 637.818 884.643 637.476 883.624 637.476ZM898.047 648.273C898.917 648.273 899.677 648.009 900.327 647.482C900.978 646.955 901.338 646.295 901.408 645.504H903.716C903.672 646.322 903.39 647.1 902.872 647.838C902.353 648.576 901.659 649.165 900.789 649.604C899.927 650.044 899.013 650.264 898.047 650.264C896.104 650.264 894.557 649.618 893.406 648.326C892.263 647.025 891.692 645.25 891.692 643V642.591C891.692 641.202 891.947 639.967 892.457 638.886C892.967 637.805 893.696 636.966 894.645 636.368C895.603 635.771 896.733 635.472 898.033 635.472C899.633 635.472 900.96 635.951 902.015 636.909C903.078 637.867 903.645 639.11 903.716 640.64H901.408C901.338 639.717 900.987 638.961 900.354 638.372C899.73 637.774 898.956 637.476 898.033 637.476C896.794 637.476 895.832 637.924 895.146 638.82C894.469 639.708 894.131 640.996 894.131 642.683V643.145C894.131 644.788 894.469 646.054 895.146 646.941C895.823 647.829 896.79 648.273 898.047 648.273ZM915.264 648.589C914.315 649.706 912.922 650.264 911.085 650.264C909.565 650.264 908.405 649.824 907.605 648.945C906.814 648.058 906.414 646.748 906.405 645.017V635.735H908.844V644.951C908.844 647.113 909.723 648.194 911.481 648.194C913.344 648.194 914.583 647.5 915.198 646.111V635.735H917.637V650H915.317L915.264 648.589ZM928.25 637.924C927.881 637.862 927.481 637.832 927.051 637.832C925.451 637.832 924.365 638.513 923.794 639.875V650H921.355V635.735H923.728L923.768 637.383C924.568 636.109 925.701 635.472 927.169 635.472C927.644 635.472 928.004 635.533 928.25 635.656V637.924ZM936.16 650.264C934.227 650.264 932.654 649.631 931.441 648.365C930.228 647.091 929.621 645.39 929.621 643.263V642.815C929.621 641.4 929.889 640.139 930.426 639.031C930.97 637.915 931.726 637.045 932.693 636.421C933.669 635.788 934.723 635.472 935.857 635.472C937.712 635.472 939.153 636.083 940.181 637.304C941.21 638.526 941.724 640.275 941.724 642.551V643.566H932.06C932.095 644.973 932.504 646.111 933.286 646.981C934.077 647.842 935.079 648.273 936.292 648.273C937.154 648.273 937.883 648.097 938.481 647.746C939.078 647.394 939.601 646.928 940.05 646.348L941.539 647.508C940.344 649.345 938.551 650.264 936.16 650.264ZM935.857 637.476C934.873 637.476 934.047 637.836 933.379 638.557C932.711 639.269 932.298 640.271 932.139 641.562H939.285V641.378C939.215 640.139 938.881 639.181 938.283 638.504C937.685 637.818 936.877 637.476 935.857 637.476ZM943.965 642.749C943.965 640.561 944.484 638.803 945.521 637.476C946.558 636.14 947.916 635.472 949.594 635.472C951.264 635.472 952.587 636.043 953.563 637.186V629.75H956.002V650H953.76L953.642 648.471C952.666 649.666 951.308 650.264 949.568 650.264C947.916 650.264 946.567 649.587 945.521 648.233C944.484 646.88 943.965 645.113 943.965 642.934V642.749ZM946.404 643.026C946.404 644.643 946.738 645.909 947.406 646.823C948.074 647.737 948.997 648.194 950.175 648.194C951.721 648.194 952.851 647.5 953.563 646.111V639.559C952.833 638.214 951.713 637.542 950.201 637.542C949.006 637.542 948.074 638.003 947.406 638.926C946.738 639.849 946.404 641.215 946.404 643.026Z" fill="black"/>
<path d="M455.071 535.142H580.516L615.214 569.84V748.665H455.071V535.142Z" stroke="black" stroke-width="3" stroke-miterlimit="10"/>
<path d="M580.517 535.142V569.84H615.214L580.517 535.142Z" fill="black" fill-opacity="0.05"/>
<path d="M580.517 535.142V569.84H615.214" stroke="black" stroke-width="3" stroke-miterlimit="10"/>
<path d="M480.486 614.805L486.761 630.467L493.037 614.805H496.319V634H493.788V626.525L494.025 618.457L487.724 634H485.786L479.497 618.496L479.748 626.525V634H477.216V614.805H480.486ZM509.213 634C509.072 633.719 508.958 633.218 508.87 632.497C507.736 633.675 506.383 634.264 504.81 634.264C503.403 634.264 502.248 633.868 501.342 633.077C500.446 632.277 499.998 631.267 499.998 630.045C499.998 628.56 500.56 627.408 501.685 626.591C502.819 625.765 504.41 625.352 506.458 625.352H508.831V624.231C508.831 623.378 508.576 622.702 508.066 622.201C507.556 621.691 506.805 621.436 505.812 621.436C504.941 621.436 504.212 621.656 503.623 622.095C503.034 622.535 502.74 623.066 502.74 623.69H500.288C500.288 622.979 500.538 622.293 501.039 621.634C501.549 620.966 502.234 620.438 503.096 620.052C503.966 619.665 504.919 619.472 505.957 619.472C507.6 619.472 508.888 619.885 509.819 620.711C510.751 621.528 511.234 622.658 511.27 624.099V630.665C511.27 631.974 511.437 633.016 511.771 633.789V634H509.213ZM505.166 632.141C505.93 632.141 506.655 631.943 507.341 631.548C508.026 631.152 508.523 630.638 508.831 630.005V627.079H506.919C503.931 627.079 502.437 627.953 502.437 629.702C502.437 630.467 502.691 631.064 503.201 631.495C503.711 631.926 504.366 632.141 505.166 632.141ZM517.4 619.735L517.479 621.528C518.569 620.157 519.993 619.472 521.75 619.472C524.765 619.472 526.286 621.172 526.312 624.574V634H523.873V624.561C523.864 623.532 523.627 622.772 523.161 622.28C522.704 621.788 521.988 621.542 521.012 621.542C520.221 621.542 519.527 621.752 518.929 622.174C518.332 622.596 517.866 623.15 517.532 623.835V634H515.093V619.735H517.4ZM532.64 634H530.201V619.735H532.64V634ZM530.003 615.952C530.003 615.556 530.122 615.222 530.359 614.95C530.605 614.677 530.966 614.541 531.44 614.541C531.915 614.541 532.275 614.677 532.521 614.95C532.768 615.222 532.891 615.556 532.891 615.952C532.891 616.347 532.768 616.677 532.521 616.94C532.275 617.204 531.915 617.336 531.44 617.336C530.966 617.336 530.605 617.204 530.359 616.94C530.122 616.677 530.003 616.347 530.003 615.952ZM537.755 634V621.621H535.501V619.735H537.755V618.272C537.755 616.743 538.164 615.561 538.981 614.726C539.799 613.891 540.955 613.473 542.449 613.473C543.011 613.473 543.569 613.548 544.123 613.697L543.991 615.675C543.578 615.596 543.139 615.556 542.673 615.556C541.882 615.556 541.271 615.789 540.84 616.255C540.41 616.712 540.194 617.371 540.194 618.232V619.735H543.24V621.621H540.194V634H537.755ZM551.545 634.264C549.612 634.264 548.039 633.631 546.826 632.365C545.613 631.091 545.006 629.39 545.006 627.263V626.815C545.006 625.4 545.274 624.139 545.811 623.031C546.355 621.915 547.111 621.045 548.078 620.421C549.054 619.788 550.108 619.472 551.242 619.472C553.097 619.472 554.538 620.083 555.566 621.304C556.595 622.526 557.109 624.275 557.109 626.551V627.566H547.445C547.48 628.973 547.889 630.111 548.671 630.981C549.462 631.842 550.464 632.273 551.677 632.273C552.539 632.273 553.268 632.097 553.866 631.746C554.463 631.394 554.986 630.928 555.435 630.348L556.924 631.508C555.729 633.345 553.936 634.264 551.545 634.264ZM551.242 621.476C550.258 621.476 549.432 621.836 548.764 622.557C548.096 623.269 547.683 624.271 547.524 625.562H554.67V625.378C554.6 624.139 554.266 623.181 553.668 622.504C553.07 621.818 552.262 621.476 551.242 621.476ZM568.249 630.216C568.249 629.557 567.999 629.047 567.498 628.687C567.005 628.318 566.14 628.001 564.9 627.738C563.67 627.474 562.69 627.158 561.96 626.789C561.24 626.419 560.704 625.98 560.352 625.47C560.009 624.96 559.838 624.354 559.838 623.651C559.838 622.482 560.33 621.493 561.314 620.685C562.308 619.876 563.573 619.472 565.111 619.472C566.729 619.472 568.038 619.889 569.04 620.724C570.051 621.559 570.556 622.627 570.556 623.928H568.104C568.104 623.26 567.818 622.684 567.247 622.201C566.685 621.717 565.973 621.476 565.111 621.476C564.224 621.476 563.529 621.669 563.028 622.056C562.527 622.442 562.277 622.948 562.277 623.572C562.277 624.161 562.51 624.604 562.976 624.903C563.441 625.202 564.281 625.488 565.494 625.76C566.715 626.033 567.704 626.358 568.46 626.736C569.216 627.114 569.774 627.571 570.134 628.107C570.503 628.634 570.688 629.28 570.688 630.045C570.688 631.319 570.178 632.343 569.159 633.117C568.139 633.881 566.816 634.264 565.19 634.264C564.048 634.264 563.037 634.062 562.158 633.657C561.279 633.253 560.589 632.69 560.088 631.97C559.596 631.24 559.35 630.454 559.35 629.61H561.789C561.833 630.427 562.158 631.078 562.765 631.561C563.38 632.036 564.188 632.273 565.19 632.273C566.113 632.273 566.852 632.088 567.405 631.719C567.968 631.341 568.249 630.84 568.249 630.216ZM577.174 616.281V619.735H579.837V621.621H577.174V630.467C577.174 631.038 577.293 631.469 577.53 631.759C577.768 632.04 578.172 632.181 578.743 632.181C579.024 632.181 579.411 632.128 579.903 632.022V634C579.262 634.176 578.638 634.264 578.031 634.264C576.941 634.264 576.12 633.934 575.566 633.275C575.012 632.616 574.735 631.68 574.735 630.467V621.621H572.138V619.735H574.735V616.281H577.174ZM594.471 626.841H588.038V624.851H594.471V626.841ZM486.616 646.805L492.892 662.467L499.167 646.805H502.45V666H499.918V658.525L500.156 650.457L493.854 666H491.916L485.627 650.496L485.878 658.525V666H483.347V646.805H486.616ZM515.343 666C515.203 665.719 515.088 665.218 515 664.497C513.867 665.675 512.513 666.264 510.94 666.264C509.534 666.264 508.378 665.868 507.473 665.077C506.576 664.277 506.128 663.267 506.128 662.045C506.128 660.56 506.69 659.408 507.815 658.591C508.949 657.765 510.54 657.352 512.588 657.352H514.961V656.231C514.961 655.378 514.706 654.702 514.196 654.201C513.687 653.691 512.935 653.436 511.942 653.436C511.072 653.436 510.342 653.656 509.753 654.095C509.165 654.535 508.87 655.066 508.87 655.69H506.418C506.418 654.979 506.668 654.293 507.169 653.634C507.679 652.966 508.365 652.438 509.226 652.052C510.096 651.665 511.05 651.472 512.087 651.472C513.73 651.472 515.018 651.885 515.95 652.711C516.881 653.528 517.365 654.658 517.4 656.099V662.665C517.4 663.974 517.567 665.016 517.901 665.789V666H515.343ZM511.296 664.141C512.061 664.141 512.786 663.943 513.471 663.548C514.157 663.152 514.653 662.638 514.961 662.005V659.079H513.049C510.061 659.079 508.567 659.953 508.567 661.702C508.567 662.467 508.822 663.064 509.332 663.495C509.841 663.926 510.496 664.141 511.296 664.141ZM528.118 653.924C527.749 653.862 527.349 653.832 526.918 653.832C525.319 653.832 524.233 654.513 523.662 655.875V666H521.223V651.735H523.596L523.636 653.383C524.436 652.109 525.569 651.472 527.037 651.472C527.512 651.472 527.872 651.533 528.118 651.656V653.924ZM542.449 659.026C542.449 661.206 541.948 662.959 540.946 664.286C539.944 665.604 538.599 666.264 536.912 666.264C535.11 666.264 533.717 665.626 532.732 664.352L532.614 666H530.373V645.75H532.812V653.304C533.796 652.083 535.154 651.472 536.885 651.472C538.617 651.472 539.975 652.126 540.959 653.436C541.952 654.746 542.449 656.539 542.449 658.815V659.026ZM540.01 658.749C540.01 657.088 539.689 655.805 539.047 654.899C538.406 653.994 537.483 653.542 536.279 653.542C534.67 653.542 533.515 654.289 532.812 655.783V661.953C533.559 663.447 534.723 664.194 536.305 664.194C537.474 664.194 538.384 663.741 539.034 662.836C539.685 661.931 540.01 660.568 540.01 658.749ZM548.184 666H545.745V645.75H548.184V666ZM558.019 666.264C556.085 666.264 554.512 665.631 553.299 664.365C552.086 663.091 551.479 661.39 551.479 659.263V658.815C551.479 657.4 551.748 656.139 552.284 655.031C552.829 653.915 553.584 653.045 554.551 652.421C555.527 651.788 556.582 651.472 557.715 651.472C559.57 651.472 561.011 652.083 562.04 653.304C563.068 654.526 563.582 656.275 563.582 658.551V659.566H553.918C553.954 660.973 554.362 662.111 555.145 662.981C555.936 663.842 556.938 664.273 558.15 664.273C559.012 664.273 559.741 664.097 560.339 663.746C560.937 663.394 561.459 662.928 561.908 662.348L563.397 663.508C562.202 665.345 560.409 666.264 558.019 666.264ZM557.715 653.476C556.731 653.476 555.905 653.836 555.237 654.557C554.569 655.269 554.156 656.271 553.998 657.562H561.143V657.378C561.073 656.139 560.739 655.181 560.141 654.504C559.543 653.818 558.735 653.476 557.715 653.476ZM584.096 660.99H576.054L574.248 666H571.637L578.967 646.805H581.182L588.525 666H585.928L584.096 660.99ZM576.818 658.907H583.344L580.075 649.929L576.818 658.907Z" fill="black"/>
<path d="M641.904 321.619H428.381V455.071H641.904V321.619Z" fill="#8B04DD" fill-opacity="0.3" stroke="#8B04DD" stroke-width="3"/>
<path d="M511.177 367.462C511.177 369.72 510.812 371.684 510.081 373.355C509.351 375.016 508.338 376.349 507.043 377.356L511.061 380.511L507.89 383.316L502.743 379.183C502.157 379.282 501.548 379.332 500.917 379.332C498.914 379.332 497.126 378.851 495.555 377.888C493.983 376.925 492.766 375.552 491.902 373.771C491.039 371.978 490.602 369.919 490.591 367.595V366.399C490.591 364.02 491.017 361.928 491.869 360.124C492.732 358.309 493.944 356.92 495.505 355.957C497.076 354.983 498.869 354.496 500.884 354.496C502.898 354.496 504.686 354.983 506.246 355.957C507.818 356.92 509.03 358.309 509.882 360.124C510.745 361.928 511.177 364.014 511.177 366.383V367.462ZM506.13 366.366C506.13 363.832 505.676 361.906 504.769 360.589C503.861 359.272 502.566 358.613 500.884 358.613C499.213 358.613 497.923 359.266 497.016 360.572C496.108 361.867 495.649 363.771 495.638 366.283V367.462C495.638 369.93 496.091 371.845 496.999 373.206C497.907 374.567 499.213 375.248 500.917 375.248C502.588 375.248 503.872 374.595 504.769 373.289C505.665 371.972 506.119 370.057 506.13 367.545V366.366ZM525.271 377.174C524.087 378.613 522.449 379.332 520.357 379.332C518.432 379.332 516.96 378.779 515.941 377.672C514.934 376.565 514.42 374.944 514.397 372.808V361.037H519.195V372.642C519.195 374.512 520.048 375.447 521.752 375.447C523.379 375.447 524.497 374.883 525.105 373.754V361.037H529.92V379H525.404L525.271 377.174ZM532.792 369.853C532.792 368.071 533.135 366.482 533.821 365.088C534.507 363.693 535.493 362.614 536.776 361.851C538.071 361.087 539.571 360.705 541.275 360.705C543.699 360.705 545.675 361.447 547.202 362.93C548.741 364.413 549.598 366.427 549.775 368.973L549.809 370.201C549.809 372.957 549.039 375.171 547.501 376.842C545.963 378.502 543.898 379.332 541.309 379.332C538.719 379.332 536.649 378.502 535.1 376.842C533.561 375.182 532.792 372.924 532.792 370.068V369.853ZM537.59 370.201C537.59 371.906 537.911 373.212 538.553 374.119C539.195 375.016 540.113 375.464 541.309 375.464C542.471 375.464 543.378 375.021 544.031 374.136C544.684 373.239 545.011 371.812 545.011 369.853C545.011 368.181 544.684 366.886 544.031 365.968C543.378 365.049 542.46 364.59 541.275 364.59C540.102 364.59 539.195 365.049 538.553 365.968C537.911 366.875 537.59 368.286 537.59 370.201ZM558.508 356.621V361.037H561.579V364.557H558.508V373.521C558.508 374.186 558.635 374.661 558.89 374.949C559.144 375.237 559.631 375.381 560.351 375.381C560.882 375.381 561.352 375.342 561.762 375.265V378.9C560.821 379.188 559.853 379.332 558.856 379.332C555.492 379.332 553.776 377.633 553.71 374.235V364.557H551.087V361.037H553.71V356.621H558.508ZM572.52 379.332C569.885 379.332 567.738 378.524 566.078 376.908C564.429 375.292 563.604 373.14 563.604 370.45V369.985C563.604 368.181 563.953 366.571 564.65 365.154C565.348 363.727 566.333 362.631 567.605 361.867C568.889 361.092 570.35 360.705 571.988 360.705C574.445 360.705 576.377 361.48 577.782 363.029C579.199 364.579 579.907 366.776 579.907 369.62V371.579H568.469C568.624 372.752 569.089 373.693 569.863 374.401C570.649 375.11 571.64 375.464 572.835 375.464C574.683 375.464 576.128 374.794 577.168 373.455L579.525 376.095C578.806 377.113 577.832 377.91 576.604 378.485C575.375 379.05 574.014 379.332 572.52 379.332ZM571.972 364.59C571.02 364.59 570.245 364.911 569.647 365.553C569.061 366.195 568.685 367.113 568.519 368.309H575.192V367.927C575.17 366.864 574.882 366.045 574.329 365.47C573.776 364.883 572.99 364.59 571.972 364.59Z" fill="black"/>
<path d="M492.533 416.462C493.614 415.135 495.02 414.472 496.751 414.472C499.766 414.472 501.287 416.172 501.313 419.574V429H498.874V419.561C498.865 418.532 498.628 417.772 498.162 417.28C497.705 416.788 496.989 416.542 496.013 416.542C495.222 416.542 494.528 416.752 493.93 417.174C493.333 417.596 492.867 418.15 492.533 418.835V429H490.094V408.75H492.533V416.462ZM513.771 429C513.631 428.719 513.517 428.218 513.429 427.497C512.295 428.675 510.941 429.264 509.368 429.264C507.962 429.264 506.806 428.868 505.901 428.077C505.004 427.277 504.556 426.267 504.556 425.045C504.556 423.56 505.119 422.408 506.244 421.591C507.377 420.765 508.968 420.352 511.016 420.352H513.389V419.231C513.389 418.378 513.134 417.702 512.625 417.201C512.115 416.691 511.363 416.436 510.37 416.436C509.5 416.436 508.771 416.656 508.182 417.095C507.593 417.535 507.298 418.066 507.298 418.69H504.846C504.846 417.979 505.097 417.293 505.598 416.634C506.107 415.966 506.793 415.438 507.654 415.052C508.524 414.665 509.478 414.472 510.515 414.472C512.159 414.472 513.446 414.885 514.378 415.711C515.31 416.528 515.793 417.658 515.828 419.099V425.665C515.828 426.974 515.995 428.016 516.329 428.789V429H513.771ZM509.724 427.141C510.489 427.141 511.214 426.943 511.899 426.548C512.585 426.152 513.082 425.638 513.389 425.005V422.079H511.478C508.489 422.079 506.995 422.953 506.995 424.702C506.995 425.467 507.25 426.064 507.76 426.495C508.27 426.926 508.924 427.141 509.724 427.141ZM527.957 425.216C527.957 424.557 527.707 424.047 527.206 423.687C526.713 423.318 525.848 423.001 524.608 422.738C523.378 422.474 522.398 422.158 521.668 421.789C520.948 421.419 520.412 420.98 520.06 420.47C519.717 419.96 519.546 419.354 519.546 418.651C519.546 417.482 520.038 416.493 521.022 415.685C522.016 414.876 523.281 414.472 524.819 414.472C526.437 414.472 527.746 414.889 528.748 415.724C529.759 416.559 530.264 417.627 530.264 418.928H527.812C527.812 418.26 527.526 417.684 526.955 417.201C526.393 416.717 525.681 416.476 524.819 416.476C523.932 416.476 523.237 416.669 522.736 417.056C522.235 417.442 521.985 417.948 521.985 418.572C521.985 419.161 522.218 419.604 522.684 419.903C523.149 420.202 523.989 420.488 525.202 420.76C526.423 421.033 527.412 421.358 528.168 421.736C528.924 422.114 529.482 422.571 529.842 423.107C530.211 423.634 530.396 424.28 530.396 425.045C530.396 426.319 529.886 427.343 528.867 428.117C527.847 428.881 526.524 429.264 524.898 429.264C523.756 429.264 522.745 429.062 521.866 428.657C520.987 428.253 520.297 427.69 519.796 426.97C519.304 426.24 519.058 425.454 519.058 424.61H521.497C521.541 425.427 521.866 426.078 522.473 426.561C523.088 427.036 523.896 427.273 524.898 427.273C525.821 427.273 526.56 427.088 527.113 426.719C527.676 426.341 527.957 425.84 527.957 425.216ZM536.012 416.462C537.093 415.135 538.5 414.472 540.231 414.472C543.246 414.472 544.766 416.172 544.792 419.574V429H542.354V419.561C542.345 418.532 542.107 417.772 541.642 417.28C541.185 416.788 540.468 416.542 539.493 416.542C538.702 416.542 538.007 416.752 537.41 417.174C536.812 417.596 536.346 418.15 536.012 418.835V429H533.573V408.75H536.012V416.462ZM548.352 421.208C548.352 419.222 548.616 417.315 549.143 415.487C549.679 413.659 550.475 411.998 551.529 410.503C552.584 409.009 553.678 407.955 554.812 407.339L555.313 408.948C554.03 409.932 552.975 411.435 552.149 413.457C551.332 415.478 550.883 417.741 550.804 420.246L550.791 421.367C550.791 424.759 551.411 427.704 552.65 430.2C553.397 431.694 554.285 432.863 555.313 433.707L554.812 435.196C553.643 434.546 552.527 433.456 551.463 431.927C549.389 428.938 548.352 425.366 548.352 421.208ZM565.095 421.235H560.586V429H558.042V409.805H564.396C566.559 409.805 568.22 410.297 569.38 411.281C570.549 412.266 571.133 413.698 571.133 415.579C571.133 416.774 570.808 417.816 570.158 418.704C569.516 419.591 568.62 420.255 567.468 420.694L571.977 428.842V429H569.261L565.095 421.235ZM560.586 419.165H564.476C565.732 419.165 566.73 418.84 567.468 418.189C568.215 417.539 568.589 416.669 568.589 415.579C568.589 414.393 568.233 413.483 567.521 412.85C566.818 412.217 565.798 411.896 564.462 411.888H560.586V419.165ZM579.94 421.34C579.94 423.3 579.681 425.181 579.162 426.983C578.652 428.776 577.866 430.433 576.802 431.953C575.748 433.474 574.64 434.555 573.48 435.196L572.966 433.707C574.319 432.669 575.405 431.061 576.222 428.881C577.048 426.693 577.47 424.267 577.488 421.604V421.182C577.488 419.336 577.294 417.623 576.908 416.041C576.521 414.45 575.98 413.026 575.286 411.769C574.601 410.512 573.827 409.532 572.966 408.829L573.48 407.339C574.64 407.981 575.743 409.053 576.789 410.556C577.844 412.059 578.63 413.716 579.149 415.526C579.676 417.337 579.94 419.275 579.94 421.34Z" fill="black"/>
<path d="M1188.86 388.241L1193.21 373.805H1197.61L1190.93 393H1186.8L1180.14 373.805H1184.53L1188.86 388.241ZM1205.16 393.264C1203.07 393.264 1201.37 392.622 1200.05 391.339C1198.74 390.056 1198.08 388.346 1198.08 386.21V385.841C1198.08 384.409 1198.36 383.13 1198.91 382.005C1199.47 380.871 1200.25 380.001 1201.26 379.395C1202.28 378.779 1203.44 378.472 1204.74 378.472C1206.69 378.472 1208.23 379.087 1209.34 380.317C1210.47 381.548 1211.03 383.292 1211.03 385.551V387.107H1201.95C1202.07 388.039 1202.44 388.786 1203.05 389.348C1203.68 389.911 1204.46 390.192 1205.41 390.192C1206.88 390.192 1208.03 389.66 1208.86 388.597L1210.73 390.693C1210.16 391.501 1209.38 392.134 1208.41 392.591C1207.43 393.04 1206.35 393.264 1205.16 393.264ZM1204.73 381.557C1203.97 381.557 1203.36 381.812 1202.88 382.321C1202.42 382.831 1202.12 383.561 1201.99 384.51H1207.29V384.207C1207.27 383.363 1207.04 382.712 1206.6 382.255C1206.16 381.79 1205.54 381.557 1204.73 381.557ZM1221.22 382.308C1220.7 382.238 1220.25 382.203 1219.85 382.203C1218.41 382.203 1217.46 382.69 1217.02 383.666V393H1213.21V378.735H1216.8L1216.91 380.436C1217.67 379.126 1218.73 378.472 1220.09 378.472C1220.51 378.472 1220.9 378.529 1221.27 378.643L1221.22 382.308ZM1227.09 393H1223.26V378.735H1227.09V393ZM1223.04 375.044C1223.04 374.473 1223.23 374.002 1223.61 373.633C1223.99 373.264 1224.52 373.08 1225.18 373.08C1225.83 373.08 1226.35 373.264 1226.73 373.633C1227.12 374.002 1227.31 374.473 1227.31 375.044C1227.31 375.624 1227.11 376.099 1226.72 376.468C1226.33 376.837 1225.82 377.021 1225.18 377.021C1224.53 377.021 1224.02 376.837 1223.62 376.468C1223.23 376.099 1223.04 375.624 1223.04 375.044ZM1231.28 393V381.53H1229.16V378.735H1231.28V377.522C1231.28 375.923 1231.74 374.684 1232.65 373.805C1233.57 372.917 1234.86 372.473 1236.51 372.473C1237.04 372.473 1237.69 372.561 1238.45 372.737L1238.41 375.69C1238.1 375.611 1237.71 375.571 1237.25 375.571C1235.82 375.571 1235.1 376.244 1235.1 377.588V378.735H1237.94V381.53H1235.1V393H1231.28ZM1245.24 387.608L1247.88 378.735H1251.97L1246.23 395.215L1245.91 395.966C1245.06 397.83 1243.66 398.761 1241.7 398.761C1241.14 398.761 1240.58 398.678 1240.01 398.511V395.624L1240.59 395.637C1241.31 395.637 1241.84 395.527 1242.2 395.307C1242.56 395.087 1242.84 394.723 1243.04 394.213L1243.49 393.04L1238.49 378.735H1242.59L1245.24 387.608ZM1259.6 385.736C1259.6 383.495 1260.1 381.724 1261.09 380.423C1262.09 379.122 1263.46 378.472 1265.2 378.472C1266.73 378.472 1267.95 379.056 1268.85 380.225L1269.1 378.735H1272.45V398.484H1268.63V391.774C1267.75 392.767 1266.6 393.264 1265.18 393.264C1263.48 393.264 1262.13 392.604 1261.11 391.286C1260.1 389.968 1259.6 388.118 1259.6 385.736ZM1263.41 386.013C1263.41 387.375 1263.65 388.412 1264.12 389.124C1264.6 389.836 1265.28 390.192 1266.15 390.192C1267.32 390.192 1268.15 389.726 1268.63 388.794V382.901C1268.15 382.005 1267.34 381.557 1266.18 381.557C1265.3 381.557 1264.62 381.913 1264.13 382.625C1263.65 383.336 1263.41 384.466 1263.41 386.013ZM1284 391.55C1283.06 392.692 1281.76 393.264 1280.1 393.264C1278.57 393.264 1277.4 392.824 1276.59 391.945C1275.79 391.066 1275.38 389.779 1275.37 388.083V378.735H1279.18V387.951C1279.18 389.436 1279.85 390.179 1281.21 390.179C1282.5 390.179 1283.39 389.73 1283.87 388.834V378.735H1287.69V393H1284.11L1284 391.55ZM1289.97 385.736C1289.97 384.321 1290.25 383.06 1290.79 381.952C1291.34 380.845 1292.12 379.988 1293.14 379.381C1294.17 378.775 1295.36 378.472 1296.71 378.472C1298.64 378.472 1300.2 379.061 1301.42 380.238C1302.64 381.416 1303.32 383.016 1303.46 385.037L1303.49 386.013C1303.49 388.201 1302.88 389.959 1301.65 391.286C1300.43 392.604 1298.79 393.264 1296.74 393.264C1294.68 393.264 1293.04 392.604 1291.81 391.286C1290.58 389.968 1289.97 388.175 1289.97 385.907V385.736ZM1293.78 386.013C1293.78 387.366 1294.04 388.403 1294.55 389.124C1295.06 389.836 1295.79 390.192 1296.74 390.192C1297.66 390.192 1298.38 389.84 1298.9 389.137C1299.42 388.425 1299.68 387.292 1299.68 385.736C1299.68 384.409 1299.42 383.38 1298.9 382.651C1298.38 381.921 1297.65 381.557 1296.71 381.557C1295.78 381.557 1295.06 381.921 1294.55 382.651C1294.04 383.372 1293.78 384.492 1293.78 386.013ZM1310.4 375.229V378.735H1312.83V381.53H1310.4V388.649C1310.4 389.177 1310.5 389.555 1310.7 389.783C1310.9 390.012 1311.29 390.126 1311.86 390.126C1312.28 390.126 1312.65 390.095 1312.98 390.034V392.921C1312.23 393.149 1311.46 393.264 1310.67 393.264C1308 393.264 1306.64 391.915 1306.59 389.216V381.53H1304.5V378.735H1306.59V375.229H1310.4ZM1321.52 393.264C1319.43 393.264 1317.73 392.622 1316.41 391.339C1315.1 390.056 1314.44 388.346 1314.44 386.21V385.841C1314.44 384.409 1314.72 383.13 1315.27 382.005C1315.83 380.871 1316.61 380.001 1317.62 379.395C1318.64 378.779 1319.8 378.472 1321.1 378.472C1323.05 378.472 1324.59 379.087 1325.7 380.317C1326.83 381.548 1327.39 383.292 1327.39 385.551V387.107H1318.31C1318.43 388.039 1318.8 388.786 1319.41 389.348C1320.04 389.911 1320.82 390.192 1321.77 390.192C1323.24 390.192 1324.39 389.66 1325.21 388.597L1327.09 390.693C1326.51 391.501 1325.74 392.134 1324.77 392.591C1323.79 393.04 1322.71 393.264 1321.52 393.264ZM1321.09 381.557C1320.33 381.557 1319.72 381.812 1319.24 382.321C1318.78 382.831 1318.48 383.561 1318.34 384.51H1323.64V384.207C1323.63 383.363 1323.4 382.712 1322.96 382.255C1322.52 381.79 1321.9 381.557 1321.09 381.557Z" fill="black"/>
<path d="M1094 570H1414.28V690.107H1226.38L1094 716.797L1119.62 690.107H1094V570Z" fill="#90FF99" fill-opacity="0.3" stroke="#90FF99" stroke-width="3" stroke-miterlimit="10"/>
<path d="M1169.39 633.241L1173.74 618.805H1178.14L1171.46 638H1167.33L1160.67 618.805H1165.06L1169.39 633.241ZM1185.7 638.264C1183.6 638.264 1181.9 637.622 1180.58 636.339C1179.27 635.056 1178.62 633.346 1178.62 631.21V630.841C1178.62 629.409 1178.89 628.13 1179.45 627.005C1180 625.871 1180.78 625.001 1181.79 624.395C1182.81 623.779 1183.97 623.472 1185.27 623.472C1187.23 623.472 1188.76 624.087 1189.88 625.317C1191 626.548 1191.56 628.292 1191.56 630.551V632.107H1182.48C1182.6 633.039 1182.97 633.786 1183.59 634.348C1184.21 634.911 1185 635.192 1185.95 635.192C1187.42 635.192 1188.56 634.66 1189.39 633.597L1191.26 635.693C1190.69 636.501 1189.92 637.134 1188.94 637.591C1187.96 638.04 1186.88 638.264 1185.7 638.264ZM1185.26 626.557C1184.51 626.557 1183.89 626.812 1183.42 627.321C1182.95 627.831 1182.65 628.561 1182.52 629.51H1187.82V629.207C1187.8 628.363 1187.57 627.712 1187.13 627.255C1186.69 626.79 1186.07 626.557 1185.26 626.557ZM1201.75 627.308C1201.24 627.238 1200.78 627.203 1200.38 627.203C1198.94 627.203 1198 627.69 1197.55 628.666V638H1193.74V623.735H1197.34L1197.44 625.436C1198.21 624.126 1199.27 623.472 1200.62 623.472C1201.04 623.472 1201.44 623.529 1201.81 623.643L1201.75 627.308ZM1207.62 638H1203.8V623.735H1207.62V638ZM1203.57 620.044C1203.57 619.473 1203.76 619.002 1204.14 618.633C1204.53 618.264 1205.05 618.08 1205.71 618.08C1206.36 618.08 1206.88 618.264 1207.27 618.633C1207.65 619.002 1207.85 619.473 1207.85 620.044C1207.85 620.624 1207.65 621.099 1207.25 621.468C1206.87 621.837 1206.35 622.021 1205.71 622.021C1205.07 622.021 1204.55 621.837 1204.15 621.468C1203.77 621.099 1203.57 620.624 1203.57 620.044ZM1211.81 638V626.53H1209.69V623.735H1211.81V622.522C1211.81 620.923 1212.27 619.684 1213.18 618.805C1214.11 617.917 1215.4 617.473 1217.05 617.473C1217.57 617.473 1218.22 617.561 1218.99 617.737L1218.95 620.69C1218.63 620.611 1218.24 620.571 1217.79 620.571C1216.35 620.571 1215.64 621.244 1215.64 622.588V623.735H1218.47V626.53H1215.64V638H1211.81ZM1225.77 632.608L1228.41 623.735H1232.5L1226.76 640.215L1226.45 640.966C1225.59 642.83 1224.19 643.761 1222.23 643.761C1221.67 643.761 1221.11 643.678 1220.54 643.511V640.624L1221.12 640.637C1221.84 640.637 1222.38 640.527 1222.73 640.307C1223.09 640.087 1223.37 639.723 1223.57 639.213L1224.02 638.04L1219.02 623.735H1223.12L1225.77 632.608ZM1244.3 623.735L1244.42 625.331C1245.43 624.091 1246.79 623.472 1248.52 623.472C1250.35 623.472 1251.61 624.197 1252.3 625.647C1253.3 624.197 1254.73 623.472 1256.58 623.472C1258.13 623.472 1259.28 623.924 1260.04 624.83C1260.79 625.726 1261.17 627.08 1261.17 628.89V638H1257.35V628.903C1257.35 628.095 1257.19 627.506 1256.88 627.137C1256.56 626.759 1256 626.57 1255.2 626.57C1254.06 626.57 1253.27 627.115 1252.83 628.205L1252.84 638H1249.03V628.917C1249.03 628.09 1248.87 627.493 1248.54 627.124C1248.22 626.754 1247.66 626.57 1246.88 626.57C1245.8 626.57 1245.02 627.018 1244.54 627.915V638H1240.73V623.735H1244.3ZM1272.38 638C1272.2 637.657 1272.08 637.231 1272 636.721C1271.07 637.75 1269.87 638.264 1268.4 638.264C1267 638.264 1265.84 637.859 1264.92 637.051C1264 636.242 1263.55 635.223 1263.55 633.992C1263.55 632.48 1264.1 631.32 1265.22 630.512C1266.35 629.703 1267.97 629.294 1270.08 629.286H1271.84V628.468C1271.84 627.809 1271.67 627.282 1271.32 626.886C1270.99 626.491 1270.46 626.293 1269.73 626.293C1269.09 626.293 1268.58 626.447 1268.21 626.754C1267.85 627.062 1267.67 627.484 1267.67 628.02H1263.86C1263.86 627.194 1264.12 626.429 1264.63 625.726C1265.14 625.023 1265.86 624.474 1266.79 624.078C1267.72 623.674 1268.77 623.472 1269.93 623.472C1271.68 623.472 1273.08 623.916 1274.11 624.803C1275.14 625.682 1275.66 626.921 1275.66 628.521V634.704C1275.67 636.058 1275.86 637.082 1276.23 637.776V638H1272.38ZM1269.23 635.35C1269.79 635.35 1270.31 635.227 1270.78 634.981C1271.26 634.726 1271.61 634.388 1271.84 633.966V631.514H1270.41C1268.51 631.514 1267.49 632.173 1267.37 633.491L1267.36 633.715C1267.36 634.19 1267.52 634.581 1267.86 634.889C1268.19 635.196 1268.65 635.35 1269.23 635.35ZM1282.1 623.735L1282.21 625.383C1283.23 624.109 1284.6 623.472 1286.31 623.472C1287.83 623.472 1288.95 623.916 1289.69 624.803C1290.43 625.691 1290.81 627.018 1290.82 628.785V638H1287.01V628.877C1287.01 628.068 1286.84 627.484 1286.49 627.124C1286.13 626.754 1285.55 626.57 1284.73 626.57C1283.66 626.57 1282.86 627.027 1282.32 627.941V638H1278.51V623.735H1282.1ZM1297.74 638H1293.92V623.735H1297.74V638ZM1293.7 620.044C1293.7 619.473 1293.89 619.002 1294.26 618.633C1294.65 618.264 1295.17 618.08 1295.83 618.08C1296.48 618.08 1297 618.264 1297.39 618.633C1297.77 619.002 1297.97 619.473 1297.97 620.044C1297.97 620.624 1297.77 621.099 1297.38 621.468C1296.99 621.837 1296.47 622.021 1295.83 622.021C1295.19 622.021 1294.67 621.837 1294.28 621.468C1293.89 621.099 1293.7 620.624 1293.7 620.044ZM1301.94 638V626.53H1299.81V623.735H1301.94V622.522C1301.94 620.923 1302.39 619.684 1303.31 618.805C1304.23 617.917 1305.52 617.473 1307.17 617.473C1307.7 617.473 1308.34 617.561 1309.11 617.737L1309.07 620.69C1308.75 620.611 1308.37 620.571 1307.91 620.571C1306.48 620.571 1305.76 621.244 1305.76 622.588V623.735H1308.59V626.53H1305.76V638H1301.94ZM1316.82 638.264C1314.73 638.264 1313.02 637.622 1311.71 636.339C1310.4 635.056 1309.74 633.346 1309.74 631.21V630.841C1309.74 629.409 1310.02 628.13 1310.57 627.005C1311.13 625.871 1311.91 625.001 1312.92 624.395C1313.94 623.779 1315.1 623.472 1316.4 623.472C1318.35 623.472 1319.88 624.087 1321 625.317C1322.12 626.548 1322.69 628.292 1322.69 630.551V632.107H1313.6C1313.73 633.039 1314.1 633.786 1314.71 634.348C1315.34 634.911 1316.12 635.192 1317.07 635.192C1318.54 635.192 1319.69 634.66 1320.51 633.597L1322.38 635.693C1321.81 636.501 1321.04 637.134 1320.06 637.591C1319.09 638.04 1318.01 638.264 1316.82 638.264ZM1316.39 626.557C1315.63 626.557 1315.01 626.812 1314.54 627.321C1314.07 627.831 1313.78 628.561 1313.64 629.51H1318.94V629.207C1318.93 628.363 1318.7 627.712 1318.26 627.255C1317.82 626.79 1317.19 626.557 1316.39 626.557ZM1332.59 634.058C1332.59 633.592 1332.36 633.228 1331.89 632.964C1331.43 632.691 1330.69 632.45 1329.67 632.239C1326.28 631.527 1324.59 630.085 1324.59 627.915C1324.59 626.649 1325.11 625.594 1326.15 624.75C1327.21 623.898 1328.58 623.472 1330.28 623.472C1332.09 623.472 1333.54 623.898 1334.62 624.75C1335.71 625.603 1336.25 626.71 1336.25 628.073H1332.44C1332.44 627.528 1332.27 627.08 1331.92 626.728C1331.56 626.368 1331.02 626.188 1330.27 626.188C1329.63 626.188 1329.13 626.333 1328.78 626.623C1328.43 626.913 1328.25 627.282 1328.25 627.73C1328.25 628.152 1328.45 628.495 1328.84 628.758C1329.25 629.013 1329.93 629.237 1330.87 629.431C1331.82 629.615 1332.62 629.826 1333.27 630.063C1335.29 630.802 1336.29 632.081 1336.29 633.9C1336.29 635.201 1335.73 636.255 1334.62 637.064C1333.5 637.864 1332.06 638.264 1330.29 638.264C1329.1 638.264 1328.04 638.053 1327.1 637.631C1326.18 637.2 1325.46 636.616 1324.93 635.877C1324.4 635.13 1324.14 634.326 1324.14 633.465H1327.75C1327.79 634.142 1328.04 634.66 1328.5 635.021C1328.97 635.381 1329.59 635.561 1330.37 635.561C1331.1 635.561 1331.65 635.425 1332.02 635.152C1332.4 634.871 1332.59 634.506 1332.59 634.058ZM1343.32 620.229V623.735H1345.76V626.53H1343.32V633.649C1343.32 634.177 1343.42 634.555 1343.62 634.783C1343.83 635.012 1344.21 635.126 1344.78 635.126C1345.21 635.126 1345.58 635.095 1345.9 635.034V637.921C1345.16 638.149 1344.39 638.264 1343.6 638.264C1340.92 638.264 1339.56 636.915 1339.51 634.216V626.53H1337.43V623.735H1339.51V620.229H1343.32Z" fill="black"/>
<path d="M381.987 388H383.487V386.5H381.987V388ZM381.987 422H380.487V423.502L381.989 423.5L381.987 422ZM469 421.892L453.989 413.251L454.011 430.571L469 421.892ZM313 389.5H381.987V386.5H313V389.5ZM380.487 388V422H383.487V388H380.487ZM381.989 423.5L455.502 423.409L455.498 420.409L381.985 420.5L381.989 423.5Z" fill="black"/>
<path d="M1018.88 397L1018.95 398.498L1018.9 398.501L1018.86 398.5L1018.88 397ZM1039 396L1024.45 405.394L1023.59 388.095L1039 396ZM949.021 394.5L1018.9 395.5L1018.86 398.5L948.979 397.5L949.021 394.5ZM1018.8 395.502L1025.44 395.172L1025.59 398.168L1018.95 398.498L1018.8 395.502Z" fill="black"/>
<path d="M839.39 395.022C839.39 396.876 839.095 398.476 838.506 399.821C837.917 401.157 837.091 402.203 836.028 402.958L839.456 405.648L837.729 407.243L833.681 404.026C833.048 404.185 832.38 404.264 831.677 404.264C830.166 404.264 828.825 403.895 827.656 403.156C826.487 402.409 825.578 401.35 824.927 399.979C824.286 398.599 823.956 397.004 823.938 395.193V393.809C823.938 391.963 824.259 390.333 824.901 388.918C825.542 387.503 826.448 386.422 827.617 385.675C828.794 384.919 830.139 384.541 831.651 384.541C833.198 384.541 834.556 384.915 835.725 385.662C836.902 386.409 837.808 387.485 838.44 388.892C839.073 390.289 839.39 391.924 839.39 393.796V395.022ZM836.858 393.783C836.858 391.524 836.406 389.784 835.5 388.562C834.604 387.332 833.321 386.716 831.651 386.716C830.06 386.716 828.803 387.327 827.88 388.549C826.966 389.762 826.496 391.449 826.47 393.611V395.022C826.47 397.219 826.927 398.951 827.841 400.216C828.764 401.482 830.042 402.115 831.677 402.115C833.312 402.115 834.578 401.521 835.474 400.335C836.371 399.14 836.832 397.43 836.858 395.207V393.783ZM851.716 402.589C850.767 403.706 849.374 404.264 847.537 404.264C846.017 404.264 844.856 403.824 844.057 402.945C843.266 402.058 842.866 400.748 842.857 399.017V389.735H845.296V398.951C845.296 401.113 846.175 402.194 847.933 402.194C849.796 402.194 851.035 401.5 851.65 400.111V389.735H854.089V404H851.769L851.716 402.589ZM857.161 396.736C857.161 395.338 857.434 394.082 857.979 392.965C858.532 391.849 859.297 390.988 860.272 390.381C861.257 389.775 862.377 389.472 863.634 389.472C865.577 389.472 867.146 390.144 868.341 391.489C869.545 392.833 870.147 394.622 870.147 396.854V397.026C870.147 398.415 869.879 399.663 869.343 400.77C868.815 401.869 868.055 402.726 867.062 403.341C866.078 403.956 864.944 404.264 863.661 404.264C861.727 404.264 860.158 403.591 858.954 402.247C857.759 400.902 857.161 399.122 857.161 396.907V396.736ZM859.613 397.026C859.613 398.608 859.978 399.878 860.708 400.836C861.446 401.794 862.43 402.273 863.661 402.273C864.9 402.273 865.884 401.79 866.614 400.823C867.343 399.847 867.708 398.485 867.708 396.736C867.708 395.171 867.334 393.906 866.587 392.939C865.849 391.963 864.865 391.476 863.634 391.476C862.43 391.476 861.459 391.955 860.721 392.913C859.982 393.871 859.613 395.242 859.613 397.026ZM876.515 386.281V389.735H879.178V391.621H876.515V400.467C876.515 401.038 876.633 401.469 876.871 401.759C877.108 402.04 877.512 402.181 878.083 402.181C878.365 402.181 878.751 402.128 879.244 402.022V404C878.602 404.176 877.978 404.264 877.372 404.264C876.282 404.264 875.46 403.934 874.906 403.275C874.353 402.616 874.076 401.68 874.076 400.467V391.621H871.479V389.735H874.076V386.281H876.515ZM887.958 404.264C886.024 404.264 884.451 403.631 883.238 402.365C882.025 401.091 881.419 399.39 881.419 397.263V396.815C881.419 395.4 881.687 394.139 882.223 393.031C882.768 391.915 883.524 391.045 884.491 390.421C885.466 389.788 886.521 389.472 887.655 389.472C889.509 389.472 890.951 390.083 891.979 391.304C893.007 392.526 893.521 394.275 893.521 396.551V397.566H883.858C883.893 398.973 884.302 400.111 885.084 400.981C885.875 401.842 886.877 402.273 888.09 402.273C888.951 402.273 889.681 402.097 890.278 401.746C890.876 401.394 891.399 400.928 891.847 400.348L893.337 401.508C892.142 403.345 890.349 404.264 887.958 404.264ZM887.655 391.476C886.67 391.476 885.844 391.836 885.176 392.557C884.508 393.269 884.095 394.271 883.937 395.562H891.083V395.378C891.012 394.139 890.678 393.181 890.081 392.504C889.483 391.818 888.674 391.476 887.655 391.476ZM896.277 407.823L894.893 406.874C895.719 405.723 896.149 404.536 896.185 403.314V401.113H898.571V403.024C898.571 403.912 898.351 404.8 897.912 405.688C897.481 406.575 896.936 407.287 896.277 407.823ZM915.775 396.235H911.267V404H908.722V384.805H915.077C917.239 384.805 918.9 385.297 920.06 386.281C921.229 387.266 921.813 388.698 921.813 390.579C921.813 391.774 921.488 392.816 920.838 393.704C920.196 394.591 919.3 395.255 918.148 395.694L922.657 403.842V404H919.941L915.775 396.235ZM911.267 394.165H915.156C916.413 394.165 917.41 393.84 918.148 393.189C918.896 392.539 919.269 391.669 919.269 390.579C919.269 389.393 918.913 388.483 918.201 387.85C917.498 387.217 916.479 386.896 915.143 386.888H911.267V394.165ZM924.912 407.823L923.527 406.874C924.354 405.723 924.784 404.536 924.819 403.314V401.113H927.206V403.024C927.206 403.912 926.986 404.8 926.546 405.688C926.116 406.575 925.571 407.287 924.912 407.823ZM940.086 404H937.555V384.805H940.086V404Z" fill="black"/>
<line x1="697" y1="395.5" x2="813.069" y2="395.5" stroke="black" stroke-width="3"/>
<line x1="700" y1="640.5" x2="797" y2="640.5" stroke="black" stroke-width="3"/>
<path d="M1039 642L1024 633.34V650.66L1039 642ZM964 643.5H1025.5V640.5H964V643.5Z" fill="black"/>
</g>
<defs>
<clipPath id="clip0">
<rect width="1500" height="856.762" fill="white"/>
</clipPath>
</defs>
</svg>
