<svg width="620" height="201" viewBox="0 0 620 201" fill="none" xmlns="http://www.w3.org/2000/svg">
<g clip-path="url(#clip0_1445_21)">
<mask id="mask0_1445_21" style="mask-type:luminance" maskUnits="userSpaceOnUse" x="0" y="0" width="620" height="201">
<path d="M620 0H0V201H620V0Z" fill="white"/>
</mask>
<g mask="url(#mask0_1445_21)">
<path d="M38.9122 26.5839C46.2549 26.5839 52.2072 20.6329 52.2072 13.292C52.2072 5.95102 46.2549 0 38.9122 0C31.5696 0 25.6172 5.95102 25.6172 13.292C25.6172 20.6329 31.5696 26.5839 38.9122 26.5839Z" fill="#929292"/>
<path d="M91.4433 107.307C98.7859 107.307 104.739 101.356 104.739 94.0155C104.739 86.6744 98.7859 80.7236 91.4433 80.7236C84.1007 80.7236 78.1484 86.6744 78.1484 94.0155C78.1484 101.356 84.1007 107.307 91.4433 107.307Z" fill="#929292"/>
<path d="M107.333 70.3502V42.4697L0 75.2134V103.094L107.333 70.3502Z" fill="#999999"/>
<path d="M107.333 135.513V107.632L0 140.375V168.256L107.333 135.513Z" fill="#999999"/>
<path d="M0 37.6062V9.72559L107.333 42.4691V70.3498L0 37.6062Z" fill="black"/>
<path d="M0 103.093V75.2129L107.333 107.632V135.513L0 103.093Z" fill="black"/>
<path d="M36.9668 156.586C44.3094 156.586 50.2617 150.635 50.2617 143.294C50.2617 135.953 44.3094 130.002 36.9668 130.002C29.6243 130.002 23.6719 135.953 23.6719 143.294C23.6719 150.635 29.6243 156.586 36.9668 156.586Z" fill="#75FB7A"/>
<path d="M0 168.256V140.375L107.333 173.119V201L0 168.256Z" fill="black"/>
<path d="M140.15 70.332H157.674L176.183 115.44H176.97L195.479 70.332H213.003V137.47H199.22V93.7714H198.662L181.269 137.142H171.884L154.491 93.6074H153.933V137.47H140.15V70.332Z" fill="black"/>
<path d="M238.797 138.421C235.581 138.421 232.715 137.863 230.199 136.749C227.683 135.612 225.692 133.941 224.226 131.733C222.783 129.504 222.061 126.728 222.061 123.407C222.061 120.609 222.575 118.26 223.603 116.358C224.631 114.457 226.031 112.927 227.803 111.769C229.575 110.61 231.588 109.736 233.842 109.146C236.117 108.556 238.502 108.141 240.996 107.9C243.927 107.595 246.29 107.31 248.084 107.048C249.878 106.764 251.18 106.349 251.989 105.802C252.799 105.256 253.203 104.447 253.203 103.377V103.18C253.203 101.104 252.547 99.4973 251.234 98.3609C249.944 97.2244 248.106 96.6562 245.721 96.6562C243.205 96.6562 241.203 97.2135 239.716 98.3281C238.228 99.4208 237.244 100.798 236.762 102.459L223.833 101.41C224.489 98.35 225.78 95.7055 227.705 93.4763C229.63 91.2253 232.113 89.4987 235.154 88.2967C238.217 87.0728 241.761 86.4609 245.787 86.4609C248.587 86.4609 251.267 86.7887 253.827 87.4444C256.408 88.1 258.695 89.1163 260.685 90.4932C262.698 91.87 264.284 93.6402 265.444 95.8038C266.603 97.9456 267.183 100.514 267.183 103.508V137.47H253.925V130.487H253.531C252.722 132.061 251.639 133.449 250.283 134.651C248.926 135.831 247.296 136.76 245.393 137.437C243.49 138.093 241.291 138.421 238.797 138.421ZM242.8 128.783C244.857 128.783 246.673 128.378 248.248 127.57C249.823 126.739 251.059 125.625 251.956 124.226C252.853 122.827 253.302 121.243 253.302 119.473V114.129C252.864 114.413 252.263 114.675 251.497 114.916C250.753 115.134 249.911 115.342 248.97 115.539C248.029 115.714 247.088 115.877 246.148 116.03C245.207 116.162 244.354 116.282 243.588 116.391C241.947 116.631 240.514 117.014 239.289 117.538C238.064 118.063 237.112 118.773 236.434 119.669C235.756 120.544 235.417 121.636 235.417 122.948C235.417 124.849 236.106 126.302 237.484 127.308C238.884 128.291 240.656 128.783 242.8 128.783Z" fill="black"/>
<path d="M278.045 137.47V87.1167H291.598V95.9024H292.123C293.042 92.7771 294.584 90.4168 296.75 88.8214C298.916 87.2042 301.41 86.3955 304.232 86.3955C304.932 86.3955 305.687 86.4392 306.497 86.5266C307.306 86.614 308.017 86.7342 308.63 86.8872V99.2789C307.973 99.0822 307.066 98.9074 305.906 98.7544C304.747 98.6015 303.685 98.525 302.723 98.525C300.666 98.525 298.829 98.973 297.21 99.8691C295.613 100.743 294.344 101.967 293.403 103.541C292.484 105.114 292.025 106.928 292.025 108.983V137.47H278.045Z" fill="black"/>
<path d="M316.079 137.47V70.332H330.059V95.5744H330.485C331.098 94.2194 331.984 92.8425 333.144 91.4438C334.325 90.0232 335.856 88.8431 337.738 87.9033C339.641 86.9417 342.004 86.4609 344.826 86.4609C348.502 86.4609 351.893 87.4225 354.999 89.3457C358.106 91.2471 360.589 94.121 362.449 97.9675C364.308 101.792 365.238 106.589 365.238 112.359C365.238 117.976 364.33 122.718 362.514 126.586C360.72 130.433 358.27 133.35 355.163 135.339C352.079 137.306 348.622 138.29 344.793 138.29C342.081 138.29 339.773 137.842 337.869 136.946C335.988 136.05 334.445 134.924 333.242 133.569C332.039 132.192 331.12 130.804 330.485 129.406H329.862V137.47H316.079ZM329.763 112.293C329.763 115.287 330.179 117.899 331.011 120.128C331.842 122.357 333.045 124.095 334.62 125.341C336.196 126.565 338.11 127.176 340.363 127.176C342.638 127.176 344.564 126.554 346.139 125.308C347.714 124.04 348.906 122.292 349.716 120.063C350.547 117.812 350.963 115.222 350.963 112.293C350.963 109.387 350.558 106.83 349.749 104.622C348.939 102.415 347.747 100.688 346.172 99.4427C344.597 98.1969 342.66 97.5741 340.363 97.5741C338.088 97.5741 336.163 98.1751 334.588 99.3771C333.034 100.579 331.842 102.284 331.011 104.491C330.179 106.698 329.763 109.299 329.763 112.293Z" fill="black"/>
<path d="M388.505 70.332V137.47H374.525V70.332H388.505Z" fill="black"/>
<path d="M422.634 138.454C417.449 138.454 412.986 137.405 409.245 135.307C405.526 133.187 402.66 130.192 400.647 126.324C398.634 122.434 397.628 117.834 397.628 112.523C397.628 107.343 398.634 102.797 400.647 98.8854C402.66 94.9734 405.493 91.9247 409.147 89.7392C412.822 87.5537 417.132 86.4609 422.076 86.4609C425.402 86.4609 428.497 86.9964 431.363 88.0673C434.251 89.1163 436.767 90.7008 438.911 92.8207C441.077 94.9406 442.761 97.6069 443.965 100.82C445.168 104.01 445.77 107.748 445.77 112.031V115.867H403.207V107.212H432.61C432.61 105.201 432.173 103.42 431.298 101.869C430.422 100.317 429.208 99.104 427.655 98.2298C426.123 97.3337 424.34 96.8857 422.306 96.8857C420.184 96.8857 418.302 97.3774 416.661 98.3609C415.043 99.3225 413.774 100.623 412.855 102.262C411.936 103.879 411.465 105.682 411.444 107.671V115.899C411.444 118.391 411.903 120.544 412.822 122.358C413.763 124.171 415.086 125.57 416.793 126.554C418.499 127.537 420.523 128.029 422.864 128.029C424.417 128.029 425.839 127.81 427.13 127.373C428.421 126.936 429.525 126.28 430.444 125.406C431.363 124.532 432.063 123.461 432.545 122.194L445.474 123.046C444.818 126.149 443.472 128.859 441.438 131.176C439.425 133.471 436.822 135.263 433.628 136.552C430.455 137.82 426.791 138.454 422.634 138.454Z" fill="black"/>
<path d="M455.154 137.47V70.332H481.67C486.746 70.332 491.077 71.239 494.665 73.0529C498.275 74.845 501.021 77.3911 502.902 80.6912C504.806 83.9694 505.757 87.8268 505.757 92.2634C505.757 96.7218 504.795 100.557 502.869 103.77C500.944 106.961 498.155 109.408 494.501 111.113C490.869 112.818 486.472 113.67 481.309 113.67H463.555V102.262H479.012C481.725 102.262 483.978 101.89 485.772 101.147C487.566 100.404 488.901 99.2897 489.776 97.8036C490.673 96.3175 491.121 94.4707 491.121 92.2634C491.121 90.0342 490.673 88.1547 489.776 86.6248C488.901 85.095 487.555 83.9367 485.739 83.1499C483.945 82.3413 481.681 81.937 478.946 81.937H469.364V137.47H455.154ZM491.449 106.917L508.153 137.47H492.467L476.124 106.917H491.449Z" fill="black"/>
<path d="M547.86 116.03V87.1162H561.84V137.47H548.418V128.324H547.893C546.756 131.274 544.863 133.645 542.216 135.437C539.591 137.229 536.386 138.125 532.601 138.125C529.232 138.125 526.267 137.361 523.707 135.831C521.148 134.301 519.146 132.126 517.702 129.307C516.28 126.488 515.558 123.111 515.536 119.177V87.1162H529.516V116.686C529.538 119.658 530.336 122.007 531.912 123.734C533.487 125.461 535.598 126.324 538.245 126.324C539.93 126.324 541.505 125.941 542.971 125.176C544.436 124.39 545.618 123.231 546.515 121.702C547.434 120.172 547.882 118.281 547.86 116.03Z" fill="black"/>
<path d="M586.978 108.359V137.47H572.998V87.1166H586.321V96.0006H586.912C588.028 93.072 589.898 90.7554 592.524 89.0507C595.149 87.3242 598.332 86.4609 602.073 86.4609C605.574 86.4609 608.626 87.2259 611.229 88.7557C613.833 90.2855 615.856 92.471 617.3 95.3122C618.744 98.1314 619.466 101.497 619.466 105.409V137.47H605.486V107.901C605.508 104.819 604.72 102.415 603.123 100.688C601.526 98.9401 599.328 98.0659 596.527 98.0659C594.646 98.0659 592.983 98.4702 591.539 99.2788C590.117 100.087 589.001 101.268 588.192 102.819C587.404 104.349 587 106.196 586.978 108.359Z" fill="black"/>
</g>
</g>
<defs>
<clipPath id="clip0_1445_21">
<rect width="620" height="201" fill="white"/>
</clipPath>
</defs>
</svg>
