<?xml version="1.0" encoding="UTF-8" standalone="no"?>
<svg
   version="1.1"
   id="Layer_1"
   x="0px"
   y="0px"
   viewBox="0 0 191.48904 62.505684"
   xml:space="preserve"
   sodipodi:docname="logo.svg"
   inkscape:version="1.1 (c68e22c387, 2021-05-23)"
   width="191.48903"
   height="62.505684"
   xmlns:inkscape="http://www.inkscape.org/namespaces/inkscape"
   xmlns:sodipodi="http://sodipodi.sourceforge.net/DTD/sodipodi-0.dtd"
   xmlns="http://www.w3.org/2000/svg"
   xmlns:svg="http://www.w3.org/2000/svg"
   xmlns:rdf="http://www.w3.org/1999/02/22-rdf-syntax-ns#"
   xmlns:cc="http://creativecommons.org/ns#"
   xmlns:dc="http://purl.org/dc/elements/1.1/"><metadata
   id="metadata74"><rdf:RDF><cc:Work
       rdf:about=""><dc:format>image/svg+xml</dc:format><dc:type
         rdf:resource="http://purl.org/dc/dcmitype/StillImage" /></cc:Work></rdf:RDF></metadata><defs
   id="defs72"><rect
     x="394.03842"
     y="-468.4679"
     width="699.05334"
     height="194.1004"
     id="rect1888" /><rect
     x="147.85077"
     y="72.939713"
     width="299.64423"
     height="68.011353"
     id="rect871" /><radialGradient
     gradientUnits="userSpaceOnUse"
     r="12.3271"
     cy="341.11139"
     cx="302.97549"
     id="radialGradient868">
			<stop
   id="stop864"
   style="stop-color:#ffffff;stop-opacity:1"
   offset="0" />
			<stop
   id="stop866"
   style="stop-color:#8195a6;stop-opacity:1"
   offset="1" />
		</radialGradient><rect
     x="418.71658"
     y="492.43002"
     width="468.86035"
     height="0"
     id="rect901" /><rect
     x="878.72662"
     y="218.34213"
     width="226.37927"
     height="58.93898"
     id="rect2346-9" /></defs><sodipodi:namedview
   inkscape:document-rotation="0"
   pagecolor="#ffffff"
   bordercolor="#666666"
   borderopacity="1"
   objecttolerance="10"
   gridtolerance="10"
   guidetolerance="10"
   inkscape:pageopacity="0"
   inkscape:pageshadow="2"
   inkscape:window-width="1898"
   inkscape:window-height="1144"
   id="namedview70"
   showgrid="false"
   inkscape:zoom="2.7408495"
   inkscape:cx="178.95911"
   inkscape:cy="16.418267"
   inkscape:window-x="738"
   inkscape:window-y="89"
   inkscape:window-maximized="0"
   inkscape:current-layer="Layer_1"
   inkscape:pagecheckerboard="0"
   width="265px"><inkscape:grid
     type="xygrid"
     id="grid874"
     originx="-91.604018"
     originy="-93.586158" /></sodipodi:namedview>
<style
   type="text/css"
   id="style2">
	.st0{fill:url(#SVGID_1_);}
	.st1{fill:url(#SVGID_2_);}
	.st2{fill:url(#SVGID_3_);}
	.st3{fill:url(#SVGID_4_);}
	.st4{fill:url(#SVGID_5_);}
	.st5{fill:#231F20;}
</style>

<text
   xml:space="preserve"
   id="text869"
   style="font-style:normal;font-weight:normal;font-size:40px;line-height:1.25;font-family:sans-serif;white-space:pre;shape-inside:url(#rect871);fill:#000000;fill-opacity:1;stroke:none"
   transform="translate(-91.604011,-93.586158)" /><circle
   style="fill:#929292;fill-opacity:1;stroke-width:0.299752"
   class="st0"
   cx="11.878355"
   cy="4.0564704"
   r="3.3572237"
   id="circle9-9" /><circle
   class="st1"
   cx="30.67281"
   cy="29.745228"
   r="3.3572237"
   id="circle16-4"
   style="fill:#929292;fill-opacity:1;stroke-width:0.299752" /><polygon
   class="st3"
   points="262,409.7 262,438.2 372.1,404.8 372.1,376.2 "
   id="polygon32-7"
   style="fill:#929292;fill-opacity:1"
   transform="matrix(0.2997521,0,0,0.2997521,-78.137418,-99.837613)" /><polygon
   class="st4"
   points="262,476.6 262,505.2 372.1,471.7 372.1,443.1 "
   id="polygon41-5"
   style="fill:#929292;fill-opacity:1"
   transform="matrix(0.2997521,0,0,0.2997521,-78.137418,-99.837613)" /><polygon
   points="372.1,376.2 372.1,404.8 262,371.3 262,342.7 "
   id="polygon43-9"
   style="fill:#000000;fill-opacity:1"
   transform="matrix(0.2997521,0,0,0.2997521,-78.137418,-99.837613)" /><polygon
   points="372.1,443.1 372.1,471.7 262,438.2 262,409.7 "
   id="polygon45-8"
   style="fill:#000000;fill-opacity:1"
   transform="matrix(0.2997521,0,0,0.2997521,-78.137418,-99.837613)" /><circle
   style="fill:#90ff99;fill-opacity:1;stroke-width:0.299752"
   class="st2"
   cx="13.048896"
   cy="44.305428"
   r="3.3572237"
   id="circle23-4" /><polygon
   points="372.1,510 372.1,538.6 262,505.2 262,476.6 "
   id="polygon47-2"
   style="fill:#000000;fill-opacity:1"
   transform="matrix(0.2997521,0,0,0.2997521,-78.137418,-99.837613)" /><g
   aria-label="sfasdf"
   id="text1886"
   style="font-size:40px;line-height:1.25;white-space:pre;shape-inside:url(#rect1888)"
   transform="translate(-30.003236,-25.916715)" /><g
   aria-label="MarbleRun"
   transform="matrix(1.0173626,0,0,1.0173626,-846.47602,-204.00948)"
   id="text2344-8"
   style="font-weight:bold;font-size:27.4572px;line-height:1.25;font-family:Roboto;-inkscape-font-specification:'Roboto Bold';font-variant-ligatures:none;white-space:pre;shape-inside:url(#rect2346-9)"><path
     d="m 885.72493,222.84649 5.01416,14.15762 4.98734,-14.15762 h 5.28229 v 19.52036 h -4.03545 v -5.33592 l 0.4022,-9.2105 -5.26889,14.54642 h -2.7618 l -5.25548,-14.53301 0.4022,9.19709 v 5.33592 h -4.02205 v -19.52036 z"
     id="path5295" /><path
     d="m 912.67267,242.36685 q -0.26814,-0.52287 -0.3888,-1.30047 -1.40772,1.5686 -3.66006,1.5686 -2.13169,0 -3.53941,-1.23343 -1.39431,-1.23342 -1.39431,-3.11038 0,-2.30598 1.70267,-3.53941 1.71607,-1.23343 4.94712,-1.24683 h 1.78311 v -0.83123 q 0,-1.00551 -0.52287,-1.60882 -0.50946,-0.6033 -1.62222,-0.6033 -0.9787,0 -1.54179,0.46924 -0.54968,0.46923 -0.54968,1.28705 h -3.87458 q 0,-1.26024 0.7776,-2.33279 0.7776,-1.07254 2.19872,-1.67585 1.42113,-0.61672 3.19083,-0.61672 2.68137,0 4.24997,1.35409 1.582,1.34069 1.582,3.78073 v 6.28781 q 0.0134,2.06465 0.5765,3.12379 v 0.22792 z m -3.20423,-2.69478 q 0.85803,0 1.582,-0.37539 0.72397,-0.3888 1.07255,-1.03233 v -2.49367 h -1.44794 q -2.90928,0 -3.09698,2.01103 l -0.0134,0.22791 q 0,0.72397 0.50946,1.19321 0.50945,0.46924 1.39431,0.46924 z"
     id="path5297" /><path
     d="m 927.13864,231.4939 q -0.791,-0.10725 -1.39431,-0.10725 -2.19872,0 -2.88247,1.48816 v 9.49204 h -3.87457 v -14.5062 h 3.66007 l 0.10725,1.72948 q 1.16639,-1.99762 3.23105,-1.99762 0.64353,0 1.20661,0.17429 z"
     id="path5299" /><path
     d="m 942.07386,235.24782 q 0,3.48577 -1.48816,5.44317 -1.48816,1.94399 -4.15612,1.94399 -2.3596,0 -3.76732,-1.80992 l -0.17429,1.54179 h -3.48577 v -20.5929 h 3.87457 v 7.38716 q 1.34069,-1.5686 3.526,-1.5686 2.65455,0 4.15612,1.9574 1.51497,1.94399 1.51497,5.4834 z m -3.87457,-0.28155 q 0,-2.19872 -0.69716,-3.20423 -0.69715,-1.01892 -2.07806,-1.01892 -1.85014,0 -2.5473,1.51497 v 5.72472 q 0.71056,1.52838 2.57411,1.52838 1.87696,0 2.46686,-1.85014 0.28155,-0.88485 0.28155,-2.69478 z"
     id="path5301" /><path
     d="m 948.54936,242.36685 h -3.88798 v -20.5929 h 3.88798 z"
     id="path5303" /><path
     d="m 958.41679,242.63498 q -3.19082,0 -5.20185,-1.9574 -1.99762,-1.95739 -1.99762,-5.21525 v -0.3754 q 0,-2.18531 0.84463,-3.90138 0.84463,-1.72949 2.38642,-2.65456 1.55519,-0.93848 3.5394,-0.93848 2.97632,0 4.67899,1.87696 1.71607,1.87696 1.71607,5.32251 v 1.58201 h -9.23731 q 0.1877,1.42113 1.12618,2.27916 0.95188,0.85804 2.39982,0.85804 2.23894,0 3.49919,-1.62223 l 1.90377,2.13169 q -0.87145,1.23343 -2.35961,1.93058 -1.48815,0.68375 -3.29808,0.68375 z m -0.44242,-11.90527 q -1.15299,0 -1.87696,0.7776 -0.71056,0.7776 -0.91167,2.22553 h 5.38955 v -0.30835 q -0.0268,-1.28706 -0.69715,-1.98421 -0.67034,-0.71057 -1.90377,-0.71057 z"
     id="path5305" /><path
     d="m 974.5184,234.47022 h -4.58513 v 7.89663 h -2.58752 v -19.52036 h 6.46209 q 3.29808,0 5.06779,1.50157 1.78311,1.50156 1.78311,4.37063 0,1.82333 -0.99211,3.17742 -0.9787,1.35409 -2.735,2.02443 l 4.58514,8.28542 v 0.16089 h -2.76181 z m -4.58513,-2.10487 h 3.95501 q 1.91718,0 3.04335,-0.99211 1.13959,-0.9921 1.13959,-2.65455 0,-1.80993 -1.08596,-2.77522 -1.07254,-0.96529 -3.11038,-0.9787 h -3.94161 z"
     style="font-weight:normal;-inkscape-font-specification:Roboto"
     id="path5307" /><path
     d="m 992.83214,240.93231 q -1.44794,1.70267 -4.24997,1.70267 -2.31938,0 -3.53941,-1.34068 -1.20661,-1.35409 -1.22002,-3.99524 v -9.43841 h 2.48027 v 9.37138 q 0,3.29808 2.68136,3.29808 2.84225,0 3.78073,-2.11828 v -10.55118 h 2.48027 v 14.5062 h -2.35961 z"
     style="font-weight:normal;-inkscape-font-specification:Roboto"
     id="path5309" /><path
     d="m 1001.3589,227.86065 0.08,1.82333 q 1.6625,-2.09147 4.3438,-2.09147 4.5986,0 4.6388,5.18845 v 9.58589 h -2.4803 v -9.5993 q -0.013,-1.5686 -0.7239,-2.31938 -0.6972,-0.75078 -2.1853,-0.75078 -1.2067,0 -2.1183,0.64352 -0.9117,0.64353 -1.4211,1.68927 v 10.33667 h -2.48031 v -14.5062 z"
     style="font-weight:normal;-inkscape-font-specification:Roboto"
     id="path5311" /></g></svg>
