<?xml version="1.0" encoding="UTF-8" standalone="no"?>
<svg
   xmlns:dc="http://purl.org/dc/elements/1.1/"
   xmlns:cc="http://creativecommons.org/ns#"
   xmlns:rdf="http://www.w3.org/1999/02/22-rdf-syntax-ns#"
   xmlns:svg="http://www.w3.org/2000/svg"
   xmlns="http://www.w3.org/2000/svg"
   xmlns:sodipodi="http://sodipodi.sourceforge.net/DTD/sodipodi-0.dtd"
   xmlns:inkscape="http://www.inkscape.org/namespaces/inkscape"
   width="803.97766"
   height="300"
   viewBox="0 0 803.97766 300"
   fill="none"
   version="1.1"
   id="svg65"
   sodipodi:docname="overview.svg"
   inkscape:version="1.0.1 (3bc2e813f5, 2020-09-07)">
  <metadata
     id="metadata71">
    <rdf:RDF>
      <cc:Work
         rdf:about="">
        <dc:format>image/svg+xml</dc:format>
        <dc:type
           rdf:resource="http://purl.org/dc/dcmitype/StillImage" />
        <dc:title />
      </cc:Work>
    </rdf:RDF>
  </metadata>
  <defs
     id="defs69">
    <rect
       x="645"
       y="10"
       width="360"
       height="145"
       id="rect904" />
    <rect
       x="104.57072"
       y="-55.725185"
       width="224.27667"
       height="48.157567"
       id="rect888" />
    <rect
       x="99.066995"
       y="211.20533"
       width="170.61538"
       height="42.653845"
       id="rect880" />
    <rect
       x="273.87973"
       y="-123.07562"
       width="190.20776"
       height="53.997604"
       id="rect872" />
    <rect
       x="104.57072"
       y="-55.725185"
       width="224.27667"
       height="48.157566"
       id="rect888-9" />
    <rect
       x="104.57072"
       y="-55.725185"
       width="224.27667"
       height="48.157566"
       id="rect901" />
    <rect
       x="104.57072"
       y="-55.725185"
       width="224.27667"
       height="48.157566"
       id="rect888-5" />
    <rect
       x="104.57072"
       y="-55.725185"
       width="224.27667"
       height="48.157566"
       id="rect932" />
  </defs>
  <sodipodi:namedview
     inkscape:document-rotation="0"
     pagecolor="#ffffff"
     bordercolor="#666666"
     borderopacity="1"
     objecttolerance="10"
     gridtolerance="10"
     guidetolerance="10"
     inkscape:pageopacity="0"
     inkscape:pageshadow="2"
     inkscape:window-width="2481"
     inkscape:window-height="1411"
     id="namedview67"
     showgrid="true"
     showguides="false"
     inkscape:zoom="2.0556468"
     inkscape:cx="362.46756"
     inkscape:cy="74.005259"
     inkscape:window-x="70"
     inkscape:window-y="-9"
     inkscape:window-maximized="1"
     inkscape:current-layer="svg65"
     inkscape:snap-bbox="true"
     inkscape:bbox-paths="false"
     inkscape:bbox-nodes="false">
    <inkscape:grid
       type="xygrid"
       id="grid921" />
  </sodipodi:namedview>
  <mask
     id="mask0"
     mask-type="alpha"
     maskUnits="userSpaceOnUse"
     x="657"
     y="220"
     width="180"
     height="57">
    <rect
       x="658.5"
       y="221.5"
       width="177"
       height="54"
       rx="8.5"
       fill="#8195a6"
       stroke="#8195a6"
       stroke-width="3"
       id="rect2" />
  </mask>
  <g
     mask="url(#mask0)"
     id="g7"
     transform="translate(-33.022332,-20)">
    <rect
       x="653"
       y="208"
       width="190"
       height="52"
       fill="#8195a6"
       id="rect5" />
  </g>
  <rect
     x="625.47766"
     y="201.5"
     width="177"
     height="97"
     rx="8.5"
     fill="#8195a6"
     fill-opacity="0.3"
     stroke="#8195a6"
     stroke-width="3"
     id="rect9" />
  <path
     d="m 686.01467,271.643 c 0,-0.498 -0.176,-0.879 -0.527,-1.143 -0.352,-0.27 -0.985,-0.551 -1.899,-0.844 -0.914,-0.299 -1.637,-0.592 -2.171,-0.879 -1.453,-0.785 -2.179,-1.842 -2.179,-3.173 0,-0.691 0.193,-1.306 0.58,-1.845 0.392,-0.545 0.952,-0.97 1.679,-1.275 0.732,-0.304 1.552,-0.457 2.46,-0.457 0.915,0 1.729,0.167 2.444,0.501 0.715,0.328 1.268,0.794 1.661,1.398 0.398,0.603 0.598,1.289 0.598,2.056 h -2.637 c 0,-0.586 -0.185,-1.04 -0.554,-1.362 -0.369,-0.328 -0.888,-0.492 -1.555,-0.492 -0.645,0 -1.146,0.138 -1.503,0.413 -0.358,0.27 -0.537,0.627 -0.537,1.072 0,0.416 0.208,0.765 0.624,1.046 0.422,0.281 1.041,0.545 1.855,0.791 1.5,0.451 2.593,1.011 3.278,1.679 0.686,0.668 1.029,1.5 1.029,2.496 0,1.107 -0.419,1.978 -1.257,2.61 -0.838,0.627 -1.966,0.941 -3.384,0.941 -0.984,0 -1.881,-0.179 -2.689,-0.536 -0.809,-0.364 -1.427,-0.859 -1.855,-1.486 -0.422,-0.627 -0.633,-1.353 -0.633,-2.179 h 2.646 c 0,1.412 0.843,2.118 2.531,2.118 0.627,0 1.116,-0.126 1.468,-0.378 0.351,-0.258 0.527,-0.615 0.527,-1.072 z m 8.649,3.533 c -1.395,0 -2.532,-0.428 -3.411,-1.283 -0.873,-0.856 -1.309,-1.996 -1.309,-3.419 v -0.246 c 0,-0.956 0.184,-1.808 0.554,-2.558 0.369,-0.756 0.89,-1.336 1.564,-1.74 0.68,-0.41 1.453,-0.616 2.32,-0.616 1.301,0 2.324,0.411 3.068,1.231 0.75,0.82 1.125,1.983 1.125,3.489 v 1.037 h -6.056 c 0.082,0.621 0.328,1.119 0.738,1.494 0.416,0.375 0.941,0.563 1.574,0.563 0.978,0 1.743,-0.355 2.293,-1.064 l 1.249,1.398 c -0.381,0.539 -0.897,0.961 -1.547,1.266 -0.651,0.298 -1.371,0.448 -2.162,0.448 z m -0.29,-7.805 c -0.504,0 -0.915,0.17 -1.231,0.51 -0.311,0.34 -0.51,0.826 -0.598,1.459 h 3.534 v -0.202 c -0.012,-0.563 -0.164,-0.996 -0.457,-1.301 -0.293,-0.311 -0.709,-0.466 -1.248,-0.466 z m 10.995,0.501 c -0.346,-0.047 -0.651,-0.07 -0.914,-0.07 -0.961,0 -1.591,0.325 -1.89,0.975 V 275 h -2.54 v -9.51 h 2.399 l 0.071,1.134 c 0.509,-0.873 1.215,-1.31 2.118,-1.31 0.281,0 0.545,0.039 0.791,0.115 z m 4.948,4.025 1.766,-6.407 h 2.655 l -3.208,9.51 h -2.426 l -3.208,-9.51 h 2.654 z m 8.226,3.103 h -2.548 v -9.51 h 2.548 z m -2.698,-11.971 c 0,-0.381 0.126,-0.694 0.378,-0.94 0.258,-0.246 0.607,-0.369 1.046,-0.369 0.434,0 0.779,0.123 1.037,0.369 0.258,0.246 0.387,0.559 0.387,0.94 0,0.387 -0.132,0.703 -0.396,0.95 -0.257,0.246 -0.6,0.369 -1.028,0.369 -0.428,0 -0.773,-0.123 -1.037,-0.369 -0.258,-0.247 -0.387,-0.563 -0.387,-0.95 z m 8.754,10.099 c 0.469,0 0.85,-0.129 1.143,-0.387 0.293,-0.258 0.445,-0.6 0.457,-1.028 h 2.382 c -0.006,0.644 -0.182,1.236 -0.528,1.775 -0.346,0.533 -0.82,0.95 -1.424,1.248 -0.597,0.293 -1.259,0.44 -1.986,0.44 -1.359,0 -2.432,-0.431 -3.217,-1.292 -0.785,-0.867 -1.177,-2.063 -1.177,-3.586 v -0.167 c 0,-1.465 0.389,-2.634 1.168,-3.507 0.78,-0.873 1.849,-1.31 3.208,-1.31 1.19,0 2.142,0.34 2.857,1.02 0.721,0.674 1.087,1.573 1.099,2.698 h -2.382 c -0.012,-0.492 -0.164,-0.89 -0.457,-1.195 -0.293,-0.311 -0.68,-0.466 -1.16,-0.466 -0.592,0 -1.041,0.217 -1.345,0.65 -0.299,0.428 -0.448,1.125 -0.448,2.092 v 0.264 c 0,0.978 0.149,1.682 0.448,2.109 0.299,0.428 0.753,0.642 1.362,0.642 z m 9.809,2.048 c -1.395,0 -2.532,-0.428 -3.41,-1.283 -0.874,-0.856 -1.31,-1.996 -1.31,-3.419 v -0.246 c 0,-0.956 0.185,-1.808 0.554,-2.558 0.369,-0.756 0.89,-1.336 1.564,-1.74 0.68,-0.41 1.453,-0.616 2.32,-0.616 1.301,0 2.324,0.411 3.068,1.231 0.75,0.82 1.125,1.983 1.125,3.489 v 1.037 h -6.056 c 0.082,0.621 0.328,1.119 0.738,1.494 0.416,0.375 0.941,0.563 1.574,0.563 0.978,0 1.743,-0.355 2.294,-1.064 l 1.248,1.398 c -0.381,0.539 -0.897,0.961 -1.547,1.266 -0.651,0.298 -1.371,0.448 -2.162,0.448 z m -0.29,-7.805 c -0.504,0 -0.914,0.17 -1.231,0.51 -0.31,0.34 -0.51,0.826 -0.597,1.459 h 3.533 v -0.202 c -0.012,-0.563 -0.164,-0.996 -0.457,-1.301 -0.293,-0.311 -0.709,-0.466 -1.248,-0.466 z m 14.88,-0.756 2.399,-4.412 h 3.032 l -3.726,6.346 3.823,6.451 h -3.068 l -2.46,-4.482 -2.461,4.482 h -3.068 l 3.823,-6.451 -3.726,-6.346 h 3.032 z"
     fill="#000000"
     id="path11" />
  <mask
     id="mask1"
     mask-type="alpha"
     maskUnits="userSpaceOnUse"
     x="389"
     y="220"
     width="180"
     height="57">
    <rect
       x="390.5"
       y="221.5"
       width="177"
       height="54"
       rx="8.5"
       fill="#8195a6"
       stroke="#8195a6"
       stroke-width="3"
       id="rect15" />
  </mask>
  <g
     mask="url(#mask1)"
     id="g20"
     transform="translate(-35.022332,-20)">
    <rect
       x="385"
       y="208"
       width="190"
       height="52"
       fill="#8195a6"
       id="rect18" />
  </g>
  <rect
     x="355.47766"
     y="201.5"
     width="177"
     height="97"
     rx="8.5"
     fill="#8195a6"
     fill-opacity="0.3"
     stroke="#8195a6"
     stroke-width="3"
     id="rect22" />
  <path
     d="m 413.98867,271.643 c 0,-0.498 -0.176,-0.879 -0.528,-1.143 -0.351,-0.27 -0.984,-0.551 -1.898,-0.844 -0.914,-0.299 -1.638,-0.592 -2.171,-0.879 -1.453,-0.785 -2.18,-1.842 -2.18,-3.173 0,-0.691 0.194,-1.306 0.58,-1.845 0.393,-0.545 0.953,-0.97 1.679,-1.275 0.733,-0.304 1.553,-0.457 2.461,-0.457 0.914,0 1.729,0.167 2.443,0.501 0.715,0.328 1.269,0.794 1.662,1.398 0.398,0.603 0.597,1.289 0.597,2.056 h -2.636 c 0,-0.586 -0.185,-1.04 -0.554,-1.362 -0.369,-0.328 -0.888,-0.492 -1.556,-0.492 -0.644,0 -1.145,0.138 -1.503,0.413 -0.357,0.27 -0.536,0.627 -0.536,1.072 0,0.416 0.208,0.765 0.624,1.046 0.422,0.281 1.04,0.545 1.855,0.791 1.5,0.451 2.592,1.011 3.278,1.679 0.685,0.668 1.028,1.5 1.028,2.496 0,1.107 -0.419,1.978 -1.257,2.61 -0.837,0.627 -1.965,0.941 -3.383,0.941 -0.985,0 -1.881,-0.179 -2.69,-0.536 -0.808,-0.364 -1.427,-0.859 -1.854,-1.486 -0.422,-0.627 -0.633,-1.353 -0.633,-2.179 h 2.645 c 0,1.412 0.844,2.118 2.532,2.118 0.627,0 1.116,-0.126 1.467,-0.378 0.352,-0.258 0.528,-0.615 0.528,-1.072 z m 8.648,3.533 c -1.394,0 -2.531,-0.428 -3.41,-1.283 -0.873,-0.856 -1.31,-1.996 -1.31,-3.419 v -0.246 c 0,-0.956 0.185,-1.808 0.554,-2.558 0.369,-0.756 0.891,-1.336 1.565,-1.74 0.679,-0.41 1.453,-0.616 2.32,-0.616 1.301,0 2.323,0.411 3.067,1.231 0.75,0.82 1.125,1.983 1.125,3.489 v 1.037 h -6.055 c 0.082,0.621 0.328,1.119 0.738,1.494 0.416,0.375 0.94,0.563 1.573,0.563 0.979,0 1.743,-0.355 2.294,-1.064 l 1.248,1.398 c -0.381,0.539 -0.896,0.961 -1.547,1.266 -0.65,0.298 -1.371,0.448 -2.162,0.448 z m -0.29,-7.805 c -0.504,0 -0.914,0.17 -1.23,0.51 -0.311,0.34 -0.51,0.826 -0.598,1.459 h 3.533 v -0.202 c -0.012,-0.563 -0.164,-0.996 -0.457,-1.301 -0.293,-0.311 -0.709,-0.466 -1.248,-0.466 z m 10.995,0.501 c -0.345,-0.047 -0.65,-0.07 -0.914,-0.07 -0.961,0 -1.591,0.325 -1.889,0.975 V 275 h -2.54 v -9.51 h 2.399 l 0.07,1.134 c 0.51,-0.873 1.216,-1.31 2.118,-1.31 0.282,0 0.545,0.039 0.791,0.115 z m 4.948,4.025 1.767,-6.407 h 2.654 l -3.208,9.51 h -2.425 l -3.208,-9.51 h 2.654 z m 8.227,3.103 h -2.549 v -9.51 h 2.549 z m -2.698,-11.971 c 0,-0.381 0.126,-0.694 0.378,-0.94 0.258,-0.246 0.606,-0.369 1.046,-0.369 0.433,0 0.779,0.123 1.037,0.369 0.258,0.246 0.386,0.559 0.386,0.94 0,0.387 -0.131,0.703 -0.395,0.95 -0.258,0.246 -0.601,0.369 -1.028,0.369 -0.428,0 -0.774,-0.123 -1.037,-0.369 -0.258,-0.247 -0.387,-0.563 -0.387,-0.95 z m 8.754,10.099 c 0.468,0 0.849,-0.129 1.142,-0.387 0.293,-0.258 0.446,-0.6 0.457,-1.028 h 2.382 c -0.006,0.644 -0.181,1.236 -0.527,1.775 -0.346,0.533 -0.82,0.95 -1.424,1.248 -0.598,0.293 -1.26,0.44 -1.986,0.44 -1.36,0 -2.432,-0.431 -3.217,-1.292 -0.785,-0.867 -1.178,-2.063 -1.178,-3.586 v -0.167 c 0,-1.465 0.39,-2.634 1.169,-3.507 0.779,-0.873 1.849,-1.31 3.208,-1.31 1.19,0 2.142,0.34 2.857,1.02 0.72,0.674 1.086,1.573 1.098,2.698 h -2.382 c -0.011,-0.492 -0.164,-0.89 -0.457,-1.195 -0.293,-0.311 -0.679,-0.466 -1.16,-0.466 -0.592,0 -1.04,0.217 -1.345,0.65 -0.298,0.428 -0.448,1.125 -0.448,2.092 v 0.264 c 0,0.978 0.15,1.682 0.448,2.109 0.299,0.428 0.753,0.642 1.363,0.642 z m 9.808,2.048 c -1.394,0 -2.531,-0.428 -3.41,-1.283 -0.873,-0.856 -1.309,-1.996 -1.309,-3.419 v -0.246 c 0,-0.956 0.184,-1.808 0.553,-2.558 0.369,-0.756 0.891,-1.336 1.565,-1.74 0.679,-0.41 1.453,-0.616 2.32,-0.616 1.301,0 2.323,0.411 3.067,1.231 0.75,0.82 1.125,1.983 1.125,3.489 v 1.037 h -6.055 c 0.082,0.621 0.328,1.119 0.738,1.494 0.416,0.375 0.941,0.563 1.573,0.563 0.979,0 1.743,-0.355 2.294,-1.064 l 1.248,1.398 c -0.381,0.539 -0.896,0.961 -1.547,1.266 -0.65,0.298 -1.371,0.448 -2.162,0.448 z m -0.29,-7.805 c -0.504,0 -0.914,0.17 -1.23,0.51 -0.311,0.34 -0.51,0.826 -0.598,1.459 h 3.533 v -0.202 c -0.011,-0.563 -0.164,-0.996 -0.457,-1.301 -0.293,-0.311 -0.709,-0.466 -1.248,-0.466 z m 10.301,7.629 v -12.797 h 4.482 c 1.553,0 2.731,0.299 3.534,0.897 0.802,0.591 1.204,1.462 1.204,2.61 0,0.627 -0.161,1.181 -0.484,1.661 -0.322,0.475 -0.77,0.823 -1.344,1.046 0.656,0.164 1.172,0.495 1.547,0.993 0.38,0.498 0.571,1.108 0.571,1.828 0,1.231 -0.393,2.162 -1.178,2.795 -0.785,0.633 -1.904,0.955 -3.357,0.967 z m 2.637,-5.572 v 3.454 h 2.259 c 0.621,0 1.104,-0.147 1.45,-0.44 0.351,-0.298 0.527,-0.709 0.527,-1.23 0,-1.172 -0.606,-1.767 -1.819,-1.784 z m 0,-1.864 h 1.951 c 1.33,-0.023 1.995,-0.553 1.995,-1.59 0,-0.58 -0.17,-0.996 -0.51,-1.248 -0.334,-0.258 -0.864,-0.387 -1.591,-0.387 h -1.845 z"
     fill="#000000"
     id="path24" />
  <mask
     id="mask2"
     mask-type="alpha"
     maskUnits="userSpaceOnUse"
     x="121"
     y="220"
     width="180"
     height="57">
    <rect
       x="122.5"
       y="221.5"
       width="177"
       height="54"
       rx="8.5"
       fill="#8195a6"
       stroke="#8195a6"
       stroke-width="3"
       id="rect28" />
  </mask>
  <g
     mask="url(#mask2)"
     id="g33"
     transform="translate(-33.022332,-20)">
    <rect
       x="117"
       y="208"
       width="190"
       height="52"
       fill="#8195a6"
       id="rect31" />
  </g>
  <rect
     x="89.477669"
     y="201.5"
     width="177"
     height="97"
     rx="8.5"
     fill="#8195a6"
     fill-opacity="0.3"
     stroke="#8195a6"
     stroke-width="3"
     id="rect35" />
  <path
     d="m 143.18067,271.643 c 0,-0.498 -0.176,-0.879 -0.527,-1.143 -0.352,-0.27 -0.985,-0.551 -1.899,-0.844 -0.914,-0.299 -1.637,-0.592 -2.171,-0.879 -1.453,-0.785 -2.179,-1.842 -2.179,-3.173 0,-0.691 0.193,-1.306 0.58,-1.845 0.392,-0.545 0.952,-0.97 1.679,-1.275 0.732,-0.304 1.552,-0.457 2.46,-0.457 0.915,0 1.729,0.167 2.444,0.501 0.715,0.328 1.268,0.794 1.661,1.398 0.398,0.603 0.598,1.289 0.598,2.056 h -2.637 c 0,-0.586 -0.185,-1.04 -0.554,-1.362 -0.369,-0.328 -0.887,-0.492 -1.555,-0.492 -0.645,0 -1.146,0.138 -1.503,0.413 -0.358,0.27 -0.537,0.627 -0.537,1.072 0,0.416 0.208,0.765 0.625,1.046 0.421,0.281 1.04,0.545 1.854,0.791 1.5,0.451 2.593,1.011 3.278,1.679 0.686,0.668 1.029,1.5 1.029,2.496 0,1.107 -0.419,1.978 -1.257,2.61 -0.838,0.627 -1.966,0.941 -3.384,0.941 -0.984,0 -1.881,-0.179 -2.689,-0.536 -0.809,-0.364 -1.427,-0.859 -1.855,-1.486 -0.422,-0.627 -0.633,-1.353 -0.633,-2.179 h 2.646 c 0,1.412 0.844,2.118 2.531,2.118 0.627,0 1.116,-0.126 1.468,-0.378 0.351,-0.258 0.527,-0.615 0.527,-1.072 z m 8.649,3.533 c -1.395,0 -2.532,-0.428 -3.411,-1.283 -0.873,-0.856 -1.309,-1.996 -1.309,-3.419 v -0.246 c 0,-0.956 0.184,-1.808 0.554,-2.558 0.369,-0.756 0.89,-1.336 1.564,-1.74 0.68,-0.41 1.453,-0.616 2.32,-0.616 1.301,0 2.324,0.411 3.068,1.231 0.75,0.82 1.125,1.983 1.125,3.489 v 1.037 h -6.056 c 0.082,0.621 0.328,1.119 0.738,1.494 0.416,0.375 0.941,0.563 1.574,0.563 0.978,0 1.743,-0.355 2.293,-1.064 l 1.249,1.398 c -0.381,0.539 -0.897,0.961 -1.547,1.266 -0.651,0.298 -1.371,0.448 -2.162,0.448 z m -0.29,-7.805 c -0.504,0 -0.915,0.17 -1.231,0.51 -0.31,0.34 -0.51,0.826 -0.598,1.459 h 3.534 v -0.202 c -0.012,-0.563 -0.164,-0.996 -0.457,-1.301 -0.293,-0.311 -0.709,-0.466 -1.248,-0.466 z m 10.995,0.501 c -0.346,-0.047 -0.651,-0.07 -0.914,-0.07 -0.961,0 -1.591,0.325 -1.89,0.975 V 275 h -2.54 v -9.51 h 2.399 l 0.071,1.134 c 0.509,-0.873 1.215,-1.31 2.118,-1.31 0.281,0 0.545,0.039 0.791,0.115 z m 4.948,4.025 1.766,-6.407 h 2.655 l -3.208,9.51 h -2.426 l -3.208,-9.51 h 2.654 z m 8.226,3.103 h -2.548 v -9.51 h 2.548 z m -2.698,-11.971 c 0,-0.381 0.126,-0.694 0.378,-0.94 0.258,-0.246 0.607,-0.369 1.046,-0.369 0.434,0 0.779,0.123 1.037,0.369 0.258,0.246 0.387,0.559 0.387,0.94 0,0.387 -0.132,0.703 -0.396,0.95 -0.257,0.246 -0.6,0.369 -1.028,0.369 -0.428,0 -0.773,-0.123 -1.037,-0.369 -0.258,-0.247 -0.387,-0.563 -0.387,-0.95 z m 8.754,10.099 c 0.469,0 0.85,-0.129 1.143,-0.387 0.293,-0.258 0.445,-0.6 0.457,-1.028 h 2.382 c -0.006,0.644 -0.182,1.236 -0.528,1.775 -0.345,0.533 -0.82,0.95 -1.424,1.248 -0.597,0.293 -1.259,0.44 -1.986,0.44 -1.359,0 -2.432,-0.431 -3.217,-1.292 -0.785,-0.867 -1.177,-2.063 -1.177,-3.586 v -0.167 c 0,-1.465 0.389,-2.634 1.168,-3.507 0.78,-0.873 1.849,-1.31 3.208,-1.31 1.19,0 2.142,0.34 2.857,1.02 0.721,0.674 1.087,1.573 1.099,2.698 h -2.382 c -0.012,-0.492 -0.164,-0.89 -0.457,-1.195 -0.293,-0.311 -0.68,-0.466 -1.16,-0.466 -0.592,0 -1.041,0.217 -1.345,0.65 -0.299,0.428 -0.448,1.125 -0.448,2.092 v 0.264 c 0,0.978 0.149,1.682 0.448,2.109 0.299,0.428 0.753,0.642 1.362,0.642 z m 9.809,2.048 c -1.395,0 -2.532,-0.428 -3.41,-1.283 -0.874,-0.856 -1.31,-1.996 -1.31,-3.419 v -0.246 c 0,-0.956 0.185,-1.808 0.554,-2.558 0.369,-0.756 0.89,-1.336 1.564,-1.74 0.68,-0.41 1.453,-0.616 2.32,-0.616 1.301,0 2.324,0.411 3.068,1.231 0.75,0.82 1.125,1.983 1.125,3.489 v 1.037 h -6.056 c 0.082,0.621 0.328,1.119 0.738,1.494 0.416,0.375 0.941,0.563 1.574,0.563 0.978,0 1.743,-0.355 2.294,-1.064 l 1.248,1.398 c -0.381,0.539 -0.897,0.961 -1.547,1.266 -0.651,0.298 -1.371,0.448 -2.162,0.448 z m -0.29,-7.805 c -0.504,0 -0.914,0.17 -1.231,0.51 -0.31,0.34 -0.51,0.826 -0.597,1.459 h 3.533 v -0.202 c -0.012,-0.563 -0.164,-0.996 -0.457,-1.301 -0.293,-0.311 -0.709,-0.466 -1.248,-0.466 z m 17.525,4.992 h -4.623 l -0.879,2.637 h -2.804 l 4.764,-12.797 h 2.443 l 4.79,12.797 h -2.803 z m -3.911,-2.135 h 3.199 l -1.608,-4.79 z"
     fill="#000000"
     id="path37" />
  <path
     d="m 414.97767,72 -11.154,2.9886 8.165,8.1654 z m -113,113 11.154,-2.989 -8.165,-8.165 z m 105.929,-107.3431 -100.272,100.2721 1.414,1.414 100.272,-100.2719 z"
     fill="#00010d"
     id="path41" />
  <path
     d="m 473.97767,73 2.989,11.154 8.165,-8.1654 z m 112,112 -2.989,-11.154 -8.165,8.165 z m -106.343,-104.929 99.272,99.272 1.414,-1.414 -99.272,-99.2721 z"
     fill="#00010d"
     id="path43" />
  <path
     d="m 443.97767,73 -5.774,10 h 11.548 z m 0,114 5.773,-10 h -11.547 z m -1,-105 v 96 h 2 V 82 Z"
     fill="#00010d"
     id="path45" />
  <rect
     x="357.47766"
     y="1.5"
     width="177"
     height="57"
     rx="8.5"
     fill="#d44fea"
     fill-opacity="0.3"
     stroke="#d44fea"
     stroke-width="3"
     id="rect47"
     style="fill:none" />
  <path
     d="m 337.97767,30 -10,-5.7735 v 11.547 z M 75.977668,31 H 328.97767 V 29 H 75.977668 Z"
     fill="#00010d"
     id="path51" />
  <path
     d="M 163.81731,109.52227 V 66.094578 H 198.9563 V 91.15843 c 0,8.918 -13.17712,5.33561 -13.17712,5.33561 0,0 3.33374,13.02823 -5.79347,13.02823 z M 203.34867,92.98908 V 61.751861 h -43.92373 v 52.112899 h 22.37728 c 6.94591,0 21.54645,-15.68375 21.54645,-20.87568 z m -10.98093,-3.00915 h -17.56949 v -2.17162 h 17.56949 z m 0,-8.68573 h -17.56949 v 2.17162 h 17.56949 z m 0,-6.514113 h -17.56949 v 2.171396 h 17.56949 z m -19.76568,0 h -2.19619 v 2.171396 h 2.19619 z m 0,6.514113 h -2.19619 v 2.17162 h 2.19619 z m 0,6.51411 h -2.19619 v 2.17162 h 2.19619 z"
     fill="#00010d"
     id="path53"
     style="stroke-width:0.74447" />
  <path
     d="m 46.437733,19.813907 c 0,9.446441 -7.659782,17.108696 -17.108639,17.108696 -9.448856,0 -17.108638,-7.662255 -17.108638,-17.108696 0,-9.451272 7.659782,-17.111054 17.108638,-17.111054 9.448857,0 17.108639,7.659782 17.108639,17.111054 z m -3.905658,17.548575 c -3.680801,2.778961 -8.246364,4.448246 -13.202981,4.448246 -4.961504,0 -9.529539,-1.674174 -13.215172,-4.453134 C 6.161525,41.739878 0,55.385211 0,61.361043 h 58.65819 c 0,-5.922062 -6.354638,-19.567395 -16.126115,-23.998561 z"
     fill="#00010d"
     id="path55"
     style="stroke-width:0.57508" />
  <path
     d="m 555.97767,265 10,5.774 v -11.548 z m 48,0 -10,-5.774 v 11.547 z m -39,1 h 30 v -2 h -30 z"
     fill="#00010d"
     id="path61" />
  <path
     d="m 287.97767,265 10,5.774 v -11.548 z m 48,0 -10,-5.774 v 11.547 z m -39,1 h 30 v -2 h -30 z"
     fill="#00010d"
     id="path63" />
  <text
     xml:space="preserve"
     style="font-style:normal;font-weight:normal;font-size:18.6667px;line-height:1.25;font-family:sans-serif;letter-spacing:3.79px;fill:#000000;fill-opacity:1;stroke:none"
     x="371.73459"
     y="36.544281"
     id="text898"><tspan
       sodipodi:role="line"
       id="tspan896"
       x="371.73459"
       y="36.544281"
       style="font-style:normal;font-variant:normal;font-weight:normal;font-stretch:normal;font-size:18.6667px;font-family:Roboto;-inkscape-font-specification:Roboto" /></text>
  <text
     xml:space="preserve"
     style="font-style:normal;font-weight:normal;font-size:40px;line-height:1.25;font-family:sans-serif;fill:#000000;fill-opacity:1;stroke:none"
     x="383.87808"
     y="24.754768"
     id="text868"><tspan
       sodipodi:role="line"
       id="tspan866"
       x="383.87808"
       y="24.754768" /></text>
  <g
     aria-label="MARBLERUN"
     transform="translate(105.62016,143.4522)"
     id="text870"
     style="font-style:normal;font-variant:normal;font-weight:normal;font-stretch:normal;font-size:18.6667px;line-height:1.25;font-family:Roboto;-inkscape-font-specification:'Roboto, Normal';font-variant-ligatures:normal;font-variant-caps:normal;font-variant-numeric:normal;font-variant-east-asian:normal;letter-spacing:3px;white-space:pre;shape-inside:url(#rect872);fill:#000000;fill-opacity:1;stroke:none">
    <path
       d="m 277.67969,-120.01367 4.33855,10.82815 4.33855,-10.82815 h 2.26954 v 13.27086 h -1.75 v -5.16798 l 0.16406,-5.57813 -4.35678,10.74611 h -1.33985 l -4.34766,-10.71877 0.17318,5.55079 v 5.16798 h -1.75001 v -13.27086 z"
       style="shape-inside:url(#rect872)"
       id="path900" />
    <path
       d="m 302.20838,-110.20636 h -5.55991 l -1.2487,3.46355 h -1.80469 l 5.06772,-13.27086 h 1.53125 l 5.07684,13.27086 h -1.79558 z m -5.03126,-1.4401 h 4.51173 l -2.26042,-6.20705 z"
       style="shape-inside:url(#rect872)"
       id="path902" />
    <path
       d="m 314.92454,-112.11131 h -3.11719 v 5.3685 h -1.75912 v -13.27086 h 4.39324 q 2.24219,0 3.44532,1.02084 1.21224,1.02083 1.21224,2.97136 0,1.23958 -0.67448,2.16016 -0.66537,0.92057 -1.85938,1.3763 l 3.11719,5.63283 v 0.10937 h -1.8776 z m -3.11719,-1.43099 h 2.68881 q 1.30338,0 2.06901,-0.67448 0.77474,-0.67448 0.77474,-1.80469 0,-1.23047 -0.73828,-1.88672 -0.72917,-0.65625 -2.11459,-0.66537 h -2.67969 z"
       style="shape-inside:url(#rect872)"
       id="path904" />
    <path
       d="m 324.55086,-106.74281 v -13.27086 h 4.33855 q 2.16016,0 3.24479,0.89323 1.09376,0.89324 1.09376,2.64324 0,0.92969 -0.52865,1.64974 -0.52865,0.71094 -1.44011,1.10287 1.07553,0.30078 1.69532,1.14844 0.62891,0.83854 0.62891,2.00521 0,1.78646 -1.15756,2.8073 -1.15755,1.02083 -3.27214,1.02083 z m 1.75,-6.20704 v 4.77605 h 2.88933 q 1.22136,0 1.92318,-0.62891 0.71094,-0.63802 0.71094,-1.75 0,-2.39714 -2.60678,-2.39714 z m 0,-1.40365 h 2.64323 q 1.14844,0 1.83204,-0.57422 0.69271,-0.57422 0.69271,-1.5586 0,-1.09375 -0.63802,-1.58594 -0.63802,-0.5013 -1.94141,-0.5013 h -2.58855 z"
       style="shape-inside:url(#rect872)"
       id="path906" />
    <path
       d="m 340.93109,-108.1738 h 6.28907 v 1.43099 h -8.04819 v -13.27086 h 1.75912 z"
       style="shape-inside:url(#rect872)"
       id="path908" />
    <path
       d="m 359.71758,-112.87693 h -5.75131 v 4.70313 h 6.681 v 1.43099 h -8.43101 v -13.27086 h 8.33986 v 1.44011 h -6.58985 v 4.26563 h 5.75131 z"
       style="shape-inside:url(#rect872)"
       id="path910" />
    <path
       d="m 370.92071,-112.26626 h -3.85547 v 5.52345 h -1.13021 v -13.27086 h 4.3112 q 2.12371,0 3.31772,1.02995 1.19401,1.02995 1.19401,2.88022 0,1.27604 -0.7474,2.2513 -0.74739,0.97527 -2.00521,1.34896 l 3.31772,5.64194 v 0.11849 h -1.19402 z m -3.85547,-0.95703 h 3.4362 q 1.41277,0 2.26954,-0.80208 0.85677,-0.80209 0.85677,-2.07813 0,-1.40365 -0.89323,-2.17839 -0.89323,-0.77474 -2.50651,-0.77474 h -3.16277 z"
       style="font-style:normal;font-variant:normal;font-weight:300;font-stretch:normal;font-size:18.6667px;font-family:Roboto;-inkscape-font-specification:'Roboto, Light';font-variant-ligatures:normal;font-variant-caps:normal;font-variant-numeric:normal;font-variant-east-asian:normal"
       id="path912" />
    <path
       d="m 389.9533,-120.01367 v 9.05992 q -0.009,1.33984 -0.59245,2.33333 -0.58333,0.99349 -1.64974,1.53126 -1.0573,0.52864 -2.4336,0.52864 -2.09636,0 -3.36329,-1.13932 -1.25781,-1.14844 -1.30339,-3.17188 v -9.14195 h 1.11199 v 8.97788 q 0,1.67709 0.95703,2.60678 0.95703,0.92057 2.59766,0.92057 1.64063,0 2.58855,-0.92968 0.95703,-0.92969 0.95703,-2.58855 v -8.987 z"
       style="font-style:normal;font-variant:normal;font-weight:300;font-stretch:normal;font-size:18.6667px;font-family:Roboto;-inkscape-font-specification:'Roboto, Light';font-variant-ligatures:normal;font-variant-caps:normal;font-variant-numeric:normal;font-variant-east-asian:normal"
       id="path914" />
    <path
       d="m 405.95983,-106.74281 h -1.12109 l -7.62892,-11.35679 v 11.35679 h -1.13021 v -13.27086 h 1.13021 l 7.63803,11.36591 v -11.36591 h 1.11198 z"
       style="font-style:normal;font-variant:normal;font-weight:300;font-stretch:normal;font-size:18.6667px;font-family:Roboto;-inkscape-font-specification:'Roboto, Light';font-variant-ligatures:normal;font-variant-caps:normal;font-variant-numeric:normal;font-variant-east-asian:normal"
       id="path916" />
  </g>
  <text
     xml:space="preserve"
     id="text878"
     style="fill:#000000;fill-opacity:1;line-height:1.25;stroke:none;font-family:Roboto;font-style:normal;font-weight:normal;font-size:40px;white-space:pre;shape-inside:url(#rect880);-inkscape-font-specification:'Roboto, Normal';font-stretch:normal;font-variant:normal;font-variant-ligatures:normal;font-variant-caps:normal;font-variant-numeric:normal;font-variant-east-asian:normal;" />
  <g
     aria-label="EDGELESS RT"
     transform="translate(15.861587,248.36113)"
     id="text886"
     style="font-style:normal;font-weight:normal;font-size:40px;line-height:1.25;font-family:sans-serif;white-space:pre;shape-inside:url(#rect888);fill:#ffffff;fill-opacity:1;stroke:none">
    <path
       d="m 113.612,-25.365522 h -5.75132 v 4.703133 h 6.681 v 1.430992 h -8.431 v -13.270857 h 8.33986 v 1.440107 h -6.58986 v 4.265632 h 5.75132 z"
       style="font-style:normal;font-variant:normal;font-weight:normal;font-stretch:normal;font-size:18.6667px;font-family:Roboto;-inkscape-font-specification:'Roboto, Normal';font-variant-ligatures:normal;font-variant-caps:normal;font-variant-numeric:normal;font-variant-east-asian:normal;fill:#ffffff"
       id="path961" />
    <path
       d="m 116.72007,-19.231397 v -13.270857 h 3.7461 q 1.73178,0 3.06251,0.765626 1.33073,0.765627 2.05078,2.17839 0.72917,1.412763 0.73829,3.244797 v 0.847658 q 0,1.877608 -0.72917,3.290371 -0.72005,1.412763 -2.06901,2.169274 -1.33985,0.756512 -3.12631,0.774741 z m 1.75001,-11.83075 v 10.399758 h 1.84115 q 2.02344,0 3.14453,-1.257815 1.13021,-1.257814 1.13021,-3.582037 v -0.774741 q 0,-2.260421 -1.0664,-3.509121 -1.0573,-1.257815 -3.00782,-1.276044 z"
       style="font-style:normal;font-variant:normal;font-weight:normal;font-stretch:normal;font-size:18.6667px;font-family:Roboto;-inkscape-font-specification:'Roboto, Normal';font-variant-ligatures:normal;font-variant-caps:normal;font-variant-numeric:normal;font-variant-east-asian:normal;fill:#ffffff"
       id="path963" />
    <path
       d="m 138.75918,-20.972285 q -0.67448,0.966147 -1.88673,1.449221 -1.20312,0.473959 -2.80729,0.473959 -1.6224,0 -2.88022,-0.756511 -1.25781,-0.765627 -1.95052,-2.169275 -0.6836,-1.403649 -0.70182,-3.253912 v -1.157555 q 0,-2.998703 1.39453,-4.648445 1.40365,-1.649743 3.93751,-1.649743 2.07813,0 3.34505,1.066408 1.26693,1.057294 1.54949,3.007818 h -1.75001 q -0.49219,-2.634119 -3.13542,-2.634119 -1.75912,0 -2.67058,1.239585 -0.90234,1.230471 -0.91146,3.572923 v 1.084638 q 0,2.233077 1.02084,3.554694 1.02083,1.312502 2.76172,1.312502 0.98438,0 1.72266,-0.21875 0.73828,-0.218751 1.22136,-0.738283 v -2.980474 h -3.07162 v -1.421878 h 4.81251 z"
       style="font-style:normal;font-variant:normal;font-weight:normal;font-stretch:normal;font-size:18.6667px;font-family:Roboto;-inkscape-font-specification:'Roboto, Normal';font-variant-ligatures:normal;font-variant-caps:normal;font-variant-numeric:normal;font-variant-east-asian:normal;fill:#ffffff"
       id="path965" />
    <path
       d="m 149.17717,-25.365522 h -5.75132 v 4.703133 h 6.681 v 1.430992 h -8.431 v -13.270857 h 8.33986 v 1.440107 h -6.58986 v 4.265632 h 5.75132 z"
       style="font-style:normal;font-variant:normal;font-weight:normal;font-stretch:normal;font-size:18.6667px;font-family:Roboto;-inkscape-font-specification:'Roboto, Normal';font-variant-ligatures:normal;font-variant-caps:normal;font-variant-numeric:normal;font-variant-east-asian:normal;fill:#ffffff"
       id="path967" />
    <path
       d="m 154.04436,-20.662389 h 6.28907 v 1.430992 h -8.04819 v -13.270857 h 1.75912 z"
       style="font-style:normal;font-variant:normal;font-weight:normal;font-stretch:normal;font-size:18.6667px;font-family:Roboto;-inkscape-font-specification:'Roboto, Normal';font-variant-ligatures:normal;font-variant-caps:normal;font-variant-numeric:normal;font-variant-east-asian:normal;fill:#ffffff"
       id="path969" />
    <path
       d="m 169.83084,-25.365522 h -5.75131 v 4.703133 h 6.681 v 1.430992 h -8.431 v -13.270857 h 8.33986 v 1.440107 h -6.58986 v 4.265632 h 5.75131 z"
       style="font-style:normal;font-variant:normal;font-weight:normal;font-stretch:normal;font-size:18.6667px;font-family:Roboto;-inkscape-font-specification:'Roboto, Normal';font-variant-ligatures:normal;font-variant-caps:normal;font-variant-numeric:normal;font-variant-east-asian:normal;fill:#ffffff"
       id="path971" />
    <path
       d="m 176.84909,-25.146772 q -2.25131,-0.647137 -3.28126,-1.58594 -1.02083,-0.947919 -1.02083,-2.333338 0,-1.567711 1.2487,-2.588546 1.25781,-1.02995 3.26303,-1.02995 1.36719,0 2.43359,0.528647 1.07553,0.528647 1.65886,1.458336 0.59245,0.929689 0.59245,2.032556 h -1.75912 q 0,-1.203128 -0.76562,-1.886723 -0.76563,-0.692709 -2.16016,-0.692709 -1.29428,0 -2.02345,0.57422 -0.72005,0.565105 -0.72005,1.576825 0,0.8112 0.6836,1.376305 0.69271,0.55599 2.34245,1.020835 1.65886,0.464845 2.58854,1.02995 0.93881,0.55599 1.38542,1.303388 0.45573,0.747397 0.45573,1.759117 0,1.613285 -1.25781,2.588547 -1.25782,0.966147 -3.36329,0.966147 -1.36719,0 -2.55209,-0.519532 -1.18489,-0.528647 -1.83203,-1.440107 -0.63802,-0.91146 -0.63802,-2.069014 h 1.75912 q 0,1.203127 0.88411,1.904952 0.89323,0.692709 2.37891,0.692709 1.38542,0 2.1237,-0.565105 0.73829,-0.565105 0.73829,-1.540367 0,-0.975263 -0.6836,-1.503909 -0.68359,-0.537762 -2.47917,-1.057294 z"
       style="font-style:normal;font-variant:normal;font-weight:normal;font-stretch:normal;font-size:18.6667px;font-family:Roboto;-inkscape-font-specification:'Roboto, Normal';font-variant-ligatures:normal;font-variant-caps:normal;font-variant-numeric:normal;font-variant-east-asian:normal;fill:#ffffff"
       id="path973" />
    <path
       d="m 187.92332,-25.146772 q -2.2513,-0.647137 -3.28125,-1.58594 -1.02084,-0.947919 -1.02084,-2.333338 0,-1.567711 1.2487,-2.588546 1.25782,-1.02995 3.26303,-1.02995 1.36719,0 2.4336,0.528647 1.07552,0.528647 1.65886,1.458336 0.59244,0.929689 0.59244,2.032556 h -1.75911 q 0,-1.203128 -0.76563,-1.886723 -0.76563,-0.692709 -2.16016,-0.692709 -1.29427,0 -2.02344,0.57422 -0.72005,0.565105 -0.72005,1.576825 0,0.8112 0.68359,1.376305 0.69271,0.55599 2.34245,1.020835 1.65886,0.464845 2.58855,1.02995 0.9388,0.55599 1.38542,1.303388 0.45573,0.747397 0.45573,1.759117 0,1.613285 -1.25782,2.588547 -1.25781,0.966147 -3.36328,0.966147 -1.36719,0 -2.55209,-0.519532 -1.1849,-0.528647 -1.83204,-1.440107 -0.63802,-0.91146 -0.63802,-2.069014 h 1.75912 q 0,1.203127 0.88412,1.904952 0.89323,0.692709 2.37891,0.692709 1.38542,0 2.1237,-0.565105 0.73828,-0.565105 0.73828,-1.540367 0,-0.975263 -0.68359,-1.503909 -0.6836,-0.537762 -2.47918,-1.057294 z"
       style="font-style:normal;font-variant:normal;font-weight:normal;font-stretch:normal;font-size:18.6667px;font-family:Roboto;-inkscape-font-specification:'Roboto, Normal';font-variant-ligatures:normal;font-variant-caps:normal;font-variant-numeric:normal;font-variant-east-asian:normal;fill:#ffffff"
       id="path975" />
    <path
       d="m 204.5757,-24.599896 h -3.11719 v 5.368499 h -1.75912 v -13.270857 h 4.39324 q 2.24219,0 3.44532,1.020835 1.21224,1.020835 1.21224,2.97136 0,1.239585 -0.67448,2.16016 -0.66537,0.920574 -1.85938,1.376304 l 3.11719,5.632823 v 0.109375 h -1.87761 z m -3.11719,-1.430992 h 2.6888 q 1.30339,0 2.06902,-0.674481 0.77474,-0.67448 0.77474,-1.80469 0,-1.230471 -0.73828,-1.886722 -0.72917,-0.656252 -2.11459,-0.665366 h -2.67969 z"
       style="font-style:normal;font-variant:normal;font-weight:normal;font-stretch:normal;font-size:18.6667px;font-family:Roboto;-inkscape-font-specification:'Roboto, Normal';font-variant-ligatures:normal;font-variant-caps:normal;font-variant-numeric:normal;font-variant-east-asian:normal;fill:#ffffff"
       id="path977" />
    <path
       d="m 219.64213,-31.062147 h -4.26563 v 11.83075 h -1.74089 v -11.83075 h -4.25651 v -1.440107 h 10.26303 z"
       style="font-style:normal;font-variant:normal;font-weight:normal;font-stretch:normal;font-size:18.6667px;font-family:Roboto;-inkscape-font-specification:'Roboto, Normal';font-variant-ligatures:normal;font-variant-caps:normal;font-variant-numeric:normal;font-variant-east-asian:normal;fill:#ffffff"
       id="path979" />
  </g>
  <g
     aria-label="EDGELESS RT"
     transform="translate(282.35787,249.0491)"
     id="text886-1"
     style="font-style:normal;font-weight:normal;font-size:40px;line-height:1.25;font-family:sans-serif;white-space:pre;shape-inside:url(#rect888-9);fill:#ffffff;fill-opacity:1;stroke:none">
    <path
       d="m 113.612,-25.365522 h -5.75132 v 4.703133 h 6.681 v 1.430992 h -8.431 v -13.270857 h 8.33986 v 1.440107 h -6.58986 v 4.265632 h 5.75132 z"
       style="font-style:normal;font-variant:normal;font-weight:normal;font-stretch:normal;font-size:18.6667px;font-family:Roboto;-inkscape-font-specification:'Roboto, Normal';font-variant-ligatures:normal;font-variant-caps:normal;font-variant-numeric:normal;font-variant-east-asian:normal;fill:#ffffff"
       id="path919" />
    <path
       d="m 116.72007,-19.231397 v -13.270857 h 3.7461 q 1.73178,0 3.06251,0.765626 1.33073,0.765627 2.05078,2.17839 0.72917,1.412763 0.73829,3.244797 v 0.847658 q 0,1.877608 -0.72917,3.290371 -0.72005,1.412763 -2.06901,2.169274 -1.33985,0.756512 -3.12631,0.774741 z m 1.75001,-11.83075 v 10.399758 h 1.84115 q 2.02344,0 3.14453,-1.257815 1.13021,-1.257814 1.13021,-3.582037 v -0.774741 q 0,-2.260421 -1.0664,-3.509121 -1.0573,-1.257815 -3.00782,-1.276044 z"
       style="font-style:normal;font-variant:normal;font-weight:normal;font-stretch:normal;font-size:18.6667px;font-family:Roboto;-inkscape-font-specification:'Roboto, Normal';font-variant-ligatures:normal;font-variant-caps:normal;font-variant-numeric:normal;font-variant-east-asian:normal;fill:#ffffff"
       id="path921" />
    <path
       d="m 138.75918,-20.972285 q -0.67448,0.966147 -1.88673,1.449221 -1.20312,0.473959 -2.80729,0.473959 -1.6224,0 -2.88022,-0.756511 -1.25781,-0.765627 -1.95052,-2.169275 -0.6836,-1.403649 -0.70182,-3.253912 v -1.157555 q 0,-2.998703 1.39453,-4.648445 1.40365,-1.649743 3.93751,-1.649743 2.07813,0 3.34505,1.066408 1.26693,1.057294 1.54949,3.007818 h -1.75001 q -0.49219,-2.634119 -3.13542,-2.634119 -1.75912,0 -2.67058,1.239585 -0.90234,1.230471 -0.91146,3.572923 v 1.084638 q 0,2.233077 1.02084,3.554694 1.02083,1.312502 2.76172,1.312502 0.98438,0 1.72266,-0.21875 0.73828,-0.218751 1.22136,-0.738283 v -2.980474 h -3.07162 v -1.421878 h 4.81251 z"
       style="font-style:normal;font-variant:normal;font-weight:normal;font-stretch:normal;font-size:18.6667px;font-family:Roboto;-inkscape-font-specification:'Roboto, Normal';font-variant-ligatures:normal;font-variant-caps:normal;font-variant-numeric:normal;font-variant-east-asian:normal;fill:#ffffff"
       id="path923" />
    <path
       d="m 149.17717,-25.365522 h -5.75132 v 4.703133 h 6.681 v 1.430992 h -8.431 v -13.270857 h 8.33986 v 1.440107 h -6.58986 v 4.265632 h 5.75132 z"
       style="font-style:normal;font-variant:normal;font-weight:normal;font-stretch:normal;font-size:18.6667px;font-family:Roboto;-inkscape-font-specification:'Roboto, Normal';font-variant-ligatures:normal;font-variant-caps:normal;font-variant-numeric:normal;font-variant-east-asian:normal;fill:#ffffff"
       id="path925" />
    <path
       d="m 154.04436,-20.662389 h 6.28907 v 1.430992 h -8.04819 v -13.270857 h 1.75912 z"
       style="font-style:normal;font-variant:normal;font-weight:normal;font-stretch:normal;font-size:18.6667px;font-family:Roboto;-inkscape-font-specification:'Roboto, Normal';font-variant-ligatures:normal;font-variant-caps:normal;font-variant-numeric:normal;font-variant-east-asian:normal;fill:#ffffff"
       id="path927" />
    <path
       d="m 169.83084,-25.365522 h -5.75131 v 4.703133 h 6.681 v 1.430992 h -8.431 v -13.270857 h 8.33986 v 1.440107 h -6.58986 v 4.265632 h 5.75131 z"
       style="font-style:normal;font-variant:normal;font-weight:normal;font-stretch:normal;font-size:18.6667px;font-family:Roboto;-inkscape-font-specification:'Roboto, Normal';font-variant-ligatures:normal;font-variant-caps:normal;font-variant-numeric:normal;font-variant-east-asian:normal;fill:#ffffff"
       id="path929" />
    <path
       d="m 176.84909,-25.146772 q -2.25131,-0.647137 -3.28126,-1.58594 -1.02083,-0.947919 -1.02083,-2.333338 0,-1.567711 1.2487,-2.588546 1.25781,-1.02995 3.26303,-1.02995 1.36719,0 2.43359,0.528647 1.07553,0.528647 1.65886,1.458336 0.59245,0.929689 0.59245,2.032556 h -1.75912 q 0,-1.203128 -0.76562,-1.886723 -0.76563,-0.692709 -2.16016,-0.692709 -1.29428,0 -2.02345,0.57422 -0.72005,0.565105 -0.72005,1.576825 0,0.8112 0.6836,1.376305 0.69271,0.55599 2.34245,1.020835 1.65886,0.464845 2.58854,1.02995 0.93881,0.55599 1.38542,1.303388 0.45573,0.747397 0.45573,1.759117 0,1.613285 -1.25781,2.588547 -1.25782,0.966147 -3.36329,0.966147 -1.36719,0 -2.55209,-0.519532 -1.18489,-0.528647 -1.83203,-1.440107 -0.63802,-0.91146 -0.63802,-2.069014 h 1.75912 q 0,1.203127 0.88411,1.904952 0.89323,0.692709 2.37891,0.692709 1.38542,0 2.1237,-0.565105 0.73829,-0.565105 0.73829,-1.540367 0,-0.975263 -0.6836,-1.503909 -0.68359,-0.537762 -2.47917,-1.057294 z"
       style="font-style:normal;font-variant:normal;font-weight:normal;font-stretch:normal;font-size:18.6667px;font-family:Roboto;-inkscape-font-specification:'Roboto, Normal';font-variant-ligatures:normal;font-variant-caps:normal;font-variant-numeric:normal;font-variant-east-asian:normal;fill:#ffffff"
       id="path931" />
    <path
       d="m 187.92332,-25.146772 q -2.2513,-0.647137 -3.28125,-1.58594 -1.02084,-0.947919 -1.02084,-2.333338 0,-1.567711 1.2487,-2.588546 1.25782,-1.02995 3.26303,-1.02995 1.36719,0 2.4336,0.528647 1.07552,0.528647 1.65886,1.458336 0.59244,0.929689 0.59244,2.032556 h -1.75911 q 0,-1.203128 -0.76563,-1.886723 -0.76563,-0.692709 -2.16016,-0.692709 -1.29427,0 -2.02344,0.57422 -0.72005,0.565105 -0.72005,1.576825 0,0.8112 0.68359,1.376305 0.69271,0.55599 2.34245,1.020835 1.65886,0.464845 2.58855,1.02995 0.9388,0.55599 1.38542,1.303388 0.45573,0.747397 0.45573,1.759117 0,1.613285 -1.25782,2.588547 -1.25781,0.966147 -3.36328,0.966147 -1.36719,0 -2.55209,-0.519532 -1.1849,-0.528647 -1.83204,-1.440107 -0.63802,-0.91146 -0.63802,-2.069014 h 1.75912 q 0,1.203127 0.88412,1.904952 0.89323,0.692709 2.37891,0.692709 1.38542,0 2.1237,-0.565105 0.73828,-0.565105 0.73828,-1.540367 0,-0.975263 -0.68359,-1.503909 -0.6836,-0.537762 -2.47918,-1.057294 z"
       style="font-style:normal;font-variant:normal;font-weight:normal;font-stretch:normal;font-size:18.6667px;font-family:Roboto;-inkscape-font-specification:'Roboto, Normal';font-variant-ligatures:normal;font-variant-caps:normal;font-variant-numeric:normal;font-variant-east-asian:normal;fill:#ffffff"
       id="path933" />
    <path
       d="m 204.5757,-24.599896 h -3.11719 v 5.368499 h -1.75912 v -13.270857 h 4.39324 q 2.24219,0 3.44532,1.020835 1.21224,1.020835 1.21224,2.97136 0,1.239585 -0.67448,2.16016 -0.66537,0.920574 -1.85938,1.376304 l 3.11719,5.632823 v 0.109375 h -1.87761 z m -3.11719,-1.430992 h 2.6888 q 1.30339,0 2.06902,-0.674481 0.77474,-0.67448 0.77474,-1.80469 0,-1.230471 -0.73828,-1.886722 -0.72917,-0.656252 -2.11459,-0.665366 h -2.67969 z"
       style="font-style:normal;font-variant:normal;font-weight:normal;font-stretch:normal;font-size:18.6667px;font-family:Roboto;-inkscape-font-specification:'Roboto, Normal';font-variant-ligatures:normal;font-variant-caps:normal;font-variant-numeric:normal;font-variant-east-asian:normal;fill:#ffffff"
       id="path935" />
    <path
       d="m 219.64213,-31.062147 h -4.26563 v 11.83075 h -1.74089 v -11.83075 h -4.25651 v -1.440107 h 10.26303 z"
       style="font-style:normal;font-variant:normal;font-weight:normal;font-stretch:normal;font-size:18.6667px;font-family:Roboto;-inkscape-font-specification:'Roboto, Normal';font-variant-ligatures:normal;font-variant-caps:normal;font-variant-numeric:normal;font-variant-east-asian:normal;fill:#ffffff"
       id="path937" />
  </g>
  <g
     aria-label="EDGELESS RT"
     transform="translate(555.88932,249.0491)"
     id="text886-6"
     style="font-style:normal;font-weight:normal;font-size:40px;line-height:1.25;font-family:sans-serif;white-space:pre;shape-inside:url(#rect888-5);fill:#ffffff;fill-opacity:1;stroke:none">
    <path
       d="m 113.612,-25.365522 h -5.75132 v 4.703133 h 6.681 v 1.430992 h -8.431 v -13.270857 h 8.33986 v 1.440107 h -6.58986 v 4.265632 h 5.75132 z"
       style="font-style:normal;font-variant:normal;font-weight:normal;font-stretch:normal;font-size:18.6667px;font-family:Roboto;-inkscape-font-specification:'Roboto, Normal';font-variant-ligatures:normal;font-variant-caps:normal;font-variant-numeric:normal;font-variant-east-asian:normal;fill:#ffffff"
       id="path940" />
    <path
       d="m 116.72007,-19.231397 v -13.270857 h 3.7461 q 1.73178,0 3.06251,0.765626 1.33073,0.765627 2.05078,2.17839 0.72917,1.412763 0.73829,3.244797 v 0.847658 q 0,1.877608 -0.72917,3.290371 -0.72005,1.412763 -2.06901,2.169274 -1.33985,0.756512 -3.12631,0.774741 z m 1.75001,-11.83075 v 10.399758 h 1.84115 q 2.02344,0 3.14453,-1.257815 1.13021,-1.257814 1.13021,-3.582037 v -0.774741 q 0,-2.260421 -1.0664,-3.509121 -1.0573,-1.257815 -3.00782,-1.276044 z"
       style="font-style:normal;font-variant:normal;font-weight:normal;font-stretch:normal;font-size:18.6667px;font-family:Roboto;-inkscape-font-specification:'Roboto, Normal';font-variant-ligatures:normal;font-variant-caps:normal;font-variant-numeric:normal;font-variant-east-asian:normal;fill:#ffffff"
       id="path942" />
    <path
       d="m 138.75918,-20.972285 q -0.67448,0.966147 -1.88673,1.449221 -1.20312,0.473959 -2.80729,0.473959 -1.6224,0 -2.88022,-0.756511 -1.25781,-0.765627 -1.95052,-2.169275 -0.6836,-1.403649 -0.70182,-3.253912 v -1.157555 q 0,-2.998703 1.39453,-4.648445 1.40365,-1.649743 3.93751,-1.649743 2.07813,0 3.34505,1.066408 1.26693,1.057294 1.54949,3.007818 h -1.75001 q -0.49219,-2.634119 -3.13542,-2.634119 -1.75912,0 -2.67058,1.239585 -0.90234,1.230471 -0.91146,3.572923 v 1.084638 q 0,2.233077 1.02084,3.554694 1.02083,1.312502 2.76172,1.312502 0.98438,0 1.72266,-0.21875 0.73828,-0.218751 1.22136,-0.738283 v -2.980474 h -3.07162 v -1.421878 h 4.81251 z"
       style="font-style:normal;font-variant:normal;font-weight:normal;font-stretch:normal;font-size:18.6667px;font-family:Roboto;-inkscape-font-specification:'Roboto, Normal';font-variant-ligatures:normal;font-variant-caps:normal;font-variant-numeric:normal;font-variant-east-asian:normal;fill:#ffffff"
       id="path944" />
    <path
       d="m 149.17717,-25.365522 h -5.75132 v 4.703133 h 6.681 v 1.430992 h -8.431 v -13.270857 h 8.33986 v 1.440107 h -6.58986 v 4.265632 h 5.75132 z"
       style="font-style:normal;font-variant:normal;font-weight:normal;font-stretch:normal;font-size:18.6667px;font-family:Roboto;-inkscape-font-specification:'Roboto, Normal';font-variant-ligatures:normal;font-variant-caps:normal;font-variant-numeric:normal;font-variant-east-asian:normal;fill:#ffffff"
       id="path946" />
    <path
       d="m 154.04436,-20.662389 h 6.28907 v 1.430992 h -8.04819 v -13.270857 h 1.75912 z"
       style="font-style:normal;font-variant:normal;font-weight:normal;font-stretch:normal;font-size:18.6667px;font-family:Roboto;-inkscape-font-specification:'Roboto, Normal';font-variant-ligatures:normal;font-variant-caps:normal;font-variant-numeric:normal;font-variant-east-asian:normal;fill:#ffffff"
       id="path948" />
    <path
       d="m 169.83084,-25.365522 h -5.75131 v 4.703133 h 6.681 v 1.430992 h -8.431 v -13.270857 h 8.33986 v 1.440107 h -6.58986 v 4.265632 h 5.75131 z"
       style="font-style:normal;font-variant:normal;font-weight:normal;font-stretch:normal;font-size:18.6667px;font-family:Roboto;-inkscape-font-specification:'Roboto, Normal';font-variant-ligatures:normal;font-variant-caps:normal;font-variant-numeric:normal;font-variant-east-asian:normal;fill:#ffffff"
       id="path950" />
    <path
       d="m 176.84909,-25.146772 q -2.25131,-0.647137 -3.28126,-1.58594 -1.02083,-0.947919 -1.02083,-2.333338 0,-1.567711 1.2487,-2.588546 1.25781,-1.02995 3.26303,-1.02995 1.36719,0 2.43359,0.528647 1.07553,0.528647 1.65886,1.458336 0.59245,0.929689 0.59245,2.032556 h -1.75912 q 0,-1.203128 -0.76562,-1.886723 -0.76563,-0.692709 -2.16016,-0.692709 -1.29428,0 -2.02345,0.57422 -0.72005,0.565105 -0.72005,1.576825 0,0.8112 0.6836,1.376305 0.69271,0.55599 2.34245,1.020835 1.65886,0.464845 2.58854,1.02995 0.93881,0.55599 1.38542,1.303388 0.45573,0.747397 0.45573,1.759117 0,1.613285 -1.25781,2.588547 -1.25782,0.966147 -3.36329,0.966147 -1.36719,0 -2.55209,-0.519532 -1.18489,-0.528647 -1.83203,-1.440107 -0.63802,-0.91146 -0.63802,-2.069014 h 1.75912 q 0,1.203127 0.88411,1.904952 0.89323,0.692709 2.37891,0.692709 1.38542,0 2.1237,-0.565105 0.73829,-0.565105 0.73829,-1.540367 0,-0.975263 -0.6836,-1.503909 -0.68359,-0.537762 -2.47917,-1.057294 z"
       style="font-style:normal;font-variant:normal;font-weight:normal;font-stretch:normal;font-size:18.6667px;font-family:Roboto;-inkscape-font-specification:'Roboto, Normal';font-variant-ligatures:normal;font-variant-caps:normal;font-variant-numeric:normal;font-variant-east-asian:normal;fill:#ffffff"
       id="path952" />
    <path
       d="m 187.92332,-25.146772 q -2.2513,-0.647137 -3.28125,-1.58594 -1.02084,-0.947919 -1.02084,-2.333338 0,-1.567711 1.2487,-2.588546 1.25782,-1.02995 3.26303,-1.02995 1.36719,0 2.4336,0.528647 1.07552,0.528647 1.65886,1.458336 0.59244,0.929689 0.59244,2.032556 h -1.75911 q 0,-1.203128 -0.76563,-1.886723 -0.76563,-0.692709 -2.16016,-0.692709 -1.29427,0 -2.02344,0.57422 -0.72005,0.565105 -0.72005,1.576825 0,0.8112 0.68359,1.376305 0.69271,0.55599 2.34245,1.020835 1.65886,0.464845 2.58855,1.02995 0.9388,0.55599 1.38542,1.303388 0.45573,0.747397 0.45573,1.759117 0,1.613285 -1.25782,2.588547 -1.25781,0.966147 -3.36328,0.966147 -1.36719,0 -2.55209,-0.519532 -1.1849,-0.528647 -1.83204,-1.440107 -0.63802,-0.91146 -0.63802,-2.069014 h 1.75912 q 0,1.203127 0.88412,1.904952 0.89323,0.692709 2.37891,0.692709 1.38542,0 2.1237,-0.565105 0.73828,-0.565105 0.73828,-1.540367 0,-0.975263 -0.68359,-1.503909 -0.6836,-0.537762 -2.47918,-1.057294 z"
       style="font-style:normal;font-variant:normal;font-weight:normal;font-stretch:normal;font-size:18.6667px;font-family:Roboto;-inkscape-font-specification:'Roboto, Normal';font-variant-ligatures:normal;font-variant-caps:normal;font-variant-numeric:normal;font-variant-east-asian:normal;fill:#ffffff"
       id="path954" />
    <path
       d="m 204.5757,-24.599896 h -3.11719 v 5.368499 h -1.75912 v -13.270857 h 4.39324 q 2.24219,0 3.44532,1.020835 1.21224,1.020835 1.21224,2.97136 0,1.239585 -0.67448,2.16016 -0.66537,0.920574 -1.85938,1.376304 l 3.11719,5.632823 v 0.109375 h -1.87761 z m -3.11719,-1.430992 h 2.6888 q 1.30339,0 2.06902,-0.674481 0.77474,-0.67448 0.77474,-1.80469 0,-1.230471 -0.73828,-1.886722 -0.72917,-0.656252 -2.11459,-0.665366 h -2.67969 z"
       style="font-style:normal;font-variant:normal;font-weight:normal;font-stretch:normal;font-size:18.6667px;font-family:Roboto;-inkscape-font-specification:'Roboto, Normal';font-variant-ligatures:normal;font-variant-caps:normal;font-variant-numeric:normal;font-variant-east-asian:normal;fill:#ffffff"
       id="path956" />
    <path
       d="m 219.64213,-31.062147 h -4.26563 v 11.83075 h -1.74089 v -11.83075 h -4.25651 v -1.440107 h 10.26303 z"
       style="font-style:normal;font-variant:normal;font-weight:normal;font-stretch:normal;font-size:18.6667px;font-family:Roboto;-inkscape-font-specification:'Roboto, Normal';font-variant-ligatures:normal;font-variant-caps:normal;font-variant-numeric:normal;font-variant-east-asian:normal;fill:#ffffff"
       id="path958" />
  </g>
  <text
     xml:space="preserve"
     id="text902"
     style="font-style:normal;font-weight:normal;font-size:40px;line-height:1.25;font-family:sans-serif;white-space:pre;shape-inside:url(#rect904);fill:#000000;fill-opacity:1;stroke:none;" />
  <g
     aria-label="Attestation
Provisioning 
Secrets management"
     id="text910"
     style="font-style:normal;font-weight:normal;font-size:40px;line-height:0;font-family:sans-serif;fill:#000000;fill-opacity:1;stroke:none">
    <path
       d="m 605.76782,74.187096 h -1.64844 l -1.14062,-3.242188 h -5.03125 l -1.14063,3.242188 h -1.57031 l 4.23438,-11.632813 h 2.0625 z m -3.26562,-4.570313 -2.03907,-5.710937 -2.04687,5.710937 z"
       style="font-style:normal;font-variant:normal;font-weight:normal;font-stretch:normal;font-size:16px;line-height:1.3;font-family:sans-serif;-inkscape-font-specification:'sans-serif, Normal';font-variant-ligatures:normal;font-variant-caps:normal;font-variant-numeric:normal;font-variant-east-asian:normal"
       id="path982" />
    <path
       d="m 611.79126,74.108971 q -0.41406,0.109375 -0.90625,0.179687 -0.48438,0.07031 -0.86719,0.07031 -1.33594,0 -2.03125,-0.71875 -0.69531,-0.71875 -0.69531,-2.304688 v -4.640625 h -0.99219 v -1.234375 h 0.99219 v -2.507812 h 1.46875 v 2.507812 h 3.03125 v 1.234375 h -3.03125 v 3.976563 q 0,0.6875 0.0312,1.078125 0.0312,0.382812 0.21875,0.71875 0.17187,0.3125 0.46875,0.460937 0.30469,0.140625 0.92187,0.140625 0.35938,0 0.75,-0.101562 0.39063,-0.109375 0.5625,-0.179688 h 0.0781 z"
       style="font-style:normal;font-variant:normal;font-weight:normal;font-stretch:normal;font-size:16px;line-height:1.3;font-family:sans-serif;-inkscape-font-specification:'sans-serif, Normal';font-variant-ligatures:normal;font-variant-caps:normal;font-variant-numeric:normal;font-variant-east-asian:normal"
       id="path984" />
    <path
       d="m 618.09595,74.108971 q -0.41407,0.109375 -0.90625,0.179687 -0.48438,0.07031 -0.86719,0.07031 -1.33594,0 -2.03125,-0.71875 -0.69531,-0.71875 -0.69531,-2.304688 v -4.640625 h -0.99219 v -1.234375 h 0.99219 v -2.507812 h 1.46875 v 2.507812 h 3.03125 v 1.234375 h -3.03125 v 3.976563 q 0,0.6875 0.0312,1.078125 0.0312,0.382812 0.21875,0.71875 0.17187,0.3125 0.46875,0.460937 0.30468,0.140625 0.92187,0.140625 0.35938,0 0.75,-0.101562 0.39063,-0.109375 0.5625,-0.179688 h 0.0781 z"
       style="font-style:normal;font-variant:normal;font-weight:normal;font-stretch:normal;font-size:16px;line-height:1.3;font-family:sans-serif;-inkscape-font-specification:'sans-serif, Normal';font-variant-ligatures:normal;font-variant-caps:normal;font-variant-numeric:normal;font-variant-east-asian:normal"
       id="path986" />
    <path
       d="m 627.17407,69.976158 h -6.42969 q 0,0.804688 0.24219,1.40625 0.24219,0.59375 0.66406,0.976563 0.40625,0.375 0.96094,0.5625 0.5625,0.1875 1.23438,0.1875 0.89062,0 1.78906,-0.351563 0.90625,-0.359375 1.28906,-0.703125 h 0.0781 v 1.601563 q -0.74219,0.3125 -1.51563,0.523437 -0.77344,0.210938 -1.625,0.210938 -2.17187,0 -3.39062,-1.171875 -1.21875,-1.179688 -1.21875,-3.34375 0,-2.140625 1.16406,-3.398438 1.17187,-1.257812 3.07812,-1.257812 1.76563,0 2.71875,1.03125 0.96094,1.03125 0.96094,2.929687 z m -1.42969,-1.125 q -0.008,-1.15625 -0.58593,-1.789062 -0.57032,-0.632813 -1.74219,-0.632813 -1.17969,0 -1.88281,0.695313 -0.69532,0.695312 -0.78907,1.726562 z"
       style="font-style:normal;font-variant:normal;font-weight:normal;font-stretch:normal;font-size:16px;line-height:1.3;font-family:sans-serif;-inkscape-font-specification:'sans-serif, Normal';font-variant-ligatures:normal;font-variant-caps:normal;font-variant-numeric:normal;font-variant-east-asian:normal"
       id="path988" />
    <path
       d="m 635.63501,71.671471 q 0,1.195312 -0.99219,1.960937 -0.98437,0.765625 -2.69531,0.765625 -0.96875,0 -1.78125,-0.226562 -0.80469,-0.234375 -1.35156,-0.507813 v -1.648437 h 0.0781 q 0.69531,0.523437 1.54688,0.835937 0.85156,0.304688 1.63281,0.304688 0.96875,0 1.51562,-0.3125 0.54688,-0.3125 0.54688,-0.984375 0,-0.515625 -0.29688,-0.78125 -0.29687,-0.265625 -1.14062,-0.453125 -0.3125,-0.07031 -0.82031,-0.164063 -0.5,-0.09375 -0.91407,-0.203125 -1.14843,-0.304687 -1.63281,-0.890625 -0.47656,-0.59375 -0.47656,-1.453125 0,-0.539062 0.21875,-1.015625 0.22656,-0.476562 0.67969,-0.851562 0.4375,-0.367188 1.10937,-0.578125 0.67969,-0.21875 1.51563,-0.21875 0.78125,0 1.57812,0.195312 0.80469,0.1875 1.33594,0.460938 v 1.570312 h -0.0781 q -0.5625,-0.414062 -1.36718,-0.695312 -0.80469,-0.289063 -1.57813,-0.289063 -0.80469,0 -1.35937,0.3125 -0.55469,0.304688 -0.55469,0.914063 0,0.539062 0.33594,0.8125 0.32812,0.273437 1.0625,0.445312 0.40625,0.09375 0.90625,0.1875 0.50781,0.09375 0.84375,0.171875 1.02343,0.234375 1.57812,0.804688 0.55469,0.578125 0.55469,1.53125 z"
       style="font-style:normal;font-variant:normal;font-weight:normal;font-stretch:normal;font-size:16px;line-height:1.3;font-family:sans-serif;-inkscape-font-specification:'sans-serif, Normal';font-variant-ligatures:normal;font-variant-caps:normal;font-variant-numeric:normal;font-variant-east-asian:normal"
       id="path990" />
    <path
       d="m 642.26782,74.108971 q -0.41406,0.109375 -0.90625,0.179687 -0.48437,0.07031 -0.86719,0.07031 -1.33593,0 -2.03125,-0.71875 -0.69531,-0.71875 -0.69531,-2.304688 v -4.640625 h -0.99219 v -1.234375 h 0.99219 v -2.507812 h 1.46875 v 2.507812 h 3.03125 v 1.234375 h -3.03125 v 3.976563 q 0,0.6875 0.0312,1.078125 0.0312,0.382812 0.21875,0.71875 0.17188,0.3125 0.46875,0.460937 0.30469,0.140625 0.92188,0.140625 0.35937,0 0.75,-0.101562 0.39062,-0.109375 0.5625,-0.179688 h 0.0781 z"
       style="font-style:normal;font-variant:normal;font-weight:normal;font-stretch:normal;font-size:16px;line-height:1.3;font-family:sans-serif;-inkscape-font-specification:'sans-serif, Normal';font-variant-ligatures:normal;font-variant-caps:normal;font-variant-numeric:normal;font-variant-east-asian:normal"
       id="path992" />
    <path
       d="m 650.82251,74.187096 h -1.46094 v -0.929688 q -0.19531,0.132813 -0.53125,0.375 -0.32812,0.234375 -0.64062,0.375 -0.36719,0.179688 -0.84375,0.296875 -0.47657,0.125 -1.11719,0.125 -1.17969,0 -2,-0.78125 -0.82031,-0.78125 -0.82031,-1.992187 0,-0.992188 0.42187,-1.601563 0.42969,-0.617187 1.21875,-0.96875 0.79688,-0.351562 1.91406,-0.476562 1.11719,-0.125 2.39844,-0.1875 v -0.226563 q 0,-0.5 -0.17969,-0.828125 -0.17187,-0.328125 -0.5,-0.515625 -0.3125,-0.179687 -0.75,-0.242187 -0.4375,-0.0625 -0.91406,-0.0625 -0.57812,0 -1.28906,0.15625 -0.71094,0.148437 -1.46875,0.4375 h -0.0781 v -1.492188 q 0.42969,-0.117187 1.24219,-0.257812 0.8125,-0.140625 1.60156,-0.140625 0.92188,0 1.60157,0.15625 0.6875,0.148437 1.1875,0.515625 0.49218,0.359375 0.75,0.929687 0.25781,0.570313 0.25781,1.414063 z m -1.46094,-2.148438 v -2.429687 q -0.67187,0.03906 -1.58594,0.117187 -0.90625,0.07813 -1.4375,0.226563 -0.63281,0.179687 -1.02343,0.5625 -0.39063,0.375 -0.39063,1.039062 0,0.75 0.45313,1.132813 0.45312,0.375 1.38281,0.375 0.77344,0 1.41406,-0.296875 0.64063,-0.304688 1.1875,-0.726563 z"
       style="font-style:normal;font-variant:normal;font-weight:normal;font-stretch:normal;font-size:16px;line-height:1.3;font-family:sans-serif;-inkscape-font-specification:'sans-serif, Normal';font-variant-ligatures:normal;font-variant-caps:normal;font-variant-numeric:normal;font-variant-east-asian:normal"
       id="path994" />
    <path
       d="m 658.18188,74.108971 q -0.41406,0.109375 -0.90625,0.179687 -0.48437,0.07031 -0.86718,0.07031 -1.33594,0 -2.03125,-0.71875 -0.69532,-0.71875 -0.69532,-2.304688 v -4.640625 h -0.99218 v -1.234375 h 0.99218 v -2.507812 h 1.46875 v 2.507812 h 3.03125 v 1.234375 h -3.03125 v 3.976563 q 0,0.6875 0.0312,1.078125 0.0312,0.382812 0.21875,0.71875 0.17188,0.3125 0.46875,0.460937 0.30469,0.140625 0.92188,0.140625 0.35937,0 0.75,-0.101562 0.39062,-0.109375 0.5625,-0.179688 h 0.0781 z"
       style="font-style:normal;font-variant:normal;font-weight:normal;font-stretch:normal;font-size:16px;line-height:1.3;font-family:sans-serif;-inkscape-font-specification:'sans-serif, Normal';font-variant-ligatures:normal;font-variant-caps:normal;font-variant-numeric:normal;font-variant-east-asian:normal"
       id="path996" />
    <path
       d="m 661.53345,63.999596 h -1.65625 v -1.523438 h 1.65625 z m -0.0937,10.1875 h -1.46875 v -8.726563 h 1.46875 z"
       style="font-style:normal;font-variant:normal;font-weight:normal;font-stretch:normal;font-size:16px;line-height:1.3;font-family:sans-serif;-inkscape-font-specification:'sans-serif, Normal';font-variant-ligatures:normal;font-variant-caps:normal;font-variant-numeric:normal;font-variant-east-asian:normal"
       id="path998" />
    <path
       d="m 671.78345,69.827721 q 0,2.132812 -1.09375,3.367187 -1.09375,1.234375 -2.92969,1.234375 -1.85156,0 -2.94531,-1.234375 -1.08594,-1.234375 -1.08594,-3.367187 0,-2.132813 1.08594,-3.367188 1.09375,-1.242187 2.94531,-1.242187 1.83594,0 2.92969,1.242187 1.09375,1.234375 1.09375,3.367188 z m -1.51563,0 q 0,-1.695313 -0.66406,-2.515625 -0.66406,-0.828125 -1.84375,-0.828125 -1.19531,0 -1.85938,0.828125 -0.65625,0.820312 -0.65625,2.515625 0,1.640625 0.66407,2.492187 0.66406,0.84375 1.85156,0.84375 1.17187,0 1.83594,-0.835937 0.67187,-0.84375 0.67187,-2.5 z"
       style="font-style:normal;font-variant:normal;font-weight:normal;font-stretch:normal;font-size:16px;line-height:1.3;font-family:sans-serif;-inkscape-font-specification:'sans-serif, Normal';font-variant-ligatures:normal;font-variant-caps:normal;font-variant-numeric:normal;font-variant-east-asian:normal"
       id="path1000" />
    <path
       d="m 681.35376,74.187096 h -1.46875 v -4.96875 q 0,-0.601563 -0.0703,-1.125 -0.0703,-0.53125 -0.25782,-0.828125 -0.19531,-0.328125 -0.5625,-0.484375 -0.36718,-0.164063 -0.95312,-0.164063 -0.60156,0 -1.25781,0.296875 -0.65625,0.296875 -1.25782,0.757813 v 6.515625 h -1.46875 v -8.726563 h 1.46875 v 0.96875 q 0.6875,-0.570312 1.42188,-0.890625 0.73437,-0.320312 1.50781,-0.320312 1.41406,0 2.15625,0.851562 0.74219,0.851563 0.74219,2.453125 z"
       style="font-style:normal;font-variant:normal;font-weight:normal;font-stretch:normal;font-size:16px;line-height:1.3;font-family:sans-serif;-inkscape-font-specification:'sans-serif, Normal';font-variant-ligatures:normal;font-variant-caps:normal;font-variant-numeric:normal;font-variant-east-asian:normal"
       id="path1002" />
    <path
       d="m 604.20532,86.869907 q 0,0.773438 -0.27344,1.4375 -0.26562,0.65625 -0.75,1.140625 -0.60156,0.601563 -1.42187,0.90625 -0.82031,0.296875 -2.07031,0.296875 h -1.54688 v 4.335938 h -1.54687 V 83.354282 h 3.15625 q 1.04687,0 1.77343,0.179688 0.72657,0.171875 1.28907,0.546875 0.66406,0.445312 1.02343,1.109375 0.36719,0.664062 0.36719,1.679687 z m -1.60937,0.03906 q 0,-0.601563 -0.21094,-1.046875 -0.21094,-0.445313 -0.64063,-0.726563 -0.375,-0.242187 -0.85937,-0.34375 -0.47656,-0.109375 -1.21094,-0.109375 h -1.53125 v 4.648438 h 1.30469 q 0.9375,0 1.52344,-0.164063 0.58593,-0.171875 0.95312,-0.539062 0.36719,-0.375 0.51563,-0.789063 0.15625,-0.414062 0.15625,-0.929687 z"
       style="font-style:normal;font-variant:normal;font-weight:normal;font-stretch:normal;font-size:16px;line-height:1.3;font-family:sans-serif;-inkscape-font-specification:'sans-serif, Normal';font-variant-ligatures:normal;font-variant-caps:normal;font-variant-numeric:normal;font-variant-east-asian:normal"
       id="path1004" />
    <path
       d="m 611.57251,87.862095 h -0.0781 q -0.32812,-0.07813 -0.64062,-0.109375 -0.30469,-0.03906 -0.72656,-0.03906 -0.67969,0 -1.3125,0.304688 -0.63282,0.296875 -1.21875,0.773437 v 6.195313 h -1.46875 v -8.726563 h 1.46875 v 1.289063 q 0.875,-0.703125 1.53906,-0.992188 0.67187,-0.296875 1.36719,-0.296875 0.38281,0 0.55468,0.02344 0.17188,0.01563 0.51563,0.07031 z"
       style="font-style:normal;font-variant:normal;font-weight:normal;font-stretch:normal;font-size:16px;line-height:1.3;font-family:sans-serif;-inkscape-font-specification:'sans-serif, Normal';font-variant-ligatures:normal;font-variant-caps:normal;font-variant-numeric:normal;font-variant-east-asian:normal"
       id="path1006" />
    <path
       d="m 620.39282,90.62772 q 0,2.132812 -1.09375,3.367187 -1.09375,1.234375 -2.92969,1.234375 -1.85156,0 -2.94531,-1.234375 -1.08594,-1.234375 -1.08594,-3.367187 0,-2.132813 1.08594,-3.367188 1.09375,-1.242187 2.94531,-1.242187 1.83594,0 2.92969,1.242187 1.09375,1.234375 1.09375,3.367188 z m -1.51562,0 q 0,-1.695313 -0.66407,-2.515625 -0.66406,-0.828125 -1.84375,-0.828125 -1.19531,0 -1.85937,0.828125 -0.65625,0.820312 -0.65625,2.515625 0,1.640625 0.66406,2.492187 0.66406,0.84375 1.85156,0.84375 1.17188,0 1.83594,-0.835937 0.67188,-0.84375 0.67188,-2.5 z"
       style="font-style:normal;font-variant:normal;font-weight:normal;font-stretch:normal;font-size:16px;line-height:1.3;font-family:sans-serif;-inkscape-font-specification:'sans-serif, Normal';font-variant-ligatures:normal;font-variant-caps:normal;font-variant-numeric:normal;font-variant-east-asian:normal"
       id="path1008" />
    <path
       d="m 630.09595,86.260532 -3.53125,8.726563 h -1.47657 l -3.50781,-8.726563 h 1.59375 l 2.70313,6.945313 2.67968,-6.945313 z"
       style="font-style:normal;font-variant:normal;font-weight:normal;font-stretch:normal;font-size:16px;line-height:1.3;font-family:sans-serif;-inkscape-font-specification:'sans-serif, Normal';font-variant-ligatures:normal;font-variant-caps:normal;font-variant-numeric:normal;font-variant-east-asian:normal"
       id="path1010" />
    <path
       d="m 633.59595,84.799595 h -1.65625 v -1.523438 h 1.65625 z m -0.0937,10.1875 h -1.46875 v -8.726563 h 1.46875 z"
       style="font-style:normal;font-variant:normal;font-weight:normal;font-stretch:normal;font-size:16px;line-height:1.3;font-family:sans-serif;-inkscape-font-specification:'sans-serif, Normal';font-variant-ligatures:normal;font-variant-caps:normal;font-variant-numeric:normal;font-variant-east-asian:normal"
       id="path1012" />
    <path
       d="m 642.64282,92.47147 q 0,1.195312 -0.99219,1.960937 -0.98437,0.765625 -2.69531,0.765625 -0.96875,0 -1.78125,-0.226562 -0.80469,-0.234375 -1.35156,-0.507813 V 92.81522 h 0.0781 q 0.69532,0.523437 1.54688,0.835937 0.85156,0.304688 1.63281,0.304688 0.96875,0 1.51563,-0.3125 0.54687,-0.3125 0.54687,-0.984375 0,-0.515625 -0.29687,-0.78125 -0.29688,-0.265625 -1.14063,-0.453125 -0.3125,-0.07031 -0.82031,-0.164063 -0.5,-0.09375 -0.91406,-0.203125 -1.14844,-0.304687 -1.63282,-0.890625 -0.47656,-0.59375 -0.47656,-1.453125 0,-0.539062 0.21875,-1.015625 0.22656,-0.476562 0.67969,-0.851562 0.4375,-0.367188 1.10937,-0.578125 0.67969,-0.21875 1.51563,-0.21875 0.78125,0 1.57812,0.195312 0.80469,0.1875 1.33594,0.460938 v 1.570312 h -0.0781 q -0.5625,-0.414062 -1.36719,-0.695312 -0.80469,-0.289063 -1.57813,-0.289063 -0.80468,0 -1.35937,0.3125 -0.55469,0.304688 -0.55469,0.914063 0,0.539062 0.33594,0.8125 0.32812,0.273437 1.0625,0.445312 0.40625,0.09375 0.90625,0.1875 0.50781,0.09375 0.84375,0.171875 1.02344,0.234375 1.57812,0.804688 0.55469,0.578125 0.55469,1.53125 z"
       style="font-style:normal;font-variant:normal;font-weight:normal;font-stretch:normal;font-size:16px;line-height:1.3;font-family:sans-serif;-inkscape-font-specification:'sans-serif, Normal';font-variant-ligatures:normal;font-variant-caps:normal;font-variant-numeric:normal;font-variant-east-asian:normal"
       id="path1014" />
    <path
       d="m 646.32251,84.799595 h -1.65625 v -1.523438 h 1.65625 z m -0.0937,10.1875 h -1.46875 v -8.726563 h 1.46875 z"
       style="font-style:normal;font-variant:normal;font-weight:normal;font-stretch:normal;font-size:16px;line-height:1.3;font-family:sans-serif;-inkscape-font-specification:'sans-serif, Normal';font-variant-ligatures:normal;font-variant-caps:normal;font-variant-numeric:normal;font-variant-east-asian:normal"
       id="path1016" />
    <path
       d="m 656.57251,90.62772 q 0,2.132812 -1.09375,3.367187 -1.09375,1.234375 -2.92969,1.234375 -1.85156,0 -2.94531,-1.234375 -1.08594,-1.234375 -1.08594,-3.367187 0,-2.132813 1.08594,-3.367188 1.09375,-1.242187 2.94531,-1.242187 1.83594,0 2.92969,1.242187 1.09375,1.234375 1.09375,3.367188 z m -1.51563,0 q 0,-1.695313 -0.66406,-2.515625 -0.66406,-0.828125 -1.84375,-0.828125 -1.19531,0 -1.85937,0.828125 -0.65625,0.820312 -0.65625,2.515625 0,1.640625 0.66406,2.492187 0.66406,0.84375 1.85156,0.84375 1.17188,0 1.83594,-0.835937 0.67187,-0.84375 0.67187,-2.5 z"
       style="font-style:normal;font-variant:normal;font-weight:normal;font-stretch:normal;font-size:16px;line-height:1.3;font-family:sans-serif;-inkscape-font-specification:'sans-serif, Normal';font-variant-ligatures:normal;font-variant-caps:normal;font-variant-numeric:normal;font-variant-east-asian:normal"
       id="path1018" />
    <path
       d="m 666.14282,94.987095 h -1.46875 v -4.96875 q 0,-0.601563 -0.0703,-1.125 -0.0703,-0.53125 -0.25781,-0.828125 -0.19532,-0.328125 -0.5625,-0.484375 -0.36719,-0.164063 -0.95313,-0.164063 -0.60156,0 -1.25781,0.296875 -0.65625,0.296875 -1.25781,0.757813 v 6.515625 h -1.46875 v -8.726563 h 1.46875 v 0.96875 q 0.6875,-0.570312 1.42187,-0.890625 0.73438,-0.320312 1.50781,-0.320312 1.41407,0 2.15625,0.851562 0.74219,0.851563 0.74219,2.453125 z"
       style="font-style:normal;font-variant:normal;font-weight:normal;font-stretch:normal;font-size:16px;line-height:1.3;font-family:sans-serif;-inkscape-font-specification:'sans-serif, Normal';font-variant-ligatures:normal;font-variant-caps:normal;font-variant-numeric:normal;font-variant-east-asian:normal"
       id="path1020" />
    <path
       d="m 670.54907,84.799595 h -1.65625 v -1.523438 h 1.65625 z m -0.0937,10.1875 h -1.46875 v -8.726563 h 1.46875 z"
       style="font-style:normal;font-variant:normal;font-weight:normal;font-stretch:normal;font-size:16px;line-height:1.3;font-family:sans-serif;-inkscape-font-specification:'sans-serif, Normal';font-variant-ligatures:normal;font-variant-caps:normal;font-variant-numeric:normal;font-variant-east-asian:normal"
       id="path1022" />
    <path
       d="m 680.65845,94.987095 h -1.46875 v -4.96875 q 0,-0.601563 -0.0703,-1.125 -0.0703,-0.53125 -0.25781,-0.828125 -0.19531,-0.328125 -0.5625,-0.484375 -0.36719,-0.164063 -0.95312,-0.164063 -0.60157,0 -1.25782,0.296875 -0.65625,0.296875 -1.25781,0.757813 v 6.515625 h -1.46875 v -8.726563 h 1.46875 v 0.96875 q 0.6875,-0.570312 1.42188,-0.890625 0.73437,-0.320312 1.50781,-0.320312 1.41406,0 2.15625,0.851562 0.74219,0.851563 0.74219,2.453125 z"
       style="font-style:normal;font-variant:normal;font-weight:normal;font-stretch:normal;font-size:16px;line-height:1.3;font-family:sans-serif;-inkscape-font-specification:'sans-serif, Normal';font-variant-ligatures:normal;font-variant-caps:normal;font-variant-numeric:normal;font-variant-east-asian:normal"
       id="path1024" />
    <path
       d="m 690.5647,93.994907 q 0,2.21875 -1.00782,3.257813 -1.00781,1.039062 -3.10156,1.039062 -0.69531,0 -1.35937,-0.101562 -0.65625,-0.09375 -1.29688,-0.273438 v -1.5 h 0.0781 q 0.35937,0.140625 1.14062,0.34375 0.78125,0.210938 1.5625,0.210938 0.75,0 1.24219,-0.179688 0.49219,-0.179687 0.76562,-0.5 0.27344,-0.304687 0.39063,-0.734375 0.11719,-0.429687 0.11719,-0.960937 v -0.796875 q -0.66407,0.53125 -1.27344,0.796875 -0.60156,0.257812 -1.53906,0.257812 -1.5625,0 -2.48438,-1.125 -0.91406,-1.132812 -0.91406,-3.1875 0,-1.125 0.3125,-1.9375 0.32031,-0.820312 0.86719,-1.414062 0.50781,-0.554688 1.23437,-0.859375 0.72656,-0.3125 1.44531,-0.3125 0.75782,0 1.26563,0.15625 0.51562,0.148437 1.08594,0.460937 l 0.0937,-0.375 h 1.375 z m -1.46875,-1.40625 v -4.757812 q -0.58594,-0.265625 -1.09375,-0.375 -0.5,-0.117188 -1,-0.117188 -1.21094,0 -1.90625,0.8125 -0.69532,0.8125 -0.69532,2.359375 0,1.46875 0.51563,2.226563 0.51562,0.757812 1.71094,0.757812 0.64062,0 1.28125,-0.242187 0.64843,-0.25 1.1875,-0.664063 z"
       style="font-style:normal;font-variant:normal;font-weight:normal;font-stretch:normal;font-size:16px;line-height:1.3;font-family:sans-serif;-inkscape-font-specification:'sans-serif, Normal';font-variant-ligatures:normal;font-variant-caps:normal;font-variant-numeric:normal;font-variant-east-asian:normal"
       id="path1026" />
    <path
       d="m 605.04907,112.46678 q 0,0.67969 -0.32031,1.34375 -0.3125,0.66406 -0.88281,1.125 -0.625,0.5 -1.46094,0.78125 -0.82813,0.28125 -2,0.28125 -1.25781,0 -2.26563,-0.23437 -1,-0.23438 -2.03906,-0.69532 v -1.9375 h 0.10938 q 0.88281,0.73438 2.03906,1.13282 1.15625,0.39843 2.17187,0.39843 1.4375,0 2.23438,-0.53906 0.80469,-0.53906 0.80469,-1.4375 0,-0.77344 -0.38282,-1.14062 -0.375,-0.36719 -1.14843,-0.57032 -0.58594,-0.15625 -1.27344,-0.25781 -0.67969,-0.10156 -1.44531,-0.25781 -1.54688,-0.32813 -2.29688,-1.11719 -0.74219,-0.79687 -0.74219,-2.07031 0,-1.46094 1.23438,-2.39063 1.23437,-0.9375 3.13281,-0.9375 1.22656,0 2.25,0.23438 1.02344,0.23437 1.8125,0.57812 v 1.82813 h -0.10937 q -0.66407,-0.5625 -1.75,-0.92969 -1.07813,-0.375 -2.21094,-0.375 -1.24219,0 -2,0.51563 -0.75,0.51562 -0.75,1.32812 0,0.72656 0.375,1.14063 0.375,0.41406 1.32031,0.63281 0.5,0.10937 1.42188,0.26562 0.92187,0.15625 1.5625,0.32032 1.29687,0.34375 1.95312,1.03906 0.65625,0.69531 0.65625,1.94531 z"
       style="font-style:normal;font-variant:normal;font-weight:normal;font-stretch:normal;font-size:16px;line-height:1.3;font-family:sans-serif;-inkscape-font-specification:'sans-serif, Normal';font-variant-ligatures:normal;font-variant-caps:normal;font-variant-numeric:normal;font-variant-east-asian:normal"
       id="path1028" />
    <path
       d="m 614.72095,111.57616 h -6.42969 q 0,0.80468 0.24219,1.40625 0.24218,0.59375 0.66406,0.97656 0.40625,0.375 0.96094,0.5625 0.5625,0.1875 1.23437,0.1875 0.89063,0 1.78906,-0.35156 0.90625,-0.35938 1.28907,-0.70313 h 0.0781 v 1.60156 q -0.74219,0.3125 -1.51562,0.52344 -0.77344,0.21094 -1.625,0.21094 -2.17188,0 -3.39063,-1.17188 -1.21875,-1.17968 -1.21875,-3.34375 0,-2.14062 1.16406,-3.39843 1.17188,-1.25782 3.07813,-1.25782 1.76562,0 2.71875,1.03125 0.96094,1.03125 0.96094,2.92969 z m -1.42969,-1.125 q -0.008,-1.15625 -0.58594,-1.78907 -0.57031,-0.63281 -1.74219,-0.63281 -1.17968,0 -1.88281,0.69531 -0.69531,0.69532 -0.78906,1.72657 z"
       style="font-style:normal;font-variant:normal;font-weight:normal;font-stretch:normal;font-size:16px;line-height:1.3;font-family:sans-serif;-inkscape-font-specification:'sans-serif, Normal';font-variant-ligatures:normal;font-variant-caps:normal;font-variant-numeric:normal;font-variant-east-asian:normal"
       id="path1030" />
    <path
       d="m 623.40063,115.24022 q -0.73437,0.35156 -1.39843,0.54687 -0.65625,0.19532 -1.39844,0.19532 -0.94531,0 -1.73438,-0.27344 -0.78906,-0.28125 -1.35156,-0.84375 -0.57031,-0.5625 -0.88281,-1.42188 -0.3125,-0.85937 -0.3125,-2.00781 0,-2.14062 1.17187,-3.35937 1.17969,-1.21875 3.10938,-1.21875 0.75,0 1.46875,0.21093 0.72656,0.21094 1.32812,0.51563 v 1.63281 h -0.0781 q -0.67188,-0.52344 -1.39063,-0.80469 -0.71093,-0.28125 -1.39062,-0.28125 -1.25,0 -1.97656,0.84375 -0.71875,0.83594 -0.71875,2.46094 0,1.57813 0.70312,2.42969 0.71094,0.84375 1.99219,0.84375 0.44531,0 0.90625,-0.11719 0.46094,-0.11719 0.82812,-0.30469 0.32032,-0.16406 0.60157,-0.34375 0.28125,-0.1875 0.44531,-0.32031 h 0.0781 z"
       style="font-style:normal;font-variant:normal;font-weight:normal;font-stretch:normal;font-size:16px;line-height:1.3;font-family:sans-serif;-inkscape-font-specification:'sans-serif, Normal';font-variant-ligatures:normal;font-variant-caps:normal;font-variant-numeric:normal;font-variant-east-asian:normal"
       id="path1032" />
    <path
       d="m 630.72876,108.66209 h -0.0781 q -0.32812,-0.0781 -0.64062,-0.10937 -0.30469,-0.0391 -0.72656,-0.0391 -0.67969,0 -1.3125,0.30468 -0.63282,0.29688 -1.21875,0.77344 v 6.19531 h -1.46875 v -8.72656 h 1.46875 v 1.28906 q 0.875,-0.70312 1.53906,-0.99218 0.67187,-0.29688 1.36719,-0.29688 0.38281,0 0.55468,0.0234 0.17188,0.0156 0.51563,0.0703 z"
       style="font-style:normal;font-variant:normal;font-weight:normal;font-stretch:normal;font-size:16px;line-height:1.3;font-family:sans-serif;-inkscape-font-specification:'sans-serif, Normal';font-variant-ligatures:normal;font-variant-caps:normal;font-variant-numeric:normal;font-variant-east-asian:normal"
       id="path1034" />
    <path
       d="m 639.41626,111.57616 h -6.42969 q 0,0.80468 0.24219,1.40625 0.24219,0.59375 0.66406,0.97656 0.40625,0.375 0.96094,0.5625 0.5625,0.1875 1.23437,0.1875 0.89063,0 1.78907,-0.35156 0.90625,-0.35938 1.28906,-0.70313 h 0.0781 v 1.60156 q -0.74218,0.3125 -1.51562,0.52344 -0.77344,0.21094 -1.625,0.21094 -2.17188,0 -3.39063,-1.17188 -1.21875,-1.17968 -1.21875,-3.34375 0,-2.14062 1.16407,-3.39843 1.17187,-1.25782 3.07812,-1.25782 1.76563,0 2.71875,1.03125 0.96094,1.03125 0.96094,2.92969 z m -1.42969,-1.125 q -0.008,-1.15625 -0.58594,-1.78907 -0.57031,-0.63281 -1.74218,-0.63281 -1.17969,0 -1.88282,0.69531 -0.69531,0.69532 -0.78906,1.72657 z"
       style="font-style:normal;font-variant:normal;font-weight:normal;font-stretch:normal;font-size:16px;line-height:1.3;font-family:sans-serif;-inkscape-font-specification:'sans-serif, Normal';font-variant-ligatures:normal;font-variant-caps:normal;font-variant-numeric:normal;font-variant-east-asian:normal"
       id="path1036" />
    <path
       d="m 646.17407,115.70897 q -0.41406,0.10937 -0.90625,0.17969 -0.48437,0.0703 -0.86719,0.0703 -1.33593,0 -2.03125,-0.71875 -0.69531,-0.71875 -0.69531,-2.30469 v -4.64062 h -0.99219 v -1.23438 h 0.99219 v -2.50781 h 1.46875 v 2.50781 h 3.03125 v 1.23438 h -3.03125 v 3.97656 q 0,0.6875 0.0312,1.07812 0.0312,0.38282 0.21875,0.71875 0.17188,0.3125 0.46875,0.46094 0.30469,0.14063 0.92188,0.14063 0.35937,0 0.75,-0.10157 0.39062,-0.10937 0.5625,-0.17968 h 0.0781 z"
       style="font-style:normal;font-variant:normal;font-weight:normal;font-stretch:normal;font-size:16px;line-height:1.3;font-family:sans-serif;-inkscape-font-specification:'sans-serif, Normal';font-variant-ligatures:normal;font-variant-caps:normal;font-variant-numeric:normal;font-variant-east-asian:normal"
       id="path1038" />
    <path
       d="m 654.18188,113.27147 q 0,1.19531 -0.99218,1.96094 -0.98438,0.76562 -2.69532,0.76562 -0.96875,0 -1.78125,-0.22656 -0.80468,-0.23438 -1.35156,-0.50781 v -1.64844 h 0.0781 q 0.69531,0.52344 1.54687,0.83594 0.85156,0.30468 1.63281,0.30468 0.96875,0 1.51563,-0.3125 0.54687,-0.3125 0.54687,-0.98437 0,-0.51563 -0.29687,-0.78125 -0.29688,-0.26563 -1.14063,-0.45313 -0.3125,-0.0703 -0.82031,-0.16406 -0.5,-0.0937 -0.91406,-0.20312 -1.14844,-0.30469 -1.63281,-0.89063 -0.47657,-0.59375 -0.47657,-1.45312 0,-0.53907 0.21875,-1.01563 0.22657,-0.47656 0.67969,-0.85156 0.4375,-0.36719 1.10938,-0.57813 0.67968,-0.21875 1.51562,-0.21875 0.78125,0 1.57813,0.19532 0.80468,0.1875 1.33593,0.46093 v 1.57032 h -0.0781 q -0.5625,-0.41407 -1.36719,-0.69532 -0.80469,-0.28906 -1.57812,-0.28906 -0.80469,0 -1.35938,0.3125 -0.55469,0.30469 -0.55469,0.91406 0,0.53907 0.33594,0.8125 0.32813,0.27344 1.0625,0.44532 0.40625,0.0937 0.90625,0.1875 0.50781,0.0937 0.84375,0.17187 1.02344,0.23438 1.57813,0.80469 0.55468,0.57812 0.55468,1.53125 z"
       style="font-style:normal;font-variant:normal;font-weight:normal;font-stretch:normal;font-size:16px;line-height:1.3;font-family:sans-serif;-inkscape-font-specification:'sans-serif, Normal';font-variant-ligatures:normal;font-variant-caps:normal;font-variant-numeric:normal;font-variant-east-asian:normal"
       id="path1040" />
    <path
       d="m 674.64282,115.78709 h -1.46875 v -4.96875 q 0,-0.5625 -0.0547,-1.08593 -0.0469,-0.52344 -0.21093,-0.83594 -0.17969,-0.33594 -0.51563,-0.50781 -0.33594,-0.17188 -0.96875,-0.17188 -0.61719,0 -1.23437,0.3125 -0.61719,0.30469 -1.23438,0.78125 0.0234,0.17969 0.0391,0.42188 0.0156,0.23437 0.0156,0.46875 v 5.58593 h -1.46875 v -4.96875 q 0,-0.57812 -0.0547,-1.09375 -0.0469,-0.52343 -0.21094,-0.83593 -0.17968,-0.33594 -0.51562,-0.5 -0.33594,-0.17188 -0.96875,-0.17188 -0.60156,0 -1.21094,0.29688 -0.60156,0.29687 -1.20312,0.75781 v 6.51562 h -1.46875 v -8.72656 h 1.46875 v 0.96875 q 0.6875,-0.57031 1.36718,-0.89062 0.6875,-0.32032 1.46094,-0.32032 0.89063,0 1.50781,0.375 0.625,0.375 0.92969,1.03907 0.89063,-0.75 1.625,-1.07813 0.73438,-0.33594 1.57031,-0.33594 1.4375,0 2.11719,0.875 0.6875,0.86719 0.6875,2.42969 z"
       style="font-style:normal;font-variant:normal;font-weight:normal;font-stretch:normal;font-size:16px;line-height:1.3;font-family:sans-serif;-inkscape-font-specification:'sans-serif, Normal';font-variant-ligatures:normal;font-variant-caps:normal;font-variant-numeric:normal;font-variant-east-asian:normal"
       id="path1042" />
    <path
       d="m 684.2522,115.78709 h -1.46094 v -0.92968 q -0.19531,0.13281 -0.53125,0.375 -0.32813,0.23437 -0.64063,0.375 -0.36718,0.17968 -0.84375,0.29687 -0.47656,0.125 -1.11718,0.125 -1.17969,0 -2,-0.78125 -0.82032,-0.78125 -0.82032,-1.99219 0,-0.99218 0.42188,-1.60156 0.42969,-0.61719 1.21875,-0.96875 0.79687,-0.35156 1.91406,-0.47656 1.11719,-0.125 2.39844,-0.1875 v -0.22656 q 0,-0.5 -0.17969,-0.82813 -0.17187,-0.32812 -0.5,-0.51562 -0.3125,-0.17969 -0.75,-0.24219 -0.4375,-0.0625 -0.91406,-0.0625 -0.57813,0 -1.28906,0.15625 -0.71094,0.14844 -1.46875,0.4375 h -0.0781 v -1.49219 q 0.42969,-0.11719 1.24219,-0.25781 0.8125,-0.14063 1.60156,-0.14063 0.92188,0 1.60156,0.15625 0.6875,0.14844 1.1875,0.51563 0.49219,0.35937 0.75,0.92969 0.25782,0.57031 0.25782,1.41406 z m -1.46094,-2.14843 v -2.42969 q -0.67188,0.0391 -1.58594,0.11719 -0.90625,0.0781 -1.4375,0.22656 -0.63281,0.17969 -1.02344,0.5625 -0.39062,0.375 -0.39062,1.03906 0,0.75 0.45312,1.13281 0.45313,0.375 1.38282,0.375 0.77343,0 1.41406,-0.29687 0.64062,-0.30469 1.1875,-0.72656 z"
       style="font-style:normal;font-variant:normal;font-weight:normal;font-stretch:normal;font-size:16px;line-height:1.3;font-family:sans-serif;-inkscape-font-specification:'sans-serif, Normal';font-variant-ligatures:normal;font-variant-caps:normal;font-variant-numeric:normal;font-variant-east-asian:normal"
       id="path1044" />
    <path
       d="m 694.3772,115.78709 h -1.46875 v -4.96875 q 0,-0.60156 -0.0703,-1.125 -0.0703,-0.53125 -0.25781,-0.82812 -0.19531,-0.32813 -0.5625,-0.48438 -0.36719,-0.16406 -0.95312,-0.16406 -0.60157,0 -1.25782,0.29688 -0.65625,0.29687 -1.25781,0.75781 v 6.51562 h -1.46875 v -8.72656 h 1.46875 v 0.96875 q 0.6875,-0.57031 1.42188,-0.89062 0.73437,-0.32032 1.50781,-0.32032 1.41406,0 2.15625,0.85157 0.74219,0.85156 0.74219,2.45312 z"
       style="font-style:normal;font-variant:normal;font-weight:normal;font-stretch:normal;font-size:16px;line-height:1.3;font-family:sans-serif;-inkscape-font-specification:'sans-serif, Normal';font-variant-ligatures:normal;font-variant-caps:normal;font-variant-numeric:normal;font-variant-east-asian:normal"
       id="path1046" />
    <path
       d="m 703.98657,115.78709 h -1.46094 v -0.92968 q -0.19531,0.13281 -0.53125,0.375 -0.32812,0.23437 -0.64062,0.375 -0.36719,0.17968 -0.84375,0.29687 -0.47656,0.125 -1.11719,0.125 -1.17969,0 -2,-0.78125 -0.82031,-0.78125 -0.82031,-1.99219 0,-0.99218 0.42187,-1.60156 0.42969,-0.61719 1.21875,-0.96875 0.79688,-0.35156 1.91407,-0.47656 1.11718,-0.125 2.39843,-0.1875 v -0.22656 q 0,-0.5 -0.17968,-0.82813 -0.17188,-0.32812 -0.5,-0.51562 -0.3125,-0.17969 -0.75,-0.24219 -0.4375,-0.0625 -0.91407,-0.0625 -0.57812,0 -1.28906,0.15625 -0.71094,0.14844 -1.46875,0.4375 h -0.0781 v -1.49219 q 0.42968,-0.11719 1.24218,-0.25781 0.8125,-0.14063 1.60157,-0.14063 0.92187,0 1.60156,0.15625 0.6875,0.14844 1.1875,0.51563 0.49219,0.35937 0.75,0.92969 0.25781,0.57031 0.25781,1.41406 z m -1.46094,-2.14843 v -2.42969 q -0.67187,0.0391 -1.58593,0.11719 -0.90625,0.0781 -1.4375,0.22656 -0.63282,0.17969 -1.02344,0.5625 -0.39063,0.375 -0.39063,1.03906 0,0.75 0.45313,1.13281 0.45312,0.375 1.38281,0.375 0.77344,0 1.41406,-0.29687 0.64063,-0.30469 1.1875,-0.72656 z"
       style="font-style:normal;font-variant:normal;font-weight:normal;font-stretch:normal;font-size:16px;line-height:1.3;font-family:sans-serif;-inkscape-font-specification:'sans-serif, Normal';font-variant-ligatures:normal;font-variant-caps:normal;font-variant-numeric:normal;font-variant-east-asian:normal"
       id="path1048" />
    <path
       d="m 713.89282,114.79491 q 0,2.21875 -1.00781,3.25781 -1.00781,1.03906 -3.10156,1.03906 -0.69532,0 -1.35938,-0.10156 -0.65625,-0.0937 -1.29687,-0.27344 v -1.5 h 0.0781 q 0.35938,0.14063 1.14063,0.34375 0.78125,0.21094 1.5625,0.21094 0.75,0 1.24218,-0.17969 0.49219,-0.17969 0.76563,-0.5 0.27344,-0.30469 0.39062,-0.73437 0.11719,-0.42969 0.11719,-0.96094 v -0.79688 q -0.66406,0.53125 -1.27344,0.79688 -0.60156,0.25781 -1.53906,0.25781 -1.5625,0 -2.48437,-1.125 -0.91407,-1.13281 -0.91407,-3.1875 0,-1.125 0.3125,-1.9375 0.32032,-0.82031 0.86719,-1.41406 0.50781,-0.55469 1.23438,-0.85938 0.72656,-0.3125 1.44531,-0.3125 0.75781,0 1.26562,0.15625 0.51563,0.14844 1.08594,0.46094 l 0.0937,-0.375 h 1.375 z m -1.46875,-1.40625 v -4.75782 q -0.58594,-0.26562 -1.09375,-0.375 -0.5,-0.11718 -1,-0.11718 -1.21094,0 -1.90625,0.8125 -0.69531,0.8125 -0.69531,2.35937 0,1.46875 0.51562,2.22656 0.51563,0.75782 1.71094,0.75782 0.64063,0 1.28125,-0.24219 0.64844,-0.25 1.1875,-0.66406 z"
       style="font-style:normal;font-variant:normal;font-weight:normal;font-stretch:normal;font-size:16px;line-height:1.3;font-family:sans-serif;-inkscape-font-specification:'sans-serif, Normal';font-variant-ligatures:normal;font-variant-caps:normal;font-variant-numeric:normal;font-variant-east-asian:normal"
       id="path1050" />
    <path
       d="m 724.08813,111.57616 h -6.42968 q 0,0.80468 0.24218,1.40625 0.24219,0.59375 0.66407,0.97656 0.40625,0.375 0.96093,0.5625 0.5625,0.1875 1.23438,0.1875 0.89062,0 1.78906,-0.35156 0.90625,-0.35938 1.28906,-0.70313 h 0.0781 v 1.60156 q -0.74219,0.3125 -1.51563,0.52344 -0.77343,0.21094 -1.625,0.21094 -2.17187,0 -3.39062,-1.17188 -1.21875,-1.17968 -1.21875,-3.34375 0,-2.14062 1.16406,-3.39843 1.17188,-1.25782 3.07813,-1.25782 1.76562,0 2.71875,1.03125 0.96093,1.03125 0.96093,2.92969 z m -1.42968,-1.125 q -0.008,-1.15625 -0.58594,-1.78907 -0.57031,-0.63281 -1.74219,-0.63281 -1.17969,0 -1.88281,0.69531 -0.69531,0.69532 -0.78906,1.72657 z"
       style="font-style:normal;font-variant:normal;font-weight:normal;font-stretch:normal;font-size:16px;line-height:1.3;font-family:sans-serif;-inkscape-font-specification:'sans-serif, Normal';font-variant-ligatures:normal;font-variant-caps:normal;font-variant-numeric:normal;font-variant-east-asian:normal"
       id="path1052" />
    <path
       d="m 739.04907,115.78709 h -1.46875 v -4.96875 q 0,-0.5625 -0.0547,-1.08593 -0.0469,-0.52344 -0.21093,-0.83594 -0.17969,-0.33594 -0.51563,-0.50781 -0.33594,-0.17188 -0.96875,-0.17188 -0.61719,0 -1.23437,0.3125 -0.61719,0.30469 -1.23438,0.78125 0.0234,0.17969 0.0391,0.42188 0.0156,0.23437 0.0156,0.46875 v 5.58593 h -1.46875 v -4.96875 q 0,-0.57812 -0.0547,-1.09375 -0.0469,-0.52343 -0.21094,-0.83593 -0.17968,-0.33594 -0.51562,-0.5 -0.33594,-0.17188 -0.96875,-0.17188 -0.60156,0 -1.21094,0.29688 -0.60156,0.29687 -1.20312,0.75781 v 6.51562 h -1.46875 v -8.72656 h 1.46875 v 0.96875 q 0.6875,-0.57031 1.36718,-0.89062 0.6875,-0.32032 1.46094,-0.32032 0.89063,0 1.50781,0.375 0.625,0.375 0.92969,1.03907 0.89063,-0.75 1.625,-1.07813 0.73438,-0.33594 1.57031,-0.33594 1.4375,0 2.11719,0.875 0.6875,0.86719 0.6875,2.42969 z"
       style="font-style:normal;font-variant:normal;font-weight:normal;font-stretch:normal;font-size:16px;line-height:1.3;font-family:sans-serif;-inkscape-font-specification:'sans-serif, Normal';font-variant-ligatures:normal;font-variant-caps:normal;font-variant-numeric:normal;font-variant-east-asian:normal"
       id="path1054" />
    <path
       d="m 749.18188,111.57616 h -6.42968 q 0,0.80468 0.24218,1.40625 0.24219,0.59375 0.66407,0.97656 0.40625,0.375 0.96093,0.5625 0.5625,0.1875 1.23438,0.1875 0.89062,0 1.78906,-0.35156 0.90625,-0.35938 1.28906,-0.70313 h 0.0781 v 1.60156 q -0.74219,0.3125 -1.51563,0.52344 -0.77343,0.21094 -1.625,0.21094 -2.17187,0 -3.39062,-1.17188 -1.21875,-1.17968 -1.21875,-3.34375 0,-2.14062 1.16406,-3.39843 1.17188,-1.25782 3.07813,-1.25782 1.76562,0 2.71875,1.03125 0.96093,1.03125 0.96093,2.92969 z m -1.42968,-1.125 q -0.008,-1.15625 -0.58594,-1.78907 -0.57031,-0.63281 -1.74219,-0.63281 -1.17969,0 -1.88281,0.69531 -0.69531,0.69532 -0.78906,1.72657 z"
       style="font-style:normal;font-variant:normal;font-weight:normal;font-stretch:normal;font-size:16px;line-height:1.3;font-family:sans-serif;-inkscape-font-specification:'sans-serif, Normal';font-variant-ligatures:normal;font-variant-caps:normal;font-variant-numeric:normal;font-variant-east-asian:normal"
       id="path1056" />
    <path
       d="m 758.70532,115.78709 h -1.46875 v -4.96875 q 0,-0.60156 -0.0703,-1.125 -0.0703,-0.53125 -0.25781,-0.82812 -0.19532,-0.32813 -0.5625,-0.48438 -0.36719,-0.16406 -0.95313,-0.16406 -0.60156,0 -1.25781,0.29688 -0.65625,0.29687 -1.25781,0.75781 v 6.51562 h -1.46875 v -8.72656 h 1.46875 v 0.96875 q 0.6875,-0.57031 1.42187,-0.89062 0.73438,-0.32032 1.50781,-0.32032 1.41407,0 2.15625,0.85157 0.74219,0.85156 0.74219,2.45312 z"
       style="font-style:normal;font-variant:normal;font-weight:normal;font-stretch:normal;font-size:16px;line-height:1.3;font-family:sans-serif;-inkscape-font-specification:'sans-serif, Normal';font-variant-ligatures:normal;font-variant-caps:normal;font-variant-numeric:normal;font-variant-east-asian:normal"
       id="path1058" />
    <path
       d="m 766.0647,115.70897 q -0.41407,0.10937 -0.90625,0.17969 -0.48438,0.0703 -0.86719,0.0703 -1.33594,0 -2.03125,-0.71875 -0.69531,-0.71875 -0.69531,-2.30469 v -4.64062 h -0.99219 v -1.23438 h 0.99219 v -2.50781 h 1.46875 v 2.50781 h 3.03125 v 1.23438 h -3.03125 v 3.97656 q 0,0.6875 0.0312,1.07812 0.0312,0.38282 0.21875,0.71875 0.17187,0.3125 0.46875,0.46094 0.30468,0.14063 0.92187,0.14063 0.35938,0 0.75,-0.10157 0.39063,-0.10937 0.5625,-0.17968 h 0.0781 z"
       style="font-style:normal;font-variant:normal;font-weight:normal;font-stretch:normal;font-size:16px;line-height:1.3;font-family:sans-serif;-inkscape-font-specification:'sans-serif, Normal';font-variant-ligatures:normal;font-variant-caps:normal;font-variant-numeric:normal;font-variant-east-asian:normal"
       id="path1060" />
  </g>
  <text
     xml:space="preserve"
     style="font-style:normal;font-weight:normal;font-size:40px;line-height:0;font-family:sans-serif;fill:#000000;fill-opacity:1;stroke:none"
     x="217.02077"
     y="74.348724"
     id="text910-5"><tspan
       style="font-style:normal;font-variant:normal;font-weight:normal;font-stretch:normal;font-size:16px;line-height:1.3;font-family:sans-serif;-inkscape-font-specification:'sans-serif, Normal';font-variant-ligatures:normal;font-variant-caps:normal;font-variant-numeric:normal;font-variant-east-asian:normal"
       sodipodi:role="line"
       id="tspan938-1"
       x="217.02077"
       y="74.348724">Manifest</tspan><tspan
       style="font-style:normal;font-variant:normal;font-weight:normal;font-stretch:normal;font-size:16px;line-height:1.3;font-family:sans-serif;-inkscape-font-specification:'sans-serif, Normal';font-variant-ligatures:normal;font-variant-caps:normal;font-variant-numeric:normal;font-variant-east-asian:normal"
       sodipodi:role="line"
       x="217.02077"
       y="95.148727"
       id="tspan969">(JSON)</tspan></text>
</svg>
