<svg width="994" height="377" xmlns="http://www.w3.org/2000/svg" xmlns:xlink="http://www.w3.org/1999/xlink" overflow="hidden"><defs><clipPath id="clip0"><rect x="81" y="229" width="994" height="377"/></clipPath><clipPath id="clip1"><rect x="151" y="246" width="96" height="96"/></clipPath><clipPath id="clip2"><rect x="151" y="246" width="96" height="96"/></clipPath><clipPath id="clip3"><rect x="151" y="246" width="96" height="96"/></clipPath><clipPath id="clip4"><rect x="959" y="246" width="96" height="96"/></clipPath><clipPath id="clip5"><rect x="959" y="246" width="96" height="96"/></clipPath><clipPath id="clip6"><rect x="959" y="246" width="96" height="96"/></clipPath><clipPath id="clip7"><rect x="322" y="236" width="43" height="43"/></clipPath><clipPath id="clip8"><rect x="322" y="236" width="43" height="43"/></clipPath><clipPath id="clip9"><rect x="322" y="236" width="43" height="43"/></clipPath><clipPath id="clip10"><rect x="770" y="237" width="57" height="57"/></clipPath><clipPath id="clip11"><rect x="770" y="237" width="57" height="57"/></clipPath><clipPath id="clip12"><rect x="770" y="237" width="57" height="57"/></clipPath></defs><g clip-path="url(#clip0)" transform="translate(-81 -229)"><path d="M804.5 524.167C804.5 515.514 811.514 508.5 820.167 508.5L951.833 508.5C960.486 508.5 967.5 515.514 967.5 524.167L967.5 586.833C967.5 595.486 960.486 602.5 951.833 602.5L820.167 602.5C811.514 602.5 804.5 595.486 804.5 586.833Z" stroke="#797A7A" stroke-width="3" stroke-miterlimit="8" fill="#F2F2F2" fill-rule="evenodd"/><text fill="#00010D" font-family="Roboto,Roboto_MSFontService,sans-serif" font-weight="300" font-size="21" transform="translate(842.361 576)">Service X</text><path d="M820.468 509.5 951.532 509.5C959.246 509.5 965.5 515.754 965.5 523.468L965.5 548.5 806.5 548.5 806.5 523.468C806.5 515.754 812.754 509.5 820.468 509.5Z" stroke="#A5A6A6" stroke-width="1.33333" stroke-miterlimit="8" fill="#A5A6A6" fill-rule="evenodd"/><text fill="#FFFFFF" font-family="Roboto,Roboto_MSFontService,sans-serif" font-weight="300" font-size="21" transform="translate(852.92 538)">Marble</text><path d="M520.5 524.167C520.5 515.514 527.514 508.5 536.167 508.5L667.833 508.5C676.486 508.5 683.5 515.514 683.5 524.167L683.5 586.833C683.5 595.486 676.486 602.5 667.833 602.5L536.167 602.5C527.514 602.5 520.5 595.486 520.5 586.833Z" stroke="#797A7A" stroke-width="3" stroke-miterlimit="8" fill="#F2F2F2" fill-rule="evenodd"/><text fill="#00010D" font-family="Roboto,Roboto_MSFontService,sans-serif" font-weight="300" font-size="21" transform="translate(558.437 576)">Service B</text><path d="M536.468 509.5 667.532 509.5C675.246 509.5 681.5 515.754 681.5 523.468L681.5 548.5 522.5 548.5 522.5 523.468C522.5 515.754 528.754 509.5 536.468 509.5Z" stroke="#A5A6A6" stroke-width="1.33333" stroke-miterlimit="8" fill="#A5A6A6" fill-rule="evenodd"/><text fill="#FFFFFF" font-family="Roboto,Roboto_MSFontService,sans-serif" font-weight="300" font-size="21" transform="translate(568.996 538)">Marble</text><path d="M236.5 525.167C236.5 516.514 243.514 509.5 252.167 509.5L383.833 509.5C392.486 509.5 399.5 516.514 399.5 525.167L399.5 587.833C399.5 596.486 392.486 603.5 383.833 603.5L252.167 603.5C243.514 603.5 236.5 596.486 236.5 587.833Z" stroke="#797A7A" stroke-width="3" stroke-miterlimit="8" fill="#F2F2F2" fill-rule="evenodd"/><text fill="#00010D" font-family="Roboto,Roboto_MSFontService,sans-serif" font-weight="300" font-size="21" transform="translate(274.345 578)">Service A</text><path d="M252.468 511.5 383.532 511.5C391.246 511.5 397.5 517.754 397.5 525.468L397.5 550.5 238.5 550.5 238.5 525.468C238.5 517.754 244.754 511.5 252.468 511.5Z" stroke="#A5A6A6" stroke-width="1.33333" stroke-miterlimit="8" fill="#A5A6A6" fill-rule="evenodd"/><text fill="#FFFFFF" font-family="Roboto,Roboto_MSFontService,sans-serif" font-weight="300" font-size="21" transform="translate(285.071 540)">Marble</text><path d="M952.428 295.65 703.997 295 704.003 293 952.433 293.65ZM951.108 290.646 959.098 294.667 951.087 298.646Z" fill="#00010D"/><path d="M0.00463234-0.999989 245.403 0.136792 245.394 2.13677-0.00463234 0.999989ZM244.084-2.86935 252.065 1.16766 244.047 5.13056Z" fill="#00010D" transform="matrix(1 0 0 -1 247 294.168)"/><path d="M662.789 323.454 880.924 502.348 879.656 503.894 661.521 325.001ZM660.649 328.166 657 320 665.722 321.98ZM881.795 499.182 885.444 507.348 876.722 505.368Z" fill="#00010D"/><path d="M602.03 326.662 602.823 500.593 600.823 500.602 600.03 326.671ZM597.036 328.018 601 320 605.036 327.982ZM605.817 499.246 601.853 507.265 597.817 499.283Z" fill="#00010D"/><path d="M5.67825 3.63243 211.792 183.683 210.476 185.19 4.36248 5.13866ZM3.39339 8.27556 0 0 8.65648 2.25062ZM212.761 180.547 216.154 188.822 207.498 186.572Z" fill="#00010D" transform="matrix(-1 0 0 1 534.154 321)"/><g clip-path="url(#clip1)"><g clip-path="url(#clip2)"><g clip-path="url(#clip3)"><path d="M215 276C215 284.837 207.837 292 199 292 190.163 292 183 284.837 183 276 183 267.163 190.163 260 199 260 207.837 260 215 267.163 215 276Z"/><path d="M231 328 231 312C231 309.6 229.8 307.2 227.8 305.6 223.4 302 217.8 299.6 212.2 298 208.2 296.8 203.8 296 199 296 194.6 296 190.2 296.8 185.8 298 180.2 299.6 174.6 302.4 170.2 305.6 168.2 307.2 167 309.6 167 312L167 328 231 328Z"/></g></g></g><text fill="#00010D" font-family="Roboto,Roboto_MSFontService,sans-serif" font-weight="300" font-size="24" transform="translate(110.435 368)">DevOps engineer</text><g clip-path="url(#clip4)"><g clip-path="url(#clip5)"><g clip-path="url(#clip6)"><path d="M1023 276C1023 284.837 1015.84 292 1007 292 998.163 292 991 284.837 991 276 991 267.163 998.163 260 1007 260 1015.84 260 1023 267.163 1023 276Z" fill="#5BD9D9"/><path d="M1039 328 1039 312C1039 309.6 1037.8 307.2 1035.8 305.6 1031.4 302 1025.8 299.6 1020.2 298 1016.2 296.8 1011.8 296 1007 296 1002.6 296 998.2 296.8 993.8 298 988.2 299.6 982.6 302.4 978.2 305.6 976.2 307.2 975 309.6 975 312L975 328 1039 328Z" fill="#5BD9D9"/></g></g></g><text fill="#00010D" font-family="Roboto,Roboto_MSFontService,sans-serif" font-weight="300" font-size="24" transform="translate(982.681 364)">User</text><g clip-path="url(#clip7)"><g clip-path="url(#clip8)"><g clip-path="url(#clip9)"><path d="M334.542 254.812 352.458 254.812 352.458 255.708 334.542 255.708Z"/><path d="M334.542 251.229 343.052 251.229 343.052 252.125 334.542 252.125Z"/><path d="M334.542 258.396 352.458 258.396 352.458 259.292 334.542 259.292Z"/><path d="M334.542 261.979 352.458 261.979 352.458 262.875 334.542 262.875Z"/><path d="M334.542 265.562 352.458 265.562 352.458 266.458 334.542 266.458Z"/><path d="M334.542 269.146 352.458 269.146 352.458 270.042 334.542 270.042Z"/><path d="M330.062 239.583 330.062 275.417 356.938 275.417 356.938 249.252 347.269 239.583ZM347.539 241.12 355.401 248.982C355.402 248.984 355.402 248.987 355.401 248.988 355.4 248.989 355.399 248.99 355.398 248.99L347.531 248.99 347.531 241.123C347.531 241.121 347.533 241.119 347.536 241.119 347.537 241.119 347.538 241.119 347.539 241.12ZM330.958 274.521 330.958 240.479 346.635 240.479 346.635 249.885 356.042 249.885 356.042 274.521Z"/></g></g></g><text fill="#00010D" font-family="Roboto,Roboto_MSFontService,sans-serif" font-weight="300" font-size="19" transform="translate(368.605 253)">Manifest<tspan font-size="19" x="0" y="22">(JSON)</tspan></text><g clip-path="url(#clip10)"><g clip-path="url(#clip11)"><g clip-path="url(#clip12)"><path d="M820.566 266.119C821.992 266.119 822.844 264.623 822.844 262.118 822.844 258.224 820.704 252.463 816.113 252.463L806.968 252.463C806.576 252.199 806.123 252.039 805.653 251.999 805.325 251.409 804.799 250.954 804.168 250.715 803.6 250.493 802.975 250.454 802.384 250.606 801.896 250.253 801.31 250.063 800.709 250.062 800.034 250.062 799.38 250.291 798.854 250.713 797.58 250.353 796.223 250.894 795.546 252.032 795.16 252.102 794.791 252.248 794.462 252.463L780.488 252.463C777.159 252.463 774.551 256.635 774.551 261.963 774.551 267.268 777.138 271.425 780.448 271.46L794.441 271.463 794.441 280.963 800.379 276.361 806.316 280.963 806.316 271.463 820.269 271.463C820.597 271.463 820.863 271.197 820.863 270.869 820.863 270.541 820.597 270.275 820.269 270.275 818.222 270.352 816.497 268.76 816.41 266.713L816.41 266.119ZM796.341 253.157 796.484 252.811C796.655 252.414 796.974 252.1 797.372 251.932 797.816 251.739 798.322 251.741 798.765 251.938L799.147 252.099 799.429 251.796C800.09 251.106 801.181 251.072 801.884 251.719L802.16 251.956 802.496 251.818C802.897 251.661 803.343 251.663 803.742 251.824 804.191 251.988 804.546 252.341 804.712 252.79L804.863 253.199 805.298 253.178C805.783 253.143 806.258 253.327 806.594 253.678 806.897 253.984 807.076 254.391 807.095 254.822L807.115 255.195 807.461 255.337C807.858 255.509 808.172 255.827 808.339 256.225 808.533 256.67 808.531 257.176 808.333 257.619L808.173 258 808.476 258.283C808.829 258.614 809.027 259.078 809.021 259.562 809.021 259.992 808.859 260.406 808.567 260.721L808.31 260.999 808.454 261.349C808.611 261.75 808.608 262.196 808.448 262.595 808.284 263.045 807.931 263.399 807.482 263.565L807.073 263.716 807.094 264.15C807.125 264.635 806.943 265.109 806.594 265.447 806.287 265.749 805.88 265.927 805.45 265.947L805.077 265.968 804.934 266.314C804.763 266.711 804.445 267.025 804.046 267.192 803.602 267.386 803.096 267.384 802.653 267.187L802.271 267.026 801.989 267.329C801.328 268.018 800.237 268.053 799.534 267.406L799.258 267.169 798.922 267.307C798.521 267.464 798.075 267.462 797.676 267.301 797.226 267.137 796.872 266.784 796.706 266.335L796.555 265.926 796.12 265.947C795.636 265.979 795.161 265.796 794.824 265.447 794.521 265.141 794.342 264.733 794.324 264.303L794.303 263.93 793.957 263.787C793.56 263.615 793.246 263.297 793.079 262.899 792.885 262.455 792.887 261.949 793.084 261.506L793.245 261.124 792.942 260.842C792.589 260.511 792.391 260.047 792.396 259.562 792.404 259.127 792.571 258.709 792.866 258.388L793.102 258.112 792.964 257.775C792.807 257.375 792.809 256.929 792.97 256.53 793.134 256.08 793.487 255.725 793.936 255.56L794.345 255.409 794.324 254.974C794.292 254.49 794.475 254.015 794.824 253.677 795.131 253.376 795.538 253.198 795.967 253.177ZM793.407 253.65C793.262 253.955 793.174 254.283 793.145 254.619 792.555 254.946 792.1 255.472 791.862 256.103 791.64 256.672 791.601 257.296 791.752 257.887 791.4 258.375 791.21 258.961 791.209 259.562 791.208 260.237 791.438 260.891 791.86 261.418 791.67 262.069 791.718 262.766 791.995 263.384 792.238 263.945 792.652 264.414 793.179 264.725 793.191 264.796 793.214 264.862 793.231 264.931L785.022 264.931C785.754 263.889 786.141 262.643 786.129 261.369 786.129 257.901 785.11 255.133 783.462 253.65ZM780.488 270.275C777.913 270.275 775.738 266.469 775.738 261.963 775.738 257.457 777.913 253.65 780.488 253.65 783.11 253.65 784.941 256.824 784.941 261.368 784.941 261.514 784.903 264.931 782.566 264.931 781.279 264.931 780.191 263.164 780.191 261.072 780.19 260.64 780.237 260.21 780.33 259.788 780.401 259.468 780.2 259.15 779.88 259.079 779.56 259.007 779.242 259.209 779.171 259.529 779.059 260.036 779.003 260.553 779.004 261.072 779.004 263.902 780.569 266.119 782.566 266.119L793.841 266.119C793.889 266.175 793.932 266.235 793.985 266.287 794.124 266.425 794.277 266.549 794.441 266.657L794.441 270.275ZM801.106 275.423 800.379 274.859 799.651 275.423 795.629 278.54 795.629 267.102C795.675 267.108 795.719 267.122 795.765 267.126 796.093 267.716 796.618 268.171 797.25 268.41 797.818 268.632 798.442 268.67 799.034 268.519 799.521 268.872 800.107 269.062 800.709 269.062 801.383 269.063 802.038 268.834 802.564 268.412 803.215 268.601 803.912 268.553 804.531 268.277 804.743 268.18 804.944 268.058 805.129 267.915L805.129 278.54ZM816.942 270.275 806.316 270.275 806.316 266.978C806.737 266.837 807.119 266.6 807.433 266.287 807.487 266.234 807.528 266.174 807.576 266.119L815.222 266.119 815.222 266.712C815.233 268.098 815.864 269.405 816.942 270.275ZM808.199 264.931C808.234 264.792 808.259 264.65 808.273 264.506 808.863 264.179 809.318 263.653 809.557 263.022 809.778 262.456 809.817 261.835 809.668 261.246 810.02 260.755 810.209 260.166 810.209 259.562 810.21 258.888 809.98 258.234 809.558 257.707 809.918 256.433 809.377 255.077 808.239 254.4 808.192 254.141 808.11 253.888 807.996 253.65L816.113 253.65C819.73 253.65 821.656 258.568 821.656 262.118 821.656 263.775 821.208 264.931 820.566 264.931Z"/><path d="M800.578 265.366C803.784 265.366 806.382 262.768 806.382 259.562 806.382 256.357 803.784 253.759 800.578 253.759 797.373 253.759 794.775 256.357 794.775 259.562 794.779 262.766 797.375 265.362 800.578 265.366ZM800.578 254.946C803.128 254.946 805.194 257.013 805.194 259.562 805.194 262.112 803.128 264.179 800.578 264.179 798.029 264.179 795.962 262.112 795.962 259.562 795.965 257.014 798.03 254.949 800.578 254.946Z"/></g></g></g><text fill="#00010D" font-family="Roboto,Roboto_MSFontService,sans-serif" font-weight="300" font-size="19" transform="translate(828.783 269)">Quote</text><path d="M499.75 277.325C499.75 272.451 503.676 268.5 508.52 268.5L695.731 268.5C700.574 268.5 704.5 272.451 704.5 277.325 704.403 282.984 704.307 276.806 704.46 294.301 704.557 312.497 704.403 306.516 704.5 312.623 704.5 317.497 700.574 321.448 695.731 321.448 683.041 321.381 695.628 321.566 657.662 321.248 601.327 321.528 658.357 321.304 601.271 321.332 534.397 321.136 601.16 321.444 534.286 321.5L508.52 321.448C503.676 321.448 499.75 317.497 499.75 312.623 499.667 306.348 499.583 312.413 499.5 293.798 499.583 277.478 499.667 282.816 499.75 277.325Z" stroke="#D44FEA" stroke-width="3" stroke-miterlimit="8" fill="none" fill-rule="evenodd"/><text fill="#00010D" font-family="Roboto,Roboto_MSFontService,sans-serif" font-weight="300" font-size="21" transform="translate(545.978 301)">Coordinator<tspan font-size="19" x="72.9908" y="131">Attestation</tspan><tspan font-size="19" x="72.9908" y="153">Provisioning</tspan><tspan font-size="19" x="72.9908" y="176">Secrets management</tspan></text><path d="M6.68041-0.904247 113.526 0.628861 113.498 2.62866 6.65172 1.09555ZM7.94179 4.11437 0 0 8.05657-3.88481ZM112.236-2.38996 120.178 1.72441 112.121 5.60922Z" fill="#00010D" transform="matrix(1 0 0 -1 399 556.724)"/><path d="M689.667 554 796.511 554 796.511 556 689.667 556ZM691 559 683 555 691 551ZM795.178 551 803.178 555 795.178 559Z" fill="#00010D"/></g></svg>