<svg width="1500" height="860" viewBox="0 0 1500 860" fill="none" xmlns="http://www.w3.org/2000/svg">
<path d="M315.582 90.4648C315.055 94.9766 313.385 98.4629 310.572 100.924C307.779 103.365 304.059 104.586 299.41 104.586C294.371 104.586 290.328 102.779 287.281 99.166C284.254 95.5527 282.74 90.7188 282.74 84.6641V80.5625C282.74 76.5977 283.443 73.1113 284.85 70.1035C286.275 67.0957 288.287 64.791 290.885 63.1895C293.482 61.5684 296.49 60.7578 299.908 60.7578C304.439 60.7578 308.072 62.0273 310.807 64.5664C313.541 67.0859 315.133 70.582 315.582 75.0547H309.928C309.439 71.6562 308.375 69.1953 306.734 67.6719C305.113 66.1484 302.838 65.3867 299.908 65.3867C296.314 65.3867 293.492 66.7148 291.441 69.3711C289.41 72.0273 288.395 75.8066 288.395 80.709V84.8398C288.395 89.4688 289.361 93.1504 291.295 95.8848C293.229 98.6191 295.934 99.9863 299.41 99.9863C302.535 99.9863 304.928 99.2832 306.588 97.877C308.268 96.4512 309.381 93.9805 309.928 90.4648H315.582ZM328.326 104H322.906V59H328.326V104ZM356.598 100.865C354.488 103.346 351.393 104.586 347.311 104.586C343.932 104.586 341.354 103.609 339.576 101.656C337.818 99.6836 336.93 96.7734 336.91 92.9258V72.3008H342.33V92.7793C342.33 97.584 344.283 99.9863 348.189 99.9863C352.33 99.9863 355.084 98.4434 356.451 95.3574V72.3008H361.871V104H356.715L356.598 100.865ZM388.59 95.5918C388.59 94.127 388.033 92.9941 386.92 92.1934C385.826 91.373 383.902 90.6699 381.148 90.084C378.414 89.498 376.236 88.7949 374.615 87.9746C373.014 87.1543 371.822 86.1777 371.041 85.0449C370.279 83.9121 369.898 82.5645 369.898 81.002C369.898 78.4043 370.992 76.207 373.18 74.4102C375.387 72.6133 378.199 71.7148 381.617 71.7148C385.211 71.7148 388.121 72.6426 390.348 74.498C392.594 76.3535 393.717 78.7266 393.717 81.6172H388.268C388.268 80.1328 387.633 78.8535 386.363 77.7793C385.113 76.7051 383.531 76.168 381.617 76.168C379.645 76.168 378.102 76.5977 376.988 77.457C375.875 78.3164 375.318 79.4395 375.318 80.8262C375.318 82.1348 375.836 83.1211 376.871 83.7852C377.906 84.4492 379.771 85.084 382.467 85.6895C385.182 86.2949 387.379 87.0176 389.059 87.8574C390.738 88.6973 391.979 89.7129 392.779 90.9043C393.6 92.0762 394.01 93.5117 394.01 95.2109C394.01 98.043 392.877 100.318 390.611 102.037C388.346 103.736 385.406 104.586 381.793 104.586C379.254 104.586 377.008 104.137 375.055 103.238C373.102 102.34 371.568 101.09 370.455 99.4883C369.361 97.8672 368.814 96.1191 368.814 94.2441H374.234C374.332 96.0605 375.055 97.5059 376.402 98.5801C377.77 99.6348 379.566 100.162 381.793 100.162C383.844 100.162 385.484 99.752 386.715 98.9316C387.965 98.0918 388.59 96.9785 388.59 95.5918ZM408.424 64.625V72.3008H414.342V76.4902H408.424V96.1484C408.424 97.418 408.688 98.375 409.215 99.0195C409.742 99.6445 410.641 99.957 411.91 99.957C412.535 99.957 413.395 99.8398 414.488 99.6055V104C413.062 104.391 411.676 104.586 410.328 104.586C407.906 104.586 406.08 103.854 404.85 102.389C403.619 100.924 403.004 98.8438 403.004 96.1484V76.4902H397.232V72.3008H403.004V64.625H408.424ZM433.854 104.586C429.557 104.586 426.061 103.18 423.365 100.367C420.67 97.5352 419.322 93.7559 419.322 89.0293V88.0332C419.322 84.8887 419.918 82.0859 421.109 79.625C422.32 77.1445 424 75.2109 426.148 73.8242C428.316 72.418 430.66 71.7148 433.18 71.7148C437.301 71.7148 440.504 73.0723 442.789 75.7871C445.074 78.502 446.217 82.3887 446.217 87.4473V89.7031H424.742C424.82 92.8281 425.729 95.3574 427.467 97.291C429.225 99.2051 431.451 100.162 434.146 100.162C436.061 100.162 437.682 99.7715 439.01 98.9902C440.338 98.209 441.5 97.1738 442.496 95.8848L445.807 98.4629C443.15 102.545 439.166 104.586 433.854 104.586ZM433.18 76.168C430.992 76.168 429.156 76.9688 427.672 78.5703C426.188 80.1523 425.27 82.3789 424.918 85.25H440.797V84.8398C440.641 82.0859 439.898 79.957 438.57 78.4531C437.242 76.9297 435.445 76.168 433.18 76.168ZM467.838 77.1641C467.018 77.0273 466.129 76.959 465.172 76.959C461.617 76.959 459.205 78.4727 457.936 81.5V104H452.516V72.3008H457.789L457.877 75.9629C459.654 73.1309 462.174 71.7148 465.436 71.7148C466.49 71.7148 467.291 71.8516 467.838 72.125V77.1641Z" fill="black"/>
<path d="M599.199 161.477H150.801C97.7342 161.477 54.7153 204.496 54.7153 257.562V732.651C54.7153 785.718 97.7342 828.737 150.801 828.737H599.199C652.266 828.737 695.285 785.718 695.285 732.651V257.562C695.285 204.496 652.266 161.477 599.199 161.477Z" stroke="#8B04DD" stroke-width="5"/>
<path d="M305.688 213.948C305.5 216.549 304.537 218.596 302.8 220.091C301.073 221.585 298.793 222.332 295.96 222.332C292.861 222.332 290.421 221.291 288.639 219.211C286.868 217.119 285.982 214.252 285.982 210.611V209.134C285.982 206.809 286.392 204.762 287.211 202.991C288.03 201.22 289.198 199.864 290.714 198.924C292.241 197.972 294.012 197.496 296.026 197.496C298.815 197.496 301.062 198.243 302.767 199.737C304.471 201.231 305.456 203.329 305.722 206.029H300.741C300.619 204.469 300.182 203.34 299.43 202.642C298.688 201.934 297.554 201.58 296.026 201.58C294.366 201.58 293.121 202.177 292.291 203.373C291.472 204.557 291.051 206.4 291.029 208.901V210.727C291.029 213.339 291.422 215.248 292.208 216.455C293.005 217.661 294.256 218.264 295.96 218.264C297.498 218.264 298.644 217.916 299.396 217.219C300.16 216.51 300.597 215.42 300.708 213.948H305.688ZM307.896 212.852C307.896 211.07 308.24 209.482 308.926 208.088C309.612 206.693 310.597 205.614 311.881 204.85C313.176 204.087 314.675 203.705 316.38 203.705C318.804 203.705 320.779 204.446 322.307 205.929C323.845 207.413 324.703 209.427 324.88 211.972L324.913 213.201C324.913 215.957 324.144 218.17 322.605 219.842C321.067 221.502 319.003 222.332 316.413 222.332C313.823 222.332 311.754 221.502 310.204 219.842C308.666 218.181 307.896 215.924 307.896 213.068V212.852ZM312.694 213.201C312.694 214.905 313.015 216.211 313.657 217.119C314.299 218.015 315.218 218.464 316.413 218.464C317.575 218.464 318.483 218.021 319.136 217.135C319.789 216.239 320.115 214.811 320.115 212.852C320.115 211.181 319.789 209.886 319.136 208.968C318.483 208.049 317.564 207.59 316.38 207.59C315.207 207.59 314.299 208.049 313.657 208.968C313.015 209.875 312.694 211.286 312.694 213.201ZM327.121 212.852C327.121 211.07 327.464 209.482 328.15 208.088C328.837 206.693 329.822 205.614 331.105 204.85C332.4 204.087 333.9 203.705 335.604 203.705C338.028 203.705 340.004 204.446 341.531 205.929C343.07 207.413 343.927 209.427 344.104 211.972L344.138 213.201C344.138 215.957 343.368 218.17 341.83 219.842C340.292 221.502 338.228 222.332 335.638 222.332C333.048 222.332 330.978 221.502 329.429 219.842C327.89 218.181 327.121 215.924 327.121 213.068V212.852ZM331.919 213.201C331.919 214.905 332.24 216.211 332.882 217.119C333.524 218.015 334.442 218.464 335.638 218.464C336.8 218.464 337.707 218.021 338.36 217.135C339.013 216.239 339.34 214.811 339.34 212.852C339.34 211.181 339.013 209.886 338.36 208.968C337.707 208.049 336.789 207.59 335.604 207.59C334.431 207.59 333.524 208.049 332.882 208.968C332.24 209.875 331.919 211.286 331.919 213.201ZM357.187 208.536C356.534 208.447 355.958 208.403 355.46 208.403C353.645 208.403 352.455 209.017 351.891 210.246V222H347.093V204.037H351.625L351.758 206.178C352.721 204.529 354.054 203.705 355.759 203.705C356.29 203.705 356.788 203.777 357.253 203.921L357.187 208.536ZM358.432 212.885C358.432 210.085 359.057 207.855 360.308 206.195C361.569 204.535 363.29 203.705 365.471 203.705C367.219 203.705 368.664 204.358 369.804 205.664V196.5H374.618V222H370.285L370.053 220.091C368.857 221.585 367.319 222.332 365.438 222.332C363.324 222.332 361.625 221.502 360.341 219.842C359.068 218.17 358.432 215.852 358.432 212.885ZM363.229 213.234C363.229 214.916 363.523 216.206 364.109 217.102C364.696 217.999 365.548 218.447 366.666 218.447C368.149 218.447 369.195 217.822 369.804 216.571V209.482C369.206 208.232 368.171 207.606 366.699 207.606C364.386 207.606 363.229 209.482 363.229 213.234ZM383.4 222H378.586V204.037H383.4V222ZM378.304 199.388C378.304 198.669 378.542 198.077 379.018 197.612C379.505 197.147 380.163 196.915 380.993 196.915C381.812 196.915 382.465 197.147 382.952 197.612C383.439 198.077 383.683 198.669 383.683 199.388C383.683 200.119 383.434 200.717 382.936 201.181C382.449 201.646 381.801 201.879 380.993 201.879C380.185 201.879 379.532 201.646 379.034 201.181C378.547 200.717 378.304 200.119 378.304 199.388ZM391.784 204.037L391.934 206.112C393.217 204.507 394.938 203.705 397.097 203.705C399 203.705 400.417 204.264 401.347 205.382C402.276 206.499 402.752 208.171 402.774 210.395V222H397.977V210.511C397.977 209.493 397.755 208.757 397.312 208.303C396.87 207.839 396.134 207.606 395.104 207.606C393.754 207.606 392.742 208.182 392.066 209.333V222H387.269V204.037H391.784ZM416.836 222C416.615 221.568 416.454 221.031 416.354 220.389C415.192 221.684 413.682 222.332 411.822 222.332C410.062 222.332 408.602 221.823 407.439 220.804C406.288 219.786 405.713 218.502 405.713 216.953C405.713 215.049 406.416 213.588 407.821 212.57C409.238 211.552 411.28 211.037 413.947 211.026H416.155V209.997C416.155 209.167 415.939 208.503 415.508 208.005C415.087 207.507 414.418 207.258 413.499 207.258C412.691 207.258 412.055 207.451 411.59 207.839C411.136 208.226 410.909 208.757 410.909 209.432H406.111C406.111 208.392 406.432 207.429 407.074 206.544C407.716 205.658 408.624 204.967 409.797 204.469C410.97 203.959 412.287 203.705 413.748 203.705C415.962 203.705 417.716 204.264 419.011 205.382C420.317 206.488 420.97 208.049 420.97 210.063V217.849C420.981 219.554 421.219 220.843 421.684 221.718V222H416.836ZM412.868 218.663C413.576 218.663 414.229 218.508 414.827 218.198C415.425 217.877 415.868 217.451 416.155 216.92V213.832H414.362C411.961 213.832 410.682 214.662 410.527 216.322L410.511 216.604C410.511 217.202 410.721 217.694 411.142 218.082C411.562 218.469 412.138 218.663 412.868 218.663ZM430.399 199.621V204.037H433.471V207.556H430.399V216.521C430.399 217.185 430.527 217.661 430.781 217.949C431.036 218.237 431.523 218.381 432.242 218.381C432.773 218.381 433.244 218.342 433.653 218.264V221.9C432.713 222.188 431.744 222.332 430.748 222.332C427.383 222.332 425.668 220.633 425.602 217.235V207.556H422.979V204.037H425.602V199.621H430.399ZM434.898 212.852C434.898 211.07 435.242 209.482 435.928 208.088C436.614 206.693 437.599 205.614 438.883 204.85C440.178 204.087 441.677 203.705 443.382 203.705C445.806 203.705 447.781 204.446 449.309 205.929C450.847 207.413 451.705 209.427 451.882 211.972L451.915 213.201C451.915 215.957 451.146 218.17 449.607 219.842C448.069 221.502 446.005 222.332 443.415 222.332C440.825 222.332 438.756 221.502 437.206 219.842C435.668 218.181 434.898 215.924 434.898 213.068V212.852ZM439.696 213.201C439.696 214.905 440.017 216.211 440.659 217.119C441.301 218.015 442.22 218.464 443.415 218.464C444.577 218.464 445.485 218.021 446.138 217.135C446.791 216.239 447.117 214.811 447.117 212.852C447.117 211.181 446.791 209.886 446.138 208.968C445.485 208.049 444.566 207.59 443.382 207.59C442.209 207.59 441.301 208.049 440.659 208.968C440.017 209.875 439.696 211.286 439.696 213.201ZM464.964 208.536C464.311 208.447 463.735 208.403 463.237 208.403C461.422 208.403 460.232 209.017 459.668 210.246V222H454.87V204.037H459.402L459.535 206.178C460.498 204.529 461.832 203.705 463.536 203.705C464.067 203.705 464.565 203.777 465.03 203.921L464.964 208.536Z" fill="black"/>
<path d="M224.226 635.632C216.139 629.76 212.776 619.377 215.845 609.876C218.915 600.374 227.776 593.941 237.732 593.941C247.714 593.941 256.548 600.374 259.618 609.876C262.714 619.377 259.324 629.76 251.237 635.632L268.239 660.694L254.867 657.331L247.367 667.794L237.598 640.596L229.831 668.594L222.358 660.427L210.054 662.429L224.226 635.632ZM238.265 635.365C247.687 634.858 255.267 627.385 255.934 617.936C256.388 607.687 248.514 598.959 238.265 598.372C233.034 598.159 227.909 600.134 224.199 603.87C220.49 607.58 218.514 612.705 218.728 617.936C219.449 628.105 228.123 635.819 238.265 635.365ZM238.265 631.335C234.502 631.602 230.792 630.32 227.963 627.812C225.134 625.276 223.452 621.726 223.292 617.936C223.052 613.906 224.546 609.956 227.429 607.127C230.285 604.271 234.235 602.803 238.265 603.07C245.979 603.577 251.851 610.223 251.37 617.936C251.05 625.116 245.418 630.881 238.265 631.335ZM238.265 628.265C243.683 627.705 247.954 623.381 248.434 617.936C248.675 611.958 244.244 606.78 238.265 606.166C232.127 605.845 226.869 610.463 226.361 616.602C226.281 619.778 227.536 622.82 229.778 625.036C232.046 627.251 235.116 628.425 238.265 628.265ZM210.454 652.393H161.477V535.143H259.671V600.801C258.256 598.746 256.548 596.877 254.6 595.303V540.107H166.281V647.296H212.856L210.454 652.393ZM185.285 585.534V579.769H235.463V585.534H185.285ZM185.285 572.135V566.637H235.463V572.135H185.285ZM185.285 558.87V553.372H235.463V558.87H185.285Z" fill="black"/>
<path d="M137.319 711H134.507V689.672H137.319V711ZM144.614 695.15L144.702 697.143C145.913 695.619 147.495 694.857 149.448 694.857C152.798 694.857 154.487 696.747 154.517 700.526V711H151.807V700.512C151.797 699.369 151.533 698.524 151.016 697.978C150.508 697.431 149.712 697.157 148.628 697.157C147.749 697.157 146.978 697.392 146.313 697.86C145.649 698.329 145.132 698.944 144.761 699.706V711H142.051V695.15H144.614ZM162.28 691.312V695.15H165.239V697.245H162.28V707.074C162.28 707.709 162.412 708.188 162.676 708.51C162.939 708.822 163.389 708.979 164.023 708.979C164.336 708.979 164.766 708.92 165.312 708.803V711C164.6 711.195 163.906 711.293 163.232 711.293C162.021 711.293 161.108 710.927 160.493 710.194C159.878 709.462 159.57 708.422 159.57 707.074V697.245H156.685V695.15H159.57V691.312H162.28ZM174.995 711.293C172.847 711.293 171.099 710.59 169.751 709.184C168.403 707.768 167.729 705.878 167.729 703.515V703.017C167.729 701.444 168.027 700.043 168.623 698.812C169.229 697.572 170.068 696.605 171.143 695.912C172.227 695.209 173.398 694.857 174.658 694.857C176.719 694.857 178.32 695.536 179.463 696.894C180.605 698.251 181.177 700.194 181.177 702.724V703.852H170.439C170.479 705.414 170.933 706.679 171.802 707.646C172.681 708.603 173.794 709.081 175.142 709.081C176.099 709.081 176.909 708.886 177.573 708.495C178.237 708.104 178.818 707.587 179.316 706.942L180.972 708.231C179.644 710.272 177.651 711.293 174.995 711.293ZM174.658 697.084C173.564 697.084 172.646 697.484 171.904 698.285C171.162 699.076 170.703 700.189 170.527 701.625H178.467V701.42C178.389 700.043 178.018 698.979 177.354 698.227C176.689 697.465 175.791 697.084 174.658 697.084ZM191.987 697.582C191.577 697.514 191.133 697.479 190.654 697.479C188.877 697.479 187.671 698.236 187.036 699.75V711H184.326V695.15H186.963L187.007 696.981C187.896 695.565 189.155 694.857 190.786 694.857C191.313 694.857 191.714 694.926 191.987 695.062V697.582ZM197.041 695.15L197.114 696.908C198.276 695.541 199.844 694.857 201.816 694.857C204.033 694.857 205.542 695.707 206.343 697.406C206.87 696.645 207.554 696.029 208.394 695.561C209.243 695.092 210.244 694.857 211.396 694.857C214.873 694.857 216.641 696.698 216.699 700.38V711H213.989V700.541C213.989 699.408 213.73 698.563 213.213 698.007C212.695 697.44 211.826 697.157 210.605 697.157C209.6 697.157 208.765 697.46 208.101 698.065C207.437 698.661 207.051 699.467 206.943 700.482V711H204.219V700.614C204.219 698.31 203.091 697.157 200.835 697.157C199.058 697.157 197.842 697.914 197.188 699.428V711H194.478V695.15H197.041ZM220.859 709.579C220.859 709.11 220.996 708.72 221.27 708.407C221.553 708.095 221.973 707.938 222.529 707.938C223.086 707.938 223.506 708.095 223.789 708.407C224.082 708.72 224.229 709.11 224.229 709.579C224.229 710.028 224.082 710.404 223.789 710.707C223.506 711.01 223.086 711.161 222.529 711.161C221.973 711.161 221.553 711.01 221.27 710.707C220.996 710.404 220.859 710.028 220.859 709.579ZM252.266 704.232C252.002 706.488 251.167 708.231 249.761 709.462C248.364 710.683 246.504 711.293 244.18 711.293C241.66 711.293 239.639 710.39 238.115 708.583C236.602 706.776 235.845 704.359 235.845 701.332V699.281C235.845 697.299 236.196 695.556 236.899 694.052C237.612 692.548 238.618 691.396 239.917 690.595C241.216 689.784 242.72 689.379 244.429 689.379C246.694 689.379 248.511 690.014 249.878 691.283C251.245 692.543 252.041 694.291 252.266 696.527H249.438C249.194 694.828 248.662 693.598 247.842 692.836C247.031 692.074 245.894 691.693 244.429 691.693C242.632 691.693 241.221 692.357 240.195 693.686C239.18 695.014 238.672 696.903 238.672 699.354V701.42C238.672 703.734 239.155 705.575 240.122 706.942C241.089 708.31 242.441 708.993 244.18 708.993C245.742 708.993 246.938 708.642 247.769 707.938C248.608 707.226 249.165 705.99 249.438 704.232H252.266ZM262.271 711.293C260.122 711.293 258.374 710.59 257.026 709.184C255.679 707.768 255.005 705.878 255.005 703.515V703.017C255.005 701.444 255.303 700.043 255.898 698.812C256.504 697.572 257.344 696.605 258.418 695.912C259.502 695.209 260.674 694.857 261.934 694.857C263.994 694.857 265.596 695.536 266.738 696.894C267.881 698.251 268.452 700.194 268.452 702.724V703.852H257.715C257.754 705.414 258.208 706.679 259.077 707.646C259.956 708.603 261.069 709.081 262.417 709.081C263.374 709.081 264.185 708.886 264.849 708.495C265.513 708.104 266.094 707.587 266.592 706.942L268.247 708.231C266.919 710.272 264.927 711.293 262.271 711.293ZM261.934 697.084C260.84 697.084 259.922 697.484 259.18 698.285C258.438 699.076 257.979 700.189 257.803 701.625H265.742V701.42C265.664 700.043 265.293 698.979 264.629 698.227C263.965 697.465 263.066 697.084 261.934 697.084ZM279.263 697.582C278.853 697.514 278.408 697.479 277.93 697.479C276.152 697.479 274.946 698.236 274.312 699.75V711H271.602V695.15H274.238L274.282 696.981C275.171 695.565 276.431 694.857 278.062 694.857C278.589 694.857 278.989 694.926 279.263 695.062V697.582ZM286.177 691.312V695.15H289.136V697.245H286.177V707.074C286.177 707.709 286.309 708.188 286.572 708.51C286.836 708.822 287.285 708.979 287.92 708.979C288.232 708.979 288.662 708.92 289.209 708.803V711C288.496 711.195 287.803 711.293 287.129 711.293C285.918 711.293 285.005 710.927 284.39 710.194C283.774 709.462 283.467 708.422 283.467 707.074V697.245H280.581V695.15H283.467V691.312H286.177ZM292.373 709.579C292.373 709.11 292.51 708.72 292.783 708.407C293.066 708.095 293.486 707.938 294.043 707.938C294.6 707.938 295.02 708.095 295.303 708.407C295.596 708.72 295.742 709.11 295.742 709.579C295.742 710.028 295.596 710.404 295.303 710.707C295.02 711.01 294.6 711.161 294.043 711.161C293.486 711.161 293.066 711.01 292.783 710.707C292.51 710.404 292.373 710.028 292.373 709.579Z" fill="black"/>
<path d="M182.018 617H179.487V597.805H182.018V617Z" fill="black"/>
<path d="M224.226 422.108C216.139 416.237 212.776 405.854 215.845 396.352C218.915 386.85 227.776 380.418 237.732 380.418C247.714 380.418 256.548 386.85 259.618 396.352C262.714 405.854 259.324 416.237 251.237 422.108L268.239 447.171L254.867 443.808L247.367 454.27L237.598 427.073L229.831 455.071L222.358 446.904L210.054 448.906L224.226 422.108ZM238.265 421.842C247.687 421.334 255.267 413.861 255.934 404.413C256.388 394.164 248.514 385.436 238.265 384.849C233.034 384.635 227.909 386.61 224.199 390.347C220.49 394.057 218.514 399.181 218.728 404.413C219.449 414.582 228.123 422.295 238.265 421.842ZM238.265 417.811C234.502 418.078 230.792 416.797 227.963 414.288C225.134 411.753 223.452 408.203 223.292 404.413C223.052 400.383 224.546 396.432 227.429 393.603C230.285 390.747 234.235 389.279 238.265 389.546C245.979 390.053 251.851 396.699 251.37 404.413C251.05 411.592 245.418 417.358 238.265 417.811ZM238.265 414.742C243.683 414.181 247.954 409.858 248.434 404.413C248.675 398.434 244.244 393.256 238.265 392.642C232.127 392.322 226.869 396.939 226.361 403.078C226.281 406.254 227.536 409.297 229.778 411.512C232.046 413.728 235.116 414.902 238.265 414.742ZM210.454 438.87H161.477V321.619H259.671V387.278C258.256 385.222 256.548 383.354 254.6 381.779V326.584H166.281V433.772H212.856L210.454 438.87ZM185.285 372.011V366.245H235.463V372.011H185.285ZM185.285 358.612V353.114H235.463V358.612H185.285ZM185.285 345.347V339.849H235.463V345.347H185.285Z" fill="black"/>
<path d="M156.781 490.372H151.771V499H148.944V477.672H156.005C158.407 477.672 160.253 478.219 161.542 479.312C162.841 480.406 163.49 481.998 163.49 484.088C163.49 485.416 163.129 486.573 162.406 487.56C161.693 488.546 160.697 489.283 159.418 489.771L164.428 498.824V499H161.41L156.781 490.372ZM151.771 488.072H156.093C157.489 488.072 158.598 487.711 159.418 486.988C160.248 486.266 160.663 485.299 160.663 484.088C160.663 482.77 160.268 481.759 159.477 481.056C158.695 480.353 157.562 479.996 156.078 479.986H151.771V488.072ZM166.303 490.929C166.303 489.376 166.605 487.979 167.211 486.739C167.826 485.499 168.676 484.542 169.76 483.868C170.854 483.194 172.099 482.857 173.495 482.857C175.653 482.857 177.396 483.604 178.725 485.099C180.062 486.593 180.731 488.58 180.731 491.061V491.251C180.731 492.794 180.434 494.181 179.838 495.411C179.252 496.632 178.407 497.584 177.304 498.268C176.21 498.951 174.95 499.293 173.524 499.293C171.376 499.293 169.633 498.546 168.295 497.052C166.967 495.558 166.303 493.58 166.303 491.119V490.929ZM169.027 491.251C169.027 493.009 169.433 494.42 170.243 495.484C171.063 496.549 172.157 497.081 173.524 497.081C174.901 497.081 175.995 496.544 176.806 495.47C177.616 494.386 178.021 492.872 178.021 490.929C178.021 489.19 177.606 487.784 176.776 486.71C175.956 485.626 174.862 485.084 173.495 485.084C172.157 485.084 171.078 485.616 170.258 486.681C169.438 487.745 169.027 489.269 169.027 491.251ZM183.412 490.929C183.412 489.376 183.715 487.979 184.32 486.739C184.936 485.499 185.785 484.542 186.869 483.868C187.963 483.194 189.208 482.857 190.604 482.857C192.763 482.857 194.506 483.604 195.834 485.099C197.172 486.593 197.841 488.58 197.841 491.061V491.251C197.841 492.794 197.543 494.181 196.947 495.411C196.361 496.632 195.517 497.584 194.413 498.268C193.319 498.951 192.06 499.293 190.634 499.293C188.485 499.293 186.742 498.546 185.404 497.052C184.076 495.558 183.412 493.58 183.412 491.119V490.929ZM186.137 491.251C186.137 493.009 186.542 494.42 187.353 495.484C188.173 496.549 189.267 497.081 190.634 497.081C192.011 497.081 193.104 496.544 193.915 495.47C194.726 494.386 195.131 492.872 195.131 490.929C195.131 489.19 194.716 487.784 193.886 486.71C193.065 485.626 191.972 485.084 190.604 485.084C189.267 485.084 188.188 485.616 187.367 486.681C186.547 487.745 186.137 489.269 186.137 491.251ZM204.916 479.312V483.15H207.875V485.245H204.916V495.074C204.916 495.709 205.048 496.188 205.312 496.51C205.575 496.822 206.024 496.979 206.659 496.979C206.972 496.979 207.401 496.92 207.948 496.803V499C207.235 499.195 206.542 499.293 205.868 499.293C204.657 499.293 203.744 498.927 203.129 498.194C202.514 497.462 202.206 496.422 202.206 495.074V485.245H199.32V483.15H202.206V479.312H204.916ZM234.608 492.232C234.345 494.488 233.51 496.231 232.104 497.462C230.707 498.683 228.847 499.293 226.522 499.293C224.003 499.293 221.981 498.39 220.458 496.583C218.944 494.776 218.188 492.359 218.188 489.332V487.281C218.188 485.299 218.539 483.556 219.242 482.052C219.955 480.548 220.961 479.396 222.26 478.595C223.559 477.784 225.062 477.379 226.771 477.379C229.037 477.379 230.854 478.014 232.221 479.283C233.588 480.543 234.384 482.291 234.608 484.527H231.781C231.537 482.828 231.005 481.598 230.185 480.836C229.374 480.074 228.236 479.693 226.771 479.693C224.975 479.693 223.563 480.357 222.538 481.686C221.522 483.014 221.015 484.903 221.015 487.354V489.42C221.015 491.734 221.498 493.575 222.465 494.942C223.432 496.31 224.784 496.993 226.522 496.993C228.085 496.993 229.281 496.642 230.111 495.938C230.951 495.226 231.508 493.99 231.781 492.232H234.608ZM244.613 499.293C242.465 499.293 240.717 498.59 239.369 497.184C238.021 495.768 237.348 493.878 237.348 491.515V491.017C237.348 489.444 237.646 488.043 238.241 486.812C238.847 485.572 239.687 484.605 240.761 483.912C241.845 483.209 243.017 482.857 244.276 482.857C246.337 482.857 247.938 483.536 249.081 484.894C250.224 486.251 250.795 488.194 250.795 490.724V491.852H240.058C240.097 493.414 240.551 494.679 241.42 495.646C242.299 496.603 243.412 497.081 244.76 497.081C245.717 497.081 246.527 496.886 247.191 496.495C247.855 496.104 248.437 495.587 248.935 494.942L250.59 496.231C249.262 498.272 247.27 499.293 244.613 499.293ZM244.276 485.084C243.183 485.084 242.265 485.484 241.522 486.285C240.78 487.076 240.321 488.189 240.146 489.625H248.085V489.42C248.007 488.043 247.636 486.979 246.972 486.227C246.308 485.465 245.409 485.084 244.276 485.084ZM261.605 485.582C261.195 485.514 260.751 485.479 260.272 485.479C258.495 485.479 257.289 486.236 256.654 487.75V499H253.944V483.15H256.581L256.625 484.981C257.514 483.565 258.773 482.857 260.404 482.857C260.932 482.857 261.332 482.926 261.605 483.062V485.582ZM268.52 479.312V483.15H271.479V485.245H268.52V495.074C268.52 495.709 268.651 496.188 268.915 496.51C269.179 496.822 269.628 496.979 270.263 496.979C270.575 496.979 271.005 496.92 271.552 496.803V499C270.839 499.195 270.146 499.293 269.472 499.293C268.261 499.293 267.348 498.927 266.732 498.194C266.117 497.462 265.81 496.422 265.81 495.074V485.245H262.924V483.15H265.81V479.312H268.52ZM274.716 497.579C274.716 497.11 274.853 496.72 275.126 496.407C275.409 496.095 275.829 495.938 276.386 495.938C276.942 495.938 277.362 496.095 277.646 496.407C277.938 496.72 278.085 497.11 278.085 497.579C278.085 498.028 277.938 498.404 277.646 498.707C277.362 499.01 276.942 499.161 276.386 499.161C275.829 499.161 275.409 499.01 275.126 498.707C274.853 498.404 274.716 498.028 274.716 497.579Z" fill="black"/>
<path d="M187.626 397.235H183.117V405H180.573V385.805H186.927C189.089 385.805 190.75 386.297 191.911 387.281C193.079 388.266 193.664 389.698 193.664 391.579C193.664 392.774 193.339 393.816 192.688 394.704C192.047 395.591 191.15 396.255 189.999 396.694L194.508 404.842V405H191.792L187.626 397.235ZM183.117 395.165H187.006C188.263 395.165 189.261 394.84 189.999 394.189C190.746 393.539 191.12 392.669 191.12 391.579C191.12 390.393 190.764 389.483 190.052 388.85C189.349 388.217 188.329 387.896 186.993 387.888H183.117V395.165Z" fill="black"/>
<path d="M822.1 393.024C822.1 395.085 821.772 396.862 821.118 398.356C820.464 399.841 819.546 401.003 818.364 401.843L822.173 404.831L820.254 406.604L815.757 403.029C815.054 403.205 814.312 403.293 813.53 403.293C811.851 403.293 810.361 402.883 809.062 402.062C807.764 401.232 806.753 400.056 806.03 398.532C805.317 396.999 804.951 395.227 804.932 393.215V391.677C804.932 389.626 805.288 387.814 806.001 386.242C806.714 384.67 807.72 383.469 809.019 382.639C810.327 381.799 811.821 381.379 813.501 381.379C815.22 381.379 816.729 381.794 818.027 382.624C819.336 383.454 820.342 384.65 821.045 386.213C821.748 387.766 822.1 389.582 822.1 391.662V393.024ZM819.287 391.647C819.287 389.138 818.784 387.204 817.778 385.847C816.782 384.479 815.356 383.796 813.501 383.796C811.733 383.796 810.337 384.475 809.312 385.832C808.296 387.18 807.773 389.055 807.744 391.457V393.024C807.744 395.466 808.252 397.39 809.268 398.796C810.293 400.202 811.714 400.905 813.53 400.905C815.347 400.905 816.753 400.246 817.749 398.928C818.745 397.6 819.258 395.7 819.287 393.229V391.647ZM835.796 401.433C834.741 402.673 833.193 403.293 831.152 403.293C829.463 403.293 828.174 402.805 827.285 401.828C826.406 400.842 825.962 399.387 825.952 397.463V387.15H828.662V397.39C828.662 399.792 829.639 400.993 831.592 400.993C833.662 400.993 835.039 400.222 835.723 398.679V387.15H838.433V403H835.854L835.796 401.433ZM841.846 394.929C841.846 393.376 842.148 391.979 842.754 390.739C843.369 389.499 844.219 388.542 845.303 387.868C846.396 387.194 847.642 386.857 849.038 386.857C851.196 386.857 852.939 387.604 854.268 389.099C855.605 390.593 856.274 392.58 856.274 395.061V395.251C856.274 396.794 855.977 398.181 855.381 399.411C854.795 400.632 853.95 401.584 852.847 402.268C851.753 402.951 850.493 403.293 849.067 403.293C846.919 403.293 845.176 402.546 843.838 401.052C842.51 399.558 841.846 397.58 841.846 395.119V394.929ZM844.57 395.251C844.57 397.009 844.976 398.42 845.786 399.484C846.606 400.549 847.7 401.081 849.067 401.081C850.444 401.081 851.538 400.544 852.349 399.47C853.159 398.386 853.564 396.872 853.564 394.929C853.564 393.19 853.149 391.784 852.319 390.71C851.499 389.626 850.405 389.084 849.038 389.084C847.7 389.084 846.621 389.616 845.801 390.681C844.98 391.745 844.57 393.269 844.57 395.251ZM863.35 383.312V387.15H866.309V389.245H863.35V399.074C863.35 399.709 863.481 400.188 863.745 400.51C864.009 400.822 864.458 400.979 865.093 400.979C865.405 400.979 865.835 400.92 866.382 400.803V403C865.669 403.195 864.976 403.293 864.302 403.293C863.091 403.293 862.178 402.927 861.562 402.194C860.947 401.462 860.64 400.422 860.64 399.074V389.245H857.754V387.15H860.64V383.312H863.35ZM876.064 403.293C873.916 403.293 872.168 402.59 870.82 401.184C869.473 399.768 868.799 397.878 868.799 395.515V395.017C868.799 393.444 869.097 392.043 869.692 390.812C870.298 389.572 871.138 388.605 872.212 387.912C873.296 387.209 874.468 386.857 875.728 386.857C877.788 386.857 879.39 387.536 880.532 388.894C881.675 390.251 882.246 392.194 882.246 394.724V395.852H871.509C871.548 397.414 872.002 398.679 872.871 399.646C873.75 400.603 874.863 401.081 876.211 401.081C877.168 401.081 877.979 400.886 878.643 400.495C879.307 400.104 879.888 399.587 880.386 398.942L882.041 400.231C880.713 402.272 878.721 403.293 876.064 403.293ZM875.728 389.084C874.634 389.084 873.716 389.484 872.974 390.285C872.231 391.076 871.772 392.189 871.597 393.625H879.536V393.42C879.458 392.043 879.087 390.979 878.423 390.227C877.759 389.465 876.86 389.084 875.728 389.084ZM885.308 407.248L883.77 406.193C884.688 404.914 885.166 403.596 885.205 402.238V399.792H887.856V401.916C887.856 402.902 887.612 403.889 887.124 404.875C886.646 405.861 886.04 406.652 885.308 407.248ZM906.973 394.372H901.963V403H899.136V381.672H906.196C908.599 381.672 910.444 382.219 911.733 383.312C913.032 384.406 913.682 385.998 913.682 388.088C913.682 389.416 913.32 390.573 912.598 391.56C911.885 392.546 910.889 393.283 909.609 393.771L914.619 402.824V403H911.602L906.973 394.372ZM901.963 392.072H906.284C907.681 392.072 908.789 391.711 909.609 390.988C910.439 390.266 910.854 389.299 910.854 388.088C910.854 386.77 910.459 385.759 909.668 385.056C908.887 384.353 907.754 383.996 906.27 383.986H901.963V392.072ZM917.124 407.248L915.586 406.193C916.504 404.914 916.982 403.596 917.021 402.238V399.792H919.673V401.916C919.673 402.902 919.429 403.889 918.94 404.875C918.462 405.861 917.856 406.652 917.124 407.248ZM933.984 403H931.172V381.672H933.984V403Z" fill="black"/>
<path d="M1427.9 190H1110.1C1072.49 190 1042 214.954 1042 245.736V746.264C1042 777.046 1072.49 802 1110.1 802H1427.9C1465.51 802 1496 777.046 1496 746.264V245.736C1496 214.954 1465.51 190 1427.9 190Z" stroke="#929292" stroke-width="5"/>
<path d="M1256.01 250.948C1255.82 253.549 1254.86 255.597 1253.12 257.091C1251.39 258.585 1249.11 259.332 1246.28 259.332C1243.18 259.332 1240.74 258.292 1238.96 256.211C1237.19 254.119 1236.3 251.253 1236.3 247.611V246.134C1236.3 243.81 1236.71 241.762 1237.53 239.991C1238.35 238.22 1239.52 236.865 1241.03 235.924C1242.56 234.972 1244.33 234.496 1246.35 234.496C1249.14 234.496 1251.38 235.243 1253.09 236.737C1254.79 238.231 1255.78 240.329 1256.04 243.029H1251.06C1250.94 241.469 1250.5 240.34 1249.75 239.643C1249.01 238.934 1247.87 238.58 1246.35 238.58C1244.69 238.58 1243.44 239.178 1242.61 240.373C1241.79 241.557 1241.37 243.4 1241.35 245.901V247.728C1241.35 250.34 1241.74 252.249 1242.53 253.455C1243.33 254.661 1244.58 255.265 1246.28 255.265C1247.82 255.265 1248.96 254.916 1249.72 254.219C1250.48 253.51 1250.92 252.42 1251.03 250.948H1256.01ZM1264.03 259H1259.21V233.5H1264.03V259ZM1273.06 259H1268.24V241.037H1273.06V259ZM1267.96 236.389C1267.96 235.669 1268.2 235.077 1268.68 234.612C1269.16 234.147 1269.82 233.915 1270.65 233.915C1271.47 233.915 1272.12 234.147 1272.61 234.612C1273.1 235.077 1273.34 235.669 1273.34 236.389C1273.34 237.119 1273.09 237.717 1272.59 238.182C1272.11 238.646 1271.46 238.879 1270.65 238.879C1269.84 238.879 1269.19 238.646 1268.69 238.182C1268.21 237.717 1267.96 237.119 1267.96 236.389ZM1285.29 259.332C1282.66 259.332 1280.51 258.524 1278.85 256.908C1277.2 255.292 1276.38 253.14 1276.38 250.45V249.985C1276.38 248.181 1276.73 246.571 1277.42 245.154C1278.12 243.727 1279.11 242.631 1280.38 241.867C1281.66 241.092 1283.12 240.705 1284.76 240.705C1287.22 240.705 1289.15 241.48 1290.56 243.029C1291.97 244.579 1292.68 246.776 1292.68 249.62V251.579H1281.24C1281.4 252.752 1281.86 253.693 1282.64 254.401C1283.42 255.11 1284.41 255.464 1285.61 255.464C1287.46 255.464 1288.9 254.794 1289.94 253.455L1292.3 256.095C1291.58 257.113 1290.61 257.91 1289.38 258.485C1288.15 259.05 1286.79 259.332 1285.29 259.332ZM1284.75 244.59C1283.79 244.59 1283.02 244.911 1282.42 245.553C1281.84 246.195 1281.46 247.113 1281.29 248.309H1287.97V247.927C1287.94 246.864 1287.66 246.045 1287.1 245.47C1286.55 244.883 1285.76 244.59 1284.75 244.59ZM1299.84 241.037L1299.99 243.112C1301.27 241.507 1302.99 240.705 1305.15 240.705C1307.05 240.705 1308.47 241.264 1309.4 242.382C1310.33 243.5 1310.81 245.171 1310.83 247.396V259H1306.03V247.512C1306.03 246.493 1305.81 245.757 1305.37 245.304C1304.92 244.839 1304.19 244.606 1303.16 244.606C1301.81 244.606 1300.79 245.182 1300.12 246.333V259H1295.32V241.037H1299.84ZM1320.22 236.621V241.037H1323.29V244.557H1320.22V253.521C1320.22 254.186 1320.35 254.661 1320.61 254.949C1320.86 255.237 1321.35 255.381 1322.07 255.381C1322.6 255.381 1323.07 255.342 1323.48 255.265V258.9C1322.54 259.188 1321.57 259.332 1320.57 259.332C1317.21 259.332 1315.49 257.633 1315.43 254.235V244.557H1312.8V241.037H1315.43V236.621H1320.22ZM1222.12 289.172C1222.12 286.637 1222.46 284.225 1223.14 281.934C1223.81 279.643 1224.81 277.617 1226.13 275.857C1227.44 274.087 1228.87 272.858 1230.41 272.172L1231.34 274.762C1229.72 275.957 1228.46 277.805 1227.55 280.307C1226.65 282.808 1226.19 285.73 1226.19 289.072V289.587C1226.19 292.94 1226.64 295.873 1227.54 298.386C1228.43 300.898 1229.7 302.774 1231.34 304.014L1230.41 306.554C1228.9 305.879 1227.5 304.683 1226.19 302.968C1224.9 301.263 1223.91 299.293 1223.22 297.058C1222.53 294.822 1222.17 292.487 1222.12 290.052V289.172ZM1244.27 299C1244.05 298.568 1243.89 298.032 1243.79 297.39C1242.63 298.685 1241.12 299.332 1239.26 299.332C1237.5 299.332 1236.04 298.823 1234.88 297.805C1233.72 296.786 1233.15 295.503 1233.15 293.953C1233.15 292.049 1233.85 290.589 1235.26 289.57C1236.67 288.552 1238.72 288.037 1241.38 288.026H1243.59V286.997C1243.59 286.167 1243.38 285.503 1242.94 285.005C1242.52 284.507 1241.85 284.258 1240.93 284.258C1240.13 284.258 1239.49 284.451 1239.03 284.839C1238.57 285.226 1238.34 285.757 1238.34 286.433H1233.55C1233.55 285.392 1233.87 284.429 1234.51 283.544C1235.15 282.659 1236.06 281.967 1237.23 281.469C1238.41 280.96 1239.72 280.705 1241.18 280.705C1243.4 280.705 1245.15 281.264 1246.45 282.382C1247.75 283.489 1248.41 285.049 1248.41 287.063V294.85C1248.42 296.554 1248.65 297.843 1249.12 298.718V299H1244.27ZM1240.3 295.663C1241.01 295.663 1241.67 295.508 1242.26 295.198C1242.86 294.877 1243.3 294.451 1243.59 293.92V290.832H1241.8C1239.4 290.832 1238.12 291.662 1237.96 293.322L1237.95 293.604C1237.95 294.202 1238.16 294.695 1238.58 295.082C1239 295.469 1239.57 295.663 1240.3 295.663ZM1251.34 289.886C1251.34 287.086 1251.97 284.855 1253.22 283.195C1254.48 281.535 1256.2 280.705 1258.38 280.705C1260.13 280.705 1261.58 281.358 1262.72 282.664V273.5H1267.53V299H1263.2L1262.96 297.091C1261.77 298.585 1260.23 299.332 1258.35 299.332C1256.24 299.332 1254.54 298.502 1253.25 296.842C1251.98 295.171 1251.34 292.852 1251.34 289.886ZM1256.14 290.234C1256.14 291.917 1256.43 293.206 1257.02 294.103C1257.61 294.999 1258.46 295.447 1259.58 295.447C1261.06 295.447 1262.11 294.822 1262.72 293.571V286.482C1262.12 285.232 1261.08 284.606 1259.61 284.606C1257.3 284.606 1256.14 286.482 1256.14 290.234ZM1275.75 281.037L1275.9 283.046C1277.17 281.485 1278.89 280.705 1281.06 280.705C1283.37 280.705 1284.96 281.618 1285.83 283.444C1287.09 281.618 1288.89 280.705 1291.22 280.705C1293.17 280.705 1294.62 281.275 1295.57 282.415C1296.52 283.544 1297 285.248 1297 287.528V299H1292.18V287.545C1292.18 286.527 1291.98 285.785 1291.59 285.32C1291.19 284.844 1290.48 284.606 1289.48 284.606C1288.04 284.606 1287.04 285.293 1286.49 286.665L1286.51 299H1281.71V287.562C1281.71 286.521 1281.5 285.769 1281.09 285.304C1280.68 284.839 1279.99 284.606 1279 284.606C1277.64 284.606 1276.66 285.171 1276.05 286.3V299H1271.25V281.037H1275.75ZM1305.76 299H1300.95V281.037H1305.76V299ZM1300.67 276.389C1300.67 275.669 1300.9 275.077 1301.38 274.612C1301.87 274.147 1302.53 273.915 1303.36 273.915C1304.18 273.915 1304.83 274.147 1305.32 274.612C1305.8 275.077 1306.05 275.669 1306.05 276.389C1306.05 277.119 1305.8 277.717 1305.3 278.182C1304.81 278.646 1304.16 278.879 1303.36 278.879C1302.55 278.879 1301.9 278.646 1301.4 278.182C1300.91 277.717 1300.67 277.119 1300.67 276.389ZM1314.15 281.037L1314.3 283.112C1315.58 281.507 1317.3 280.705 1319.46 280.705C1321.36 280.705 1322.78 281.264 1323.71 282.382C1324.64 283.5 1325.12 285.171 1325.14 287.396V299H1320.34V287.512C1320.34 286.493 1320.12 285.757 1319.68 285.304C1319.23 284.839 1318.5 284.606 1317.47 284.606C1316.12 284.606 1315.1 285.182 1314.43 286.333V299H1309.63V281.037H1314.15ZM1337.06 289.554C1337.06 292.055 1336.7 294.462 1335.98 296.775C1335.26 299.089 1334.22 301.131 1332.87 302.901C1331.52 304.672 1330.08 305.89 1328.54 306.554L1327.61 304.014C1329.18 302.829 1330.42 301.003 1331.33 298.535C1332.24 296.067 1332.71 293.228 1332.74 290.019V289.139C1332.74 285.829 1332.29 282.913 1331.38 280.39C1330.48 277.866 1329.23 275.974 1327.61 274.712L1328.54 272.172C1330.05 272.825 1331.46 274.009 1332.79 275.725C1334.13 277.44 1335.17 279.438 1335.9 281.718C1336.64 283.998 1337.02 286.361 1337.06 288.807V289.554Z" fill="black"/>
<path d="M1415.59 365V487.776H1148.69V445.391L1122 392.011H1148.69V365H1415.59Z" fill="#90FF99" fill-opacity="0.3" stroke="#90FF99" stroke-width="3" stroke-miterlimit="10"/>
<path d="M1214.86 431.241L1219.21 416.805H1223.61L1216.93 436H1212.8L1206.14 416.805H1210.53L1214.86 431.241ZM1231.17 436.264C1229.08 436.264 1227.37 435.622 1226.05 434.339C1224.74 433.056 1224.09 431.346 1224.09 429.21V428.841C1224.09 427.409 1224.36 426.13 1224.92 425.005C1225.47 423.871 1226.25 423.001 1227.26 422.395C1228.28 421.779 1229.44 421.472 1230.75 421.472C1232.7 421.472 1234.23 422.087 1235.35 423.317C1236.47 424.548 1237.03 426.292 1237.03 428.551V430.107H1227.95C1228.07 431.039 1228.44 431.786 1229.06 432.348C1229.68 432.911 1230.47 433.192 1231.42 433.192C1232.89 433.192 1234.03 432.66 1234.86 431.597L1236.73 433.693C1236.16 434.501 1235.39 435.134 1234.41 435.591C1233.43 436.04 1232.35 436.264 1231.17 436.264ZM1230.73 424.557C1229.98 424.557 1229.36 424.812 1228.89 425.321C1228.42 425.831 1228.12 426.561 1227.99 427.51H1233.29V427.207C1233.27 426.363 1233.04 425.712 1232.6 425.255C1232.16 424.79 1231.54 424.557 1230.73 424.557ZM1247.22 425.308C1246.71 425.238 1246.25 425.203 1245.85 425.203C1244.41 425.203 1243.47 425.69 1243.02 426.666V436H1239.21V421.735H1242.81L1242.91 423.436C1243.68 422.126 1244.74 421.472 1246.09 421.472C1246.51 421.472 1246.91 421.529 1247.28 421.643L1247.22 425.308ZM1253.09 436H1249.27V421.735H1253.09V436ZM1249.04 418.044C1249.04 417.473 1249.23 417.002 1249.61 416.633C1250 416.264 1250.52 416.08 1251.18 416.08C1251.83 416.08 1252.35 416.264 1252.74 416.633C1253.12 417.002 1253.32 417.473 1253.32 418.044C1253.32 418.624 1253.12 419.099 1252.72 419.468C1252.34 419.837 1251.82 420.021 1251.18 420.021C1250.54 420.021 1250.02 419.837 1249.62 419.468C1249.24 419.099 1249.04 418.624 1249.04 418.044ZM1257.28 436V424.53H1255.16V421.735H1257.28V420.522C1257.28 418.923 1257.74 417.684 1258.65 416.805C1259.58 415.917 1260.87 415.473 1262.52 415.473C1263.05 415.473 1263.69 415.561 1264.46 415.737L1264.42 418.69C1264.1 418.611 1263.71 418.571 1263.26 418.571C1261.82 418.571 1261.11 419.244 1261.11 420.588V421.735H1263.94V424.53H1261.11V436H1257.28ZM1271.25 430.608L1273.88 421.735H1277.97L1272.23 438.215L1271.92 438.966C1271.07 440.83 1269.66 441.761 1267.7 441.761C1267.15 441.761 1266.58 441.678 1266.01 441.511V438.624L1266.59 438.637C1267.31 438.637 1267.85 438.527 1268.2 438.307C1268.56 438.087 1268.84 437.723 1269.04 437.213L1269.49 436.04L1264.5 421.735H1268.6L1271.25 430.608ZM1285.6 428.736C1285.6 426.495 1286.1 424.724 1287.09 423.423C1288.09 422.122 1289.47 421.472 1291.21 421.472C1292.73 421.472 1293.95 422.056 1294.86 423.225L1295.11 421.735H1298.46V441.484H1294.63V434.774C1293.75 435.767 1292.6 436.264 1291.18 436.264C1289.48 436.264 1288.13 435.604 1287.12 434.286C1286.11 432.968 1285.6 431.118 1285.6 428.736ZM1289.41 429.013C1289.41 430.375 1289.65 431.412 1290.12 432.124C1290.61 432.836 1291.28 433.192 1292.15 433.192C1293.32 433.192 1294.15 432.726 1294.63 431.794V425.901C1294.16 425.005 1293.34 424.557 1292.18 424.557C1291.3 424.557 1290.62 424.913 1290.14 425.625C1289.65 426.336 1289.41 427.466 1289.41 429.013ZM1310.01 434.55C1309.06 435.692 1307.76 436.264 1306.1 436.264C1304.57 436.264 1303.4 435.824 1302.6 434.945C1301.8 434.066 1301.39 432.779 1301.37 431.083V421.735H1305.18V430.951C1305.18 432.436 1305.86 433.179 1307.21 433.179C1308.5 433.179 1309.39 432.73 1309.87 431.834V421.735H1313.7V436H1310.11L1310.01 434.55ZM1315.98 428.736C1315.98 427.321 1316.25 426.06 1316.79 424.952C1317.34 423.845 1318.12 422.988 1319.14 422.381C1320.17 421.775 1321.36 421.472 1322.71 421.472C1324.64 421.472 1326.21 422.061 1327.42 423.238C1328.64 424.416 1329.32 426.016 1329.46 428.037L1329.49 429.013C1329.49 431.201 1328.88 432.959 1327.66 434.286C1326.44 435.604 1324.8 436.264 1322.74 436.264C1320.68 436.264 1319.04 435.604 1317.81 434.286C1316.59 432.968 1315.98 431.175 1315.98 428.907V428.736ZM1319.79 429.013C1319.79 430.366 1320.04 431.403 1320.55 432.124C1321.06 432.836 1321.79 433.192 1322.74 433.192C1323.66 433.192 1324.38 432.84 1324.9 432.137C1325.42 431.425 1325.68 430.292 1325.68 428.736C1325.68 427.409 1325.42 426.38 1324.9 425.651C1324.38 424.921 1323.65 424.557 1322.71 424.557C1321.78 424.557 1321.06 424.921 1320.55 425.651C1320.04 426.372 1319.79 427.492 1319.79 429.013ZM1336.4 418.229V421.735H1338.84V424.53H1336.4V431.649C1336.4 432.177 1336.5 432.555 1336.7 432.783C1336.9 433.012 1337.29 433.126 1337.86 433.126C1338.28 433.126 1338.66 433.095 1338.98 433.034V435.921C1338.24 436.149 1337.47 436.264 1336.68 436.264C1334 436.264 1332.64 434.915 1332.59 432.216V424.53H1330.51V421.735H1332.59V418.229H1336.4ZM1347.53 436.264C1345.43 436.264 1343.73 435.622 1342.41 434.339C1341.1 433.056 1340.45 431.346 1340.45 429.21V428.841C1340.45 427.409 1340.72 426.13 1341.28 425.005C1341.83 423.871 1342.61 423.001 1343.62 422.395C1344.64 421.779 1345.8 421.472 1347.1 421.472C1349.05 421.472 1350.59 422.087 1351.7 423.317C1352.83 424.548 1353.39 426.292 1353.39 428.551V430.107H1344.31C1344.43 431.039 1344.8 431.786 1345.42 432.348C1346.04 432.911 1346.83 433.192 1347.78 433.192C1349.24 433.192 1350.39 432.66 1351.22 431.597L1353.09 433.693C1352.52 434.501 1351.74 435.134 1350.77 435.591C1349.79 436.04 1348.71 436.264 1347.53 436.264ZM1347.09 424.557C1346.33 424.557 1345.72 424.812 1345.24 425.321C1344.78 425.831 1344.48 426.561 1344.35 427.51H1349.65V427.207C1349.63 426.363 1349.4 425.712 1348.96 425.255C1348.52 424.79 1347.9 424.557 1347.09 424.557Z" fill="black"/>
<path d="M828.737 561.833L877.58 589.591L910.943 646.441V750.267L828.737 703.025V561.833Z" fill="white" stroke="black" stroke-width="3" stroke-miterlimit="10" stroke-linecap="round" stroke-linejoin="round"/>
<path d="M878.381 590.925V627.491L910.943 646.174" stroke="black" stroke-width="3" stroke-miterlimit="10" stroke-linecap="round" stroke-linejoin="round"/>
<path d="M817.295 771.672L824.268 789.074L831.24 771.672H834.888V793H832.075V784.694L832.339 775.729L825.337 793H823.184L816.196 775.773L816.475 784.694V793H813.662V771.672H817.295ZM849.214 793C849.058 792.688 848.931 792.131 848.833 791.33C847.573 792.639 846.069 793.293 844.321 793.293C842.759 793.293 841.475 792.854 840.469 791.975C839.473 791.086 838.975 789.963 838.975 788.605C838.975 786.955 839.6 785.676 840.85 784.768C842.109 783.85 843.877 783.391 846.152 783.391H848.789V782.146C848.789 781.198 848.506 780.446 847.939 779.89C847.373 779.323 846.538 779.04 845.435 779.04C844.468 779.04 843.657 779.284 843.003 779.772C842.349 780.261 842.021 780.852 842.021 781.545H839.297C839.297 780.754 839.575 779.992 840.132 779.26C840.698 778.518 841.46 777.932 842.417 777.502C843.384 777.072 844.443 776.857 845.596 776.857C847.422 776.857 848.853 777.316 849.888 778.234C850.923 779.143 851.46 780.397 851.499 781.999V789.294C851.499 790.749 851.685 791.906 852.056 792.766V793H849.214ZM844.717 790.935C845.566 790.935 846.372 790.715 847.134 790.275C847.896 789.836 848.447 789.265 848.789 788.562V785.31H846.665C843.345 785.31 841.685 786.281 841.685 788.225C841.685 789.074 841.968 789.738 842.534 790.217C843.101 790.695 843.828 790.935 844.717 790.935ZM858.311 777.15L858.398 779.143C859.609 777.619 861.191 776.857 863.145 776.857C866.494 776.857 868.184 778.747 868.213 782.526V793H865.503V782.512C865.493 781.369 865.229 780.524 864.712 779.978C864.204 779.431 863.408 779.157 862.324 779.157C861.445 779.157 860.674 779.392 860.01 779.86C859.346 780.329 858.828 780.944 858.457 781.706V793H855.747V777.15H858.311ZM875.244 793H872.534V777.15H875.244V793ZM872.314 772.946C872.314 772.507 872.446 772.136 872.71 771.833C872.983 771.53 873.384 771.379 873.911 771.379C874.438 771.379 874.839 771.53 875.112 771.833C875.386 772.136 875.522 772.507 875.522 772.946C875.522 773.386 875.386 773.752 875.112 774.045C874.839 774.338 874.438 774.484 873.911 774.484C873.384 774.484 872.983 774.338 872.71 774.045C872.446 773.752 872.314 773.386 872.314 772.946ZM880.928 793V779.245H878.423V777.15H880.928V775.524C880.928 773.825 881.382 772.512 882.29 771.584C883.198 770.656 884.482 770.192 886.143 770.192C886.768 770.192 887.388 770.275 888.003 770.441L887.856 772.639C887.397 772.551 886.909 772.507 886.392 772.507C885.513 772.507 884.834 772.766 884.355 773.283C883.877 773.791 883.638 774.523 883.638 775.48V777.15H887.021V779.245H883.638V793H880.928ZM896.25 793.293C894.102 793.293 892.354 792.59 891.006 791.184C889.658 789.768 888.984 787.878 888.984 785.515V785.017C888.984 783.444 889.282 782.043 889.878 780.812C890.483 779.572 891.323 778.605 892.397 777.912C893.481 777.209 894.653 776.857 895.913 776.857C897.974 776.857 899.575 777.536 900.718 778.894C901.86 780.251 902.432 782.194 902.432 784.724V785.852H891.694C891.733 787.414 892.188 788.679 893.057 789.646C893.936 790.603 895.049 791.081 896.396 791.081C897.354 791.081 898.164 790.886 898.828 790.495C899.492 790.104 900.073 789.587 900.571 788.942L902.227 790.231C900.898 792.272 898.906 793.293 896.25 793.293ZM895.913 779.084C894.819 779.084 893.901 779.484 893.159 780.285C892.417 781.076 891.958 782.189 891.782 783.625H899.722V783.42C899.644 782.043 899.272 780.979 898.608 780.227C897.944 779.465 897.046 779.084 895.913 779.084ZM914.81 788.796C914.81 788.063 914.531 787.497 913.975 787.097C913.428 786.687 912.466 786.335 911.089 786.042C909.722 785.749 908.633 785.397 907.822 784.987C907.021 784.577 906.426 784.089 906.035 783.522C905.654 782.956 905.464 782.282 905.464 781.501C905.464 780.202 906.011 779.104 907.104 778.205C908.208 777.307 909.614 776.857 911.323 776.857C913.12 776.857 914.575 777.321 915.688 778.249C916.812 779.177 917.373 780.363 917.373 781.809H914.648C914.648 781.066 914.331 780.427 913.696 779.89C913.071 779.353 912.28 779.084 911.323 779.084C910.337 779.084 909.565 779.299 909.009 779.729C908.452 780.158 908.174 780.72 908.174 781.413C908.174 782.067 908.433 782.561 908.95 782.893C909.468 783.225 910.4 783.542 911.748 783.845C913.105 784.147 914.204 784.509 915.044 784.929C915.884 785.349 916.504 785.856 916.904 786.452C917.314 787.038 917.52 787.756 917.52 788.605C917.52 790.021 916.953 791.159 915.82 792.019C914.688 792.868 913.218 793.293 911.411 793.293C910.142 793.293 909.019 793.068 908.042 792.619C907.065 792.17 906.299 791.545 905.742 790.744C905.195 789.934 904.922 789.06 904.922 788.122H907.632C907.681 789.03 908.042 789.753 908.716 790.29C909.399 790.817 910.298 791.081 911.411 791.081C912.437 791.081 913.257 790.876 913.872 790.466C914.497 790.046 914.81 789.489 914.81 788.796ZM924.727 773.312V777.15H927.686V779.245H924.727V789.074C924.727 789.709 924.858 790.188 925.122 790.51C925.386 790.822 925.835 790.979 926.47 790.979C926.782 790.979 927.212 790.92 927.759 790.803V793C927.046 793.195 926.353 793.293 925.679 793.293C924.468 793.293 923.555 792.927 922.939 792.194C922.324 791.462 922.017 790.422 922.017 789.074V779.245H919.131V777.15H922.017V773.312H924.727Z" fill="black"/>
<path d="M1414.59 627V749.776H1147.69V707.391L1121 654.011H1147.69V627H1414.59Z" fill="#90FF99" fill-opacity="0.3" stroke="#90FF99" stroke-width="3" stroke-miterlimit="10"/>
<path d="M1197.18 679.805V692.448C1197.18 694.548 1196.52 696.209 1195.21 697.431C1193.9 698.653 1192.1 699.264 1189.83 699.264C1187.59 699.264 1185.81 698.67 1184.49 697.484C1183.17 696.297 1182.5 694.667 1182.47 692.593V679.805H1186.43V692.474C1186.43 693.731 1186.72 694.649 1187.32 695.229C1187.93 695.801 1188.76 696.086 1189.83 696.086C1192.05 696.086 1193.18 694.917 1193.22 692.58V679.805H1197.18ZM1213.02 692C1213.02 694.197 1212.52 695.959 1211.51 697.286C1210.52 698.604 1209.18 699.264 1207.48 699.264C1206.04 699.264 1204.87 698.763 1203.99 697.761V704.484H1200.18V684.735H1203.71L1203.84 686.133C1204.76 685.025 1205.97 684.472 1207.45 684.472C1209.21 684.472 1210.58 685.122 1211.55 686.423C1212.53 687.724 1213.02 689.517 1213.02 691.802V692ZM1209.21 691.723C1209.21 690.396 1208.97 689.372 1208.49 688.651C1208.03 687.93 1207.35 687.57 1206.45 687.57C1205.26 687.57 1204.43 688.027 1203.99 688.941V694.781C1204.45 695.722 1205.28 696.192 1206.48 696.192C1208.3 696.192 1209.21 694.702 1209.21 691.723ZM1219.41 699H1215.59V678.75H1219.41V699ZM1221.97 691.736C1221.97 690.321 1222.24 689.06 1222.79 687.952C1223.33 686.845 1224.11 685.988 1225.13 685.381C1226.16 684.775 1227.35 684.472 1228.71 684.472C1230.63 684.472 1232.2 685.061 1233.41 686.238C1234.63 687.416 1235.31 689.016 1235.46 691.037L1235.48 692.013C1235.48 694.201 1234.87 695.959 1233.65 697.286C1232.43 698.604 1230.79 699.264 1228.73 699.264C1226.68 699.264 1225.03 698.604 1223.8 697.286C1222.58 695.968 1221.97 694.175 1221.97 691.907V691.736ZM1225.78 692.013C1225.78 693.366 1226.03 694.403 1226.54 695.124C1227.05 695.836 1227.78 696.192 1228.73 696.192C1229.65 696.192 1230.38 695.84 1230.89 695.137C1231.41 694.425 1231.67 693.292 1231.67 691.736C1231.67 690.409 1231.41 689.38 1230.89 688.651C1230.38 687.921 1229.65 687.557 1228.71 687.557C1227.77 687.557 1227.05 687.921 1226.54 688.651C1226.03 689.372 1225.78 690.492 1225.78 692.013ZM1246.09 699C1245.92 698.657 1245.79 698.231 1245.71 697.721C1244.79 698.75 1243.59 699.264 1242.11 699.264C1240.72 699.264 1239.56 698.859 1238.63 698.051C1237.72 697.242 1237.26 696.223 1237.26 694.992C1237.26 693.48 1237.82 692.32 1238.94 691.512C1240.06 690.703 1241.68 690.294 1243.8 690.286H1245.55V689.468C1245.55 688.809 1245.38 688.282 1245.04 687.886C1244.71 687.491 1244.17 687.293 1243.44 687.293C1242.8 687.293 1242.3 687.447 1241.93 687.754C1241.57 688.062 1241.39 688.484 1241.39 689.02H1237.58C1237.58 688.194 1237.83 687.429 1238.34 686.726C1238.85 686.023 1239.57 685.474 1240.5 685.078C1241.44 684.674 1242.48 684.472 1243.64 684.472C1245.4 684.472 1246.79 684.916 1247.82 685.803C1248.86 686.682 1249.38 687.921 1249.38 689.521V695.704C1249.39 697.058 1249.57 698.082 1249.94 698.776V699H1246.09ZM1242.94 696.35C1243.51 696.35 1244.02 696.227 1244.5 695.981C1244.97 695.726 1245.33 695.388 1245.55 694.966V692.514H1244.13C1242.22 692.514 1241.21 693.173 1241.08 694.491L1241.07 694.715C1241.07 695.19 1241.24 695.581 1241.57 695.889C1241.91 696.196 1242.36 696.35 1242.94 696.35ZM1251.71 691.762C1251.71 689.539 1252.21 687.768 1253.2 686.449C1254.2 685.131 1255.57 684.472 1257.3 684.472C1258.69 684.472 1259.84 684.99 1260.74 686.027V678.75H1264.56V699H1261.12L1260.94 697.484C1259.99 698.67 1258.77 699.264 1257.27 699.264C1255.6 699.264 1254.25 698.604 1253.23 697.286C1252.22 695.959 1251.71 694.118 1251.71 691.762ZM1255.52 692.039C1255.52 693.375 1255.75 694.399 1256.22 695.111C1256.69 695.823 1257.36 696.179 1258.25 696.179C1259.43 696.179 1260.26 695.682 1260.74 694.689V689.06C1260.27 688.066 1259.45 687.57 1258.28 687.57C1256.44 687.57 1255.52 689.06 1255.52 692.039ZM1277.81 684.735L1277.93 686.331C1278.94 685.091 1280.31 684.472 1282.03 684.472C1283.87 684.472 1285.13 685.197 1285.82 686.647C1286.82 685.197 1288.25 684.472 1290.1 684.472C1291.65 684.472 1292.8 684.924 1293.56 685.83C1294.31 686.726 1294.69 688.08 1294.69 689.89V699H1290.87V689.903C1290.87 689.095 1290.71 688.506 1290.39 688.137C1290.07 687.759 1289.52 687.57 1288.72 687.57C1287.57 687.57 1286.78 688.115 1286.34 689.205L1286.36 699H1282.55V689.917C1282.55 689.09 1282.38 688.493 1282.06 688.124C1281.73 687.754 1281.18 687.57 1280.4 687.57C1279.32 687.57 1278.53 688.018 1278.05 688.915V699H1274.24V684.735H1277.81ZM1305.9 699C1305.72 698.657 1305.59 698.231 1305.51 697.721C1304.59 698.75 1303.39 699.264 1301.91 699.264C1300.52 699.264 1299.36 698.859 1298.43 698.051C1297.52 697.242 1297.06 696.223 1297.06 694.992C1297.06 693.48 1297.62 692.32 1298.74 691.512C1299.86 690.703 1301.48 690.294 1303.6 690.286H1305.35V689.468C1305.35 688.809 1305.18 688.282 1304.84 687.886C1304.51 687.491 1303.97 687.293 1303.25 687.293C1302.6 687.293 1302.1 687.447 1301.73 687.754C1301.37 688.062 1301.19 688.484 1301.19 689.02H1297.38C1297.38 688.194 1297.63 687.429 1298.14 686.726C1298.65 686.023 1299.37 685.474 1300.31 685.078C1301.24 684.674 1302.28 684.472 1303.44 684.472C1305.2 684.472 1306.59 684.916 1307.62 685.803C1308.66 686.682 1309.18 687.921 1309.18 689.521V695.704C1309.19 697.058 1309.38 698.082 1309.74 698.776V699H1305.9ZM1302.74 696.35C1303.31 696.35 1303.83 696.227 1304.3 695.981C1304.77 695.726 1305.13 695.388 1305.35 694.966V692.514H1303.93C1302.02 692.514 1301.01 693.173 1300.89 694.491L1300.87 694.715C1300.87 695.19 1301.04 695.581 1301.37 695.889C1301.71 696.196 1302.16 696.35 1302.74 696.35ZM1315.61 684.735L1315.73 686.383C1316.75 685.109 1318.12 684.472 1319.83 684.472C1321.34 684.472 1322.47 684.916 1323.21 685.803C1323.94 686.691 1324.32 688.018 1324.34 689.785V699H1320.53V689.877C1320.53 689.068 1320.35 688.484 1320 688.124C1319.65 687.754 1319.07 687.57 1318.25 687.57C1317.18 687.57 1316.37 688.027 1315.84 688.941V699H1312.03V684.735H1315.61ZM1331.26 699H1327.44V684.735H1331.26V699ZM1327.21 681.044C1327.21 680.473 1327.4 680.002 1327.78 679.633C1328.17 679.264 1328.69 679.08 1329.35 679.08C1330 679.08 1330.52 679.264 1330.9 679.633C1331.29 680.002 1331.48 680.473 1331.48 681.044C1331.48 681.624 1331.29 682.099 1330.89 682.468C1330.5 682.837 1329.99 683.021 1329.35 683.021C1328.71 683.021 1328.19 682.837 1327.79 682.468C1327.41 682.099 1327.21 681.624 1327.21 681.044ZM1335.45 699V687.53H1333.33V684.735H1335.45V683.522C1335.45 681.923 1335.91 680.684 1336.82 679.805C1337.75 678.917 1339.03 678.473 1340.69 678.473C1341.21 678.473 1341.86 678.561 1342.62 678.737L1342.59 681.69C1342.27 681.611 1341.88 681.571 1341.43 681.571C1339.99 681.571 1339.28 682.244 1339.28 683.588V684.735H1342.11V687.53H1339.28V699H1335.45ZM1350.34 699.264C1348.25 699.264 1346.54 698.622 1345.22 697.339C1343.91 696.056 1343.26 694.346 1343.26 692.21V691.841C1343.26 690.409 1343.53 689.13 1344.09 688.005C1344.64 686.871 1345.42 686.001 1346.43 685.395C1347.45 684.779 1348.61 684.472 1349.92 684.472C1351.87 684.472 1353.4 685.087 1354.52 686.317C1355.64 687.548 1356.2 689.292 1356.2 691.551V693.107H1347.12C1347.24 694.039 1347.61 694.786 1348.23 695.348C1348.85 695.911 1349.64 696.192 1350.59 696.192C1352.06 696.192 1353.2 695.66 1354.03 694.597L1355.9 696.693C1355.33 697.501 1354.56 698.134 1353.58 698.591C1352.6 699.04 1351.52 699.264 1350.34 699.264ZM1349.9 687.557C1349.15 687.557 1348.53 687.812 1348.06 688.321C1347.59 688.831 1347.29 689.561 1347.16 690.51H1352.46V690.207C1352.44 689.363 1352.21 688.712 1351.77 688.255C1351.33 687.79 1350.71 687.557 1349.9 687.557ZM1366.1 695.058C1366.1 694.592 1365.87 694.228 1365.41 693.964C1364.95 693.691 1364.21 693.45 1363.19 693.239C1359.8 692.527 1358.1 691.085 1358.1 688.915C1358.1 687.649 1358.63 686.594 1359.67 685.75C1360.73 684.898 1362.1 684.472 1363.8 684.472C1365.61 684.472 1367.05 684.898 1368.14 685.75C1369.22 686.603 1369.77 687.71 1369.77 689.073H1365.96C1365.96 688.528 1365.78 688.08 1365.43 687.728C1365.08 687.368 1364.53 687.188 1363.78 687.188C1363.14 687.188 1362.65 687.333 1362.29 687.623C1361.94 687.913 1361.77 688.282 1361.77 688.73C1361.77 689.152 1361.97 689.495 1362.36 689.758C1362.76 690.013 1363.44 690.237 1364.39 690.431C1365.34 690.615 1366.14 690.826 1366.79 691.063C1368.8 691.802 1369.81 693.081 1369.81 694.9C1369.81 696.201 1369.25 697.255 1368.14 698.064C1367.02 698.864 1365.58 699.264 1363.81 699.264C1362.62 699.264 1361.55 699.053 1360.62 698.631C1359.7 698.2 1358.97 697.616 1358.45 696.877C1357.92 696.13 1357.65 695.326 1357.65 694.465H1361.27C1361.3 695.142 1361.55 695.66 1362.02 696.021C1362.48 696.381 1363.11 696.561 1363.89 696.561C1364.62 696.561 1365.17 696.425 1365.54 696.152C1365.92 695.871 1366.1 695.506 1366.1 695.058ZM1376.84 681.229V684.735H1379.28V687.53H1376.84V694.649C1376.84 695.177 1376.94 695.555 1377.14 695.783C1377.34 696.012 1377.73 696.126 1378.3 696.126C1378.72 696.126 1379.09 696.095 1379.42 696.034V698.921C1378.67 699.149 1377.9 699.264 1377.11 699.264C1374.44 699.264 1373.08 697.915 1373.03 695.216V687.53H1370.94V684.735H1373.03V681.229H1376.84Z" fill="black"/>
<path d="M97.9104 521.216C97.9104 520.557 97.66 520.047 97.159 519.687C96.6668 519.318 95.8011 519.001 94.5618 518.738C93.3313 518.474 92.3514 518.158 91.6219 517.789C90.9012 517.419 90.365 516.98 90.0135 516.47C89.6707 515.96 89.4993 515.354 89.4993 514.651C89.4993 513.482 89.9915 512.493 90.9759 511.685C91.969 510.876 93.2347 510.472 94.7728 510.472C96.3899 510.472 97.6995 510.889 98.7015 511.724C99.7122 512.559 100.218 513.627 100.218 514.928H97.7654C97.7654 514.26 97.4798 513.684 96.9085 513.201C96.346 512.717 95.6341 512.476 94.7728 512.476C93.8851 512.476 93.1907 512.669 92.6897 513.056C92.1888 513.442 91.9383 513.948 91.9383 514.572C91.9383 515.161 92.1712 515.604 92.637 515.903C93.1028 516.202 93.9422 516.488 95.1551 516.76C96.3768 517.033 97.3655 517.358 98.1214 517.736C98.8772 518.114 99.4353 518.571 99.7957 519.107C100.165 519.634 100.349 520.28 100.349 521.045C100.349 522.319 99.8396 523.343 98.8201 524.117C97.8006 524.881 96.4778 525.264 94.8519 525.264C93.7093 525.264 92.6985 525.062 91.8196 524.657C90.9407 524.253 90.2508 523.69 89.7498 522.97C89.2576 522.24 89.0115 521.454 89.0115 520.61H91.4505C91.4944 521.427 91.8196 522.078 92.4261 522.561C93.0413 523.036 93.8499 523.273 94.8519 523.273C95.7747 523.273 96.513 523.088 97.0667 522.719C97.6292 522.341 97.9104 521.84 97.9104 521.216ZM106.177 525H103.738V510.735H106.177V525ZM103.54 506.952C103.54 506.556 103.658 506.222 103.896 505.95C104.142 505.677 104.502 505.541 104.977 505.541C105.451 505.541 105.812 505.677 106.058 505.95C106.304 506.222 106.427 506.556 106.427 506.952C106.427 507.347 106.304 507.677 106.058 507.94C105.812 508.204 105.451 508.336 104.977 508.336C104.502 508.336 104.142 508.204 103.896 507.94C103.658 507.677 103.54 507.347 103.54 506.952ZM109.512 517.749C109.512 515.525 110.026 513.759 111.054 512.449C112.083 511.131 113.445 510.472 115.141 510.472C116.882 510.472 118.24 511.087 119.215 512.317L119.334 510.735H121.562V524.657C121.562 526.503 121.012 527.958 119.914 529.021C118.824 530.084 117.356 530.616 115.511 530.616C114.482 530.616 113.476 530.396 112.492 529.957C111.507 529.518 110.756 528.916 110.237 528.151L111.503 526.688C112.549 527.979 113.827 528.625 115.339 528.625C116.526 528.625 117.449 528.292 118.108 527.624C118.776 526.956 119.11 526.015 119.11 524.802V523.576C118.134 524.701 116.803 525.264 115.115 525.264C113.445 525.264 112.092 524.591 111.054 523.247C110.026 521.902 109.512 520.069 109.512 517.749ZM111.964 518.026C111.964 519.634 112.294 520.9 112.953 521.823C113.612 522.737 114.535 523.194 115.721 523.194C117.26 523.194 118.389 522.495 119.11 521.098V514.585C118.363 513.223 117.242 512.542 115.748 512.542C114.561 512.542 113.634 513.003 112.966 513.926C112.298 514.849 111.964 516.215 111.964 518.026ZM127.56 510.735L127.639 512.528C128.729 511.157 130.153 510.472 131.911 510.472C134.926 510.472 136.446 512.172 136.472 515.574V525H134.033V515.561C134.025 514.532 133.787 513.772 133.322 513.28C132.865 512.788 132.148 512.542 131.173 512.542C130.382 512.542 129.687 512.752 129.09 513.174C128.492 513.596 128.026 514.15 127.692 514.835V525H125.253V510.735H127.56Z" fill="black"/>
<path d="M641.904 321.619H428.381V455.071H641.904V321.619Z" fill="#8B04DD" fill-opacity="0.3" stroke="#8B04DD" stroke-width="3"/>
<path d="M510.677 365.462C510.677 367.72 510.312 369.684 509.581 371.355C508.851 373.016 507.838 374.349 506.543 375.356L510.561 378.511L507.39 381.316L502.243 377.183C501.657 377.282 501.048 377.332 500.417 377.332C498.414 377.332 496.626 376.851 495.055 375.888C493.483 374.925 492.266 373.552 491.402 371.771C490.539 369.978 490.102 367.919 490.091 365.595V364.399C490.091 362.02 490.517 359.928 491.369 358.124C492.232 356.309 493.444 354.92 495.005 353.957C496.576 352.983 498.369 352.496 500.384 352.496C502.398 352.496 504.186 352.983 505.746 353.957C507.318 354.92 508.53 356.309 509.382 358.124C510.245 359.928 510.677 362.014 510.677 364.383V365.462ZM505.63 364.366C505.63 361.832 505.176 359.906 504.269 358.589C503.361 357.272 502.066 356.613 500.384 356.613C498.713 356.613 497.423 357.266 496.516 358.572C495.608 359.867 495.149 361.771 495.138 364.283V365.462C495.138 367.93 495.591 369.845 496.499 371.206C497.407 372.567 498.713 373.248 500.417 373.248C502.088 373.248 503.372 372.595 504.269 371.289C505.165 369.972 505.619 368.057 505.63 365.545V364.366ZM524.771 375.174C523.587 376.613 521.949 377.332 519.857 377.332C517.932 377.332 516.46 376.779 515.441 375.672C514.434 374.565 513.92 372.944 513.897 370.808V359.037H518.695V370.642C518.695 372.512 519.548 373.447 521.252 373.447C522.879 373.447 523.997 372.883 524.605 371.754V359.037H529.42V377H524.904L524.771 375.174ZM532.292 367.853C532.292 366.071 532.635 364.482 533.321 363.088C534.007 361.693 534.993 360.614 536.276 359.851C537.571 359.087 539.071 358.705 540.775 358.705C543.199 358.705 545.175 359.447 546.702 360.93C548.241 362.413 549.098 364.427 549.275 366.973L549.309 368.201C549.309 370.957 548.539 373.171 547.001 374.842C545.463 376.502 543.398 377.332 540.809 377.332C538.219 377.332 536.149 376.502 534.6 374.842C533.061 373.182 532.292 370.924 532.292 368.068V367.853ZM537.09 368.201C537.09 369.906 537.411 371.212 538.053 372.119C538.695 373.016 539.613 373.464 540.809 373.464C541.971 373.464 542.878 373.021 543.531 372.136C544.184 371.239 544.511 369.812 544.511 367.853C544.511 366.181 544.184 364.886 543.531 363.968C542.878 363.049 541.96 362.59 540.775 362.59C539.602 362.59 538.695 363.049 538.053 363.968C537.411 364.875 537.09 366.286 537.09 368.201ZM558.008 354.621V359.037H561.079V362.557H558.008V371.521C558.008 372.186 558.135 372.661 558.39 372.949C558.644 373.237 559.131 373.381 559.851 373.381C560.382 373.381 560.852 373.342 561.262 373.265V376.9C560.321 377.188 559.353 377.332 558.356 377.332C554.992 377.332 553.276 375.633 553.21 372.235V362.557H550.587V359.037H553.21V354.621H558.008ZM572.02 377.332C569.385 377.332 567.238 376.524 565.578 374.908C563.929 373.292 563.104 371.14 563.104 368.45V367.985C563.104 366.181 563.453 364.571 564.15 363.154C564.848 361.727 565.833 360.631 567.105 359.867C568.389 359.092 569.85 358.705 571.488 358.705C573.945 358.705 575.877 359.48 577.282 361.029C578.699 362.579 579.407 364.776 579.407 367.62V369.579H567.969C568.124 370.752 568.589 371.693 569.363 372.401C570.149 373.11 571.14 373.464 572.335 373.464C574.183 373.464 575.628 372.794 576.668 371.455L579.025 374.095C578.306 375.113 577.332 375.91 576.104 376.485C574.875 377.05 573.514 377.332 572.02 377.332ZM571.472 362.59C570.52 362.59 569.745 362.911 569.147 363.553C568.561 364.195 568.185 365.113 568.019 366.309H574.692V365.927C574.67 364.864 574.382 364.045 573.829 363.47C573.276 362.883 572.49 362.59 571.472 362.59Z" fill="black"/>
<path d="M163 611L148 602.34L148 619.66L163 611ZM113 612.5L149.5 612.5L149.5 609.5L113 609.5L113 612.5Z" fill="black"/>
<line x1="114.5" y1="539" x2="114.5" y2="611.25" stroke="black" stroke-width="3"/>
<line x1="114.5" y1="377" x2="114.5" y2="503.063" stroke="black" stroke-width="3"/>
<line x1="113.995" y1="378" x2="164.995" y2="378" stroke="black" stroke-width="3"/>
<path d="M259.998 378H339.998" stroke="black" stroke-width="3"/>
<line x1="340.875" y1="375.987" x2="340.875" y2="418.887" stroke="black" stroke-width="3"/>
<path d="M469.997 418L454.997 409.34V426.66L469.997 418ZM339.997 419.5H456.497V416.5H339.997V419.5Z" fill="black"/>
<path d="M492.483 413.462C493.564 412.135 494.97 411.472 496.702 411.472C499.716 411.472 501.237 413.172 501.263 416.574V426H498.824V416.561C498.815 415.532 498.578 414.772 498.112 414.28C497.655 413.788 496.939 413.542 495.963 413.542C495.172 413.542 494.478 413.752 493.88 414.174C493.283 414.596 492.817 415.15 492.483 415.835V426H490.044V405.75H492.483V413.462ZM513.722 426C513.581 425.719 513.467 425.218 513.379 424.497C512.245 425.675 510.892 426.264 509.318 426.264C507.912 426.264 506.756 425.868 505.851 425.077C504.955 424.277 504.506 423.267 504.506 422.045C504.506 420.56 505.069 419.408 506.194 418.591C507.328 417.765 508.918 417.352 510.966 417.352H513.339V416.231C513.339 415.378 513.084 414.702 512.575 414.201C512.065 413.691 511.313 413.436 510.32 413.436C509.45 413.436 508.721 413.656 508.132 414.095C507.543 414.535 507.249 415.066 507.249 415.69H504.796C504.796 414.979 505.047 414.293 505.548 413.634C506.058 412.966 506.743 412.438 507.604 412.052C508.475 411.665 509.428 411.472 510.465 411.472C512.109 411.472 513.396 411.885 514.328 412.711C515.26 413.528 515.743 414.658 515.778 416.099V422.665C515.778 423.974 515.945 425.016 516.279 425.789V426H513.722ZM509.674 424.141C510.439 424.141 511.164 423.943 511.85 423.548C512.535 423.152 513.032 422.638 513.339 422.005V419.079H511.428C508.439 419.079 506.945 419.953 506.945 421.702C506.945 422.467 507.2 423.064 507.71 423.495C508.22 423.926 508.875 424.141 509.674 424.141ZM527.907 422.216C527.907 421.557 527.657 421.047 527.156 420.687C526.664 420.318 525.798 420.001 524.559 419.738C523.328 419.474 522.348 419.158 521.619 418.789C520.898 418.419 520.362 417.98 520.01 417.47C519.667 416.96 519.496 416.354 519.496 415.651C519.496 414.482 519.988 413.493 520.973 412.685C521.966 411.876 523.231 411.472 524.77 411.472C526.387 411.472 527.696 411.889 528.698 412.724C529.709 413.559 530.214 414.627 530.214 415.928H527.762C527.762 415.26 527.477 414.684 526.905 414.201C526.343 413.717 525.631 413.476 524.77 413.476C523.882 413.476 523.188 413.669 522.687 414.056C522.186 414.442 521.935 414.948 521.935 415.572C521.935 416.161 522.168 416.604 522.634 416.903C523.1 417.202 523.939 417.488 525.152 417.76C526.374 418.033 527.362 418.358 528.118 418.736C528.874 419.114 529.432 419.571 529.792 420.107C530.162 420.634 530.346 421.28 530.346 422.045C530.346 423.319 529.836 424.343 528.817 425.117C527.797 425.881 526.475 426.264 524.849 426.264C523.706 426.264 522.695 426.062 521.816 425.657C520.938 425.253 520.248 424.69 519.747 423.97C519.254 423.24 519.008 422.454 519.008 421.61H521.447C521.491 422.427 521.816 423.078 522.423 423.561C523.038 424.036 523.847 424.273 524.849 424.273C525.771 424.273 526.51 424.088 527.063 423.719C527.626 423.341 527.907 422.84 527.907 422.216ZM535.962 413.462C537.043 412.135 538.45 411.472 540.181 411.472C543.196 411.472 544.716 413.172 544.743 416.574V426H542.304V416.561C542.295 415.532 542.058 414.772 541.592 414.28C541.135 413.788 540.418 413.542 539.443 413.542C538.652 413.542 537.958 413.752 537.36 414.174C536.762 414.596 536.296 415.15 535.962 415.835V426H533.523V405.75H535.962V413.462ZM548.302 418.208C548.302 416.222 548.566 414.315 549.093 412.487C549.629 410.659 550.425 408.998 551.479 407.503C552.534 406.009 553.628 404.955 554.762 404.339L555.263 405.948C553.98 406.932 552.925 408.435 552.099 410.457C551.282 412.478 550.833 414.741 550.754 417.246L550.741 418.367C550.741 421.759 551.361 424.704 552.6 427.2C553.347 428.694 554.235 429.863 555.263 430.707L554.762 432.196C553.593 431.546 552.477 430.456 551.414 428.927C549.339 425.938 548.302 422.366 548.302 418.208ZM565.045 418.235H560.537V426H557.992V406.805H564.347C566.509 406.805 568.17 407.297 569.33 408.281C570.499 409.266 571.083 410.698 571.083 412.579C571.083 413.774 570.758 414.816 570.108 415.704C569.466 416.591 568.57 417.255 567.418 417.694L571.927 425.842V426H569.211L565.045 418.235ZM560.537 416.165H564.426C565.683 416.165 566.68 415.84 567.418 415.189C568.166 414.539 568.539 413.669 568.539 412.579C568.539 411.393 568.183 410.483 567.471 409.85C566.768 409.217 565.749 408.896 564.413 408.888H560.537V416.165ZM579.89 418.34C579.89 420.3 579.631 422.181 579.112 423.983C578.603 425.776 577.816 427.433 576.752 428.953C575.698 430.474 574.59 431.555 573.43 432.196L572.916 430.707C574.27 429.669 575.355 428.061 576.172 425.881C576.999 423.693 577.42 421.267 577.438 418.604V418.182C577.438 416.336 577.245 414.623 576.858 413.041C576.471 411.45 575.931 410.026 575.236 408.769C574.551 407.512 573.777 406.532 572.916 405.829L573.43 404.339C574.59 404.981 575.693 406.053 576.739 407.556C577.794 409.059 578.581 410.716 579.099 412.526C579.626 414.337 579.89 416.275 579.89 418.34Z" fill="black"/>
<line x1="642" y1="389.5" x2="797" y2="389.5" stroke="black" stroke-width="3"/>
<path d="M1043 391L1028 382.34V399.66L1043 391ZM943 392.5H1029.5V389.5H943V392.5Z" fill="black"/>
<rect x="14.5" y="10.5" width="721" height="839" stroke="black" stroke-width="3" stroke-dasharray="6 6"/>
<path d="M912.02 657.5L927.02 666.16V648.84L912.02 657.5ZM1042.02 656H925.52V659H1042.02V656Z" fill="black"/>
<path d="M738 659L753 667.66V650.34L738 659ZM828 657.5H751.5V660.5H828V657.5Z" fill="black"/>
</svg>
