<?xml version="1.0" encoding="UTF-8" standalone="no"?>
<!-- Generator: Adobe Illustrator 24.1.3, SVG Export Plug-In . SVG Version: 6.00 Build 0)  -->

<svg
   xmlns:dc="http://purl.org/dc/elements/1.1/"
   xmlns:cc="http://creativecommons.org/ns#"
   xmlns:rdf="http://www.w3.org/1999/02/22-rdf-syntax-ns#"
   xmlns:svg="http://www.w3.org/2000/svg"
   xmlns="http://www.w3.org/2000/svg"
   xmlns:sodipodi="http://sodipodi.sourceforge.net/DTD/sodipodi-0.dtd"
   xmlns:inkscape="http://www.inkscape.org/namespaces/inkscape"
   version="1.1"
   x="0px"
   y="0px"
   viewBox="0 0 419.5 714.40002"
   xml:space="preserve"
   id="svg12"
   sodipodi:docname="ES_Symbol_black.svg"
   width="419.5"
   height="714.40002"
   inkscape:version="0.92.5 (2060ec1f9f, 2020-04-08)"><metadata
   id="metadata18"><rdf:RDF><cc:Work
       rdf:about=""><dc:format>image/svg+xml</dc:format><dc:type
         rdf:resource="http://purl.org/dc/dcmitype/StillImage" /></cc:Work></rdf:RDF></metadata><defs
   id="defs16" /><sodipodi:namedview
   pagecolor="#ffffff"
   bordercolor="#666666"
   borderopacity="1"
   objecttolerance="10"
   gridtolerance="10"
   guidetolerance="10"
   inkscape:pageopacity="0"
   inkscape:pageshadow="2"
   inkscape:window-width="1858"
   inkscape:window-height="1057"
   id="namedview14"
   showgrid="false"
   inkscape:zoom="0.23046875"
   inkscape:cx="-329.00339"
   inkscape:cy="359.7"
   inkscape:window-x="54"
   inkscape:window-y="-8"
   inkscape:window-maximized="1"
   inkscape:current-layer="svg12" />
<style
   type="text/css"
   id="style2">
	.st0{fill:#00010D;}
	.st1{opacity:0.5;}
	.st2{fill:none;stroke:#F0047F;stroke-width:1.2987;stroke-linecap:round;stroke-linejoin:round;stroke-miterlimit:10;}
	.st3{fill:none;stroke:#333333;stroke-miterlimit:10;}
	.st4{fill:#FFFFFF;}
	.st5{fill:#8195A6;}
	.st6{fill:none;stroke:#FFFFFF;stroke-width:3.0882;stroke-miterlimit:10;}
	.st7{fill:#5BD9D9;}
	.st8{fill:#D44FEA;}
	.st9{fill:#F2F2F2;}
	.st10{fill:none;stroke:#000000;stroke-width:0.9971;stroke-miterlimit:10;}
	.st11{display:none;}
</style>
<g
   id="Ebene_1"
   transform="translate(-300.8,-157.3)">
	<g
   id="g8">
		<polygon
   class="st0"
   points="330.8,372 720.3,372 720.3,282.1 330.8,282.1 330.8,247.2 720.3,247.2 720.3,157.3 300.8,157.3 300.8,200.9 300.8,247.2 300.8,282.1 300.8,372 300.8,406.9 300.8,454.1 300.8,496.8 720.3,496.8 720.3,406.9 330.8,406.9 "
   id="polygon4"
   style="fill:#00010d" />
		<polygon
   class="st0"
   points="720.3,657 330.8,657 330.8,622.1 720.3,622.1 720.3,532.2 300.8,532.2 300.8,575.7 300.8,622.1 300.8,657 300.8,704.2 300.8,746.9 690.3,746.9 690.3,781.8 300.8,781.8 300.8,871.7 720.3,871.7 720.3,842 720.3,842 720.3,713.5 "
   id="polygon6"
   style="fill:#00010d" />
	</g>
</g>
<g
   id="Ebene_2"
   class="st11"
   style="display:none"
   transform="translate(-300.8,-157.3)">
</g>
</svg>