<svg width="279" height="279" viewBox="0 0 279 279" fill="none" xmlns="http://www.w3.org/2000/svg">
<g opacity="0.3" clip-path="url(#clip0)">
<path d="M278.403 94.65L239.058 55.305L194.165 100.198L178.888 84.9205L223.781 40.0278L184.35 0.597412L139.458 45.49L94.6503 0.597412L55.3052 39.9425L100.198 84.8351L84.9207 100.112L39.9427 55.305L0.597656 94.65L45.4903 139.543L0.597656 184.35L39.9427 223.695L84.8354 178.802L100.113 194.08L55.2199 238.972L94.5649 278.317L139.458 233.425L184.35 278.317L223.695 238.972L178.803 194.08L194.08 178.802L238.972 223.695L278.317 184.35L233.425 139.457L278.403 94.65ZM139.543 154.82L124.266 139.543L139.543 124.266L154.82 139.543L139.543 154.82Z" stroke="#8195A6" stroke-miterlimit="10"/>
</g>
<path d="M210.219 114.906L189.929 94.377L166.778 117.8L158.899 109.829L182.05 86.406L161.76 65.8772L138.609 89.3005L115.458 65.8772L95.1684 86.406L118.319 109.829L110.441 117.8L87.29 94.377L67 114.906L90.1509 138.329L67 161.752L87.29 182.281L110.353 158.813L118.275 166.829L95.1244 190.252L115.414 210.781L138.565 187.358L161.716 210.781L182.006 190.252L158.855 166.829L166.734 158.858L189.885 182.281L210.175 161.752L187.024 138.329L210.219 114.906ZM138.565 146.256L130.687 138.285L138.565 130.313L146.444 138.285L138.565 146.256Z" fill="#00010D"/>
<circle cx="222.014" cy="193.932" r="27.5024" fill="white"/>
<path d="M228.192 184.665V190.843H215.836V184.665C215.836 181.254 218.606 178.487 222.014 178.487C225.421 178.487 228.192 181.254 228.192 184.665ZM259.082 193.932C259.082 214.403 242.485 231 222.014 231C201.543 231 184.945 214.403 184.945 193.932C184.945 173.461 201.543 156.863 222.014 156.863C242.485 156.863 259.082 173.461 259.082 193.932ZM234.37 190.843H231.281V184.665C231.281 179.549 227.132 175.397 222.014 175.397C216.895 175.397 212.747 179.549 212.747 184.665V190.843H209.658V209.377H234.37V190.843Z" fill="#D44FEA"/>
<defs>
<clipPath id="clip0">
<rect width="279" height="279" fill="white"/>
</clipPath>
</defs>
</svg>
