<?xml version="1.0" encoding="UTF-8" standalone="no"?>
<svg
   xmlns:dc="http://purl.org/dc/elements/1.1/"
   xmlns:cc="http://creativecommons.org/ns#"
   xmlns:rdf="http://www.w3.org/1999/02/22-rdf-syntax-ns#"
   xmlns:svg="http://www.w3.org/2000/svg"
   xmlns="http://www.w3.org/2000/svg"
   xmlns:sodipodi="http://sodipodi.sourceforge.net/DTD/sodipodi-0.dtd"
   xmlns:inkscape="http://www.inkscape.org/namespaces/inkscape"
   width="803.97766"
   height="300"
   viewBox="0 0 803.97766 300"
   fill="none"
   version="1.1"
   id="svg65"
   sodipodi:docname="overview_clean.svg"
   inkscape:version="1.0.1 (3bc2e813f5, 2020-09-07)">
  <metadata
     id="metadata71">
    <rdf:RDF>
      <cc:Work
         rdf:about="">
        <dc:format>image/svg+xml</dc:format>
        <dc:type
           rdf:resource="http://purl.org/dc/dcmitype/StillImage" />
        <dc:title />
      </cc:Work>
    </rdf:RDF>
  </metadata>
  <defs
     id="defs69">
    <rect
       x="104.57072"
       y="-55.725185"
       width="224.27667"
       height="48.157567"
       id="rect888" />
    <rect
       x="99.066995"
       y="211.20533"
       width="170.61538"
       height="42.653845"
       id="rect880" />
    <rect
       x="273.87973"
       y="-123.07562"
       width="190.20776"
       height="53.997604"
       id="rect872" />
    <rect
       x="104.57072"
       y="-55.725185"
       width="224.27667"
       height="48.157566"
       id="rect888-9" />
    <rect
       x="104.57072"
       y="-55.725185"
       width="224.27667"
       height="48.157566"
       id="rect901" />
    <rect
       x="104.57072"
       y="-55.725185"
       width="224.27667"
       height="48.157566"
       id="rect888-5" />
    <rect
       x="104.57072"
       y="-55.725185"
       width="224.27667"
       height="48.157566"
       id="rect932" />
  </defs>
  <sodipodi:namedview
     inkscape:document-rotation="0"
     pagecolor="#ffffff"
     bordercolor="#666666"
     borderopacity="1"
     objecttolerance="10"
     gridtolerance="10"
     guidetolerance="10"
     inkscape:pageopacity="0"
     inkscape:pageshadow="2"
     inkscape:window-width="2482"
     inkscape:window-height="1411"
     id="namedview67"
     showgrid="true"
     showguides="false"
     inkscape:zoom="2.0556468"
     inkscape:cx="453.75421"
     inkscape:cy="112.92245"
     inkscape:window-x="69"
     inkscape:window-y="-9"
     inkscape:window-maximized="1"
     inkscape:current-layer="svg65"
     inkscape:snap-bbox="true"
     inkscape:bbox-paths="false"
     inkscape:bbox-nodes="false">
    <inkscape:grid
       type="xygrid"
       id="grid921" />
  </sodipodi:namedview>
  <mask
     id="mask0"
     mask-type="alpha"
     maskUnits="userSpaceOnUse"
     x="657"
     y="220"
     width="180"
     height="57">
    <rect
       x="658.5"
       y="221.5"
       width="177"
       height="54"
       rx="8.5"
       fill="#8195a6"
       stroke="#8195a6"
       stroke-width="3"
       id="rect2" />
  </mask>
  <g
     mask="url(#mask0)"
     id="g7"
     transform="translate(-33.022332,-20)">
    <rect
       x="653"
       y="208"
       width="190"
       height="52"
       fill="#8195a6"
       id="rect5" />
  </g>
  <rect
     x="625.47766"
     y="201.5"
     width="177"
     height="97"
     rx="8.5"
     fill="#8195a6"
     fill-opacity="0.3"
     stroke="#8195a6"
     stroke-width="3"
     id="rect9" />
  <path
     d="m 686.01467,271.643 c 0,-0.498 -0.176,-0.879 -0.527,-1.143 -0.352,-0.27 -0.985,-0.551 -1.899,-0.844 -0.914,-0.299 -1.637,-0.592 -2.171,-0.879 -1.453,-0.785 -2.179,-1.842 -2.179,-3.173 0,-0.691 0.193,-1.306 0.58,-1.845 0.392,-0.545 0.952,-0.97 1.679,-1.275 0.732,-0.304 1.552,-0.457 2.46,-0.457 0.915,0 1.729,0.167 2.444,0.501 0.715,0.328 1.268,0.794 1.661,1.398 0.398,0.603 0.598,1.289 0.598,2.056 h -2.637 c 0,-0.586 -0.185,-1.04 -0.554,-1.362 -0.369,-0.328 -0.888,-0.492 -1.555,-0.492 -0.645,0 -1.146,0.138 -1.503,0.413 -0.358,0.27 -0.537,0.627 -0.537,1.072 0,0.416 0.208,0.765 0.624,1.046 0.422,0.281 1.041,0.545 1.855,0.791 1.5,0.451 2.593,1.011 3.278,1.679 0.686,0.668 1.029,1.5 1.029,2.496 0,1.107 -0.419,1.978 -1.257,2.61 -0.838,0.627 -1.966,0.941 -3.384,0.941 -0.984,0 -1.881,-0.179 -2.689,-0.536 -0.809,-0.364 -1.427,-0.859 -1.855,-1.486 -0.422,-0.627 -0.633,-1.353 -0.633,-2.179 h 2.646 c 0,1.412 0.843,2.118 2.531,2.118 0.627,0 1.116,-0.126 1.468,-0.378 0.351,-0.258 0.527,-0.615 0.527,-1.072 z m 8.649,3.533 c -1.395,0 -2.532,-0.428 -3.411,-1.283 -0.873,-0.856 -1.309,-1.996 -1.309,-3.419 v -0.246 c 0,-0.956 0.184,-1.808 0.554,-2.558 0.369,-0.756 0.89,-1.336 1.564,-1.74 0.68,-0.41 1.453,-0.616 2.32,-0.616 1.301,0 2.324,0.411 3.068,1.231 0.75,0.82 1.125,1.983 1.125,3.489 v 1.037 h -6.056 c 0.082,0.621 0.328,1.119 0.738,1.494 0.416,0.375 0.941,0.563 1.574,0.563 0.978,0 1.743,-0.355 2.293,-1.064 l 1.249,1.398 c -0.381,0.539 -0.897,0.961 -1.547,1.266 -0.651,0.298 -1.371,0.448 -2.162,0.448 z m -0.29,-7.805 c -0.504,0 -0.915,0.17 -1.231,0.51 -0.311,0.34 -0.51,0.826 -0.598,1.459 h 3.534 v -0.202 c -0.012,-0.563 -0.164,-0.996 -0.457,-1.301 -0.293,-0.311 -0.709,-0.466 -1.248,-0.466 z m 10.995,0.501 c -0.346,-0.047 -0.651,-0.07 -0.914,-0.07 -0.961,0 -1.591,0.325 -1.89,0.975 V 275 h -2.54 v -9.51 h 2.399 l 0.071,1.134 c 0.509,-0.873 1.215,-1.31 2.118,-1.31 0.281,0 0.545,0.039 0.791,0.115 z m 4.948,4.025 1.766,-6.407 h 2.655 l -3.208,9.51 h -2.426 l -3.208,-9.51 h 2.654 z m 8.226,3.103 h -2.548 v -9.51 h 2.548 z m -2.698,-11.971 c 0,-0.381 0.126,-0.694 0.378,-0.94 0.258,-0.246 0.607,-0.369 1.046,-0.369 0.434,0 0.779,0.123 1.037,0.369 0.258,0.246 0.387,0.559 0.387,0.94 0,0.387 -0.132,0.703 -0.396,0.95 -0.257,0.246 -0.6,0.369 -1.028,0.369 -0.428,0 -0.773,-0.123 -1.037,-0.369 -0.258,-0.247 -0.387,-0.563 -0.387,-0.95 z m 8.754,10.099 c 0.469,0 0.85,-0.129 1.143,-0.387 0.293,-0.258 0.445,-0.6 0.457,-1.028 h 2.382 c -0.006,0.644 -0.182,1.236 -0.528,1.775 -0.346,0.533 -0.82,0.95 -1.424,1.248 -0.597,0.293 -1.259,0.44 -1.986,0.44 -1.359,0 -2.432,-0.431 -3.217,-1.292 -0.785,-0.867 -1.177,-2.063 -1.177,-3.586 v -0.167 c 0,-1.465 0.389,-2.634 1.168,-3.507 0.78,-0.873 1.849,-1.31 3.208,-1.31 1.19,0 2.142,0.34 2.857,1.02 0.721,0.674 1.087,1.573 1.099,2.698 h -2.382 c -0.012,-0.492 -0.164,-0.89 -0.457,-1.195 -0.293,-0.311 -0.68,-0.466 -1.16,-0.466 -0.592,0 -1.041,0.217 -1.345,0.65 -0.299,0.428 -0.448,1.125 -0.448,2.092 v 0.264 c 0,0.978 0.149,1.682 0.448,2.109 0.299,0.428 0.753,0.642 1.362,0.642 z m 9.809,2.048 c -1.395,0 -2.532,-0.428 -3.41,-1.283 -0.874,-0.856 -1.31,-1.996 -1.31,-3.419 v -0.246 c 0,-0.956 0.185,-1.808 0.554,-2.558 0.369,-0.756 0.89,-1.336 1.564,-1.74 0.68,-0.41 1.453,-0.616 2.32,-0.616 1.301,0 2.324,0.411 3.068,1.231 0.75,0.82 1.125,1.983 1.125,3.489 v 1.037 h -6.056 c 0.082,0.621 0.328,1.119 0.738,1.494 0.416,0.375 0.941,0.563 1.574,0.563 0.978,0 1.743,-0.355 2.294,-1.064 l 1.248,1.398 c -0.381,0.539 -0.897,0.961 -1.547,1.266 -0.651,0.298 -1.371,0.448 -2.162,0.448 z m -0.29,-7.805 c -0.504,0 -0.914,0.17 -1.231,0.51 -0.31,0.34 -0.51,0.826 -0.597,1.459 h 3.533 v -0.202 c -0.012,-0.563 -0.164,-0.996 -0.457,-1.301 -0.293,-0.311 -0.709,-0.466 -1.248,-0.466 z m 14.88,-0.756 2.399,-4.412 h 3.032 l -3.726,6.346 3.823,6.451 h -3.068 l -2.46,-4.482 -2.461,4.482 h -3.068 l 3.823,-6.451 -3.726,-6.346 h 3.032 z"
     fill="#000000"
     id="path11" />
  <mask
     id="mask1"
     mask-type="alpha"
     maskUnits="userSpaceOnUse"
     x="389"
     y="220"
     width="180"
     height="57">
    <rect
       x="390.5"
       y="221.5"
       width="177"
       height="54"
       rx="8.5"
       fill="#8195a6"
       stroke="#8195a6"
       stroke-width="3"
       id="rect15" />
  </mask>
  <g
     mask="url(#mask1)"
     id="g20"
     transform="translate(-35.022332,-20)">
    <rect
       x="385"
       y="208"
       width="190"
       height="52"
       fill="#8195a6"
       id="rect18" />
  </g>
  <rect
     x="355.47766"
     y="201.5"
     width="177"
     height="97"
     rx="8.5"
     fill="#8195a6"
     fill-opacity="0.3"
     stroke="#8195a6"
     stroke-width="3"
     id="rect22" />
  <path
     d="m 413.98867,271.643 c 0,-0.498 -0.176,-0.879 -0.528,-1.143 -0.351,-0.27 -0.984,-0.551 -1.898,-0.844 -0.914,-0.299 -1.638,-0.592 -2.171,-0.879 -1.453,-0.785 -2.18,-1.842 -2.18,-3.173 0,-0.691 0.194,-1.306 0.58,-1.845 0.393,-0.545 0.953,-0.97 1.679,-1.275 0.733,-0.304 1.553,-0.457 2.461,-0.457 0.914,0 1.729,0.167 2.443,0.501 0.715,0.328 1.269,0.794 1.662,1.398 0.398,0.603 0.597,1.289 0.597,2.056 h -2.636 c 0,-0.586 -0.185,-1.04 -0.554,-1.362 -0.369,-0.328 -0.888,-0.492 -1.556,-0.492 -0.644,0 -1.145,0.138 -1.503,0.413 -0.357,0.27 -0.536,0.627 -0.536,1.072 0,0.416 0.208,0.765 0.624,1.046 0.422,0.281 1.04,0.545 1.855,0.791 1.5,0.451 2.592,1.011 3.278,1.679 0.685,0.668 1.028,1.5 1.028,2.496 0,1.107 -0.419,1.978 -1.257,2.61 -0.837,0.627 -1.965,0.941 -3.383,0.941 -0.985,0 -1.881,-0.179 -2.69,-0.536 -0.808,-0.364 -1.427,-0.859 -1.854,-1.486 -0.422,-0.627 -0.633,-1.353 -0.633,-2.179 h 2.645 c 0,1.412 0.844,2.118 2.532,2.118 0.627,0 1.116,-0.126 1.467,-0.378 0.352,-0.258 0.528,-0.615 0.528,-1.072 z m 8.648,3.533 c -1.394,0 -2.531,-0.428 -3.41,-1.283 -0.873,-0.856 -1.31,-1.996 -1.31,-3.419 v -0.246 c 0,-0.956 0.185,-1.808 0.554,-2.558 0.369,-0.756 0.891,-1.336 1.565,-1.74 0.679,-0.41 1.453,-0.616 2.32,-0.616 1.301,0 2.323,0.411 3.067,1.231 0.75,0.82 1.125,1.983 1.125,3.489 v 1.037 h -6.055 c 0.082,0.621 0.328,1.119 0.738,1.494 0.416,0.375 0.94,0.563 1.573,0.563 0.979,0 1.743,-0.355 2.294,-1.064 l 1.248,1.398 c -0.381,0.539 -0.896,0.961 -1.547,1.266 -0.65,0.298 -1.371,0.448 -2.162,0.448 z m -0.29,-7.805 c -0.504,0 -0.914,0.17 -1.23,0.51 -0.311,0.34 -0.51,0.826 -0.598,1.459 h 3.533 v -0.202 c -0.012,-0.563 -0.164,-0.996 -0.457,-1.301 -0.293,-0.311 -0.709,-0.466 -1.248,-0.466 z m 10.995,0.501 c -0.345,-0.047 -0.65,-0.07 -0.914,-0.07 -0.961,0 -1.591,0.325 -1.889,0.975 V 275 h -2.54 v -9.51 h 2.399 l 0.07,1.134 c 0.51,-0.873 1.216,-1.31 2.118,-1.31 0.282,0 0.545,0.039 0.791,0.115 z m 4.948,4.025 1.767,-6.407 h 2.654 l -3.208,9.51 h -2.425 l -3.208,-9.51 h 2.654 z m 8.227,3.103 h -2.549 v -9.51 h 2.549 z m -2.698,-11.971 c 0,-0.381 0.126,-0.694 0.378,-0.94 0.258,-0.246 0.606,-0.369 1.046,-0.369 0.433,0 0.779,0.123 1.037,0.369 0.258,0.246 0.386,0.559 0.386,0.94 0,0.387 -0.131,0.703 -0.395,0.95 -0.258,0.246 -0.601,0.369 -1.028,0.369 -0.428,0 -0.774,-0.123 -1.037,-0.369 -0.258,-0.247 -0.387,-0.563 -0.387,-0.95 z m 8.754,10.099 c 0.468,0 0.849,-0.129 1.142,-0.387 0.293,-0.258 0.446,-0.6 0.457,-1.028 h 2.382 c -0.006,0.644 -0.181,1.236 -0.527,1.775 -0.346,0.533 -0.82,0.95 -1.424,1.248 -0.598,0.293 -1.26,0.44 -1.986,0.44 -1.36,0 -2.432,-0.431 -3.217,-1.292 -0.785,-0.867 -1.178,-2.063 -1.178,-3.586 v -0.167 c 0,-1.465 0.39,-2.634 1.169,-3.507 0.779,-0.873 1.849,-1.31 3.208,-1.31 1.19,0 2.142,0.34 2.857,1.02 0.72,0.674 1.086,1.573 1.098,2.698 h -2.382 c -0.011,-0.492 -0.164,-0.89 -0.457,-1.195 -0.293,-0.311 -0.679,-0.466 -1.16,-0.466 -0.592,0 -1.04,0.217 -1.345,0.65 -0.298,0.428 -0.448,1.125 -0.448,2.092 v 0.264 c 0,0.978 0.15,1.682 0.448,2.109 0.299,0.428 0.753,0.642 1.363,0.642 z m 9.808,2.048 c -1.394,0 -2.531,-0.428 -3.41,-1.283 -0.873,-0.856 -1.309,-1.996 -1.309,-3.419 v -0.246 c 0,-0.956 0.184,-1.808 0.553,-2.558 0.369,-0.756 0.891,-1.336 1.565,-1.74 0.679,-0.41 1.453,-0.616 2.32,-0.616 1.301,0 2.323,0.411 3.067,1.231 0.75,0.82 1.125,1.983 1.125,3.489 v 1.037 h -6.055 c 0.082,0.621 0.328,1.119 0.738,1.494 0.416,0.375 0.941,0.563 1.573,0.563 0.979,0 1.743,-0.355 2.294,-1.064 l 1.248,1.398 c -0.381,0.539 -0.896,0.961 -1.547,1.266 -0.65,0.298 -1.371,0.448 -2.162,0.448 z m -0.29,-7.805 c -0.504,0 -0.914,0.17 -1.23,0.51 -0.311,0.34 -0.51,0.826 -0.598,1.459 h 3.533 v -0.202 c -0.011,-0.563 -0.164,-0.996 -0.457,-1.301 -0.293,-0.311 -0.709,-0.466 -1.248,-0.466 z m 10.301,7.629 v -12.797 h 4.482 c 1.553,0 2.731,0.299 3.534,0.897 0.802,0.591 1.204,1.462 1.204,2.61 0,0.627 -0.161,1.181 -0.484,1.661 -0.322,0.475 -0.77,0.823 -1.344,1.046 0.656,0.164 1.172,0.495 1.547,0.993 0.38,0.498 0.571,1.108 0.571,1.828 0,1.231 -0.393,2.162 -1.178,2.795 -0.785,0.633 -1.904,0.955 -3.357,0.967 z m 2.637,-5.572 v 3.454 h 2.259 c 0.621,0 1.104,-0.147 1.45,-0.44 0.351,-0.298 0.527,-0.709 0.527,-1.23 0,-1.172 -0.606,-1.767 -1.819,-1.784 z m 0,-1.864 h 1.951 c 1.33,-0.023 1.995,-0.553 1.995,-1.59 0,-0.58 -0.17,-0.996 -0.51,-1.248 -0.334,-0.258 -0.864,-0.387 -1.591,-0.387 h -1.845 z"
     fill="#000000"
     id="path24" />
  <mask
     id="mask2"
     mask-type="alpha"
     maskUnits="userSpaceOnUse"
     x="121"
     y="220"
     width="180"
     height="57">
    <rect
       x="122.5"
       y="221.5"
       width="177"
       height="54"
       rx="8.5"
       fill="#8195a6"
       stroke="#8195a6"
       stroke-width="3"
       id="rect28" />
  </mask>
  <g
     mask="url(#mask2)"
     id="g33"
     transform="translate(-33.022332,-20)">
    <rect
       x="117"
       y="208"
       width="190"
       height="52"
       fill="#8195a6"
       id="rect31" />
  </g>
  <rect
     x="89.477669"
     y="201.5"
     width="177"
     height="97"
     rx="8.5"
     fill="#8195a6"
     fill-opacity="0.3"
     stroke="#8195a6"
     stroke-width="3"
     id="rect35" />
  <path
     d="m 143.18067,271.643 c 0,-0.498 -0.176,-0.879 -0.527,-1.143 -0.352,-0.27 -0.985,-0.551 -1.899,-0.844 -0.914,-0.299 -1.637,-0.592 -2.171,-0.879 -1.453,-0.785 -2.179,-1.842 -2.179,-3.173 0,-0.691 0.193,-1.306 0.58,-1.845 0.392,-0.545 0.952,-0.97 1.679,-1.275 0.732,-0.304 1.552,-0.457 2.46,-0.457 0.915,0 1.729,0.167 2.444,0.501 0.715,0.328 1.268,0.794 1.661,1.398 0.398,0.603 0.598,1.289 0.598,2.056 h -2.637 c 0,-0.586 -0.185,-1.04 -0.554,-1.362 -0.369,-0.328 -0.887,-0.492 -1.555,-0.492 -0.645,0 -1.146,0.138 -1.503,0.413 -0.358,0.27 -0.537,0.627 -0.537,1.072 0,0.416 0.208,0.765 0.625,1.046 0.421,0.281 1.04,0.545 1.854,0.791 1.5,0.451 2.593,1.011 3.278,1.679 0.686,0.668 1.029,1.5 1.029,2.496 0,1.107 -0.419,1.978 -1.257,2.61 -0.838,0.627 -1.966,0.941 -3.384,0.941 -0.984,0 -1.881,-0.179 -2.689,-0.536 -0.809,-0.364 -1.427,-0.859 -1.855,-1.486 -0.422,-0.627 -0.633,-1.353 -0.633,-2.179 h 2.646 c 0,1.412 0.844,2.118 2.531,2.118 0.627,0 1.116,-0.126 1.468,-0.378 0.351,-0.258 0.527,-0.615 0.527,-1.072 z m 8.649,3.533 c -1.395,0 -2.532,-0.428 -3.411,-1.283 -0.873,-0.856 -1.309,-1.996 -1.309,-3.419 v -0.246 c 0,-0.956 0.184,-1.808 0.554,-2.558 0.369,-0.756 0.89,-1.336 1.564,-1.74 0.68,-0.41 1.453,-0.616 2.32,-0.616 1.301,0 2.324,0.411 3.068,1.231 0.75,0.82 1.125,1.983 1.125,3.489 v 1.037 h -6.056 c 0.082,0.621 0.328,1.119 0.738,1.494 0.416,0.375 0.941,0.563 1.574,0.563 0.978,0 1.743,-0.355 2.293,-1.064 l 1.249,1.398 c -0.381,0.539 -0.897,0.961 -1.547,1.266 -0.651,0.298 -1.371,0.448 -2.162,0.448 z m -0.29,-7.805 c -0.504,0 -0.915,0.17 -1.231,0.51 -0.31,0.34 -0.51,0.826 -0.598,1.459 h 3.534 v -0.202 c -0.012,-0.563 -0.164,-0.996 -0.457,-1.301 -0.293,-0.311 -0.709,-0.466 -1.248,-0.466 z m 10.995,0.501 c -0.346,-0.047 -0.651,-0.07 -0.914,-0.07 -0.961,0 -1.591,0.325 -1.89,0.975 V 275 h -2.54 v -9.51 h 2.399 l 0.071,1.134 c 0.509,-0.873 1.215,-1.31 2.118,-1.31 0.281,0 0.545,0.039 0.791,0.115 z m 4.948,4.025 1.766,-6.407 h 2.655 l -3.208,9.51 h -2.426 l -3.208,-9.51 h 2.654 z m 8.226,3.103 h -2.548 v -9.51 h 2.548 z m -2.698,-11.971 c 0,-0.381 0.126,-0.694 0.378,-0.94 0.258,-0.246 0.607,-0.369 1.046,-0.369 0.434,0 0.779,0.123 1.037,0.369 0.258,0.246 0.387,0.559 0.387,0.94 0,0.387 -0.132,0.703 -0.396,0.95 -0.257,0.246 -0.6,0.369 -1.028,0.369 -0.428,0 -0.773,-0.123 -1.037,-0.369 -0.258,-0.247 -0.387,-0.563 -0.387,-0.95 z m 8.754,10.099 c 0.469,0 0.85,-0.129 1.143,-0.387 0.293,-0.258 0.445,-0.6 0.457,-1.028 h 2.382 c -0.006,0.644 -0.182,1.236 -0.528,1.775 -0.345,0.533 -0.82,0.95 -1.424,1.248 -0.597,0.293 -1.259,0.44 -1.986,0.44 -1.359,0 -2.432,-0.431 -3.217,-1.292 -0.785,-0.867 -1.177,-2.063 -1.177,-3.586 v -0.167 c 0,-1.465 0.389,-2.634 1.168,-3.507 0.78,-0.873 1.849,-1.31 3.208,-1.31 1.19,0 2.142,0.34 2.857,1.02 0.721,0.674 1.087,1.573 1.099,2.698 h -2.382 c -0.012,-0.492 -0.164,-0.89 -0.457,-1.195 -0.293,-0.311 -0.68,-0.466 -1.16,-0.466 -0.592,0 -1.041,0.217 -1.345,0.65 -0.299,0.428 -0.448,1.125 -0.448,2.092 v 0.264 c 0,0.978 0.149,1.682 0.448,2.109 0.299,0.428 0.753,0.642 1.362,0.642 z m 9.809,2.048 c -1.395,0 -2.532,-0.428 -3.41,-1.283 -0.874,-0.856 -1.31,-1.996 -1.31,-3.419 v -0.246 c 0,-0.956 0.185,-1.808 0.554,-2.558 0.369,-0.756 0.89,-1.336 1.564,-1.74 0.68,-0.41 1.453,-0.616 2.32,-0.616 1.301,0 2.324,0.411 3.068,1.231 0.75,0.82 1.125,1.983 1.125,3.489 v 1.037 h -6.056 c 0.082,0.621 0.328,1.119 0.738,1.494 0.416,0.375 0.941,0.563 1.574,0.563 0.978,0 1.743,-0.355 2.294,-1.064 l 1.248,1.398 c -0.381,0.539 -0.897,0.961 -1.547,1.266 -0.651,0.298 -1.371,0.448 -2.162,0.448 z m -0.29,-7.805 c -0.504,0 -0.914,0.17 -1.231,0.51 -0.31,0.34 -0.51,0.826 -0.597,1.459 h 3.533 v -0.202 c -0.012,-0.563 -0.164,-0.996 -0.457,-1.301 -0.293,-0.311 -0.709,-0.466 -1.248,-0.466 z m 17.525,4.992 h -4.623 l -0.879,2.637 h -2.804 l 4.764,-12.797 h 2.443 l 4.79,12.797 h -2.803 z m -3.911,-2.135 h 3.199 l -1.608,-4.79 z"
     fill="#000000"
     id="path37" />
  <path
     d="m 414.97767,72 -11.154,2.9886 8.165,8.1654 z m -113,113 11.154,-2.989 -8.165,-8.165 z m 105.929,-107.3431 -100.272,100.2721 1.414,1.414 100.272,-100.2719 z"
     fill="#00010d"
     id="path41" />
  <path
     d="m 473.97767,73 2.989,11.154 8.165,-8.1654 z m 112,112 -2.989,-11.154 -8.165,8.165 z m -106.343,-104.929 99.272,99.272 1.414,-1.414 -99.272,-99.2721 z"
     fill="#00010d"
     id="path43" />
  <path
     d="m 443.97767,73 -5.774,10 h 11.548 z m 0,114 5.773,-10 h -11.547 z m -1,-105 v 96 h 2 V 82 Z"
     fill="#00010d"
     id="path45" />
  <rect
     x="357.47766"
     y="1.5"
     width="177"
     height="57"
     rx="8.5"
     fill="#d44fea"
     fill-opacity="0.3"
     stroke="#d44fea"
     stroke-width="3"
     id="rect47"
     style="fill:none" />
  <path
     d="m 337.97767,30 -10,-5.7735 v 11.547 z M 75.977668,31 H 328.97767 V 29 H 75.977668 Z"
     fill="#00010d"
     id="path51" />
  <path
     d="M 163.81731,109.52227 V 66.094578 H 198.9563 V 91.15843 c 0,8.918 -13.17712,5.33561 -13.17712,5.33561 0,0 3.33374,13.02823 -5.79347,13.02823 z M 203.34867,92.98908 V 61.751861 h -43.92373 v 52.112899 h 22.37728 c 6.94591,0 21.54645,-15.68375 21.54645,-20.87568 z m -10.98093,-3.00915 h -17.56949 v -2.17162 h 17.56949 z m 0,-8.68573 h -17.56949 v 2.17162 h 17.56949 z m 0,-6.514113 h -17.56949 v 2.171396 h 17.56949 z m -19.76568,0 h -2.19619 v 2.171396 h 2.19619 z m 0,6.514113 h -2.19619 v 2.17162 h 2.19619 z m 0,6.51411 h -2.19619 v 2.17162 h 2.19619 z"
     fill="#00010d"
     id="path53"
     style="stroke-width:0.74447" />
  <path
     d="m 46.437733,19.813907 c 0,9.446441 -7.659782,17.108696 -17.108639,17.108696 -9.448856,0 -17.108638,-7.662255 -17.108638,-17.108696 0,-9.451272 7.659782,-17.111054 17.108638,-17.111054 9.448857,0 17.108639,7.659782 17.108639,17.111054 z m -3.905658,17.548575 c -3.680801,2.778961 -8.246364,4.448246 -13.202981,4.448246 -4.961504,0 -9.529539,-1.674174 -13.215172,-4.453134 C 6.161525,41.739878 0,55.385211 0,61.361043 h 58.65819 c 0,-5.922062 -6.354638,-19.567395 -16.126115,-23.998561 z"
     fill="#00010d"
     id="path55"
     style="stroke-width:0.57508" />
  <path
     d="m 227.64267,69.2031 4.184,10.4414 4.183,-10.4414 h 2.189 V 82 h -1.688 v -4.9834 l 0.158,-5.3789 -4.201,10.3623 h -1.292 l -4.192,-10.3359 0.167,5.3525 V 82 h -1.688 V 69.2031 Z M 246.79367,82 c -0.093,-0.188 -0.17,-0.521 -0.228,-1.002 -0.756,0.785 -1.658,1.178 -2.707,1.178 -0.938,0 -1.708,-0.264 -2.312,-0.791 -0.597,-0.533 -0.896,-1.207 -0.896,-2.0217 0,-0.9903 0.375,-1.7578 1.125,-2.3028 0.756,-0.5507 1.816,-0.8261 3.181,-0.8261 h 1.583 v -0.7471 c 0,-0.5684 -0.17,-1.0195 -0.51,-1.3535 -0.34,-0.3399 -0.841,-0.5098 -1.503,-0.5098 -0.58,0 -1.067,0.1465 -1.459,0.4395 -0.393,0.2929 -0.589,0.6474 -0.589,1.0635 h -1.635 c 0,-0.4747 0.167,-0.9317 0.501,-1.3711 0.34,-0.4454 0.797,-0.7969 1.371,-1.0547 0.58,-0.2578 1.216,-0.3867 1.908,-0.3867 1.095,0 1.954,0.2753 2.575,0.8261 0.621,0.5449 0.943,1.2979 0.967,2.2588 v 4.377 c 0,0.8726 0.111,1.5676 0.333,2.0826 V 82 Z m -2.698,-1.239 c 0.51,0 0.993,-0.132 1.45,-0.396 0.457,-0.263 0.788,-0.6062 0.994,-1.0281 v -1.9512 h -1.275 c -1.992,0 -2.988,0.5831 -2.988,1.7491 0,0.5097 0.17,0.9082 0.51,1.1952 0.339,0.287 0.776,0.431 1.309,0.431 z m 8.156,-8.2708 0.053,1.1953 c 0.727,-0.914 1.676,-1.371 2.848,-1.371 2.01,0 3.023,1.1337 3.041,3.4013 V 82 h -1.626 v -6.293 c -0.006,-0.6855 -0.164,-1.1924 -0.475,-1.5205 -0.304,-0.3281 -0.782,-0.4922 -1.432,-0.4922 -0.528,0 -0.991,0.1407 -1.389,0.4219 -0.398,0.2813 -0.709,0.6504 -0.932,1.1074 V 82 h -1.626 V 72.4902 Z M 262.41267,82 h -1.626 v -9.5098 h 1.626 z m -1.758,-12.0322 c 0,-0.2637 0.079,-0.4864 0.237,-0.668 0.164,-0.1816 0.404,-0.2725 0.721,-0.2725 0.316,0 0.556,0.0909 0.72,0.2725 0.165,0.1816 0.247,0.4043 0.247,0.668 0,0.2636 -0.082,0.4834 -0.247,0.6592 -0.164,0.1757 -0.404,0.2636 -0.72,0.2636 -0.317,0 -0.557,-0.0879 -0.721,-0.2636 -0.158,-0.1758 -0.237,-0.3956 -0.237,-0.6592 z M 265.82267,82 v -8.2529 h -1.503 v -1.2569 h 1.503 v -0.9756 c 0,-1.0195 0.272,-1.8076 0.817,-2.3642 0.545,-0.5566 1.316,-0.835 2.312,-0.835 0.375,0 0.747,0.0498 1.116,0.1494 l -0.088,1.3184 c -0.275,-0.0527 -0.568,-0.0791 -0.879,-0.0791 -0.527,0 -0.935,0.1553 -1.222,0.4658 -0.287,0.3047 -0.43,0.7442 -0.43,1.3184 v 1.0019 h 2.03 v 1.2569 h -2.03 V 82 Z m 9.193,0.176 c -1.289,0 -2.338,-0.422 -3.146,-1.266 -0.809,-0.849 -1.213,-1.9832 -1.213,-3.4012 V 77.21 c 0,-0.9434 0.178,-1.7842 0.536,-2.5225 0.363,-0.7441 0.867,-1.3242 1.512,-1.7402 0.65,-0.4219 1.353,-0.6328 2.109,-0.6328 1.236,0 2.197,0.4072 2.883,1.2216 0.685,0.8145 1.028,1.9805 1.028,3.4981 v 0.6767 h -6.442 c 0.023,0.9375 0.296,1.6963 0.817,2.2764 0.527,0.5747 1.195,0.8617 2.004,0.8617 0.574,0 1.061,-0.118 1.459,-0.352 0.398,-0.234 0.747,-0.5449 1.046,-0.9316 l 0.993,0.7736 c -0.797,1.224 -1.992,1.837 -3.586,1.837 z m -0.202,-8.5256 c -0.656,0 -1.207,0.2402 -1.652,0.7207 -0.446,0.4746 -0.721,1.1426 -0.827,2.0039 h 4.764 v -0.123 c -0.047,-0.8262 -0.269,-1.4649 -0.668,-1.9161 -0.398,-0.457 -0.937,-0.6855 -1.617,-0.6855 z m 11.338,5.8271 c 0,-0.4394 -0.167,-0.7793 -0.501,-1.0195 -0.328,-0.2461 -0.905,-0.457 -1.732,-0.6328 -0.82,-0.1758 -1.473,-0.3867 -1.96,-0.6328 -0.48,-0.2461 -0.837,-0.5391 -1.072,-0.8789 -0.228,-0.3399 -0.343,-0.7442 -0.343,-1.2129 0,-0.7793 0.329,-1.4385 0.985,-1.9776 0.662,-0.539 1.506,-0.8085 2.531,-0.8085 1.078,0 1.951,0.2783 2.619,0.8349 0.674,0.5567 1.011,1.2686 1.011,2.1358 h -1.635 c 0,-0.4454 -0.19,-0.8291 -0.571,-1.1514 -0.375,-0.3223 -0.85,-0.4834 -1.424,-0.4834 -0.592,0 -1.055,0.1289 -1.389,0.3867 -0.334,0.2578 -0.501,0.5947 -0.501,1.0108 0,0.3925 0.156,0.6884 0.466,0.8876 0.311,0.1993 0.87,0.3897 1.679,0.5713 0.814,0.1817 1.474,0.3985 1.977,0.6504 0.504,0.252 0.876,0.5567 1.117,0.9141 0.246,0.3516 0.369,0.7822 0.369,1.292 0,0.8497 -0.34,1.5327 -1.02,2.0477 -0.679,0.51 -1.561,0.765 -2.645,0.765 -0.762,0 -1.436,-0.135 -2.022,-0.405 -0.586,-0.269 -1.046,-0.644 -1.38,-1.125 -0.328,-0.486 -0.492,-1.0103 -0.492,-1.5728 h 1.626 c 0.029,0.545 0.246,0.9788 0.651,1.3008 0.41,0.316 0.949,0.475 1.617,0.475 0.615,0 1.107,-0.123 1.476,-0.37 0.375,-0.251 0.563,-0.5854 0.563,-1.0015 z m 5.95,-9.29 v 2.3027 h 1.775 v 1.2569 h -1.775 v 5.8974 c 0,0.3805 0.079,0.6675 0.237,0.8615 0.159,0.187 0.428,0.281 0.809,0.281 0.187,0 0.445,-0.035 0.773,-0.105 V 82 c -0.427,0.117 -0.843,0.176 -1.248,0.176 -0.726,0 -1.274,-0.22 -1.643,-0.659 -0.369,-0.44 -0.554,-1.064 -0.554,-1.8725 v -5.8974 h -1.731 v -1.2569 h 1.731 v -2.3027 z m -66.955,27.6185 c 0,-1.325 0.176,-2.596 0.527,-3.815 0.358,-1.219 0.888,-2.326 1.591,-3.322 0.703,-0.996 1.433,-1.699 2.189,-2.109 l 0.334,1.072 c -0.856,0.656 -1.559,1.658 -2.11,3.006 -0.545,1.347 -0.844,2.856 -0.896,4.526 l -0.009,0.747 c 0,2.262 0.413,4.225 1.239,5.889 0.498,0.996 1.09,1.775 1.776,2.338 l -0.334,0.993 c -0.78,-0.434 -1.524,-1.16 -2.233,-2.18 -1.383,-1.992 -2.074,-4.374 -2.074,-7.145 z m 11.83,-7.603 h 1.696 v 9.062 c 0,1.224 -0.369,2.182 -1.107,2.874 -0.733,0.691 -1.711,1.037 -2.936,1.037 -1.271,0 -2.261,-0.325 -2.97,-0.976 -0.709,-0.65 -1.064,-1.561 -1.064,-2.733 h 1.688 c 0,0.732 0.199,1.304 0.597,1.714 0.405,0.41 0.988,0.615 1.749,0.615 0.698,0 1.26,-0.22 1.688,-0.659 0.433,-0.44 0.653,-1.055 0.659,-1.846 z m 8.341,7.093 c -1.447,-0.416 -2.502,-0.926 -3.164,-1.529 -0.656,-0.61 -0.985,-1.36 -0.985,-2.25 0,-1.008 0.402,-1.84 1.205,-2.496 0.808,-0.663 1.857,-0.994 3.146,-0.994 0.879,0 1.661,0.17 2.347,0.51 0.691,0.34 1.224,0.809 1.599,1.406 0.381,0.598 0.572,1.251 0.572,1.96 h -1.697 c 0,-0.773 -0.246,-1.38 -0.738,-1.819 -0.492,-0.445 -1.187,-0.668 -2.083,-0.668 -0.832,0 -1.482,0.185 -1.951,0.554 -0.463,0.363 -0.695,0.87 -0.695,1.52 0,0.522 0.22,0.964 0.66,1.327 0.445,0.358 1.198,0.686 2.258,0.985 1.067,0.299 1.899,0.63 2.497,0.993 0.603,0.357 1.048,0.776 1.335,1.257 0.293,0.48 0.44,1.046 0.44,1.696 0,1.037 -0.404,1.869 -1.213,2.496 -0.809,0.621 -1.89,0.932 -3.243,0.932 -0.879,0 -1.699,-0.167 -2.461,-0.501 -0.762,-0.34 -1.351,-0.803 -1.767,-1.389 -0.41,-0.586 -0.615,-1.251 -0.615,-1.995 h 1.696 c 0,0.773 0.285,1.386 0.853,1.837 0.574,0.445 1.339,0.668 2.294,0.668 0.891,0 1.573,-0.182 2.048,-0.545 0.474,-0.363 0.712,-0.858 0.712,-1.485 0,-0.627 -0.22,-1.111 -0.66,-1.451 -0.439,-0.345 -1.236,-0.685 -2.39,-1.019 z m 16.761,-0.281 c 0,1.254 -0.211,2.349 -0.633,3.287 -0.422,0.931 -1.02,1.643 -1.793,2.136 -0.774,0.492 -1.676,0.738 -2.707,0.738 -1.008,0 -1.902,-0.246 -2.681,-0.738 -0.779,-0.499 -1.386,-1.205 -1.819,-2.119 -0.428,-0.92 -0.648,-1.983 -0.659,-3.19 v -0.923 c 0,-1.23 0.213,-2.317 0.641,-3.261 0.428,-0.943 1.031,-1.664 1.811,-2.162 0.785,-0.504 1.681,-0.756 2.689,-0.756 1.026,0 1.928,0.249 2.707,0.747 0.785,0.493 1.389,1.21 1.811,2.154 0.422,0.937 0.633,2.03 0.633,3.278 z m -1.679,-0.827 c 0,-1.517 -0.305,-2.68 -0.914,-3.489 -0.61,-0.814 -1.462,-1.221 -2.558,-1.221 -1.066,0 -1.907,0.407 -2.522,1.221 -0.61,0.809 -0.923,1.934 -0.941,3.375 v 0.941 c 0,1.47 0.308,2.628 0.923,3.471 0.621,0.838 1.474,1.257 2.558,1.257 1.09,0 1.933,-0.395 2.531,-1.186 0.598,-0.797 0.905,-1.937 0.923,-3.419 z m 14.045,6.812 h -1.696 l -6.443,-9.861 V 103 h -1.696 V 90.203 h 1.696 l 6.46,9.905 v -9.905 h 1.679 z m 6.495,-5.106 c 0,1.306 -0.173,2.56 -0.519,3.761 -0.339,1.196 -0.864,2.3 -1.573,3.314 -0.703,1.013 -1.441,1.734 -2.215,2.162 l -0.343,-0.993 c 0.903,-0.692 1.626,-1.764 2.171,-3.217 0.551,-1.459 0.832,-3.076 0.844,-4.852 v -0.281 c 0,-1.23 -0.129,-2.373 -0.387,-3.428 -0.257,-1.06 -0.618,-2.009 -1.081,-2.847 -0.457,-0.838 -0.972,-1.492 -1.547,-1.96 l 0.343,-0.993 c 0.774,0.427 1.509,1.142 2.206,2.144 0.703,1.002 1.228,2.107 1.574,3.314 0.351,1.207 0.527,2.499 0.527,3.876 z"
     fill="#000000"
     id="path57" />
  <path
     d="m 555.97767,265 10,5.774 v -11.548 z m 48,0 -10,-5.774 v 11.547 z m -39,1 h 30 v -2 h -30 z"
     fill="#00010d"
     id="path61" />
  <path
     d="m 287.97767,265 10,5.774 v -11.548 z m 48,0 -10,-5.774 v 11.547 z m -39,1 h 30 v -2 h -30 z"
     fill="#00010d"
     id="path63" />
  <text
     xml:space="preserve"
     style="font-style:normal;font-weight:normal;font-size:18.6667px;line-height:1.25;font-family:sans-serif;letter-spacing:3.79px;fill:#000000;fill-opacity:1;stroke:none"
     x="371.73459"
     y="36.544281"
     id="text898"><tspan
       sodipodi:role="line"
       id="tspan896"
       x="371.73459"
       y="36.544281"
       style="font-style:normal;font-variant:normal;font-weight:normal;font-stretch:normal;font-size:18.6667px;font-family:Roboto;-inkscape-font-specification:Roboto" /></text>
  <text
     xml:space="preserve"
     style="font-style:normal;font-weight:normal;font-size:40px;line-height:1.25;font-family:sans-serif;fill:#000000;fill-opacity:1;stroke:none"
     x="383.87808"
     y="24.754768"
     id="text868"><tspan
       sodipodi:role="line"
       id="tspan866"
       x="383.87808"
       y="24.754768" /></text>
  <text
     xml:space="preserve"
     id="text870"
     style="font-style:normal;font-variant:normal;font-weight:normal;font-stretch:normal;font-size:18.6667px;line-height:1.25;font-family:Roboto;-inkscape-font-specification:'Roboto, Normal';font-variant-ligatures:normal;font-variant-caps:normal;font-variant-numeric:normal;font-variant-east-asian:normal;letter-spacing:3px;white-space:pre;shape-inside:url(#rect872);fill:#000000;fill-opacity:1;stroke:none;"
     transform="translate(105.62016,143.4522)"><tspan
       x="273.87891"
       y="-106.74281"><tspan
         style="shape-inside:url(#rect872)">MARBLE</tspan><tspan
         style="font-style:normal;font-variant:normal;font-weight:300;font-stretch:normal;font-size:18.6667px;font-family:Roboto;-inkscape-font-specification:'Roboto, Light';font-variant-ligatures:normal;font-variant-caps:normal;font-variant-numeric:normal;font-variant-east-asian:normal">RUN</tspan></tspan></text>
  <text
     xml:space="preserve"
     id="text878"
     style="fill:#000000;fill-opacity:1;line-height:1.25;stroke:none;font-family:Roboto;font-style:normal;font-weight:normal;font-size:40px;white-space:pre;shape-inside:url(#rect880);-inkscape-font-specification:'Roboto, Normal';font-stretch:normal;font-variant:normal;font-variant-ligatures:normal;font-variant-caps:normal;font-variant-numeric:normal;font-variant-east-asian:normal;" />
  <text
     xml:space="preserve"
     id="text886"
     style="font-style:normal;font-weight:normal;font-size:40px;line-height:1.25;font-family:sans-serif;white-space:pre;shape-inside:url(#rect888);fill:#ffffff;fill-opacity:1;stroke:none;"
     transform="translate(15.861587,248.36113)"><tspan
       x="104.57031"
       y="-19.231397"><tspan
         style="font-style:normal;font-variant:normal;font-weight:normal;font-stretch:normal;font-size:18.6667px;font-family:Roboto;-inkscape-font-specification:'Roboto, Normal';font-variant-ligatures:normal;font-variant-caps:normal;font-variant-numeric:normal;font-variant-east-asian:normal;fill:#ffffff">EDGELESS RT</tspan></tspan></text>
  <text
     xml:space="preserve"
     id="text886-1"
     style="font-style:normal;font-weight:normal;font-size:40px;line-height:1.25;font-family:sans-serif;white-space:pre;shape-inside:url(#rect888-9);fill:#ffffff;fill-opacity:1;stroke:none;"
     transform="translate(282.35787,249.0491)"><tspan
       x="104.57031"
       y="-19.231397"><tspan
         style="font-style:normal;font-variant:normal;font-weight:normal;font-stretch:normal;font-size:18.6667px;font-family:Roboto;-inkscape-font-specification:'Roboto, Normal';font-variant-ligatures:normal;font-variant-caps:normal;font-variant-numeric:normal;font-variant-east-asian:normal;fill:#ffffff">EDGELESS RT</tspan></tspan></text>
  <text
     xml:space="preserve"
     id="text886-6"
     style="font-style:normal;font-weight:normal;font-size:40px;line-height:1.25;font-family:sans-serif;white-space:pre;shape-inside:url(#rect888-5);fill:#ffffff;fill-opacity:1;stroke:none;"
     transform="translate(555.88932,249.0491)"><tspan
       x="104.57031"
       y="-19.231397"><tspan
         style="font-style:normal;font-variant:normal;font-weight:normal;font-stretch:normal;font-size:18.6667px;font-family:Roboto;-inkscape-font-specification:'Roboto, Normal';font-variant-ligatures:normal;font-variant-caps:normal;font-variant-numeric:normal;font-variant-east-asian:normal;fill:#ffffff">EDGELESS RT</tspan></tspan></text>
</svg>
