<?xml version="1.0" encoding="UTF-8" standalone="no"?>
<svg
   xmlns:dc="http://purl.org/dc/elements/1.1/"
   xmlns:cc="http://creativecommons.org/ns#"
   xmlns:rdf="http://www.w3.org/1999/02/22-rdf-syntax-ns#"
   xmlns:svg="http://www.w3.org/2000/svg"
   xmlns="http://www.w3.org/2000/svg"
   xmlns:sodipodi="http://sodipodi.sourceforge.net/DTD/sodipodi-0.dtd"
   xmlns:inkscape="http://www.inkscape.org/namespaces/inkscape"
   inkscape:version="1.0 (4035a4fb49, 2020-05-01)"
   sodipodi:docname="overview_marblerun.svg"
   id="svg65"
   version="1.1"
   fill="none"
   viewBox="0 0 936 320"
   height="320"
   width="936">
  <metadata
     id="metadata71">
    <rdf:RDF>
      <cc:Work
         rdf:about="">
        <dc:format>image/svg+xml</dc:format>
        <dc:type
           rdf:resource="http://purl.org/dc/dcmitype/StillImage" />
        <dc:title></dc:title>
      </cc:Work>
    </rdf:RDF>
  </metadata>
  <defs
     id="defs69" />
  <sodipodi:namedview
     inkscape:current-layer="svg65"
     inkscape:window-maximized="1"
     inkscape:window-y="-8"
     inkscape:window-x="-8"
     inkscape:cy="114.35229"
     inkscape:cx="392.75965"
     inkscape:zoom="1.0557336"
     showguides="false"
     showgrid="false"
     id="namedview67"
     inkscape:window-height="1017"
     inkscape:window-width="1920"
     inkscape:pageshadow="2"
     inkscape:pageopacity="0"
     guidetolerance="10"
     gridtolerance="10"
     objecttolerance="10"
     borderopacity="1"
     bordercolor="#666666"
     pagecolor="#ffffff" />
  <mask
     height="57"
     width="180"
     y="220"
     x="657"
     maskUnits="userSpaceOnUse"
     mask-type="alpha"
     id="mask0">
    <rect
       id="rect2"
       stroke-width="3"
       stroke="#8195A6"
       fill="#8195A6"
       rx="8.5"
       height="54"
       width="177"
       y="221.5"
       x="658.5" />
  </mask>
  <g
     id="g7"
     mask="url(#mask0)">
    <rect
       id="rect5"
       fill="#8195A6"
       height="52"
       width="190"
       y="208"
       x="653" />
  </g>
  <rect
     id="rect9"
     stroke-width="3"
     stroke="#8195A6"
     fill-opacity="0.3"
     fill="#8195A6"
     rx="8.5"
     height="97"
     width="177"
     y="221.5"
     x="658.5" />
  <path
     id="path11"
     fill="black"
     d="M713.037 291.643C713.037 291.145 712.861 290.764 712.51 290.5C712.158 290.23 711.525 289.949 710.611 289.656C709.697 289.357 708.974 289.064 708.44 288.777C706.987 287.992 706.261 286.935 706.261 285.604C706.261 284.913 706.454 284.298 706.841 283.759C707.233 283.214 707.793 282.789 708.52 282.484C709.252 282.18 710.072 282.027 710.98 282.027C711.895 282.027 712.709 282.194 713.424 282.528C714.139 282.856 714.692 283.322 715.085 283.926C715.483 284.529 715.683 285.215 715.683 285.982H713.046C713.046 285.396 712.861 284.942 712.492 284.62C712.123 284.292 711.604 284.128 710.937 284.128C710.292 284.128 709.791 284.266 709.434 284.541C709.076 284.811 708.897 285.168 708.897 285.613C708.897 286.029 709.105 286.378 709.521 286.659C709.943 286.94 710.562 287.204 711.376 287.45C712.876 287.901 713.969 288.461 714.654 289.129C715.34 289.797 715.683 290.629 715.683 291.625C715.683 292.732 715.264 293.603 714.426 294.235C713.588 294.862 712.46 295.176 711.042 295.176C710.058 295.176 709.161 294.997 708.353 294.64C707.544 294.276 706.926 293.781 706.498 293.154C706.076 292.527 705.865 291.801 705.865 290.975H708.511C708.511 292.387 709.354 293.093 711.042 293.093C711.669 293.093 712.158 292.967 712.51 292.715C712.861 292.457 713.037 292.1 713.037 291.643ZM721.686 295.176C720.291 295.176 719.154 294.748 718.275 293.893C717.402 293.037 716.966 291.897 716.966 290.474V290.228C716.966 289.272 717.15 288.42 717.52 287.67C717.889 286.914 718.41 286.334 719.084 285.93C719.764 285.52 720.537 285.314 721.404 285.314C722.705 285.314 723.728 285.725 724.472 286.545C725.222 287.365 725.597 288.528 725.597 290.034V291.071H719.541C719.623 291.692 719.869 292.19 720.279 292.565C720.695 292.94 721.22 293.128 721.853 293.128C722.831 293.128 723.596 292.773 724.146 292.064L725.395 293.462C725.014 294.001 724.498 294.423 723.848 294.728C723.197 295.026 722.477 295.176 721.686 295.176ZM721.396 287.371C720.892 287.371 720.481 287.541 720.165 287.881C719.854 288.221 719.655 288.707 719.567 289.34H723.101V289.138C723.089 288.575 722.937 288.142 722.644 287.837C722.351 287.526 721.935 287.371 721.396 287.371ZM732.391 287.872C732.045 287.825 731.74 287.802 731.477 287.802C730.516 287.802 729.886 288.127 729.587 288.777V295H727.047V285.49H729.446L729.517 286.624C730.026 285.751 730.732 285.314 731.635 285.314C731.916 285.314 732.18 285.353 732.426 285.429L732.391 287.872ZM737.339 291.897L739.105 285.49H741.76L738.552 295H736.126L732.918 285.49H735.572L737.339 291.897ZM745.565 295H743.017V285.49H745.565V295ZM742.867 283.029C742.867 282.648 742.993 282.335 743.245 282.089C743.503 281.843 743.852 281.72 744.291 281.72C744.725 281.72 745.07 281.843 745.328 282.089C745.586 282.335 745.715 282.648 745.715 283.029C745.715 283.416 745.583 283.732 745.319 283.979C745.062 284.225 744.719 284.348 744.291 284.348C743.863 284.348 743.518 284.225 743.254 283.979C742.996 283.732 742.867 283.416 742.867 283.029ZM751.621 293.128C752.09 293.128 752.471 292.999 752.764 292.741C753.057 292.483 753.209 292.141 753.221 291.713H755.603C755.597 292.357 755.421 292.949 755.075 293.488C754.729 294.021 754.255 294.438 753.651 294.736C753.054 295.029 752.392 295.176 751.665 295.176C750.306 295.176 749.233 294.745 748.448 293.884C747.663 293.017 747.271 291.821 747.271 290.298V290.131C747.271 288.666 747.66 287.497 748.439 286.624C749.219 285.751 750.288 285.314 751.647 285.314C752.837 285.314 753.789 285.654 754.504 286.334C755.225 287.008 755.591 287.907 755.603 289.032H753.221C753.209 288.54 753.057 288.142 752.764 287.837C752.471 287.526 752.084 287.371 751.604 287.371C751.012 287.371 750.563 287.588 750.259 288.021C749.96 288.449 749.811 289.146 749.811 290.113V290.377C749.811 291.355 749.96 292.059 750.259 292.486C750.558 292.914 751.012 293.128 751.621 293.128ZM761.43 295.176C760.035 295.176 758.898 294.748 758.02 293.893C757.146 293.037 756.71 291.897 756.71 290.474V290.228C756.71 289.272 756.895 288.42 757.264 287.67C757.633 286.914 758.154 286.334 758.828 285.93C759.508 285.52 760.281 285.314 761.148 285.314C762.449 285.314 763.472 285.725 764.216 286.545C764.966 287.365 765.341 288.528 765.341 290.034V291.071H759.285C759.367 291.692 759.613 292.19 760.023 292.565C760.439 292.94 760.964 293.128 761.597 293.128C762.575 293.128 763.34 292.773 763.891 292.064L765.139 293.462C764.758 294.001 764.242 294.423 763.592 294.728C762.941 295.026 762.221 295.176 761.43 295.176ZM761.14 287.371C760.636 287.371 760.226 287.541 759.909 287.881C759.599 288.221 759.399 288.707 759.312 289.34H762.845V289.138C762.833 288.575 762.681 288.142 762.388 287.837C762.095 287.526 761.679 287.371 761.14 287.371ZM776.02 286.615L778.419 282.203H781.451L777.725 288.549L781.548 295H778.48L776.02 290.518L773.559 295H770.491L774.314 288.549L770.588 282.203H773.62L776.02 286.615Z" />
  <path
     id="path13"
     fill="white"
     d="M692.408 238.454H687.346V241.882H693.287V244H684.709V231.203H693.27V233.339H687.346V236.389H692.408V238.454ZM696.634 244V231.203H700.571C701.696 231.203 702.701 231.458 703.586 231.968C704.477 232.472 705.171 233.192 705.669 234.13C706.167 235.062 706.416 236.122 706.416 237.312V237.9C706.416 239.09 706.17 240.147 705.678 241.073C705.192 241.999 704.503 242.717 703.612 243.227C702.722 243.736 701.717 243.994 700.598 244H696.634ZM699.271 233.339V241.882H700.545C701.576 241.882 702.364 241.545 702.909 240.871C703.454 240.197 703.733 239.233 703.744 237.979V237.303C703.744 236.002 703.475 235.018 702.936 234.35C702.397 233.676 701.609 233.339 700.571 233.339H699.271ZM720.266 242.383C719.791 242.951 719.121 243.394 718.253 243.71C717.386 244.021 716.425 244.176 715.371 244.176C714.263 244.176 713.29 243.936 712.453 243.455C711.621 242.969 710.976 242.266 710.519 241.346C710.068 240.426 709.836 239.345 709.825 238.103V237.232C709.825 235.955 710.038 234.851 710.466 233.919C710.9 232.981 711.521 232.267 712.329 231.774C713.144 231.276 714.096 231.027 715.186 231.027C716.704 231.027 717.89 231.391 718.746 232.117C719.601 232.838 720.108 233.89 720.266 235.272H717.7C717.582 234.54 717.322 234.004 716.917 233.664C716.519 233.324 715.968 233.154 715.265 233.154C714.369 233.154 713.686 233.491 713.217 234.165C712.748 234.839 712.511 235.841 712.505 237.171V237.988C712.505 239.33 712.76 240.344 713.27 241.029C713.78 241.715 714.527 242.058 715.511 242.058C716.501 242.058 717.207 241.847 717.629 241.425V239.219H715.23V237.276H720.266V242.383ZM731.91 238.454H726.847V241.882H732.789V244H724.211V231.203H732.771V233.339H726.847V236.389H731.91V238.454ZM738.772 241.882H744.371V244H736.136V231.203H738.772V241.882ZM755.391 238.454H750.328V241.882H756.27V244H747.691V231.203H756.252V233.339H750.328V236.389H755.391V238.454ZM766.252 240.643C766.252 240.145 766.076 239.764 765.725 239.5C765.373 239.23 764.74 238.949 763.826 238.656C762.912 238.357 762.189 238.064 761.655 237.777C760.202 236.992 759.476 235.935 759.476 234.604C759.476 233.913 759.669 233.298 760.056 232.759C760.448 232.214 761.008 231.789 761.735 231.484C762.467 231.18 763.287 231.027 764.196 231.027C765.11 231.027 765.924 231.194 766.639 231.528C767.354 231.856 767.907 232.322 768.3 232.926C768.698 233.529 768.898 234.215 768.898 234.982H766.261C766.261 234.396 766.076 233.942 765.707 233.62C765.338 233.292 764.82 233.128 764.152 233.128C763.507 233.128 763.006 233.266 762.649 233.541C762.291 233.811 762.113 234.168 762.113 234.613C762.113 235.029 762.321 235.378 762.737 235.659C763.158 235.94 763.777 236.204 764.591 236.45C766.091 236.901 767.184 237.461 767.869 238.129C768.555 238.797 768.898 239.629 768.898 240.625C768.898 241.732 768.479 242.603 767.641 243.235C766.803 243.862 765.675 244.176 764.257 244.176C763.273 244.176 762.376 243.997 761.568 243.64C760.759 243.276 760.141 242.781 759.713 242.154C759.291 241.527 759.08 240.801 759.08 239.975H761.726C761.726 241.387 762.57 242.093 764.257 242.093C764.884 242.093 765.373 241.967 765.725 241.715C766.076 241.457 766.252 241.1 766.252 240.643ZM779.126 240.643C779.126 240.145 778.951 239.764 778.599 239.5C778.247 239.23 777.615 238.949 776.701 238.656C775.787 238.357 775.063 238.064 774.53 237.777C773.077 236.992 772.35 235.935 772.35 234.604C772.35 233.913 772.543 233.298 772.93 232.759C773.323 232.214 773.882 231.789 774.609 231.484C775.341 231.18 776.162 231.027 777.07 231.027C777.984 231.027 778.798 231.194 779.513 231.528C780.228 231.856 780.782 232.322 781.174 232.926C781.573 233.529 781.772 234.215 781.772 234.982H779.135C779.135 234.396 778.951 233.942 778.581 233.62C778.212 233.292 777.694 233.128 777.026 233.128C776.381 233.128 775.88 233.266 775.523 233.541C775.165 233.811 774.987 234.168 774.987 234.613C774.987 235.029 775.195 235.378 775.611 235.659C776.033 235.94 776.651 236.204 777.465 236.45C778.965 236.901 780.058 237.461 780.744 238.129C781.429 238.797 781.772 239.629 781.772 240.625C781.772 241.732 781.353 242.603 780.515 243.235C779.677 243.862 778.549 244.176 777.131 244.176C776.147 244.176 775.25 243.997 774.442 243.64C773.633 243.276 773.015 242.781 772.587 242.154C772.165 241.527 771.954 240.801 771.954 239.975H774.6C774.6 241.387 775.444 242.093 777.131 242.093C777.758 242.093 778.247 241.967 778.599 241.715C778.951 241.457 779.126 241.1 779.126 240.643ZM796.683 238.823H793.678V244H791.981V231.203H796.218C797.659 231.203 798.766 231.531 799.54 232.188C800.319 232.844 800.709 233.799 800.709 235.053C800.709 235.85 800.492 236.544 800.058 237.136C799.631 237.728 799.033 238.17 798.265 238.463L801.271 243.895V244H799.461L796.683 238.823ZM793.678 237.443H796.27C797.108 237.443 797.773 237.227 798.265 236.793C798.763 236.359 799.012 235.779 799.012 235.053C799.012 234.262 798.775 233.655 798.301 233.233C797.832 232.812 797.152 232.598 796.262 232.592H793.678V237.443ZM813.021 232.592H808.907V244H807.229V232.592H803.124V231.203H813.021V232.592Z" />
  <mask
     height="57"
     width="180"
     y="220"
     x="389"
     maskUnits="userSpaceOnUse"
     mask-type="alpha"
     id="mask1">
    <rect
       id="rect15"
       stroke-width="3"
       stroke="#8195A6"
       fill="#8195A6"
       rx="8.5"
       height="54"
       width="177"
       y="221.5"
       x="390.5" />
  </mask>
  <g
     id="g20"
     mask="url(#mask1)">
    <rect
       id="rect18"
       fill="#8195A6"
       height="52"
       width="190"
       y="208"
       x="385" />
  </g>
  <rect
     id="rect22"
     stroke-width="3"
     stroke="#8195A6"
     fill-opacity="0.3"
     fill="#8195A6"
     rx="8.5"
     height="97"
     width="177"
     y="221.5"
     x="390.5" />
  <path
     id="path24"
     fill="black"
     d="M445.011 291.643C445.011 291.145 444.835 290.764 444.483 290.5C444.132 290.23 443.499 289.949 442.585 289.656C441.671 289.357 440.947 289.064 440.414 288.777C438.961 287.992 438.234 286.935 438.234 285.604C438.234 284.913 438.428 284.298 438.814 283.759C439.207 283.214 439.767 282.789 440.493 282.484C441.226 282.18 442.046 282.027 442.954 282.027C443.868 282.027 444.683 282.194 445.397 282.528C446.112 282.856 446.666 283.322 447.059 283.926C447.457 284.529 447.656 285.215 447.656 285.982H445.02C445.02 285.396 444.835 284.942 444.466 284.62C444.097 284.292 443.578 284.128 442.91 284.128C442.266 284.128 441.765 284.266 441.407 284.541C441.05 284.811 440.871 285.168 440.871 285.613C440.871 286.029 441.079 286.378 441.495 286.659C441.917 286.94 442.535 287.204 443.35 287.45C444.85 287.901 445.942 288.461 446.628 289.129C447.313 289.797 447.656 290.629 447.656 291.625C447.656 292.732 447.237 293.603 446.399 294.235C445.562 294.862 444.434 295.176 443.016 295.176C442.031 295.176 441.135 294.997 440.326 294.64C439.518 294.276 438.899 293.781 438.472 293.154C438.05 292.527 437.839 291.801 437.839 290.975H440.484C440.484 292.387 441.328 293.093 443.016 293.093C443.643 293.093 444.132 292.967 444.483 292.715C444.835 292.457 445.011 292.1 445.011 291.643ZM453.659 295.176C452.265 295.176 451.128 294.748 450.249 293.893C449.376 293.037 448.939 291.897 448.939 290.474V290.228C448.939 289.272 449.124 288.42 449.493 287.67C449.862 286.914 450.384 286.334 451.058 285.93C451.737 285.52 452.511 285.314 453.378 285.314C454.679 285.314 455.701 285.725 456.445 286.545C457.195 287.365 457.57 288.528 457.57 290.034V291.071H451.515C451.597 291.692 451.843 292.19 452.253 292.565C452.669 292.94 453.193 293.128 453.826 293.128C454.805 293.128 455.569 292.773 456.12 292.064L457.368 293.462C456.987 294.001 456.472 294.423 455.821 294.728C455.171 295.026 454.45 295.176 453.659 295.176ZM453.369 287.371C452.865 287.371 452.455 287.541 452.139 287.881C451.828 288.221 451.629 288.707 451.541 289.34H455.074V289.138C455.062 288.575 454.91 288.142 454.617 287.837C454.324 287.526 453.908 287.371 453.369 287.371ZM464.364 287.872C464.019 287.825 463.714 287.802 463.45 287.802C462.489 287.802 461.859 288.127 461.561 288.777V295H459.021V285.49H461.42L461.49 286.624C462 285.751 462.706 285.314 463.608 285.314C463.89 285.314 464.153 285.353 464.399 285.429L464.364 287.872ZM469.312 291.897L471.079 285.49H473.733L470.525 295H468.1L464.892 285.49H467.546L469.312 291.897ZM477.539 295H474.99V285.49H477.539V295ZM474.841 283.029C474.841 282.648 474.967 282.335 475.219 282.089C475.477 281.843 475.825 281.72 476.265 281.72C476.698 281.72 477.044 281.843 477.302 282.089C477.56 282.335 477.688 282.648 477.688 283.029C477.688 283.416 477.557 283.732 477.293 283.979C477.035 284.225 476.692 284.348 476.265 284.348C475.837 284.348 475.491 284.225 475.228 283.979C474.97 283.732 474.841 283.416 474.841 283.029ZM483.595 293.128C484.063 293.128 484.444 292.999 484.737 292.741C485.03 292.483 485.183 292.141 485.194 291.713H487.576C487.57 292.357 487.395 292.949 487.049 293.488C486.703 294.021 486.229 294.438 485.625 294.736C485.027 295.029 484.365 295.176 483.639 295.176C482.279 295.176 481.207 294.745 480.422 293.884C479.637 293.017 479.244 291.821 479.244 290.298V290.131C479.244 288.666 479.634 287.497 480.413 286.624C481.192 285.751 482.262 285.314 483.621 285.314C484.811 285.314 485.763 285.654 486.478 286.334C487.198 287.008 487.564 287.907 487.576 289.032H485.194C485.183 288.54 485.03 288.142 484.737 287.837C484.444 287.526 484.058 287.371 483.577 287.371C482.985 287.371 482.537 287.588 482.232 288.021C481.934 288.449 481.784 289.146 481.784 290.113V290.377C481.784 291.355 481.934 292.059 482.232 292.486C482.531 292.914 482.985 293.128 483.595 293.128ZM493.403 295.176C492.009 295.176 490.872 294.748 489.993 293.893C489.12 293.037 488.684 291.897 488.684 290.474V290.228C488.684 289.272 488.868 288.42 489.237 287.67C489.606 286.914 490.128 286.334 490.802 285.93C491.481 285.52 492.255 285.314 493.122 285.314C494.423 285.314 495.445 285.725 496.189 286.545C496.939 287.365 497.314 288.528 497.314 290.034V291.071H491.259C491.341 291.692 491.587 292.19 491.997 292.565C492.413 292.94 492.938 293.128 493.57 293.128C494.549 293.128 495.313 292.773 495.864 292.064L497.112 293.462C496.731 294.001 496.216 294.423 495.565 294.728C494.915 295.026 494.194 295.176 493.403 295.176ZM493.113 287.371C492.609 287.371 492.199 287.541 491.883 287.881C491.572 288.221 491.373 288.707 491.285 289.34H494.818V289.138C494.807 288.575 494.654 288.142 494.361 287.837C494.068 287.526 493.652 287.371 493.113 287.371ZM503.414 295V282.203H507.896C509.449 282.203 510.627 282.502 511.43 283.1C512.232 283.691 512.634 284.562 512.634 285.71C512.634 286.337 512.473 286.891 512.15 287.371C511.828 287.846 511.38 288.194 510.806 288.417C511.462 288.581 511.978 288.912 512.353 289.41C512.733 289.908 512.924 290.518 512.924 291.238C512.924 292.469 512.531 293.4 511.746 294.033C510.961 294.666 509.842 294.988 508.389 295H503.414ZM506.051 289.428V292.882H508.31C508.931 292.882 509.414 292.735 509.76 292.442C510.111 292.144 510.287 291.733 510.287 291.212C510.287 290.04 509.681 289.445 508.468 289.428H506.051ZM506.051 287.564H508.002C509.332 287.541 509.997 287.011 509.997 285.974C509.997 285.394 509.827 284.978 509.487 284.726C509.153 284.468 508.623 284.339 507.896 284.339H506.051V287.564Z" />
  <path
     id="path26"
     fill="white"
     d="M421.408 238.454H416.346V241.882H422.287V244H413.709V231.203H422.27V233.339H416.346V236.389H421.408V238.454ZM425.634 244V231.203H429.571C430.696 231.203 431.701 231.458 432.586 231.968C433.477 232.472 434.171 233.192 434.669 234.13C435.167 235.062 435.416 236.122 435.416 237.312V237.9C435.416 239.09 435.17 240.147 434.678 241.073C434.192 241.999 433.503 242.717 432.612 243.227C431.722 243.736 430.717 243.994 429.598 244H425.634ZM428.271 233.339V241.882H429.545C430.576 241.882 431.364 241.545 431.909 240.871C432.454 240.197 432.733 239.233 432.744 237.979V237.303C432.744 236.002 432.475 235.018 431.936 234.35C431.397 233.676 430.609 233.339 429.571 233.339H428.271ZM449.266 242.383C448.791 242.951 448.121 243.394 447.253 243.71C446.386 244.021 445.425 244.176 444.371 244.176C443.263 244.176 442.29 243.936 441.453 243.455C440.621 242.969 439.976 242.266 439.519 241.346C439.068 240.426 438.836 239.345 438.825 238.103V237.232C438.825 235.955 439.038 234.851 439.466 233.919C439.9 232.981 440.521 232.267 441.329 231.774C442.144 231.276 443.096 231.027 444.186 231.027C445.704 231.027 446.89 231.391 447.746 232.117C448.601 232.838 449.108 233.89 449.266 235.272H446.7C446.582 234.54 446.322 234.004 445.917 233.664C445.519 233.324 444.968 233.154 444.265 233.154C443.369 233.154 442.686 233.491 442.217 234.165C441.748 234.839 441.511 235.841 441.505 237.171V237.988C441.505 239.33 441.76 240.344 442.27 241.029C442.78 241.715 443.527 242.058 444.511 242.058C445.501 242.058 446.207 241.847 446.629 241.425V239.219H444.23V237.276H449.266V242.383ZM460.91 238.454H455.847V241.882H461.789V244H453.211V231.203H461.771V233.339H455.847V236.389H460.91V238.454ZM467.772 241.882H473.371V244H465.136V231.203H467.772V241.882ZM484.391 238.454H479.328V241.882H485.27V244H476.691V231.203H485.252V233.339H479.328V236.389H484.391V238.454ZM495.252 240.643C495.252 240.145 495.076 239.764 494.725 239.5C494.373 239.23 493.74 238.949 492.826 238.656C491.912 238.357 491.189 238.064 490.655 237.777C489.202 236.992 488.476 235.935 488.476 234.604C488.476 233.913 488.669 233.298 489.056 232.759C489.448 232.214 490.008 231.789 490.735 231.484C491.467 231.18 492.287 231.027 493.196 231.027C494.11 231.027 494.924 231.194 495.639 231.528C496.354 231.856 496.907 232.322 497.3 232.926C497.698 233.529 497.898 234.215 497.898 234.982H495.261C495.261 234.396 495.076 233.942 494.707 233.62C494.338 233.292 493.82 233.128 493.152 233.128C492.507 233.128 492.006 233.266 491.649 233.541C491.291 233.811 491.113 234.168 491.113 234.613C491.113 235.029 491.321 235.378 491.737 235.659C492.158 235.94 492.777 236.204 493.591 236.45C495.091 236.901 496.184 237.461 496.869 238.129C497.555 238.797 497.898 239.629 497.898 240.625C497.898 241.732 497.479 242.603 496.641 243.235C495.803 243.862 494.675 244.176 493.257 244.176C492.273 244.176 491.376 243.997 490.568 243.64C489.759 243.276 489.141 242.781 488.713 242.154C488.291 241.527 488.08 240.801 488.08 239.975H490.726C490.726 241.387 491.57 242.093 493.257 242.093C493.884 242.093 494.373 241.967 494.725 241.715C495.076 241.457 495.252 241.1 495.252 240.643ZM508.126 240.643C508.126 240.145 507.951 239.764 507.599 239.5C507.247 239.23 506.615 238.949 505.701 238.656C504.787 238.357 504.063 238.064 503.53 237.777C502.077 236.992 501.35 235.935 501.35 234.604C501.35 233.913 501.543 233.298 501.93 232.759C502.323 232.214 502.882 231.789 503.609 231.484C504.341 231.18 505.162 231.027 506.07 231.027C506.984 231.027 507.798 231.194 508.513 231.528C509.228 231.856 509.782 232.322 510.174 232.926C510.573 233.529 510.772 234.215 510.772 234.982H508.135C508.135 234.396 507.951 233.942 507.581 233.62C507.212 233.292 506.694 233.128 506.026 233.128C505.381 233.128 504.88 233.266 504.523 233.541C504.165 233.811 503.987 234.168 503.987 234.613C503.987 235.029 504.195 235.378 504.611 235.659C505.033 235.94 505.651 236.204 506.465 236.45C507.965 236.901 509.058 237.461 509.744 238.129C510.429 238.797 510.772 239.629 510.772 240.625C510.772 241.732 510.353 242.603 509.515 243.235C508.677 243.862 507.549 244.176 506.131 244.176C505.147 244.176 504.25 243.997 503.442 243.64C502.633 243.276 502.015 242.781 501.587 242.154C501.165 241.527 500.954 240.801 500.954 239.975H503.6C503.6 241.387 504.444 242.093 506.131 242.093C506.758 242.093 507.247 241.967 507.599 241.715C507.951 241.457 508.126 241.1 508.126 240.643ZM525.683 238.823H522.678V244H520.981V231.203H525.218C526.659 231.203 527.766 231.531 528.54 232.188C529.319 232.844 529.709 233.799 529.709 235.053C529.709 235.85 529.492 236.544 529.058 237.136C528.631 237.728 528.033 238.17 527.265 238.463L530.271 243.895V244H528.461L525.683 238.823ZM522.678 237.443H525.27C526.108 237.443 526.773 237.227 527.265 236.793C527.763 236.359 528.012 235.779 528.012 235.053C528.012 234.262 527.775 233.655 527.301 233.233C526.832 232.812 526.152 232.598 525.262 232.592H522.678V237.443ZM542.021 232.592H537.907V244H536.229V232.592H532.124V231.203H542.021V232.592Z" />
  <mask
     height="57"
     width="180"
     y="220"
     x="121"
     maskUnits="userSpaceOnUse"
     mask-type="alpha"
     id="mask2">
    <rect
       id="rect28"
       stroke-width="3"
       stroke="#8195A6"
       fill="#8195A6"
       rx="8.5"
       height="54"
       width="177"
       y="221.5"
       x="122.5" />
  </mask>
  <g
     id="g33"
     mask="url(#mask2)">
    <rect
       id="rect31"
       fill="#8195A6"
       height="52"
       width="190"
       y="208"
       x="117" />
  </g>
  <rect
     id="rect35"
     stroke-width="3"
     stroke="#8195A6"
     fill-opacity="0.3"
     fill="#8195A6"
     rx="8.5"
     height="97"
     width="177"
     y="221.5"
     x="122.5" />
  <path
     id="path37"
     fill="black"
     d="M176.203 291.643C176.203 291.145 176.027 290.764 175.676 290.5C175.324 290.23 174.691 289.949 173.777 289.656C172.863 289.357 172.14 289.064 171.606 288.777C170.153 287.992 169.427 286.935 169.427 285.604C169.427 284.913 169.62 284.298 170.007 283.759C170.399 283.214 170.959 282.789 171.686 282.484C172.418 282.18 173.238 282.027 174.146 282.027C175.061 282.027 175.875 282.194 176.59 282.528C177.305 282.856 177.858 283.322 178.251 283.926C178.649 284.529 178.849 285.215 178.849 285.982H176.212C176.212 285.396 176.027 284.942 175.658 284.62C175.289 284.292 174.771 284.128 174.103 284.128C173.458 284.128 172.957 284.266 172.6 284.541C172.242 284.811 172.063 285.168 172.063 285.613C172.063 286.029 172.271 286.378 172.688 286.659C173.109 286.94 173.728 287.204 174.542 287.45C176.042 287.901 177.135 288.461 177.82 289.129C178.506 289.797 178.849 290.629 178.849 291.625C178.849 292.732 178.43 293.603 177.592 294.235C176.754 294.862 175.626 295.176 174.208 295.176C173.224 295.176 172.327 294.997 171.519 294.64C170.71 294.276 170.092 293.781 169.664 293.154C169.242 292.527 169.031 291.801 169.031 290.975H171.677C171.677 292.387 172.521 293.093 174.208 293.093C174.835 293.093 175.324 292.967 175.676 292.715C176.027 292.457 176.203 292.1 176.203 291.643ZM184.852 295.176C183.457 295.176 182.32 294.748 181.441 293.893C180.568 293.037 180.132 291.897 180.132 290.474V290.228C180.132 289.272 180.316 288.42 180.686 287.67C181.055 286.914 181.576 286.334 182.25 285.93C182.93 285.52 183.703 285.314 184.57 285.314C185.871 285.314 186.894 285.725 187.638 286.545C188.388 287.365 188.763 288.528 188.763 290.034V291.071H182.707C182.789 291.692 183.035 292.19 183.445 292.565C183.861 292.94 184.386 293.128 185.019 293.128C185.997 293.128 186.762 292.773 187.312 292.064L188.561 293.462C188.18 294.001 187.664 294.423 187.014 294.728C186.363 295.026 185.643 295.176 184.852 295.176ZM184.562 287.371C184.058 287.371 183.647 287.541 183.331 287.881C183.021 288.221 182.821 288.707 182.733 289.34H186.267V289.138C186.255 288.575 186.103 288.142 185.81 287.837C185.517 287.526 185.101 287.371 184.562 287.371ZM195.557 287.872C195.211 287.825 194.906 287.802 194.643 287.802C193.682 287.802 193.052 288.127 192.753 288.777V295H190.213V285.49H192.612L192.683 286.624C193.192 285.751 193.898 285.314 194.801 285.314C195.082 285.314 195.346 285.353 195.592 285.429L195.557 287.872ZM200.505 291.897L202.271 285.49H204.926L201.718 295H199.292L196.084 285.49H198.738L200.505 291.897ZM208.731 295H206.183V285.49H208.731V295ZM206.033 283.029C206.033 282.648 206.159 282.335 206.411 282.089C206.669 281.843 207.018 281.72 207.457 281.72C207.891 281.72 208.236 281.843 208.494 282.089C208.752 282.335 208.881 282.648 208.881 283.029C208.881 283.416 208.749 283.732 208.485 283.979C208.228 284.225 207.885 284.348 207.457 284.348C207.029 284.348 206.684 284.225 206.42 283.979C206.162 283.732 206.033 283.416 206.033 283.029ZM214.787 293.128C215.256 293.128 215.637 292.999 215.93 292.741C216.223 292.483 216.375 292.141 216.387 291.713H218.769C218.763 292.357 218.587 292.949 218.241 293.488C217.896 294.021 217.421 294.438 216.817 294.736C216.22 295.029 215.558 295.176 214.831 295.176C213.472 295.176 212.399 294.745 211.614 293.884C210.829 293.017 210.437 291.821 210.437 290.298V290.131C210.437 288.666 210.826 287.497 211.605 286.624C212.385 285.751 213.454 285.314 214.813 285.314C216.003 285.314 216.955 285.654 217.67 286.334C218.391 287.008 218.757 287.907 218.769 289.032H216.387C216.375 288.54 216.223 288.142 215.93 287.837C215.637 287.526 215.25 287.371 214.77 287.371C214.178 287.371 213.729 287.588 213.425 288.021C213.126 288.449 212.977 289.146 212.977 290.113V290.377C212.977 291.355 213.126 292.059 213.425 292.486C213.724 292.914 214.178 293.128 214.787 293.128ZM224.596 295.176C223.201 295.176 222.064 294.748 221.186 293.893C220.312 293.037 219.876 291.897 219.876 290.474V290.228C219.876 289.272 220.061 288.42 220.43 287.67C220.799 286.914 221.32 286.334 221.994 285.93C222.674 285.52 223.447 285.314 224.314 285.314C225.615 285.314 226.638 285.725 227.382 286.545C228.132 287.365 228.507 288.528 228.507 290.034V291.071H222.451C222.533 291.692 222.779 292.19 223.189 292.565C223.605 292.94 224.13 293.128 224.763 293.128C225.741 293.128 226.506 292.773 227.057 292.064L228.305 293.462C227.924 294.001 227.408 294.423 226.758 294.728C226.107 295.026 225.387 295.176 224.596 295.176ZM224.306 287.371C223.802 287.371 223.392 287.541 223.075 287.881C222.765 288.221 222.565 288.707 222.478 289.34H226.011V289.138C225.999 288.575 225.847 288.142 225.554 287.837C225.261 287.526 224.845 287.371 224.306 287.371ZM241.831 292.363H237.208L236.329 295H233.525L238.289 282.203H240.732L245.522 295H242.719L241.831 292.363ZM237.92 290.228H241.119L239.511 285.438L237.92 290.228Z" />
  <path
     id="path39"
     fill="white"
     d="M154.908 238.454H149.846V241.882H155.787V244H147.209V231.203H155.77V233.339H149.846V236.389H154.908V238.454ZM159.134 244V231.203H163.071C164.196 231.203 165.201 231.458 166.086 231.968C166.977 232.472 167.671 233.192 168.169 234.13C168.667 235.062 168.916 236.122 168.916 237.312V237.9C168.916 239.09 168.67 240.147 168.178 241.073C167.692 241.999 167.003 242.717 166.112 243.227C165.222 243.736 164.217 243.994 163.098 244H159.134ZM161.771 233.339V241.882H163.045C164.076 241.882 164.864 241.545 165.409 240.871C165.954 240.197 166.233 239.233 166.244 237.979V237.303C166.244 236.002 165.975 235.018 165.436 234.35C164.897 233.676 164.109 233.339 163.071 233.339H161.771ZM182.766 242.383C182.291 242.951 181.621 243.394 180.753 243.71C179.886 244.021 178.925 244.176 177.871 244.176C176.763 244.176 175.79 243.936 174.953 243.455C174.121 242.969 173.476 242.266 173.019 241.346C172.568 240.426 172.336 239.345 172.325 238.103V237.232C172.325 235.955 172.538 234.851 172.966 233.919C173.4 232.981 174.021 232.267 174.829 231.774C175.644 231.276 176.596 231.027 177.686 231.027C179.204 231.027 180.39 231.391 181.246 232.117C182.101 232.838 182.608 233.89 182.766 235.272H180.2C180.082 234.54 179.822 234.004 179.417 233.664C179.019 233.324 178.468 233.154 177.765 233.154C176.869 233.154 176.186 233.491 175.717 234.165C175.248 234.839 175.011 235.841 175.005 237.171V237.988C175.005 239.33 175.26 240.344 175.77 241.029C176.28 241.715 177.027 242.058 178.011 242.058C179.001 242.058 179.707 241.847 180.129 241.425V239.219H177.73V237.276H182.766V242.383ZM194.41 238.454H189.347V241.882H195.289V244H186.711V231.203H195.271V233.339H189.347V236.389H194.41V238.454ZM201.272 241.882H206.871V244H198.636V231.203H201.272V241.882ZM217.891 238.454H212.828V241.882H218.77V244H210.191V231.203H218.752V233.339H212.828V236.389H217.891V238.454ZM228.752 240.643C228.752 240.145 228.576 239.764 228.225 239.5C227.873 239.23 227.24 238.949 226.326 238.656C225.412 238.357 224.689 238.064 224.155 237.777C222.702 236.992 221.976 235.935 221.976 234.604C221.976 233.913 222.169 233.298 222.556 232.759C222.948 232.214 223.508 231.789 224.235 231.484C224.967 231.18 225.787 231.027 226.696 231.027C227.61 231.027 228.424 231.194 229.139 231.528C229.854 231.856 230.407 232.322 230.8 232.926C231.198 233.529 231.398 234.215 231.398 234.982H228.761C228.761 234.396 228.576 233.942 228.207 233.62C227.838 233.292 227.32 233.128 226.652 233.128C226.007 233.128 225.506 233.266 225.149 233.541C224.791 233.811 224.613 234.168 224.613 234.613C224.613 235.029 224.821 235.378 225.237 235.659C225.658 235.94 226.277 236.204 227.091 236.45C228.591 236.901 229.684 237.461 230.369 238.129C231.055 238.797 231.398 239.629 231.398 240.625C231.398 241.732 230.979 242.603 230.141 243.235C229.303 243.862 228.175 244.176 226.757 244.176C225.773 244.176 224.876 243.997 224.068 243.64C223.259 243.276 222.641 242.781 222.213 242.154C221.791 241.527 221.58 240.801 221.58 239.975H224.226C224.226 241.387 225.07 242.093 226.757 242.093C227.384 242.093 227.873 241.967 228.225 241.715C228.576 241.457 228.752 241.1 228.752 240.643ZM241.626 240.643C241.626 240.145 241.451 239.764 241.099 239.5C240.747 239.23 240.115 238.949 239.201 238.656C238.287 238.357 237.563 238.064 237.03 237.777C235.577 236.992 234.85 235.935 234.85 234.604C234.85 233.913 235.043 233.298 235.43 232.759C235.823 232.214 236.382 231.789 237.109 231.484C237.841 231.18 238.662 231.027 239.57 231.027C240.484 231.027 241.298 231.194 242.013 231.528C242.728 231.856 243.282 232.322 243.674 232.926C244.073 233.529 244.272 234.215 244.272 234.982H241.635C241.635 234.396 241.451 233.942 241.081 233.62C240.712 233.292 240.194 233.128 239.526 233.128C238.881 233.128 238.38 233.266 238.023 233.541C237.665 233.811 237.487 234.168 237.487 234.613C237.487 235.029 237.695 235.378 238.111 235.659C238.533 235.94 239.151 236.204 239.965 236.45C241.465 236.901 242.558 237.461 243.244 238.129C243.929 238.797 244.272 239.629 244.272 240.625C244.272 241.732 243.853 242.603 243.015 243.235C242.177 243.862 241.049 244.176 239.631 244.176C238.647 244.176 237.75 243.997 236.942 243.64C236.133 243.276 235.515 242.781 235.087 242.154C234.665 241.527 234.454 240.801 234.454 239.975H237.1C237.1 241.387 237.944 242.093 239.631 242.093C240.258 242.093 240.747 241.967 241.099 241.715C241.451 241.457 241.626 241.1 241.626 240.643ZM259.183 238.823H256.178V244H254.481V231.203H258.718C260.159 231.203 261.266 231.531 262.04 232.188C262.819 232.844 263.209 233.799 263.209 235.053C263.209 235.85 262.992 236.544 262.558 237.136C262.131 237.728 261.533 238.17 260.765 238.463L263.771 243.895V244H261.961L259.183 238.823ZM256.178 237.443H258.77C259.608 237.443 260.273 237.227 260.765 236.793C261.263 236.359 261.512 235.779 261.512 235.053C261.512 234.262 261.275 233.655 260.801 233.233C260.332 232.812 259.652 232.598 258.762 232.592H256.178V237.443ZM275.521 232.592H271.407V244H269.729V232.592H265.624V231.203H275.521V232.592Z" />
  <path
     id="path41"
     fill="#00010D"
     d="M448 92L436.846 94.9886L445.011 103.154L448 92ZM335 205L346.154 202.011L337.989 193.846L335 205ZM440.929 97.6569L340.657 197.929L342.071 199.343L442.343 99.0711L440.929 97.6569Z" />
  <path
     id="path43"
     fill="#00010D"
     d="M507 93L509.989 104.154L518.154 95.9886L507 93ZM619 205L616.011 193.846L607.846 202.011L619 205ZM512.657 100.071L611.929 199.343L613.343 197.929L514.071 98.6569L512.657 100.071Z" />
  <path
     id="path45"
     fill="#00010D"
     d="M477 93L471.226 103L482.774 103L477 93ZM477 207L482.773 197L471.226 197L477 207ZM476 102L476 198L478 198L478 102L476 102Z" />
  <rect
     id="rect47"
     stroke-width="3"
     stroke="#D44FEA"
     fill-opacity="0.3"
     fill="#D44FEA"
     rx="8.5"
     height="57"
     width="177"
     y="21.5"
     x="390.5" />
  <path
     id="path51"
     fill="#00010D"
     d="M371 50L361 44.2265L361 55.7735L371 50ZM109 51L362 51L362 49L109 49L109 51Z" />
  <path
     id="path53"
     fill="#00010D"
     d="M183.9 143.167V84.8333H231.1V118.5C231.1 130.479 213.4 125.667 213.4 125.667C213.4 125.667 217.878 143.167 205.618 143.167H183.9ZM237 120.959V79H178V149H208.058C217.388 149 237 127.933 237 120.959ZM222.25 116.917H198.65V114H222.25V116.917ZM222.25 105.25H198.65V108.167H222.25V105.25ZM222.25 96.5H198.65V99.4167H222.25V96.5ZM195.7 96.5H192.75V99.4167H195.7V96.5ZM195.7 105.25H192.75V108.167H195.7V105.25ZM195.7 114H192.75V116.917H195.7V114Z" />
  <path
     id="path55"
     fill="#00010D"
     d="M80.75 29.7542C80.75 46.1805 67.4305 59.5043 51 59.5043C34.5695 59.5043 21.25 46.1805 21.25 29.7542C21.25 13.3195 34.5695 0 51 0C67.4305 0 80.75 13.3195 80.75 29.7542ZM73.9585 60.2692C67.558 65.1015 59.619 68.0042 51 68.0042C42.3725 68.0042 34.4292 65.093 28.0203 60.2607C10.7142 67.881 0 91.6087 0 102H102C102 91.7022 90.95 67.9745 73.9585 60.2692Z" />
  <path
     id="path57"
     fill="black"
     d="M260.665 89.2031L264.849 99.6445L269.032 89.2031H271.221V102H269.533V97.0166L269.691 91.6377L265.49 102H264.198L260.006 91.6641L260.173 97.0166V102H258.485V89.2031H260.665ZM279.816 102C279.723 101.812 279.646 101.479 279.588 100.998C278.832 101.783 277.93 102.176 276.881 102.176C275.943 102.176 275.173 101.912 274.569 101.385C273.972 100.852 273.673 100.178 273.673 99.3633C273.673 98.373 274.048 97.6055 274.798 97.0605C275.554 96.5098 276.614 96.2344 277.979 96.2344H279.562V95.4873C279.562 94.9189 279.392 94.4678 279.052 94.1338C278.712 93.7939 278.211 93.624 277.549 93.624C276.969 93.624 276.482 93.7705 276.09 94.0635C275.697 94.3564 275.501 94.7109 275.501 95.127H273.866C273.866 94.6523 274.033 94.1953 274.367 93.7559C274.707 93.3105 275.164 92.959 275.738 92.7012C276.318 92.4434 276.954 92.3145 277.646 92.3145C278.741 92.3145 279.6 92.5898 280.221 93.1406C280.842 93.6855 281.164 94.4385 281.188 95.3994V99.7764C281.188 100.649 281.299 101.344 281.521 101.859V102H279.816ZM277.118 100.761C277.628 100.761 278.111 100.629 278.568 100.365C279.025 100.102 279.356 99.7588 279.562 99.3369V97.3857H278.287C276.295 97.3857 275.299 97.9688 275.299 99.1348C275.299 99.6445 275.469 100.043 275.809 100.33C276.148 100.617 276.585 100.761 277.118 100.761ZM285.274 92.4902L285.327 93.6855C286.054 92.7715 287.003 92.3145 288.175 92.3145C290.185 92.3145 291.198 93.4482 291.216 95.7158V102H289.59V95.707C289.584 95.0215 289.426 94.5146 289.115 94.1865C288.811 93.8584 288.333 93.6943 287.683 93.6943C287.155 93.6943 286.692 93.835 286.294 94.1162C285.896 94.3975 285.585 94.7666 285.362 95.2236V102H283.736V92.4902H285.274ZM295.435 102H293.809V92.4902H295.435V102ZM293.677 89.9678C293.677 89.7041 293.756 89.4814 293.914 89.2998C294.078 89.1182 294.318 89.0273 294.635 89.0273C294.951 89.0273 295.191 89.1182 295.355 89.2998C295.52 89.4814 295.602 89.7041 295.602 89.9678C295.602 90.2314 295.52 90.4512 295.355 90.627C295.191 90.8027 294.951 90.8906 294.635 90.8906C294.318 90.8906 294.078 90.8027 293.914 90.627C293.756 90.4512 293.677 90.2314 293.677 89.9678ZM298.845 102V93.7471H297.342V92.4902H298.845V91.5146C298.845 90.4951 299.117 89.707 299.662 89.1504C300.207 88.5938 300.978 88.3154 301.974 88.3154C302.349 88.3154 302.721 88.3652 303.09 88.4648L303.002 89.7832C302.727 89.7305 302.434 89.7041 302.123 89.7041C301.596 89.7041 301.188 89.8594 300.901 90.1699C300.614 90.4746 300.471 90.9141 300.471 91.4883V92.4902H302.501V93.7471H300.471V102H298.845ZM308.038 102.176C306.749 102.176 305.7 101.754 304.892 100.91C304.083 100.061 303.679 98.9268 303.679 97.5088V97.21C303.679 96.2666 303.857 95.4258 304.215 94.6875C304.578 93.9434 305.082 93.3633 305.727 92.9473C306.377 92.5254 307.08 92.3145 307.836 92.3145C309.072 92.3145 310.033 92.7217 310.719 93.5361C311.404 94.3506 311.747 95.5166 311.747 97.0342V97.7109H305.305C305.328 98.6484 305.601 99.4072 306.122 99.9873C306.649 100.562 307.317 100.849 308.126 100.849C308.7 100.849 309.187 100.731 309.585 100.497C309.983 100.263 310.332 99.9521 310.631 99.5654L311.624 100.339C310.827 101.563 309.632 102.176 308.038 102.176ZM307.836 93.6504C307.18 93.6504 306.629 93.8906 306.184 94.3711C305.738 94.8457 305.463 95.5137 305.357 96.375H310.121V96.252C310.074 95.4258 309.852 94.7871 309.453 94.3359C309.055 93.8789 308.516 93.6504 307.836 93.6504ZM319.174 99.4775C319.174 99.0381 319.007 98.6982 318.673 98.458C318.345 98.2119 317.768 98.001 316.941 97.8252C316.121 97.6494 315.468 97.4385 314.981 97.1924C314.501 96.9463 314.144 96.6533 313.909 96.3135C313.681 95.9736 313.566 95.5693 313.566 95.1006C313.566 94.3213 313.895 93.6621 314.551 93.123C315.213 92.584 316.057 92.3145 317.082 92.3145C318.16 92.3145 319.033 92.5928 319.701 93.1494C320.375 93.7061 320.712 94.418 320.712 95.2852H319.077C319.077 94.8398 318.887 94.4561 318.506 94.1338C318.131 93.8115 317.656 93.6504 317.082 93.6504C316.49 93.6504 316.027 93.7793 315.693 94.0371C315.359 94.2949 315.192 94.6318 315.192 95.0479C315.192 95.4404 315.348 95.7363 315.658 95.9355C315.969 96.1348 316.528 96.3252 317.337 96.5068C318.151 96.6885 318.811 96.9053 319.314 97.1572C319.818 97.4092 320.19 97.7139 320.431 98.0713C320.677 98.4229 320.8 98.8535 320.8 99.3633C320.8 100.213 320.46 100.896 319.78 101.411C319.101 101.921 318.219 102.176 317.135 102.176C316.373 102.176 315.699 102.041 315.113 101.771C314.527 101.502 314.067 101.127 313.733 100.646C313.405 100.16 313.241 99.6357 313.241 99.0732H314.867C314.896 99.6182 315.113 100.052 315.518 100.374C315.928 100.69 316.467 100.849 317.135 100.849C317.75 100.849 318.242 100.726 318.611 100.479C318.986 100.228 319.174 99.8936 319.174 99.4775ZM325.124 90.1875V92.4902H326.899V93.7471H325.124V99.6445C325.124 100.025 325.203 100.312 325.361 100.506C325.52 100.693 325.789 100.787 326.17 100.787C326.357 100.787 326.615 100.752 326.943 100.682V102C326.516 102.117 326.1 102.176 325.695 102.176C324.969 102.176 324.421 101.956 324.052 101.517C323.683 101.077 323.498 100.453 323.498 99.6445V93.7471H321.767V92.4902H323.498V90.1875H325.124ZM258.169 117.806C258.169 116.481 258.345 115.21 258.696 113.991C259.054 112.772 259.584 111.665 260.287 110.669C260.99 109.673 261.72 108.97 262.476 108.56L262.81 109.632C261.954 110.288 261.251 111.29 260.7 112.638C260.155 113.985 259.856 115.494 259.804 117.164L259.795 117.911C259.795 120.173 260.208 122.136 261.034 123.8C261.532 124.796 262.124 125.575 262.81 126.138L262.476 127.131C261.696 126.697 260.952 125.971 260.243 124.951C258.86 122.959 258.169 120.577 258.169 117.806ZM269.999 110.203H271.695V119.265C271.695 120.489 271.326 121.447 270.588 122.139C269.855 122.83 268.877 123.176 267.652 123.176C266.381 123.176 265.391 122.851 264.682 122.2C263.973 121.55 263.618 120.639 263.618 119.467H265.306C265.306 120.199 265.505 120.771 265.903 121.181C266.308 121.591 266.891 121.796 267.652 121.796C268.35 121.796 268.912 121.576 269.34 121.137C269.773 120.697 269.993 120.082 269.999 119.291V110.203ZM278.34 117.296C276.893 116.88 275.838 116.37 275.176 115.767C274.52 115.157 274.191 114.407 274.191 113.517C274.191 112.509 274.593 111.677 275.396 111.021C276.204 110.358 277.253 110.027 278.542 110.027C279.421 110.027 280.203 110.197 280.889 110.537C281.58 110.877 282.113 111.346 282.488 111.943C282.869 112.541 283.06 113.194 283.06 113.903H281.363C281.363 113.13 281.117 112.523 280.625 112.084C280.133 111.639 279.438 111.416 278.542 111.416C277.71 111.416 277.06 111.601 276.591 111.97C276.128 112.333 275.896 112.84 275.896 113.49C275.896 114.012 276.116 114.454 276.556 114.817C277.001 115.175 277.754 115.503 278.814 115.802C279.881 116.101 280.713 116.432 281.311 116.795C281.914 117.152 282.359 117.571 282.646 118.052C282.939 118.532 283.086 119.098 283.086 119.748C283.086 120.785 282.682 121.617 281.873 122.244C281.064 122.865 279.983 123.176 278.63 123.176C277.751 123.176 276.931 123.009 276.169 122.675C275.407 122.335 274.818 121.872 274.402 121.286C273.992 120.7 273.787 120.035 273.787 119.291H275.483C275.483 120.064 275.768 120.677 276.336 121.128C276.91 121.573 277.675 121.796 278.63 121.796C279.521 121.796 280.203 121.614 280.678 121.251C281.152 120.888 281.39 120.393 281.39 119.766C281.39 119.139 281.17 118.655 280.73 118.315C280.291 117.97 279.494 117.63 278.34 117.296ZM295.101 117.015C295.101 118.269 294.89 119.364 294.468 120.302C294.046 121.233 293.448 121.945 292.675 122.438C291.901 122.93 290.999 123.176 289.968 123.176C288.96 123.176 288.066 122.93 287.287 122.438C286.508 121.939 285.901 121.233 285.468 120.319C285.04 119.399 284.82 118.336 284.809 117.129V116.206C284.809 114.976 285.022 113.889 285.45 112.945C285.878 112.002 286.481 111.281 287.261 110.783C288.046 110.279 288.942 110.027 289.95 110.027C290.976 110.027 291.878 110.276 292.657 110.774C293.442 111.267 294.046 111.984 294.468 112.928C294.89 113.865 295.101 114.958 295.101 116.206V117.015ZM293.422 116.188C293.422 114.671 293.117 113.508 292.508 112.699C291.898 111.885 291.046 111.478 289.95 111.478C288.884 111.478 288.043 111.885 287.428 112.699C286.818 113.508 286.505 114.633 286.487 116.074V117.015C286.487 118.485 286.795 119.643 287.41 120.486C288.031 121.324 288.884 121.743 289.968 121.743C291.058 121.743 291.901 121.348 292.499 120.557C293.097 119.76 293.404 118.62 293.422 117.138V116.188ZM307.467 123H305.771L299.328 113.139V123H297.632V110.203H299.328L305.788 120.108V110.203H307.467V123ZM313.962 117.894C313.962 119.2 313.789 120.454 313.443 121.655C313.104 122.851 312.579 123.955 311.87 124.969C311.167 125.982 310.429 126.703 309.655 127.131L309.312 126.138C310.215 125.446 310.938 124.374 311.483 122.921C312.034 121.462 312.315 119.845 312.327 118.069V117.788C312.327 116.558 312.198 115.415 311.94 114.36C311.683 113.3 311.322 112.351 310.859 111.513C310.402 110.675 309.887 110.021 309.312 109.553L309.655 108.56C310.429 108.987 311.164 109.702 311.861 110.704C312.564 111.706 313.089 112.811 313.435 114.018C313.786 115.225 313.962 116.517 313.962 117.894Z" />
  <path
     id="path59"
     fill="black"
     d="M661.213 93.2148C661.213 92.7051 661.374 92.2861 661.696 91.958C662.024 91.6299 662.458 91.4658 662.997 91.4658C663.53 91.4658 663.964 91.627 664.298 91.9492C664.632 92.2656 664.799 92.6963 664.799 93.2412V93.5664C664.799 94.0762 664.638 94.4922 664.315 94.8145C663.993 95.1367 663.557 95.2979 663.006 95.2979C662.461 95.2979 662.024 95.1367 661.696 94.8145C661.374 94.4863 661.213 94.0645 661.213 93.5488V93.2148ZM679.081 96.6602H673.72L672.516 100H670.775L675.662 87.2031H677.139L682.034 100H680.303L679.081 96.6602ZM674.229 95.2715H678.58L676.4 89.2861L674.229 95.2715ZM685.55 88.1875V90.4902H687.325V91.7471H685.55V97.6445C685.55 98.0254 685.629 98.3125 685.787 98.5059C685.945 98.6934 686.215 98.7871 686.596 98.7871C686.783 98.7871 687.041 98.752 687.369 98.6816V100C686.941 100.117 686.525 100.176 686.121 100.176C685.395 100.176 684.847 99.9561 684.478 99.5166C684.108 99.0771 683.924 98.4531 683.924 97.6445V91.7471H682.192V90.4902H683.924V88.1875H685.55ZM691.438 88.1875V90.4902H693.214V91.7471H691.438V97.6445C691.438 98.0254 691.518 98.3125 691.676 98.5059C691.834 98.6934 692.104 98.7871 692.484 98.7871C692.672 98.7871 692.93 98.752 693.258 98.6816V100C692.83 100.117 692.414 100.176 692.01 100.176C691.283 100.176 690.735 99.9561 690.366 99.5166C689.997 99.0771 689.812 98.4531 689.812 97.6445V91.7471H688.081V90.4902H689.812V88.1875H691.438ZM699.067 100.176C697.778 100.176 696.729 99.7539 695.921 98.9102C695.112 98.0605 694.708 96.9268 694.708 95.5088V95.21C694.708 94.2666 694.887 93.4258 695.244 92.6875C695.607 91.9434 696.111 91.3633 696.756 90.9473C697.406 90.5254 698.109 90.3145 698.865 90.3145C700.102 90.3145 701.062 90.7217 701.748 91.5361C702.434 92.3506 702.776 93.5166 702.776 95.0342V95.7109H696.334C696.357 96.6484 696.63 97.4072 697.151 97.9873C697.679 98.5615 698.347 98.8486 699.155 98.8486C699.729 98.8486 700.216 98.7314 700.614 98.4971C701.013 98.2627 701.361 97.9521 701.66 97.5654L702.653 98.3389C701.856 99.5635 700.661 100.176 699.067 100.176ZM698.865 91.6504C698.209 91.6504 697.658 91.8906 697.213 92.3711C696.768 92.8457 696.492 93.5137 696.387 94.375H701.15V94.252C701.104 93.4258 700.881 92.7871 700.482 92.3359C700.084 91.8789 699.545 91.6504 698.865 91.6504ZM710.203 97.4775C710.203 97.0381 710.036 96.6982 709.702 96.458C709.374 96.2119 708.797 96.001 707.971 95.8252C707.15 95.6494 706.497 95.4385 706.011 95.1924C705.53 94.9463 705.173 94.6533 704.938 94.3135C704.71 93.9736 704.596 93.5693 704.596 93.1006C704.596 92.3213 704.924 91.6621 705.58 91.123C706.242 90.584 707.086 90.3145 708.111 90.3145C709.189 90.3145 710.062 90.5928 710.73 91.1494C711.404 91.7061 711.741 92.418 711.741 93.2852H710.106C710.106 92.8398 709.916 92.4561 709.535 92.1338C709.16 91.8115 708.686 91.6504 708.111 91.6504C707.52 91.6504 707.057 91.7793 706.723 92.0371C706.389 92.2949 706.222 92.6318 706.222 93.0479C706.222 93.4404 706.377 93.7363 706.688 93.9355C706.998 94.1348 707.558 94.3252 708.366 94.5068C709.181 94.6885 709.84 94.9053 710.344 95.1572C710.848 95.4092 711.22 95.7139 711.46 96.0713C711.706 96.4229 711.829 96.8535 711.829 97.3633C711.829 98.2129 711.489 98.8955 710.81 99.4111C710.13 99.9209 709.248 100.176 708.164 100.176C707.402 100.176 706.729 100.041 706.143 99.7715C705.557 99.502 705.097 99.127 704.763 98.6465C704.435 98.1602 704.271 97.6357 704.271 97.0732H705.896C705.926 97.6182 706.143 98.0518 706.547 98.374C706.957 98.6904 707.496 98.8486 708.164 98.8486C708.779 98.8486 709.271 98.7256 709.641 98.4795C710.016 98.2275 710.203 97.8936 710.203 97.4775ZM716.153 88.1875V90.4902H717.929V91.7471H716.153V97.6445C716.153 98.0254 716.232 98.3125 716.391 98.5059C716.549 98.6934 716.818 98.7871 717.199 98.7871C717.387 98.7871 717.645 98.752 717.973 98.6816V100C717.545 100.117 717.129 100.176 716.725 100.176C715.998 100.176 715.45 99.9561 715.081 99.5166C714.712 99.0771 714.527 98.4531 714.527 97.6445V91.7471H712.796V90.4902H714.527V88.1875H716.153ZM725.707 100C725.613 99.8125 725.537 99.4785 725.479 98.998C724.723 99.7832 723.82 100.176 722.771 100.176C721.834 100.176 721.063 99.9121 720.46 99.3848C719.862 98.8516 719.563 98.1777 719.563 97.3633C719.563 96.373 719.938 95.6055 720.688 95.0605C721.444 94.5098 722.505 94.2344 723.87 94.2344H725.452V93.4873C725.452 92.9189 725.282 92.4678 724.942 92.1338C724.603 91.7939 724.102 91.624 723.439 91.624C722.859 91.624 722.373 91.7705 721.98 92.0635C721.588 92.3564 721.392 92.7109 721.392 93.127H719.757C719.757 92.6523 719.924 92.1953 720.258 91.7559C720.598 91.3105 721.055 90.959 721.629 90.7012C722.209 90.4434 722.845 90.3145 723.536 90.3145C724.632 90.3145 725.49 90.5898 726.111 91.1406C726.732 91.6855 727.055 92.4385 727.078 93.3994V97.7764C727.078 98.6494 727.189 99.3438 727.412 99.8594V100H725.707ZM723.009 98.7607C723.519 98.7607 724.002 98.6289 724.459 98.3652C724.916 98.1016 725.247 97.7588 725.452 97.3369V95.3857H724.178C722.186 95.3857 721.189 95.9688 721.189 97.1348C721.189 97.6445 721.359 98.043 721.699 98.3301C722.039 98.6172 722.476 98.7607 723.009 98.7607ZM731.833 88.1875V90.4902H733.608V91.7471H731.833V97.6445C731.833 98.0254 731.912 98.3125 732.07 98.5059C732.229 98.6934 732.498 98.7871 732.879 98.7871C733.066 98.7871 733.324 98.752 733.652 98.6816V100C733.225 100.117 732.809 100.176 732.404 100.176C731.678 100.176 731.13 99.9561 730.761 99.5166C730.392 99.0771 730.207 98.4531 730.207 97.6445V91.7471H728.476V90.4902H730.207V88.1875H731.833ZM737.282 100H735.656V90.4902H737.282V100ZM735.524 87.9678C735.524 87.7041 735.604 87.4814 735.762 87.2998C735.926 87.1182 736.166 87.0273 736.482 87.0273C736.799 87.0273 737.039 87.1182 737.203 87.2998C737.367 87.4814 737.449 87.7041 737.449 87.9678C737.449 88.2314 737.367 88.4512 737.203 88.627C737.039 88.8027 736.799 88.8906 736.482 88.8906C736.166 88.8906 735.926 88.8027 735.762 88.627C735.604 88.4512 735.524 88.2314 735.524 87.9678ZM739.462 95.1572C739.462 94.2256 739.644 93.3877 740.007 92.6436C740.376 91.8994 740.886 91.3252 741.536 90.9209C742.192 90.5166 742.939 90.3145 743.777 90.3145C745.072 90.3145 746.118 90.7627 746.915 91.6592C747.718 92.5557 748.119 93.748 748.119 95.2363V95.3506C748.119 96.2764 747.94 97.1084 747.583 97.8467C747.231 98.5791 746.725 99.1504 746.062 99.5605C745.406 99.9707 744.65 100.176 743.795 100.176C742.506 100.176 741.46 99.7275 740.657 98.8311C739.86 97.9346 739.462 96.748 739.462 95.2715V95.1572ZM741.097 95.3506C741.097 96.4053 741.34 97.252 741.826 97.8906C742.318 98.5293 742.975 98.8486 743.795 98.8486C744.621 98.8486 745.277 98.5264 745.764 97.8818C746.25 97.2314 746.493 96.3232 746.493 95.1572C746.493 94.1143 746.244 93.2705 745.746 92.626C745.254 91.9756 744.598 91.6504 743.777 91.6504C742.975 91.6504 742.327 91.9697 741.835 92.6084C741.343 93.2471 741.097 94.1611 741.097 95.3506ZM751.696 90.4902L751.749 91.6855C752.476 90.7715 753.425 90.3145 754.597 90.3145C756.606 90.3145 757.62 91.4482 757.638 93.7158V100H756.012V93.707C756.006 93.0215 755.848 92.5146 755.537 92.1865C755.232 91.8584 754.755 91.6943 754.104 91.6943C753.577 91.6943 753.114 91.835 752.716 92.1162C752.317 92.3975 752.007 92.7666 751.784 93.2236V100H750.158V90.4902H751.696ZM661.213 114.215C661.213 113.705 661.374 113.286 661.696 112.958C662.024 112.63 662.458 112.466 662.997 112.466C663.53 112.466 663.964 112.627 664.298 112.949C664.632 113.266 664.799 113.696 664.799 114.241V114.566C664.799 115.076 664.638 115.492 664.315 115.814C663.993 116.137 663.557 116.298 663.006 116.298C662.461 116.298 662.024 116.137 661.696 115.814C661.374 115.486 661.213 115.064 661.213 114.549V114.215ZM673.702 115.99V121H672.015V108.203H676.734C678.135 108.203 679.23 108.561 680.021 109.275C680.818 109.99 681.217 110.937 681.217 112.114C681.217 113.356 680.827 114.314 680.048 114.988C679.274 115.656 678.164 115.99 676.717 115.99H673.702ZM673.702 114.61H676.734C677.637 114.61 678.328 114.399 678.809 113.978C679.289 113.55 679.529 112.935 679.529 112.132C679.529 111.37 679.289 110.761 678.809 110.304C678.328 109.847 677.669 109.609 676.831 109.592H673.702V114.61ZM687.712 112.949C687.466 112.908 687.199 112.888 686.912 112.888C685.846 112.888 685.122 113.342 684.741 114.25V121H683.115V111.49H684.697L684.724 112.589C685.257 111.739 686.013 111.314 686.991 111.314C687.308 111.314 687.548 111.355 687.712 111.438V112.949ZM688.608 116.157C688.608 115.226 688.79 114.388 689.153 113.644C689.522 112.899 690.032 112.325 690.683 111.921C691.339 111.517 692.086 111.314 692.924 111.314C694.219 111.314 695.265 111.763 696.062 112.659C696.864 113.556 697.266 114.748 697.266 116.236V116.351C697.266 117.276 697.087 118.108 696.729 118.847C696.378 119.579 695.871 120.15 695.209 120.561C694.553 120.971 693.797 121.176 692.941 121.176C691.652 121.176 690.606 120.728 689.804 119.831C689.007 118.935 688.608 117.748 688.608 116.271V116.157ZM690.243 116.351C690.243 117.405 690.486 118.252 690.973 118.891C691.465 119.529 692.121 119.849 692.941 119.849C693.768 119.849 694.424 119.526 694.91 118.882C695.396 118.231 695.64 117.323 695.64 116.157C695.64 115.114 695.391 114.271 694.893 113.626C694.4 112.976 693.744 112.65 692.924 112.65C692.121 112.65 691.474 112.97 690.981 113.608C690.489 114.247 690.243 115.161 690.243 116.351ZM702.302 118.794L704.657 111.49H706.318L702.908 121H701.669L698.224 111.49H699.885L702.302 118.794ZM709.649 121H708.023V111.49H709.649V121ZM707.892 108.968C707.892 108.704 707.971 108.481 708.129 108.3C708.293 108.118 708.533 108.027 708.85 108.027C709.166 108.027 709.406 108.118 709.57 108.3C709.734 108.481 709.816 108.704 709.816 108.968C709.816 109.231 709.734 109.451 709.57 109.627C709.406 109.803 709.166 109.891 708.85 109.891C708.533 109.891 708.293 109.803 708.129 109.627C707.971 109.451 707.892 109.231 707.892 108.968ZM717.797 118.478C717.797 118.038 717.63 117.698 717.296 117.458C716.968 117.212 716.391 117.001 715.564 116.825C714.744 116.649 714.091 116.438 713.604 116.192C713.124 115.946 712.767 115.653 712.532 115.313C712.304 114.974 712.189 114.569 712.189 114.101C712.189 113.321 712.518 112.662 713.174 112.123C713.836 111.584 714.68 111.314 715.705 111.314C716.783 111.314 717.656 111.593 718.324 112.149C718.998 112.706 719.335 113.418 719.335 114.285H717.7C717.7 113.84 717.51 113.456 717.129 113.134C716.754 112.812 716.279 112.65 715.705 112.65C715.113 112.65 714.65 112.779 714.316 113.037C713.982 113.295 713.815 113.632 713.815 114.048C713.815 114.44 713.971 114.736 714.281 114.936C714.592 115.135 715.151 115.325 715.96 115.507C716.774 115.688 717.434 115.905 717.938 116.157C718.441 116.409 718.813 116.714 719.054 117.071C719.3 117.423 719.423 117.854 719.423 118.363C719.423 119.213 719.083 119.896 718.403 120.411C717.724 120.921 716.842 121.176 715.758 121.176C714.996 121.176 714.322 121.041 713.736 120.771C713.15 120.502 712.69 120.127 712.356 119.646C712.028 119.16 711.864 118.636 711.864 118.073H713.49C713.52 118.618 713.736 119.052 714.141 119.374C714.551 119.69 715.09 119.849 715.758 119.849C716.373 119.849 716.865 119.726 717.234 119.479C717.609 119.228 717.797 118.894 717.797 118.478ZM723.308 121H721.682V111.49H723.308V121ZM721.55 108.968C721.55 108.704 721.629 108.481 721.787 108.3C721.951 108.118 722.191 108.027 722.508 108.027C722.824 108.027 723.064 108.118 723.229 108.3C723.393 108.481 723.475 108.704 723.475 108.968C723.475 109.231 723.393 109.451 723.229 109.627C723.064 109.803 722.824 109.891 722.508 109.891C722.191 109.891 721.951 109.803 721.787 109.627C721.629 109.451 721.55 109.231 721.55 108.968ZM725.487 116.157C725.487 115.226 725.669 114.388 726.032 113.644C726.401 112.899 726.911 112.325 727.562 111.921C728.218 111.517 728.965 111.314 729.803 111.314C731.098 111.314 732.144 111.763 732.94 112.659C733.743 113.556 734.145 114.748 734.145 116.236V116.351C734.145 117.276 733.966 118.108 733.608 118.847C733.257 119.579 732.75 120.15 732.088 120.561C731.432 120.971 730.676 121.176 729.82 121.176C728.531 121.176 727.485 120.728 726.683 119.831C725.886 118.935 725.487 117.748 725.487 116.271V116.157ZM727.122 116.351C727.122 117.405 727.365 118.252 727.852 118.891C728.344 119.529 729 119.849 729.82 119.849C730.646 119.849 731.303 119.526 731.789 118.882C732.275 118.231 732.519 117.323 732.519 116.157C732.519 115.114 732.27 114.271 731.771 113.626C731.279 112.976 730.623 112.65 729.803 112.65C729 112.65 728.353 112.97 727.86 113.608C727.368 114.247 727.122 115.161 727.122 116.351ZM737.722 111.49L737.774 112.686C738.501 111.771 739.45 111.314 740.622 111.314C742.632 111.314 743.646 112.448 743.663 114.716V121H742.037V114.707C742.031 114.021 741.873 113.515 741.562 113.187C741.258 112.858 740.78 112.694 740.13 112.694C739.603 112.694 739.14 112.835 738.741 113.116C738.343 113.397 738.032 113.767 737.81 114.224V121H736.184V111.49H737.722ZM747.882 121H746.256V111.49H747.882V121ZM746.124 108.968C746.124 108.704 746.203 108.481 746.361 108.3C746.525 108.118 746.766 108.027 747.082 108.027C747.398 108.027 747.639 108.118 747.803 108.3C747.967 108.481 748.049 108.704 748.049 108.968C748.049 109.231 747.967 109.451 747.803 109.627C747.639 109.803 747.398 109.891 747.082 109.891C746.766 109.891 746.525 109.803 746.361 109.627C746.203 109.451 746.124 109.231 746.124 108.968ZM752.03 111.49L752.083 112.686C752.81 111.771 753.759 111.314 754.931 111.314C756.94 111.314 757.954 112.448 757.972 114.716V121H756.346V114.707C756.34 114.021 756.182 113.515 755.871 113.187C755.566 112.858 755.089 112.694 754.438 112.694C753.911 112.694 753.448 112.835 753.05 113.116C752.651 113.397 752.341 113.767 752.118 114.224V121H750.492V111.49H752.03ZM760.037 116.166C760.037 114.684 760.38 113.506 761.065 112.633C761.751 111.754 762.659 111.314 763.79 111.314C764.95 111.314 765.855 111.725 766.506 112.545L766.585 111.49H768.07V120.771C768.07 122.002 767.704 122.972 766.972 123.681C766.245 124.39 765.267 124.744 764.036 124.744C763.351 124.744 762.68 124.598 762.023 124.305C761.367 124.012 760.866 123.61 760.521 123.101L761.364 122.125C762.062 122.986 762.914 123.417 763.922 123.417C764.713 123.417 765.328 123.194 765.768 122.749C766.213 122.304 766.436 121.677 766.436 120.868V120.051C765.785 120.801 764.897 121.176 763.772 121.176C762.659 121.176 761.757 120.728 761.065 119.831C760.38 118.935 760.037 117.713 760.037 116.166ZM761.672 116.351C761.672 117.423 761.892 118.267 762.331 118.882C762.771 119.491 763.386 119.796 764.177 119.796C765.202 119.796 765.955 119.33 766.436 118.398V114.057C765.938 113.148 765.19 112.694 764.194 112.694C763.403 112.694 762.785 113.002 762.34 113.617C761.895 114.232 761.672 115.144 761.672 116.351ZM783.416 118.759L785.244 111.49H786.87L784.102 121H782.783L780.472 113.793L778.222 121H776.903L774.144 111.49H775.761L777.633 118.609L779.848 111.49H781.157L783.416 118.759ZM790.298 121H788.672V111.49H790.298V121ZM788.54 108.968C788.54 108.704 788.619 108.481 788.777 108.3C788.941 108.118 789.182 108.027 789.498 108.027C789.814 108.027 790.055 108.118 790.219 108.3C790.383 108.481 790.465 108.704 790.465 108.968C790.465 109.231 790.383 109.451 790.219 109.627C790.055 109.803 789.814 109.891 789.498 109.891C789.182 109.891 788.941 109.803 788.777 109.627C788.619 109.451 788.54 109.231 788.54 108.968ZM795.114 109.188V111.49H796.89V112.747H795.114V118.645C795.114 119.025 795.193 119.312 795.352 119.506C795.51 119.693 795.779 119.787 796.16 119.787C796.348 119.787 796.605 119.752 796.934 119.682V121C796.506 121.117 796.09 121.176 795.686 121.176C794.959 121.176 794.411 120.956 794.042 120.517C793.673 120.077 793.488 119.453 793.488 118.645V112.747H791.757V111.49H793.488V109.188H795.114ZM800.423 112.642C801.144 111.757 802.081 111.314 803.235 111.314C805.245 111.314 806.259 112.448 806.276 114.716V121H804.65V114.707C804.645 114.021 804.486 113.515 804.176 113.187C803.871 112.858 803.394 112.694 802.743 112.694C802.216 112.694 801.753 112.835 801.354 113.116C800.956 113.397 800.646 113.767 800.423 114.224V121H798.797V107.5H800.423V112.642ZM821.921 109.592H817.808V121H816.129V109.592H812.024V108.203H821.921V109.592ZM825.516 119.62H831.58V121H823.819V108.203H825.516V119.62ZM837.275 115.296C835.828 114.88 834.773 114.37 834.111 113.767C833.455 113.157 833.127 112.407 833.127 111.517C833.127 110.509 833.528 109.677 834.331 109.021C835.14 108.358 836.188 108.027 837.478 108.027C838.356 108.027 839.139 108.197 839.824 108.537C840.516 108.877 841.049 109.346 841.424 109.943C841.805 110.541 841.995 111.194 841.995 111.903H840.299C840.299 111.13 840.053 110.523 839.561 110.084C839.068 109.639 838.374 109.416 837.478 109.416C836.646 109.416 835.995 109.601 835.526 109.97C835.063 110.333 834.832 110.84 834.832 111.49C834.832 112.012 835.052 112.454 835.491 112.817C835.937 113.175 836.689 113.503 837.75 113.802C838.816 114.101 839.648 114.432 840.246 114.795C840.85 115.152 841.295 115.571 841.582 116.052C841.875 116.532 842.021 117.098 842.021 117.748C842.021 118.785 841.617 119.617 840.809 120.244C840 120.865 838.919 121.176 837.565 121.176C836.687 121.176 835.866 121.009 835.104 120.675C834.343 120.335 833.754 119.872 833.338 119.286C832.928 118.7 832.723 118.035 832.723 117.291H834.419C834.419 118.064 834.703 118.677 835.271 119.128C835.846 119.573 836.61 119.796 837.565 119.796C838.456 119.796 839.139 119.614 839.613 119.251C840.088 118.888 840.325 118.393 840.325 117.766C840.325 117.139 840.105 116.655 839.666 116.315C839.227 115.97 838.43 115.63 837.275 115.296ZM852.217 119.849C852.797 119.849 853.304 119.673 853.737 119.321C854.171 118.97 854.411 118.53 854.458 118.003H855.996C855.967 118.548 855.779 119.066 855.434 119.559C855.088 120.051 854.625 120.443 854.045 120.736C853.471 121.029 852.861 121.176 852.217 121.176C850.922 121.176 849.891 120.745 849.123 119.884C848.361 119.017 847.98 117.833 847.98 116.333V116.061C847.98 115.135 848.15 114.312 848.49 113.591C848.83 112.87 849.316 112.311 849.949 111.912C850.588 111.514 851.341 111.314 852.208 111.314C853.274 111.314 854.159 111.634 854.862 112.272C855.571 112.911 855.949 113.74 855.996 114.76H854.458C854.411 114.145 854.177 113.641 853.755 113.248C853.339 112.85 852.823 112.65 852.208 112.65C851.382 112.65 850.74 112.949 850.283 113.547C849.832 114.139 849.606 114.997 849.606 116.122V116.43C849.606 117.525 849.832 118.369 850.283 118.961C850.734 119.553 851.379 119.849 852.217 119.849ZM862.421 112.949C862.175 112.908 861.908 112.888 861.621 112.888C860.555 112.888 859.831 113.342 859.45 114.25V121H857.824V111.49H859.406L859.433 112.589C859.966 111.739 860.722 111.314 861.7 111.314C862.017 111.314 862.257 111.355 862.421 111.438V112.949ZM867.694 121.176C866.405 121.176 865.356 120.754 864.548 119.91C863.739 119.061 863.335 117.927 863.335 116.509V116.21C863.335 115.267 863.514 114.426 863.871 113.688C864.234 112.943 864.738 112.363 865.383 111.947C866.033 111.525 866.736 111.314 867.492 111.314C868.729 111.314 869.689 111.722 870.375 112.536C871.061 113.351 871.403 114.517 871.403 116.034V116.711H864.961C864.984 117.648 865.257 118.407 865.778 118.987C866.306 119.562 866.974 119.849 867.782 119.849C868.356 119.849 868.843 119.731 869.241 119.497C869.64 119.263 869.988 118.952 870.287 118.565L871.28 119.339C870.483 120.563 869.288 121.176 867.694 121.176ZM867.492 112.65C866.836 112.65 866.285 112.891 865.84 113.371C865.395 113.846 865.119 114.514 865.014 115.375H869.777V115.252C869.73 114.426 869.508 113.787 869.109 113.336C868.711 112.879 868.172 112.65 867.492 112.65ZM872.897 116.166C872.897 114.707 873.243 113.535 873.935 112.65C874.626 111.76 875.531 111.314 876.65 111.314C877.764 111.314 878.646 111.695 879.296 112.457V107.5H880.922V121H879.428L879.349 119.98C878.698 120.777 877.793 121.176 876.633 121.176C875.531 121.176 874.632 120.725 873.935 119.822C873.243 118.92 872.897 117.742 872.897 116.289V116.166ZM874.523 116.351C874.523 117.429 874.746 118.272 875.191 118.882C875.637 119.491 876.252 119.796 877.037 119.796C878.068 119.796 878.821 119.333 879.296 118.407V114.039C878.81 113.143 878.062 112.694 877.055 112.694C876.258 112.694 875.637 113.002 875.191 113.617C874.746 114.232 874.523 115.144 874.523 116.351ZM887.399 121.176C886.11 121.176 885.062 120.754 884.253 119.91C883.444 119.061 883.04 117.927 883.04 116.509V116.21C883.04 115.267 883.219 114.426 883.576 113.688C883.939 112.943 884.443 112.363 885.088 111.947C885.738 111.525 886.441 111.314 887.197 111.314C888.434 111.314 889.395 111.722 890.08 112.536C890.766 113.351 891.108 114.517 891.108 116.034V116.711H884.666C884.689 117.648 884.962 118.407 885.483 118.987C886.011 119.562 886.679 119.849 887.487 119.849C888.062 119.849 888.548 119.731 888.946 119.497C889.345 119.263 889.693 118.952 889.992 118.565L890.985 119.339C890.188 120.563 888.993 121.176 887.399 121.176ZM887.197 112.65C886.541 112.65 885.99 112.891 885.545 113.371C885.1 113.846 884.824 114.514 884.719 115.375H889.482V115.252C889.436 114.426 889.213 113.787 888.814 113.336C888.416 112.879 887.877 112.65 887.197 112.65ZM894.536 111.49L894.589 112.686C895.315 111.771 896.265 111.314 897.437 111.314C899.446 111.314 900.46 112.448 900.478 114.716V121H898.852V114.707C898.846 114.021 898.688 113.515 898.377 113.187C898.072 112.858 897.595 112.694 896.944 112.694C896.417 112.694 895.954 112.835 895.556 113.116C895.157 113.397 894.847 113.767 894.624 114.224V121H892.998V111.49H894.536ZM905.136 109.188V111.49H906.911V112.747H905.136V118.645C905.136 119.025 905.215 119.312 905.373 119.506C905.531 119.693 905.801 119.787 906.182 119.787C906.369 119.787 906.627 119.752 906.955 119.682V121C906.527 121.117 906.111 121.176 905.707 121.176C904.98 121.176 904.433 120.956 904.063 120.517C903.694 120.077 903.51 119.453 903.51 118.645V112.747H901.778V111.49H903.51V109.188H905.136ZM910.585 121H908.959V111.49H910.585V121ZM908.827 108.968C908.827 108.704 908.906 108.481 909.064 108.3C909.229 108.118 909.469 108.027 909.785 108.027C910.102 108.027 910.342 108.118 910.506 108.3C910.67 108.481 910.752 108.704 910.752 108.968C910.752 109.231 910.67 109.451 910.506 109.627C910.342 109.803 910.102 109.891 909.785 109.891C909.469 109.891 909.229 109.803 909.064 109.627C908.906 109.451 908.827 109.231 908.827 108.968ZM919.066 121C918.973 120.812 918.896 120.479 918.838 119.998C918.082 120.783 917.18 121.176 916.131 121.176C915.193 121.176 914.423 120.912 913.819 120.385C913.222 119.852 912.923 119.178 912.923 118.363C912.923 117.373 913.298 116.605 914.048 116.061C914.804 115.51 915.864 115.234 917.229 115.234H918.812V114.487C918.812 113.919 918.642 113.468 918.302 113.134C917.962 112.794 917.461 112.624 916.799 112.624C916.219 112.624 915.732 112.771 915.34 113.063C914.947 113.356 914.751 113.711 914.751 114.127H913.116C913.116 113.652 913.283 113.195 913.617 112.756C913.957 112.311 914.414 111.959 914.988 111.701C915.568 111.443 916.204 111.314 916.896 111.314C917.991 111.314 918.85 111.59 919.471 112.141C920.092 112.686 920.414 113.438 920.438 114.399V118.776C920.438 119.649 920.549 120.344 920.771 120.859V121H919.066ZM916.368 119.761C916.878 119.761 917.361 119.629 917.818 119.365C918.275 119.102 918.606 118.759 918.812 118.337V116.386H917.537C915.545 116.386 914.549 116.969 914.549 118.135C914.549 118.645 914.719 119.043 915.059 119.33C915.398 119.617 915.835 119.761 916.368 119.761ZM924.753 121H923.127V107.5H924.753V121ZM932.9 118.478C932.9 118.038 932.733 117.698 932.399 117.458C932.071 117.212 931.494 117.001 930.668 116.825C929.848 116.649 929.194 116.438 928.708 116.192C928.228 115.946 927.87 115.653 927.636 115.313C927.407 114.974 927.293 114.569 927.293 114.101C927.293 113.321 927.621 112.662 928.277 112.123C928.939 111.584 929.783 111.314 930.809 111.314C931.887 111.314 932.76 111.593 933.428 112.149C934.102 112.706 934.438 113.418 934.438 114.285H932.804C932.804 113.84 932.613 113.456 932.232 113.134C931.857 112.812 931.383 112.65 930.809 112.65C930.217 112.65 929.754 112.779 929.42 113.037C929.086 113.295 928.919 113.632 928.919 114.048C928.919 114.44 929.074 114.736 929.385 114.936C929.695 115.135 930.255 115.325 931.063 115.507C931.878 115.688 932.537 115.905 933.041 116.157C933.545 116.409 933.917 116.714 934.157 117.071C934.403 117.423 934.526 117.854 934.526 118.363C934.526 119.213 934.187 119.896 933.507 120.411C932.827 120.921 931.945 121.176 930.861 121.176C930.1 121.176 929.426 121.041 928.84 120.771C928.254 120.502 927.794 120.127 927.46 119.646C927.132 119.16 926.968 118.636 926.968 118.073H928.594C928.623 118.618 928.84 119.052 929.244 119.374C929.654 119.69 930.193 119.849 930.861 119.849C931.477 119.849 931.969 119.726 932.338 119.479C932.713 119.228 932.9 118.894 932.9 118.478ZM661.213 135.215C661.213 134.705 661.374 134.286 661.696 133.958C662.024 133.63 662.458 133.466 662.997 133.466C663.53 133.466 663.964 133.627 664.298 133.949C664.632 134.266 664.799 134.696 664.799 135.241V135.566C664.799 136.076 664.638 136.492 664.315 136.814C663.993 137.137 663.557 137.298 663.006 137.298C662.461 137.298 662.024 137.137 661.696 136.814C661.374 136.486 661.213 136.064 661.213 135.549V135.215ZM673.702 136.99V142H672.015V129.203H676.734C678.135 129.203 679.23 129.561 680.021 130.275C680.818 130.99 681.217 131.937 681.217 133.114C681.217 134.356 680.827 135.314 680.048 135.988C679.274 136.656 678.164 136.99 676.717 136.99H673.702ZM673.702 135.61H676.734C677.637 135.61 678.328 135.399 678.809 134.978C679.289 134.55 679.529 133.935 679.529 133.132C679.529 132.37 679.289 131.761 678.809 131.304C678.328 130.847 677.669 130.609 676.831 130.592H673.702V135.61ZM687.712 133.949C687.466 133.908 687.199 133.888 686.912 133.888C685.846 133.888 685.122 134.342 684.741 135.25V142H683.115V132.49H684.697L684.724 133.589C685.257 132.739 686.013 132.314 686.991 132.314C687.308 132.314 687.548 132.355 687.712 132.438V133.949ZM688.608 137.157C688.608 136.226 688.79 135.388 689.153 134.644C689.522 133.899 690.032 133.325 690.683 132.921C691.339 132.517 692.086 132.314 692.924 132.314C694.219 132.314 695.265 132.763 696.062 133.659C696.864 134.556 697.266 135.748 697.266 137.236V137.351C697.266 138.276 697.087 139.108 696.729 139.847C696.378 140.579 695.871 141.15 695.209 141.561C694.553 141.971 693.797 142.176 692.941 142.176C691.652 142.176 690.606 141.728 689.804 140.831C689.007 139.935 688.608 138.748 688.608 137.271V137.157ZM690.243 137.351C690.243 138.405 690.486 139.252 690.973 139.891C691.465 140.529 692.121 140.849 692.941 140.849C693.768 140.849 694.424 140.526 694.91 139.882C695.396 139.231 695.64 138.323 695.64 137.157C695.64 136.114 695.391 135.271 694.893 134.626C694.4 133.976 693.744 133.65 692.924 133.65C692.121 133.65 691.474 133.97 690.981 134.608C690.489 135.247 690.243 136.161 690.243 137.351ZM702.302 139.794L704.657 132.49H706.318L702.908 142H701.669L698.224 132.49H699.885L702.302 139.794ZM709.649 142H708.023V132.49H709.649V142ZM707.892 129.968C707.892 129.704 707.971 129.481 708.129 129.3C708.293 129.118 708.533 129.027 708.85 129.027C709.166 129.027 709.406 129.118 709.57 129.3C709.734 129.481 709.816 129.704 709.816 129.968C709.816 130.231 709.734 130.451 709.57 130.627C709.406 130.803 709.166 130.891 708.85 130.891C708.533 130.891 708.293 130.803 708.129 130.627C707.971 130.451 707.892 130.231 707.892 129.968ZM717.797 139.478C717.797 139.038 717.63 138.698 717.296 138.458C716.968 138.212 716.391 138.001 715.564 137.825C714.744 137.649 714.091 137.438 713.604 137.192C713.124 136.946 712.767 136.653 712.532 136.313C712.304 135.974 712.189 135.569 712.189 135.101C712.189 134.321 712.518 133.662 713.174 133.123C713.836 132.584 714.68 132.314 715.705 132.314C716.783 132.314 717.656 132.593 718.324 133.149C718.998 133.706 719.335 134.418 719.335 135.285H717.7C717.7 134.84 717.51 134.456 717.129 134.134C716.754 133.812 716.279 133.65 715.705 133.65C715.113 133.65 714.65 133.779 714.316 134.037C713.982 134.295 713.815 134.632 713.815 135.048C713.815 135.44 713.971 135.736 714.281 135.936C714.592 136.135 715.151 136.325 715.96 136.507C716.774 136.688 717.434 136.905 717.938 137.157C718.441 137.409 718.813 137.714 719.054 138.071C719.3 138.423 719.423 138.854 719.423 139.363C719.423 140.213 719.083 140.896 718.403 141.411C717.724 141.921 716.842 142.176 715.758 142.176C714.996 142.176 714.322 142.041 713.736 141.771C713.15 141.502 712.69 141.127 712.356 140.646C712.028 140.16 711.864 139.636 711.864 139.073H713.49C713.52 139.618 713.736 140.052 714.141 140.374C714.551 140.69 715.09 140.849 715.758 140.849C716.373 140.849 716.865 140.726 717.234 140.479C717.609 140.228 717.797 139.894 717.797 139.478ZM723.308 142H721.682V132.49H723.308V142ZM721.55 129.968C721.55 129.704 721.629 129.481 721.787 129.3C721.951 129.118 722.191 129.027 722.508 129.027C722.824 129.027 723.064 129.118 723.229 129.3C723.393 129.481 723.475 129.704 723.475 129.968C723.475 130.231 723.393 130.451 723.229 130.627C723.064 130.803 722.824 130.891 722.508 130.891C722.191 130.891 721.951 130.803 721.787 130.627C721.629 130.451 721.55 130.231 721.55 129.968ZM725.487 137.157C725.487 136.226 725.669 135.388 726.032 134.644C726.401 133.899 726.911 133.325 727.562 132.921C728.218 132.517 728.965 132.314 729.803 132.314C731.098 132.314 732.144 132.763 732.94 133.659C733.743 134.556 734.145 135.748 734.145 137.236V137.351C734.145 138.276 733.966 139.108 733.608 139.847C733.257 140.579 732.75 141.15 732.088 141.561C731.432 141.971 730.676 142.176 729.82 142.176C728.531 142.176 727.485 141.728 726.683 140.831C725.886 139.935 725.487 138.748 725.487 137.271V137.157ZM727.122 137.351C727.122 138.405 727.365 139.252 727.852 139.891C728.344 140.529 729 140.849 729.82 140.849C730.646 140.849 731.303 140.526 731.789 139.882C732.275 139.231 732.519 138.323 732.519 137.157C732.519 136.114 732.27 135.271 731.771 134.626C731.279 133.976 730.623 133.65 729.803 133.65C729 133.65 728.353 133.97 727.86 134.608C727.368 135.247 727.122 136.161 727.122 137.351ZM737.722 132.49L737.774 133.686C738.501 132.771 739.45 132.314 740.622 132.314C742.632 132.314 743.646 133.448 743.663 135.716V142H742.037V135.707C742.031 135.021 741.873 134.515 741.562 134.187C741.258 133.858 740.78 133.694 740.13 133.694C739.603 133.694 739.14 133.835 738.741 134.116C738.343 134.397 738.032 134.767 737.81 135.224V142H736.184V132.49H737.722ZM747.882 142H746.256V132.49H747.882V142ZM746.124 129.968C746.124 129.704 746.203 129.481 746.361 129.3C746.525 129.118 746.766 129.027 747.082 129.027C747.398 129.027 747.639 129.118 747.803 129.3C747.967 129.481 748.049 129.704 748.049 129.968C748.049 130.231 747.967 130.451 747.803 130.627C747.639 130.803 747.398 130.891 747.082 130.891C746.766 130.891 746.525 130.803 746.361 130.627C746.203 130.451 746.124 130.231 746.124 129.968ZM752.03 132.49L752.083 133.686C752.81 132.771 753.759 132.314 754.931 132.314C756.94 132.314 757.954 133.448 757.972 135.716V142H756.346V135.707C756.34 135.021 756.182 134.515 755.871 134.187C755.566 133.858 755.089 133.694 754.438 133.694C753.911 133.694 753.448 133.835 753.05 134.116C752.651 134.397 752.341 134.767 752.118 135.224V142H750.492V132.49H752.03ZM760.037 137.166C760.037 135.684 760.38 134.506 761.065 133.633C761.751 132.754 762.659 132.314 763.79 132.314C764.95 132.314 765.855 132.725 766.506 133.545L766.585 132.49H768.07V141.771C768.07 143.002 767.704 143.972 766.972 144.681C766.245 145.39 765.267 145.744 764.036 145.744C763.351 145.744 762.68 145.598 762.023 145.305C761.367 145.012 760.866 144.61 760.521 144.101L761.364 143.125C762.062 143.986 762.914 144.417 763.922 144.417C764.713 144.417 765.328 144.194 765.768 143.749C766.213 143.304 766.436 142.677 766.436 141.868V141.051C765.785 141.801 764.897 142.176 763.772 142.176C762.659 142.176 761.757 141.728 761.065 140.831C760.38 139.935 760.037 138.713 760.037 137.166ZM761.672 137.351C761.672 138.423 761.892 139.267 762.331 139.882C762.771 140.491 763.386 140.796 764.177 140.796C765.202 140.796 765.955 140.33 766.436 139.398V135.057C765.938 134.148 765.19 133.694 764.194 133.694C763.403 133.694 762.785 134.002 762.34 134.617C761.895 135.232 761.672 136.144 761.672 137.351ZM783.416 139.759L785.244 132.49H786.87L784.102 142H782.783L780.472 134.793L778.222 142H776.903L774.144 132.49H775.761L777.633 139.609L779.848 132.49H781.157L783.416 139.759ZM790.298 142H788.672V132.49H790.298V142ZM788.54 129.968C788.54 129.704 788.619 129.481 788.777 129.3C788.941 129.118 789.182 129.027 789.498 129.027C789.814 129.027 790.055 129.118 790.219 129.3C790.383 129.481 790.465 129.704 790.465 129.968C790.465 130.231 790.383 130.451 790.219 130.627C790.055 130.803 789.814 130.891 789.498 130.891C789.182 130.891 788.941 130.803 788.777 130.627C788.619 130.451 788.54 130.231 788.54 129.968ZM795.114 130.188V132.49H796.89V133.747H795.114V139.645C795.114 140.025 795.193 140.312 795.352 140.506C795.51 140.693 795.779 140.787 796.16 140.787C796.348 140.787 796.605 140.752 796.934 140.682V142C796.506 142.117 796.09 142.176 795.686 142.176C794.959 142.176 794.411 141.956 794.042 141.517C793.673 141.077 793.488 140.453 793.488 139.645V133.747H791.757V132.49H793.488V130.188H795.114ZM800.423 133.642C801.144 132.757 802.081 132.314 803.235 132.314C805.245 132.314 806.259 133.448 806.276 135.716V142H804.65V135.707C804.645 135.021 804.486 134.515 804.176 134.187C803.871 133.858 803.394 133.694 802.743 133.694C802.216 133.694 801.753 133.835 801.354 134.116C800.956 134.397 800.646 134.767 800.423 135.224V142H798.797V128.5H800.423V133.642ZM821.209 137.351C821.209 138.798 820.878 139.964 820.216 140.849C819.554 141.733 818.657 142.176 817.526 142.176C816.372 142.176 815.464 141.81 814.802 141.077V145.656H813.176V132.49H814.661L814.74 133.545C815.402 132.725 816.322 132.314 817.5 132.314C818.643 132.314 819.545 132.745 820.207 133.606C820.875 134.468 821.209 135.666 821.209 137.201V137.351ZM819.583 137.166C819.583 136.094 819.354 135.247 818.897 134.626C818.44 134.005 817.813 133.694 817.017 133.694C816.032 133.694 815.294 134.131 814.802 135.004V139.548C815.288 140.415 816.032 140.849 817.034 140.849C817.813 140.849 818.432 140.541 818.889 139.926C819.352 139.305 819.583 138.385 819.583 137.166ZM829.154 142C829.061 141.812 828.984 141.479 828.926 140.998C828.17 141.783 827.268 142.176 826.219 142.176C825.281 142.176 824.511 141.912 823.907 141.385C823.31 140.852 823.011 140.178 823.011 139.363C823.011 138.373 823.386 137.605 824.136 137.061C824.892 136.51 825.952 136.234 827.317 136.234H828.899V135.487C828.899 134.919 828.729 134.468 828.39 134.134C828.05 133.794 827.549 133.624 826.887 133.624C826.307 133.624 825.82 133.771 825.428 134.063C825.035 134.356 824.839 134.711 824.839 135.127H823.204C823.204 134.652 823.371 134.195 823.705 133.756C824.045 133.311 824.502 132.959 825.076 132.701C825.656 132.443 826.292 132.314 826.983 132.314C828.079 132.314 828.938 132.59 829.559 133.141C830.18 133.686 830.502 134.438 830.525 135.399V139.776C830.525 140.649 830.637 141.344 830.859 141.859V142H829.154ZM826.456 140.761C826.966 140.761 827.449 140.629 827.906 140.365C828.363 140.102 828.694 139.759 828.899 139.337V137.386H827.625C825.633 137.386 824.637 137.969 824.637 139.135C824.637 139.645 824.807 140.043 825.146 140.33C825.486 140.617 825.923 140.761 826.456 140.761ZM837.671 133.949C837.425 133.908 837.158 133.888 836.871 133.888C835.805 133.888 835.081 134.342 834.7 135.25V142H833.074V132.49H834.656L834.683 133.589C835.216 132.739 835.972 132.314 836.95 132.314C837.267 132.314 837.507 132.355 837.671 132.438V133.949ZM844.693 142C844.6 141.812 844.523 141.479 844.465 140.998C843.709 141.783 842.807 142.176 841.758 142.176C840.82 142.176 840.05 141.912 839.446 141.385C838.849 140.852 838.55 140.178 838.55 139.363C838.55 138.373 838.925 137.605 839.675 137.061C840.431 136.51 841.491 136.234 842.856 136.234H844.438V135.487C844.438 134.919 844.269 134.468 843.929 134.134C843.589 133.794 843.088 133.624 842.426 133.624C841.846 133.624 841.359 133.771 840.967 134.063C840.574 134.356 840.378 134.711 840.378 135.127H838.743C838.743 134.652 838.91 134.195 839.244 133.756C839.584 133.311 840.041 132.959 840.615 132.701C841.195 132.443 841.831 132.314 842.522 132.314C843.618 132.314 844.477 132.59 845.098 133.141C845.719 133.686 846.041 134.438 846.064 135.399V139.776C846.064 140.649 846.176 141.344 846.398 141.859V142H844.693ZM841.995 140.761C842.505 140.761 842.988 140.629 843.445 140.365C843.902 140.102 844.233 139.759 844.438 139.337V137.386H843.164C841.172 137.386 840.176 137.969 840.176 139.135C840.176 139.645 840.346 140.043 840.686 140.33C841.025 140.617 841.462 140.761 841.995 140.761ZM850.143 132.49L850.187 133.545C850.884 132.725 851.824 132.314 853.008 132.314C854.338 132.314 855.243 132.824 855.724 133.844C856.04 133.387 856.45 133.018 856.954 132.736C857.464 132.455 858.064 132.314 858.756 132.314C860.842 132.314 861.902 133.419 861.938 135.628V142H860.312V135.725C860.312 135.045 860.156 134.538 859.846 134.204C859.535 133.864 859.014 133.694 858.281 133.694C857.678 133.694 857.177 133.876 856.778 134.239C856.38 134.597 856.148 135.08 856.084 135.689V142H854.449V135.769C854.449 134.386 853.772 133.694 852.419 133.694C851.353 133.694 850.623 134.148 850.23 135.057V142H848.604V132.49H850.143ZM868.345 142.176C867.056 142.176 866.007 141.754 865.198 140.91C864.39 140.061 863.985 138.927 863.985 137.509V137.21C863.985 136.267 864.164 135.426 864.521 134.688C864.885 133.943 865.389 133.363 866.033 132.947C866.684 132.525 867.387 132.314 868.143 132.314C869.379 132.314 870.34 132.722 871.025 133.536C871.711 134.351 872.054 135.517 872.054 137.034V137.711H865.611C865.635 138.648 865.907 139.407 866.429 139.987C866.956 140.562 867.624 140.849 868.433 140.849C869.007 140.849 869.493 140.731 869.892 140.497C870.29 140.263 870.639 139.952 870.938 139.565L871.931 140.339C871.134 141.563 869.938 142.176 868.345 142.176ZM868.143 133.65C867.486 133.65 866.936 133.891 866.49 134.371C866.045 134.846 865.77 135.514 865.664 136.375H870.428V136.252C870.381 135.426 870.158 134.787 869.76 134.336C869.361 133.879 868.822 133.65 868.143 133.65ZM876.149 130.188V132.49H877.925V133.747H876.149V139.645C876.149 140.025 876.229 140.312 876.387 140.506C876.545 140.693 876.814 140.787 877.195 140.787C877.383 140.787 877.641 140.752 877.969 140.682V142C877.541 142.117 877.125 142.176 876.721 142.176C875.994 142.176 875.446 141.956 875.077 141.517C874.708 141.077 874.523 140.453 874.523 139.645V133.747H872.792V132.49H874.523V130.188H876.149ZM883.778 142.176C882.489 142.176 881.44 141.754 880.632 140.91C879.823 140.061 879.419 138.927 879.419 137.509V137.21C879.419 136.267 879.598 135.426 879.955 134.688C880.318 133.943 880.822 133.363 881.467 132.947C882.117 132.525 882.82 132.314 883.576 132.314C884.812 132.314 885.773 132.722 886.459 133.536C887.145 134.351 887.487 135.517 887.487 137.034V137.711H881.045C881.068 138.648 881.341 139.407 881.862 139.987C882.39 140.562 883.058 140.849 883.866 140.849C884.44 140.849 884.927 140.731 885.325 140.497C885.724 140.263 886.072 139.952 886.371 139.565L887.364 140.339C886.567 141.563 885.372 142.176 883.778 142.176ZM883.576 133.65C882.92 133.65 882.369 133.891 881.924 134.371C881.479 134.846 881.203 135.514 881.098 136.375H885.861V136.252C885.814 135.426 885.592 134.787 885.193 134.336C884.795 133.879 884.256 133.65 883.576 133.65ZM893.974 133.949C893.728 133.908 893.461 133.888 893.174 133.888C892.107 133.888 891.384 134.342 891.003 135.25V142H889.377V132.49H890.959L890.985 133.589C891.519 132.739 892.274 132.314 893.253 132.314C893.569 132.314 893.81 132.355 893.974 132.438V133.949ZM901.014 139.478C901.014 139.038 900.847 138.698 900.513 138.458C900.185 138.212 899.607 138.001 898.781 137.825C897.961 137.649 897.308 137.438 896.821 137.192C896.341 136.946 895.983 136.653 895.749 136.313C895.521 135.974 895.406 135.569 895.406 135.101C895.406 134.321 895.734 133.662 896.391 133.123C897.053 132.584 897.896 132.314 898.922 132.314C900 132.314 900.873 132.593 901.541 133.149C902.215 133.706 902.552 134.418 902.552 135.285H900.917C900.917 134.84 900.727 134.456 900.346 134.134C899.971 133.812 899.496 133.65 898.922 133.65C898.33 133.65 897.867 133.779 897.533 134.037C897.199 134.295 897.032 134.632 897.032 135.048C897.032 135.44 897.188 135.736 897.498 135.936C897.809 136.135 898.368 136.325 899.177 136.507C899.991 136.688 900.65 136.905 901.154 137.157C901.658 137.409 902.03 137.714 902.271 138.071C902.517 138.423 902.64 138.854 902.64 139.363C902.64 140.213 902.3 140.896 901.62 141.411C900.94 141.921 900.059 142.176 898.975 142.176C898.213 142.176 897.539 142.041 896.953 141.771C896.367 141.502 895.907 141.127 895.573 140.646C895.245 140.16 895.081 139.636 895.081 139.073H896.707C896.736 139.618 896.953 140.052 897.357 140.374C897.768 140.69 898.307 140.849 898.975 140.849C899.59 140.849 900.082 140.726 900.451 140.479C900.826 140.228 901.014 139.894 901.014 139.478Z" />
  <path
     id="path61"
     fill="#00010D"
     d="M589 285L599 290.774L599 279.226L589 285ZM637 285L627 279.226L627 290.773L637 285ZM598 286L628 286L628 284L598 284L598 286Z" />
  <path
     id="path63"
     fill="#00010D"
     d="M321 285L331 290.774L331 279.226L321 285ZM369 285L359 279.226L359 290.773L369 285ZM330 286L360 286L360 284L330 284L330 286Z" />
  <text
     id="text898"
     y="56.544281"
     x="422.3443"
     style="font-style:normal;font-weight:normal;font-size:18.6667px;line-height:1.25;font-family:sans-serif;letter-spacing:0.5px;fill:#000000;fill-opacity:1;stroke:none"
     xml:space="preserve"><tspan
       style="font-style:normal;font-variant:normal;font-weight:normal;font-stretch:normal;font-size:18.6667px;font-family:Roboto;-inkscape-font-specification:Roboto"
       y="56.544281"
       x="422.3443"
       id="tspan896"
       sodipodi:role="line"><tspan
   id="tspan900"
   style="font-style:normal;font-variant:normal;font-weight:bold;font-stretch:normal;font-family:Roboto;-inkscape-font-specification:'Roboto Bold'">MARBLE</tspan>RUN</tspan></text>
</svg>
